<svg width="72" height="79" viewBox="0 0 72 79" fill="none" xmlns="http://www.w3.org/2000/svg">
<path d="M64.749 73.1247H6.82178V6.13281H64.749V73.1247ZM7.19986 72.7474H64.3709V6.51008H7.19986V72.7474Z" fill="#01375E"/>
<path d="M1.27142 16.4047C0.569267 16.4047 0 15.8367 0 15.136V1.26868C0 0.56804 0.569267 0 1.27142 0H13.1343C13.8365 0 14.4057 0.56804 14.4057 1.26868C14.4057 1.96932 13.8365 2.53736 13.1343 2.53736H2.5437V15.1352C2.5437 15.8367 1.97443 16.4047 1.27142 16.4047Z" fill="#01375E"/>
<path d="M70.0207 16.4047C69.3186 16.4047 68.7493 15.8367 68.7493 15.136V2.53821H58.157C57.4548 2.53821 56.8856 1.97017 56.8856 1.26953C56.8856 0.568895 57.4548 0 58.157 0H70.0207C70.7229 0 71.2921 0.56804 71.2921 1.26868V15.136C71.2921 15.8367 70.7229 16.4047 70.0207 16.4047Z" fill="#01375E"/>
<path d="M13.1352 78.9993H1.27142C0.569267 78.9993 0 78.4313 0 77.7298V63.8624C0 63.1618 0.569267 62.5938 1.27142 62.5938C1.97357 62.5938 2.54284 63.1618 2.54284 63.8624V76.4602H13.1343C13.8365 76.4602 14.4057 77.0283 14.4057 77.7289C14.4066 78.4313 13.8373 78.9993 13.1352 78.9993Z" fill="#01375E"/>
<path d="M70.0207 78.9985H58.157C57.4548 78.9985 56.8856 78.4304 56.8856 77.7298C56.8856 77.0291 57.4548 76.4611 58.157 76.4611H68.7484V63.8624C68.7484 63.1618 69.3177 62.5938 70.0199 62.5938C70.722 62.5938 71.2913 63.1618 71.2913 63.8624V77.7298C71.2921 78.4304 70.7229 78.9985 70.0207 78.9985Z" fill="#01375E"/>
<path d="M35.1386 55.1897C25.8511 55.1897 18.2955 47.6504 18.2955 38.383C18.2955 29.1155 25.8511 21.5762 35.1386 21.5762C44.426 21.5762 51.9817 29.1155 51.9817 38.383C51.9817 47.6504 44.4252 55.1897 35.1386 55.1897ZM35.1386 21.9543C26.0595 21.9543 18.6736 29.3243 18.6736 38.3838C18.6736 47.4434 26.0595 54.8133 35.1386 54.8133C44.2177 54.8133 51.6028 47.4425 51.6028 38.3838C51.6028 29.3251 44.2169 21.9543 35.1386 21.9543Z" fill="#01375E"/>
<path d="M35.1386 51.1394C28.0905 51.1394 22.3558 45.417 22.3558 38.3841C22.3558 31.3512 28.0905 25.6289 35.1386 25.6289C42.1867 25.6289 47.9214 31.3512 47.9214 38.3841C47.9214 45.417 42.1867 51.1394 35.1386 51.1394ZM35.1386 26.0053C28.2988 26.0053 22.7339 31.5582 22.7339 38.3833C22.7339 45.2083 28.2988 50.7612 35.1386 50.7612C41.9783 50.7612 47.5433 45.2083 47.5433 38.3833C47.5433 31.5582 41.9783 26.0053 35.1386 26.0053Z" fill="#01375E"/>
<path d="M35.1386 34.5472C35.034 34.5472 34.95 34.4625 34.95 34.359V16.0945C34.95 15.9901 35.0348 15.9062 35.1386 15.9062C35.2432 15.9062 35.3272 15.9909 35.3272 16.0945V34.359C35.3272 34.4625 35.2432 34.5472 35.1386 34.5472Z" fill="#01375E"/>
<path d="M57.9933 38.5717H39.6893C39.5847 38.5717 39.5007 38.487 39.5007 38.3835C39.5007 38.28 39.5855 38.1953 39.6893 38.1953H57.9933C58.0979 38.1953 58.1819 38.28 58.1819 38.3835C58.1819 38.487 58.0979 38.5717 57.9933 38.5717Z" fill="#01375E"/>
<path d="M35.1386 60.8597C35.034 60.8597 34.95 60.775 34.95 60.6715V42.407C34.95 42.3026 35.0348 42.2188 35.1386 42.2188C35.2432 42.2188 35.3272 42.3034 35.3272 42.407V60.6715C35.3272 60.775 35.2432 60.8597 35.1386 60.8597Z" fill="#01375E"/>
<path d="M31.0808 38.5717H12.7768C12.6722 38.5717 12.5882 38.487 12.5882 38.3835C12.5882 38.28 12.6731 38.1953 12.7768 38.1953H31.0808C31.1854 38.1953 31.2694 38.28 31.2694 38.3835C31.2694 38.487 31.1854 38.5717 31.0808 38.5717Z" fill="#01375E"/>
</svg>
