<svg width="79" height="105" viewBox="0 0 79 105" fill="none" xmlns="http://www.w3.org/2000/svg">
<path d="M44.3483 50.9748H49.9651H50.396V50.9505C54.9977 50.7209 58.677 46.8358 58.677 42.0767C58.677 37.1716 54.7686 33.1816 49.9651 33.1816C45.1995 33.1816 41.3185 37.1139 41.2608 41.9688H41.2578V48.748H37.3448V50.9748H41.2578V51.1861H43.4441V50.9748H44.3483ZM49.9651 35.4084C53.5655 35.4084 56.4952 38.3998 56.4952 42.0767C56.4952 45.7536 53.567 48.7465 49.9651 48.7465H44.2179H43.4441V41.9673H43.441C43.5002 38.3436 46.4011 35.4084 49.9651 35.4084Z" fill="#01375E"/>
<path d="M41.2578 72.6383H37.3448V75.4913H49.7421C50.2185 75.4913 50.6038 75.1524 50.6038 74.7359V73.3968C50.6038 72.9788 50.2185 72.6383 49.7421 72.6383H43.4456V53.2051H41.2593V72.6383H41.2578Z" fill="#01375E"/>
<path d="M49.7421 89.0132C50.2185 89.0132 50.6038 88.6742 50.6038 88.2578V86.9186C50.6038 86.4991 50.2185 86.1602 49.7421 86.1602H37.3448V89.0132H49.7421Z" fill="#01375E"/>
<path d="M49.7421 82.2519C50.2185 82.2519 50.6038 81.913 50.6038 81.495V80.1573C50.6038 79.7393 50.2185 79.4004 49.7421 79.4004H37.3448V82.2519H49.7421Z" fill="#01375E"/>
<path d="M52.8084 68.7349C52.8448 69.0055 52.8903 69.2745 52.8903 69.5542V87.5647C52.8903 90.857 50.267 93.5353 47.0429 93.5353H45.1418V94.1828C45.1418 97.3976 42.4245 96.6878 39.0836 96.6878H37.3448V104.998H78.5V79.1014V53.2051H68.2385C64.8278 59.89 59.4098 65.3453 52.8084 68.7349Z" fill="#01375E"/>
<path d="M32.9601 50.9745H35.7351V48.7477H32.9601V41.9335H32.948C32.9449 41.7496 32.9343 41.5672 32.9207 41.3848H30.7328C30.7526 41.5824 30.7662 41.7815 30.7692 41.9836H30.7723V48.7461H29.9894H24.2437C20.6418 48.7461 17.7136 45.7533 17.7136 42.0764C17.7136 41.8423 17.7257 41.6128 17.7485 41.3848H15.5606C15.5439 41.6128 15.5318 41.8438 15.5318 42.0764C15.5318 46.6713 18.9577 50.4592 23.3349 50.9258V50.9745H24.2437H29.953H30.7723V65.4373H32.9601V50.9745Z" fill="#01375E"/>
<path d="M2.32286 41.3848H0V65.4373H16.1736C8.74829 59.7829 3.57912 51.204 2.32286 41.3848Z" fill="#01375E"/>
<path d="M41.2578 50.9746H37.3448V51.1859H41.2578V50.9746Z" fill="#22A1C3"/>
<path d="M41.2578 53.2051H37.3448V72.6398H41.2578V53.2051Z" fill="#FCC568"/>
<path d="M35.7351 50.9746H32.9601V65.4374H35.7351V50.9746Z" fill="#22A1C3"/>
<path d="M43.4456 48.7462H44.2194H49.9666C53.567 48.7462 56.4967 45.7533 56.4967 42.0765C56.4967 38.4011 53.5685 35.4082 49.9666 35.4082C46.4027 35.4082 43.5002 38.3418 43.4426 41.967H43.4456V48.7462Z" fill="#22A1C3"/>
<path d="M41.2578 48.7455V41.9663H41.2608C41.3185 37.1114 45.1995 33.1792 49.9651 33.1792C54.7686 33.1792 58.677 37.1692 58.677 42.0742C58.677 46.8333 54.9977 50.7185 50.396 50.948V50.9723H49.9651H44.3483H43.4456V51.1836H69.1928C71.1152 46.7573 72.1863 41.8629 72.1863 36.7177C72.1863 17.0504 56.5787 1.03415 37.3464 0.900391V48.7455H41.2578Z" fill="#22A1C3"/>
<path d="M43.4456 72.6387H49.7421C50.2185 72.6387 50.6038 72.9777 50.6038 73.3972V74.7363C50.6038 75.1528 50.2185 75.4918 49.7421 75.4918H37.3448V79.3997H49.7421C50.2185 79.3997 50.6038 79.7387 50.6038 80.1567V81.4943C50.6038 81.9123 50.2185 82.2512 49.7421 82.2512H37.3448V86.1576H49.7421C50.2185 86.1576 50.6038 86.4966 50.6038 86.9161V88.2552C50.6038 88.6717 50.2185 89.0107 49.7421 89.0107H37.3448V96.6882H39.0836C42.4245 96.6882 45.1418 97.3981 45.1418 94.1833V93.5357H47.0429C50.2655 93.5357 52.8903 90.8575 52.8903 87.5652V69.5562C52.8903 69.2765 52.8448 69.0059 52.8084 68.7369C59.4098 65.3473 64.8278 59.892 68.2385 53.207H43.4456V72.6387Z" fill="#FCC568"/>
<path d="M32.9601 41.9335V48.7477H35.7351V41.3848H32.9222C32.9358 41.5656 32.9465 41.748 32.9495 41.9335H32.9601Z" fill="#22A1C3"/>
<path d="M30.7738 50.9745H29.9545H24.2452H23.3364V50.9258C18.9592 50.4592 15.5333 46.6713 15.5333 42.0764C15.5333 41.8438 15.5455 41.6128 15.5621 41.3848H2.32288C3.57913 51.204 8.7483 59.7829 16.1736 65.4373H30.7738V50.9745Z" fill="#22A1C3"/>
<path d="M17.7136 42.0764C17.7136 45.7533 20.6418 48.7461 24.2437 48.7461H29.9894H30.7723V41.9836H30.7692C30.7662 41.7815 30.7541 41.5824 30.7328 41.3848H17.7485C17.7257 41.6128 17.7136 41.8423 17.7136 42.0764Z" fill="#22A1C3"/>
</svg>
