<svg width="61" height="83" viewBox="0 0 61 83" fill="none" xmlns="http://www.w3.org/2000/svg">
<path d="M56.8286 20.2713C58.6 11.0152 52.5274 2.07848 43.2713 0.307091C34.0152 -1.46429 25.0784 4.60831 23.307 13.8644C22.0247 20.5657 24.8539 27.0974 30.0283 30.8647C29.6491 32.8507 29.22 35.0911 29.22 35.0911L43.91 37.9004C43.91 37.9004 44.4539 35.5452 44.888 33.4345C50.8209 31.6831 55.5862 26.7631 56.8286 20.2713Z" fill="#01375E" fill-opacity="0.4"/>
<path d="M35.6019 36.9765C36.6847 31.1234 38.1766 25.3452 39.1197 19.4622C39.5289 16.9324 40.5318 12.7309 37.6976 11.249C34.3494 9.49754 32.613 14.5722 32.608 17.0072C32.603 20.2007 34.3594 23.2245 37.2685 24.6117C40.1127 25.9689 43.5506 25.7693 46.0805 23.8233C48.4157 22.027 50.0125 18.7736 49.3538 15.7997C49.0694 14.5123 48.2261 13.1551 46.8389 12.9056C45.332 12.6361 44.1794 13.7389 43.5157 14.9714C42.8022 16.3036 42.423 17.8405 42.0138 19.2876C41.5447 20.9492 41.1256 22.6257 40.7314 24.3073C39.9131 27.7553 39.1796 31.2282 38.3662 34.6761C38.1816 35.4645 37.987 36.2579 37.7874 37.0413C37.5878 37.8197 38.7954 38.154 38.99 37.3706C40.4769 31.5026 41.5547 25.5348 43.1914 19.7067C43.5407 18.4692 43.86 17.1619 44.3989 15.9893C44.843 15.0163 45.8709 13.4994 47.1134 14.3277C48.1213 15.0013 48.306 16.4633 48.2261 17.5661C48.1313 18.8983 47.6124 20.1857 46.8389 21.2685C45.2023 23.5588 42.388 24.6666 39.6337 24.0927C36.8344 23.5139 34.6688 21.4581 34.0401 18.6588C33.7407 17.3315 33.8105 15.9244 34.2496 14.637C34.6289 13.5093 35.6817 11.5384 37.1537 12.3617C38.5708 13.1501 38.4012 15.1061 38.2714 16.4733C38.1766 17.4912 38.0219 18.4992 37.8573 19.5071C36.9042 25.2554 35.4622 30.9088 34.3993 36.6371C34.2546 37.4255 35.4522 37.7648 35.6019 36.9765Z" fill="white"/>
<path d="M31.8197 30.6465C31.8197 30.6515 31.7548 30.6166 31.6351 30.5417C31.5203 30.4669 31.3407 30.3721 31.1261 30.2224C30.687 29.938 30.0733 29.4889 29.3747 28.8602C28.6761 28.2364 27.9027 27.4231 27.1692 26.4251C26.4357 25.4272 25.7471 24.2346 25.2132 22.9073C24.6893 21.575 24.3699 20.2378 24.2152 19.0103C24.0605 17.7778 24.0655 16.6551 24.1454 15.722C24.2252 14.7889 24.3599 14.0404 24.4797 13.5314C24.5346 13.277 24.5945 13.0824 24.6294 12.9476C24.6643 12.8129 24.6893 12.748 24.6943 12.748C24.6992 12.748 24.6843 12.8179 24.6543 12.9526C24.6294 13.0874 24.5745 13.282 24.5246 13.5414C24.4198 14.0504 24.2951 14.7989 24.2302 15.727C24.1603 16.6551 24.1703 17.7728 24.33 18.9903C24.4847 20.2128 24.809 21.5351 25.328 22.8574C25.8569 24.1747 26.5355 25.3573 27.259 26.3503C27.9825 27.3482 28.741 28.1616 29.4296 28.7903C30.1182 29.419 30.717 29.8781 31.1461 30.1775C31.3557 30.3322 31.5303 30.4369 31.6401 30.5168C31.7648 30.6016 31.8247 30.6415 31.8197 30.6465Z" fill="#01375E"/>
<path d="M26.0215 9.68796C26.0515 9.70293 25.9117 10.0722 25.7072 10.5163C25.5026 10.9604 25.313 11.3047 25.283 11.2947C25.2531 11.2797 25.3928 10.9105 25.5974 10.4664C25.802 10.0223 25.9916 9.67299 26.0215 9.68796Z" fill="#01375E"/>
<path d="M54.2289 23.8162C54.2239 23.8162 54.2439 23.7564 54.2888 23.6466C54.3387 23.5268 54.4035 23.3672 54.4834 23.1676C54.5283 23.0628 54.5732 22.948 54.6281 22.8233C54.678 22.6935 54.7179 22.5538 54.7728 22.3991C54.8726 22.0948 55.0023 21.7555 55.0921 21.3613C55.142 21.1667 55.1969 20.9621 55.2518 20.7525C55.3067 20.5379 55.3366 20.3134 55.3815 20.0789C55.4813 19.6148 55.5263 19.1109 55.5861 18.5869C55.666 17.5291 55.666 16.3565 55.5213 15.139C55.3616 13.9214 55.0772 12.7838 54.7379 11.7758C54.5482 11.2768 54.3836 10.8028 54.174 10.3787C54.0742 10.1641 53.9894 9.95454 53.8846 9.75994C53.7798 9.56533 53.68 9.38071 53.5802 9.20607C53.4006 8.8468 53.186 8.54741 53.0164 8.27796C52.9265 8.14324 52.8517 8.01849 52.7719 7.90373C52.692 7.79395 52.6172 7.69415 52.5473 7.60434C52.4176 7.42969 52.3178 7.28998 52.238 7.18519C52.1681 7.09039 52.1332 7.0355 52.1382 7.0355C52.1432 7.03051 52.1831 7.08041 52.2579 7.17022C52.3378 7.27002 52.4475 7.40474 52.5823 7.5744C52.6521 7.66421 52.7319 7.76401 52.8168 7.8688C52.8966 7.97857 52.9765 8.10332 53.0713 8.23804C53.2459 8.50749 53.4654 8.80189 53.6551 9.16116C53.7549 9.3358 53.8597 9.52043 53.9644 9.71503C54.0692 9.90963 54.159 10.1192 54.2638 10.3338C54.4784 10.7579 54.653 11.2369 54.8426 11.7359C55.1869 12.7488 55.4813 13.8915 55.641 15.119C55.7857 16.3465 55.7807 17.5291 55.6959 18.5919C55.631 19.1208 55.5811 19.6298 55.4764 20.0938C55.4265 20.3284 55.3965 20.5529 55.3366 20.7675C55.2768 20.982 55.2219 21.1866 55.172 21.3812C55.0772 21.7754 54.9374 22.1147 54.8327 22.4191C54.7778 22.5688 54.7329 22.7135 54.678 22.8382C54.6231 22.963 54.5682 23.0778 54.5233 23.1825C54.4335 23.3771 54.3586 23.5368 54.3037 23.6566C54.2638 23.7614 54.2339 23.8162 54.2289 23.8162Z" fill="#01375E"/>
<path d="M31.6899 44.3965C31.6899 44.3965 32.2188 44.9005 32.4883 45.4294C32.628 45.7038 32.8924 45.8934 33.1968 45.9483L36.1508 46.5122C36.4801 46.577 36.8244 46.4722 37.0639 46.2327C37.3433 45.9533 37.8024 45.6439 38.2265 45.6389L31.6899 44.3965Z" fill="#01375E" fill-opacity="0.4"/>
<path d="M30.0533 35.5566C30.0433 35.6165 29.8487 40.3668 29.7739 42.1781C29.7439 42.9216 30.0683 43.6551 30.677 44.0842C30.9016 44.2389 31.166 44.3687 31.4854 44.4285C32.7528 44.668 37.9522 45.661 37.9522 45.661C37.9522 45.661 39.6437 45.9804 40.2824 44.713C40.9561 43.3807 42.7723 37.9767 42.7723 37.9767L30.0533 35.5566Z" fill="#01375E"/>
<path d="M40.8113 44.1721L29.5393 42.0664C29.3647 42.0315 29.2449 41.8618 29.2799 41.6872L29.2849 41.6523C29.3198 41.4776 29.4894 41.3579 29.6641 41.3928L40.9361 43.4985C41.1107 43.5334 41.2305 43.7031 41.1956 43.8777L41.1906 43.9126C41.1606 44.0923 40.986 44.207 40.8113 44.1721Z" fill="#E0E0E0"/>
<path d="M40.8113 44.1711C40.8063 44.1611 40.9061 44.2011 41.0458 44.1113C41.1107 44.0663 41.1756 43.9765 41.1806 43.8568C41.1955 43.742 41.1356 43.5973 40.9959 43.5374C40.3872 43.4127 39.474 43.263 38.3613 43.0534C36.1259 42.6393 33.0472 42.0704 29.6491 41.4417C29.5593 41.4267 29.4645 41.4567 29.4046 41.5215C29.3747 41.5565 29.3497 41.5914 29.3397 41.6363C29.3297 41.6812 29.3198 41.7311 29.3248 41.776C29.3347 41.8658 29.3896 41.9457 29.4695 41.9856C29.5393 42.0205 29.6641 42.0305 29.7639 42.0505C30.178 42.1303 30.5872 42.2051 30.9864 42.28C31.7897 42.4297 32.5631 42.5744 33.2966 42.7141C34.7686 42.9935 36.0909 43.243 37.2087 43.4576C38.3164 43.6721 39.2146 43.8468 39.8433 43.9665C40.1477 44.0264 40.3872 44.0763 40.5568 44.1113C40.6317 44.1262 40.6966 44.1412 40.7415 44.1512C40.7914 44.1661 40.8113 44.1711 40.8113 44.1711C40.8113 44.1711 40.7913 44.1711 40.7464 44.1661C40.6965 44.1562 40.6367 44.1512 40.5568 44.1362C40.3872 44.1063 40.1427 44.0663 39.8383 44.0115C39.2046 43.8967 38.3064 43.737 37.1937 43.5374C36.076 43.3328 34.7487 43.0883 33.2767 42.8189C32.5382 42.6842 31.7648 42.5395 30.9664 42.3898C30.5672 42.3149 30.1581 42.2401 29.7439 42.1602L29.5892 42.1303C29.5393 42.1203 29.4794 42.1103 29.4196 42.0804C29.3098 42.0255 29.23 41.9107 29.215 41.786C29.21 41.7211 29.22 41.6662 29.2349 41.6064C29.2499 41.5465 29.2848 41.4916 29.3297 41.4467C29.4146 41.3569 29.5493 41.312 29.674 41.3369C33.0671 41.9756 36.1458 42.5594 38.3763 42.9786C39.489 43.1981 40.3872 43.3578 41.0159 43.4975C41.1756 43.5674 41.2354 43.737 41.2155 43.8618C41.2055 43.9865 41.1307 44.0863 41.0608 44.1312C40.9061 44.221 40.8063 44.1711 40.8113 44.1711Z" fill="#01375E"/>
<path d="M41.3252 42.7658L29.5742 40.5703C29.3996 40.5354 29.2798 40.3657 29.3147 40.1911L29.3197 40.1562C29.3546 39.9815 29.5243 39.8618 29.6989 39.8967L41.45 42.0922C41.6246 42.1271 41.7444 42.2968 41.7094 42.4714L41.7044 42.5064C41.6745 42.681 41.5048 42.7958 41.3252 42.7658Z" fill="#E0E0E0"/>
<path d="M41.3252 42.7687C41.3202 42.7587 41.425 42.8036 41.5697 42.7038C41.6396 42.6539 41.6945 42.5591 41.6995 42.4344C41.7094 42.3146 41.6346 42.1649 41.4799 42.12C40.8262 42.0003 39.8882 41.8306 38.7405 41.626C36.4202 41.1969 33.2218 40.6081 29.694 39.9544C29.6041 39.9345 29.5043 39.9694 29.4395 40.0393C29.4095 40.0742 29.3896 40.1141 29.3796 40.159C29.3646 40.2139 29.3646 40.2538 29.3696 40.3037C29.3846 40.3935 29.4544 40.4734 29.5393 40.5083C29.6241 40.5333 29.7489 40.5482 29.8536 40.5732C30.2828 40.653 30.7069 40.7328 31.126 40.8127C31.9593 40.9674 32.7627 41.1221 33.5261 41.2668C35.053 41.5562 36.4302 41.8156 37.5879 42.0402C38.7405 42.2647 39.6736 42.4444 40.3273 42.5691C40.6466 42.634 40.8911 42.6839 41.0707 42.7188C41.1506 42.7338 41.2154 42.7487 41.2653 42.7587C41.3053 42.7587 41.3252 42.7637 41.3252 42.7687C41.3252 42.7687 41.3003 42.7687 41.2603 42.7637C41.2105 42.7537 41.1456 42.7437 41.0658 42.7338C40.8861 42.7038 40.6366 42.6589 40.3173 42.604C39.6636 42.4843 38.7255 42.3196 37.5729 42.11C36.4103 41.8955 35.0331 41.646 33.5062 41.3616C32.7427 41.2219 31.9394 41.0722 31.1061 40.9175C30.6919 40.8376 30.2678 40.7628 29.8337 40.683C29.7239 40.658 29.6241 40.653 29.4994 40.6131C29.3796 40.5682 29.2848 40.4584 29.2598 40.3287C29.2449 40.2638 29.2549 40.194 29.2698 40.1391C29.2848 40.0742 29.3147 40.0143 29.3597 39.9644C29.4445 39.8646 29.5842 39.8197 29.7139 39.8447C33.2417 40.5083 36.4352 41.1121 38.7555 41.5512C39.9131 41.7757 40.8462 41.9504 41.4949 42.0851C41.6695 42.14 41.7494 42.3096 41.7344 42.4394C41.7244 42.5691 41.6595 42.6739 41.5847 42.7238C41.425 42.8186 41.3202 42.7637 41.3252 42.7687Z" fill="#01375E"/>
<path d="M41.7544 41.3403L29.699 39.0898C29.5243 39.0549 29.4045 38.8853 29.4395 38.7106L29.4445 38.6757C29.4794 38.501 29.6491 38.3813 29.8237 38.4162L41.8791 40.6666C42.0537 40.7016 42.1735 40.8712 42.1386 41.0459L42.1336 41.0808C42.1036 41.2554 41.934 41.3752 41.7544 41.3403Z" fill="#E0E0E0"/>
<path d="M41.7544 41.3388C41.7494 41.3288 41.8592 41.3737 42.0039 41.2689C42.0737 41.219 42.1286 41.1192 42.1286 40.9895C42.1336 40.8697 42.0438 40.72 41.8891 40.6851C41.2205 40.5653 40.2624 40.3907 39.0798 40.1761C36.7047 39.737 33.4314 39.1333 29.8187 38.4646C29.7239 38.4447 29.6241 38.4796 29.5643 38.5545C29.5343 38.5894 29.5144 38.6343 29.5044 38.6792C29.4944 38.7341 29.4894 38.779 29.4994 38.8239C29.5194 38.9187 29.5942 38.9936 29.684 39.0185C29.7838 39.0385 29.9036 39.0584 30.0084 39.0834C30.4475 39.1682 30.8816 39.248 31.3107 39.3279C32.164 39.4875 32.9873 39.6422 33.7707 39.7919C35.3375 40.0863 36.7446 40.3558 37.9322 40.5803C39.1098 40.8098 40.0678 40.9945 40.7365 41.1242C41.0608 41.1891 41.3153 41.239 41.4999 41.2789C41.5797 41.2988 41.6446 41.3088 41.6995 41.3238C41.7344 41.3338 41.7544 41.3388 41.7544 41.3388C41.7544 41.3388 41.7294 41.3388 41.6845 41.3338C41.6346 41.3238 41.5698 41.3138 41.4849 41.3038C41.3003 41.2739 41.0458 41.229 40.7215 41.1741C40.0529 41.0543 39.0948 40.8797 37.9122 40.6651C36.7246 40.4456 35.3125 40.1861 33.7457 39.9017C32.9623 39.757 32.139 39.6023 31.2857 39.4476C30.8616 39.3678 30.4275 39.288 29.9834 39.2031C29.8686 39.1832 29.7688 39.1632 29.6441 39.1383C29.5194 39.0983 29.4146 38.9936 29.3846 38.8638C29.3697 38.7989 29.3747 38.7241 29.3846 38.6692C29.3946 38.6043 29.4246 38.5395 29.4695 38.4896C29.5543 38.3848 29.699 38.3349 29.8337 38.3598C33.4463 39.0385 36.7147 39.6572 39.0898 40.1063C40.2674 40.3358 41.2255 40.5204 41.8941 40.6502C42.0737 40.6901 42.1685 40.8647 42.1586 40.9995C42.1536 41.1342 42.0887 41.244 42.0139 41.2939C41.8592 41.3937 41.7494 41.3338 41.7544 41.3388Z" fill="#01375E"/>
<path d="M42.2784 39.9301L29.734 37.5898C29.5593 37.5549 29.4396 37.3853 29.4745 37.2106L29.4795 37.1757C29.5144 37.001 29.6841 36.8813 29.8587 36.9162L42.4031 39.2564C42.5778 39.2914 42.6975 39.461 42.6626 39.6357L42.6576 39.6706C42.6227 39.8452 42.453 39.96 42.2784 39.9301Z" fill="#E0E0E0"/>
<path d="M42.2784 39.9284C42.2734 39.9184 42.3882 39.9633 42.5329 39.8536C42.6027 39.7987 42.6526 39.6889 42.6526 39.5592C42.6476 39.4344 42.5428 39.2847 42.3732 39.2698C41.6796 39.145 40.6816 38.9654 39.4591 38.7458C36.9942 38.2918 33.6011 37.663 29.8487 36.9695C29.749 36.9495 29.6442 36.9894 29.5843 37.0692C29.5244 37.1441 29.5044 37.2639 29.5344 37.3537C29.5643 37.4485 29.6492 37.5183 29.744 37.5383C29.8587 37.5583 29.9735 37.5832 30.0883 37.6032C30.5473 37.688 30.9964 37.7728 31.4355 37.8576C32.3187 38.0223 33.172 38.182 33.9853 38.3367C35.607 38.646 37.069 38.9205 38.3015 39.155C39.524 39.3895 40.517 39.5841 41.2106 39.7138C41.5499 39.7837 41.8143 39.8336 41.999 39.8735C42.0838 39.8935 42.1536 39.9085 42.2035 39.9184C42.2534 39.9184 42.2784 39.9234 42.2784 39.9284C42.2784 39.9284 42.2534 39.9284 42.2085 39.9184C42.1536 39.9085 42.0888 39.8985 42.0039 39.8835C41.8143 39.8486 41.5499 39.8037 41.2106 39.7438C40.517 39.619 39.519 39.4394 38.2965 39.2199C37.064 38.9953 35.602 38.7259 33.9753 38.4265C33.162 38.2768 32.3087 38.1171 31.4255 37.9524C30.9814 37.8676 30.5323 37.7878 30.0783 37.703C29.9635 37.683 29.8488 37.658 29.734 37.6381C29.5993 37.6131 29.4795 37.5133 29.4396 37.3786C29.4196 37.3138 29.4146 37.2389 29.4296 37.174C29.4396 37.1142 29.4645 37.0393 29.5094 36.9894C29.5943 36.8796 29.744 36.8247 29.8787 36.8497C33.626 37.5583 37.0191 38.1969 39.4791 38.661C40.7016 38.8955 41.6946 39.0901 42.3882 39.2199C42.5778 39.2448 42.6925 39.4145 42.6925 39.5542C42.6925 39.6939 42.6327 39.8087 42.5528 39.8685C42.478 39.9284 42.3981 39.9384 42.3532 39.9384C42.2983 39.9384 42.2784 39.9284 42.2784 39.9284Z" fill="#01375E"/>
<path d="M29.1851 31.2598C29.1601 31.3795 28.8907 34.2586 28.7509 35.7356C28.7011 36.2795 28.9006 36.8134 29.2948 37.1877L29.8737 37.7415L42.3781 40.1217L43.1066 39.8223C43.6156 39.6127 44.0048 39.1836 44.1495 38.6497L45.3571 34.3335L29.1851 31.2598Z" fill="#01375E"/>
<g opacity="0.3">
<g opacity="0.3">
<path opacity="0.3" d="M29.9634 42.1211C31.1161 42.6251 32.3136 42.8746 33.6359 43.1191C34.7038 43.3186 35.7466 43.5482 36.9093 43.7428C37.7625 43.8875 38.5509 43.9923 39.4042 44.117C39.8383 44.1819 40.3273 44.1619 40.4271 44.0921L29.9634 42.1211Z" fill="#01375E"/>
</g>
</g>
<g opacity="0.3">
<g opacity="0.3">
<path opacity="0.3" d="M29.7938 40.5742C31.0412 41.0932 32.3286 41.3626 33.7557 41.6271C34.9083 41.8416 36.031 42.0861 37.2835 42.3007C38.2016 42.4554 39.0499 42.5751 39.973 42.7099C40.437 42.7797 40.966 42.7647 41.0757 42.6999L29.7938 40.5742Z" fill="#01375E"/>
</g>
</g>
<g opacity="0.3">
<g opacity="0.3">
<path opacity="0.3" d="M30.0682 39.1328C31.3157 39.6518 32.6031 39.9212 34.0302 40.1857C35.1828 40.4002 36.3055 40.6447 37.558 40.8593C38.4761 41.014 39.3243 41.1337 40.2475 41.2685C40.7115 41.3383 41.2404 41.3233 41.3502 41.2585L30.0682 39.1328Z" fill="#01375E"/>
</g>
</g>
<g opacity="0.3">
<g opacity="0.3">
<path opacity="0.3" d="M30.3427 37.6855C31.5902 38.2045 32.8775 38.4739 34.3046 38.7384C35.4573 38.953 36.58 39.1975 37.8324 39.412C38.7505 39.5667 39.5988 39.6865 40.5219 39.8212C40.986 39.891 41.5149 39.8761 41.6247 39.8112L30.3427 37.6855Z" fill="#01375E"/>
</g>
</g>
<path d="M43.7304 39.1968C43.7254 39.2267 40.3773 38.613 36.2507 37.8296C32.1241 37.0462 28.7859 36.3826 28.7909 36.3526C28.7959 36.3227 32.1441 36.9364 36.2706 37.7198C40.3972 38.5082 43.7354 39.1669 43.7304 39.1968Z" fill="#01375E"/>
<path d="M45.2822 34.2381C45.2772 34.273 41.6397 33.6193 37.1538 32.786C32.668 31.9527 29.0404 31.2442 29.0454 31.2142C29.0503 31.1793 32.6879 31.833 37.1738 32.6663C41.6596 33.4996 45.2922 34.2031 45.2822 34.2381Z" fill="#01375E"/>
<g opacity="0.3">
<g opacity="0.3">
<g opacity="0.3">
<g opacity="0.3">
<g opacity="0.3">
<g opacity="0.3">
<path opacity="0.3" d="M56.8286 20.2713C58.6 11.0152 52.5274 2.07848 43.2713 0.307091C34.0152 -1.46429 25.0784 4.60831 23.307 13.8644C22.0247 20.5657 24.8539 27.0974 30.0283 30.8647C29.6491 32.8507 29.22 35.0911 29.22 35.0911L43.91 37.9004C43.91 37.9004 44.4539 35.5452 44.888 33.4345C50.8209 31.6831 55.5862 26.7631 56.8286 20.2713Z" fill="#01375E"/>
</g>
</g>
</g>
</g>
</g>
</g>
<path d="M36.4286 29.765C30.2661 20.6486 17.8764 18.2585 8.76503 24.4209C-0.351363 30.5834 -2.7415 42.9731 3.42093 52.0845C7.88182 58.686 15.6061 61.7547 22.991 60.6121C24.3133 62.5681 25.8053 64.7736 25.8053 64.7736L40.2707 54.9935C40.2707 54.9935 38.7788 52.5984 37.4016 50.4877C40.8645 44.1557 40.7547 36.157 36.4286 29.765Z" fill="#01375E" fill-opacity="0.4"/>
<path d="M32.5365 61.1158C28.6295 55.4074 25.1166 49.4396 21.0799 43.8211C20.2516 42.6684 19.3983 41.5207 18.4652 40.4479C17.2477 39.0458 15.6509 37.7684 13.68 38.0578C11.7339 38.3422 10.8857 40.1086 11.1352 41.9249C11.3747 43.6763 12.2978 45.333 13.4804 46.6303C15.8755 49.2699 19.5779 50.4974 23.0508 49.5943C26.5238 48.6911 29.4628 45.8818 30.2262 42.3391C30.9647 38.9161 29.827 34.8593 26.9978 32.6638C25.7104 31.6659 23.7644 30.9773 22.2575 31.9154C20.6707 32.9033 20.6907 34.9092 21.1996 36.496C21.7335 38.1576 22.6716 39.7194 23.5249 41.2363C24.4979 42.9778 25.5258 44.6893 26.5687 46.3908C28.7293 49.9086 30.9747 53.3716 33.1403 56.8844C33.6293 57.6828 34.1183 58.4811 34.5923 59.2895C35.0015 59.9781 36.0793 59.3543 35.6701 58.6608C32.0375 52.5333 27.9758 46.6702 24.5079 40.4429C23.7594 39.1007 22.9211 37.7185 22.4321 36.2515C21.983 34.9142 21.8782 32.8035 23.7993 32.7237C25.3961 32.6538 26.8032 33.9562 27.6465 35.1837C28.5546 36.506 29.0935 38.0728 29.1883 39.6745C29.3879 42.9927 27.6515 46.0066 24.7424 47.5983C21.8533 49.1751 18.4203 48.9256 15.7557 47.0145C14.4783 46.0964 13.4255 44.809 12.8217 43.357C12.2778 42.0497 11.8138 39.7843 13.675 39.3302C15.4514 38.9011 16.8635 40.4729 17.8864 41.6904C18.6698 42.6235 19.3883 43.6015 20.0969 44.5895C23.7295 49.6641 26.9629 55.0082 30.4158 60.2026C30.7601 60.7216 31.1094 61.2405 31.4637 61.7545C31.9128 62.4031 32.9906 61.7844 32.5365 61.1158Z" fill="white"/>
<path d="M24.2883 58.9487C24.2883 58.9537 24.2085 58.9786 24.0538 59.0136C23.8991 59.0485 23.6696 59.1134 23.3652 59.1682C22.7664 59.293 21.8882 59.4277 20.7954 59.4826C19.7027 59.5425 18.3953 59.5026 16.9633 59.283C15.5312 59.0635 13.9843 58.6443 12.4475 57.9857C10.9156 57.317 9.54838 56.4737 8.4107 55.5806C7.26804 54.6874 6.34493 53.7593 5.64136 52.921C4.9378 52.0827 4.43383 51.3542 4.11448 50.8303C3.94982 50.5758 3.84004 50.3612 3.76021 50.2215C3.68037 50.0818 3.64045 50.0069 3.64544 50.002C3.65043 50.002 3.69533 50.0718 3.78515 50.2065C3.87497 50.3413 3.98974 50.5458 4.16438 50.7953C4.4987 51.3043 5.01265 52.0228 5.7212 52.8461C6.42976 53.6695 7.35786 54.5876 8.49554 55.4658C9.63322 56.349 10.9904 57.1773 12.5074 57.8459C14.0342 58.4996 15.5661 58.9188 16.9882 59.1433C18.4103 59.3728 19.7077 59.4177 20.7954 59.3728C21.8832 59.3279 22.7564 59.2082 23.3602 59.1034C23.6596 59.0585 23.8941 58.9986 24.0488 58.9736C24.2035 58.9587 24.2883 58.9437 24.2883 58.9487Z" fill="#01375E"/>
<path d="M2.22334 46.391C2.25827 46.376 2.44789 46.8002 2.64748 47.3341C2.84208 47.868 2.97181 48.3121 2.93688 48.3271C2.90195 48.342 2.71235 47.9179 2.51276 47.384C2.31317 46.8501 2.18342 46.406 2.22334 46.391Z" fill="#01375E"/>
<path d="M37.197 34.8333C37.192 34.8333 37.162 34.7684 37.1072 34.6437C37.0473 34.5039 36.9724 34.3193 36.8726 34.0848C36.8227 33.9601 36.7679 33.8253 36.708 33.6806C36.6431 33.5359 36.5583 33.3812 36.4784 33.2116C36.3088 32.8773 36.1391 32.4881 35.8896 32.0889C35.7699 31.8843 35.6451 31.6747 35.5154 31.4552C35.3857 31.2356 35.221 31.0211 35.0713 30.7915C34.7719 30.3275 34.3927 29.8734 34.0085 29.3844C33.2001 28.4413 32.2371 27.4733 31.1144 26.5851C29.9817 25.7069 28.8041 25.0033 27.6964 24.4495C27.1325 24.195 26.5986 23.9355 26.0747 23.7559C25.8152 23.6611 25.5707 23.5563 25.3262 23.4814C25.0817 23.4066 24.8472 23.3367 24.6176 23.2719C24.1686 23.1222 23.7494 23.0523 23.3852 22.9675C23.2005 22.9276 23.0359 22.8877 22.8762 22.8577C22.7215 22.8328 22.5768 22.8128 22.4421 22.7928C22.1926 22.7529 21.993 22.723 21.8433 22.698C21.7086 22.6731 21.6337 22.6631 21.6337 22.6581C21.6337 22.6531 21.7086 22.6581 21.8433 22.6731C21.993 22.6881 22.1976 22.713 22.4471 22.738C22.5818 22.7529 22.7265 22.7729 22.8812 22.7879C23.0409 22.8128 23.2105 22.8527 23.3951 22.8877C23.7594 22.9675 24.1835 23.0274 24.6376 23.1721C24.8671 23.2369 25.1017 23.3018 25.3511 23.3717C25.6006 23.4415 25.8451 23.5463 26.1096 23.6361C26.6385 23.8108 27.1724 24.0652 27.7463 24.3197C28.869 24.8736 30.0515 25.5772 31.1942 26.4604C32.3269 27.3585 33.2949 28.3365 34.1033 29.2896C34.4875 29.7836 34.8667 30.2426 35.1611 30.7117C35.3108 30.9462 35.4705 31.1608 35.6002 31.3853C35.73 31.6099 35.8497 31.8244 35.9695 32.029C36.214 32.4332 36.3786 32.8274 36.5433 33.1667C36.6231 33.3363 36.703 33.491 36.7629 33.6407C36.8177 33.7904 36.8726 33.9251 36.9175 34.0499C37.0024 34.2894 37.0722 34.479 37.1271 34.6187C37.182 34.7584 37.202 34.8283 37.197 34.8333Z" fill="#01375E"/>
<g opacity="0.2">
<g opacity="0.2">
<path opacity="0.2" d="M11.2649 29.4999C10.5065 29.001 9.39874 29.0159 8.30597 29.3552C6.73917 29.8442 5.46677 30.9869 4.69335 32.4339C2.42298 36.6952 1.93896 40.3029 3.40597 45.138C3.90495 46.7747 5.2073 49.1498 6.76911 50.028C7.55251 50.4671 8.4856 50.6168 9.34384 50.3424C11.5743 49.6239 11.8288 46.8096 11.235 44.6889C10.6811 42.713 9.64324 40.7619 9.94263 38.7311C10.1871 37.0595 11.2999 35.6624 11.9635 34.1055C12.6222 32.5587 12.677 30.433 11.2649 29.4999Z" fill="white"/>
</g>
</g>
<g opacity="0.2">
<g opacity="0.2">
<path opacity="0.2" d="M17.4473 24.3792C16.125 23.7355 14.3037 24.3293 13.685 25.3373C13.196 26.1855 13.0962 27.2633 13.4754 28.1665C13.9295 29.2543 15.0971 30.0127 16.2747 29.9578C17.4523 29.9029 18.555 29.0098 18.8145 27.8571C19.079 26.7045 18.5101 24.8982 17.4473 24.3792Z" fill="white"/>
</g>
</g>
<path d="M35.5154 70.4401C35.5154 70.4401 36.3687 70.4251 37.0274 70.6397C37.3717 70.7495 37.7459 70.6896 38.0453 70.485L40.9543 68.514C41.2787 68.2945 41.4783 67.9252 41.4783 67.531C41.4783 67.067 41.603 66.4383 41.9473 66.084L35.5154 70.4401Z" fill="#01375E" fill-opacity="0.4"/>
<path d="M26.878 64.4718C26.9179 64.5317 30.6703 68.6184 32.1073 70.1802C32.6961 70.8239 33.5643 71.1582 34.4276 71.0135C34.7419 70.9586 35.0663 70.8438 35.3806 70.6343C36.6281 69.791 41.7427 66.3231 41.7427 66.3231C41.7427 66.3231 43.4043 65.1954 42.8903 63.6236C42.3464 61.967 39.3974 55.9941 39.3974 55.9941L26.878 64.4718Z" fill="#01375E"/>
<path d="M42.8754 62.7405L31.813 70.2901C31.6384 70.4099 31.4038 70.365 31.2841 70.1903L31.2591 70.1554C31.1394 69.9807 31.1843 69.7462 31.3589 69.6265L42.4164 62.0769C42.591 61.9571 42.8255 62.002 42.9453 62.1767L42.9702 62.2116C43.095 62.3812 43.0501 62.6208 42.8754 62.7405Z" fill="#E0E0E0"/>
<path d="M42.8755 62.7418C42.8655 62.7368 42.9802 62.6869 43.0202 62.4973C43.0351 62.4025 43.0152 62.2827 42.9254 62.1779C42.8455 62.0681 42.6759 61.9983 42.5112 62.0631C41.9024 62.4623 41.0242 63.091 39.9315 63.8345C37.7409 65.3365 34.7271 67.4023 31.3989 69.6826C31.3091 69.7425 31.2592 69.8473 31.2592 69.952C31.2592 70.0019 31.2741 70.0568 31.2991 70.1017C31.329 70.1466 31.3639 70.1965 31.3989 70.2265C31.4787 70.2914 31.5935 70.3113 31.6883 70.2814C31.7781 70.2514 31.8829 70.1566 31.9827 70.0968C32.3869 69.8223 32.791 69.5479 33.1852 69.2784C33.9736 68.7445 34.7321 68.2256 35.4556 67.7316C36.9026 66.7486 38.205 65.8654 39.3027 65.1219C40.3955 64.3884 41.2837 63.7896 41.9024 63.3705C42.2068 63.1709 42.4413 63.0112 42.611 62.9014C42.6858 62.8515 42.7507 62.8116 42.7956 62.7817C42.8505 62.7517 42.8755 62.7368 42.8755 62.7418C42.8755 62.7418 42.8555 62.7617 42.8156 62.7917C42.7707 62.8266 42.7108 62.8665 42.6359 62.9214C42.4713 63.0412 42.2368 63.2008 41.9374 63.4104C41.3186 63.8345 40.4404 64.4433 39.3576 65.1968C38.2649 65.9502 36.9675 66.8384 35.5254 67.8314C34.8019 68.3254 34.0435 68.8443 33.2601 69.3832C32.8659 69.6527 32.4667 69.9271 32.0625 70.2015L31.9078 70.3063C31.8629 70.3363 31.7981 70.3812 31.7282 70.4061C31.5885 70.451 31.4288 70.4211 31.3141 70.3263C31.2542 70.2764 31.2192 70.2215 31.1793 70.1616C31.1444 70.0968 31.1244 70.0269 31.1244 69.952C31.1195 69.8024 31.1943 69.6576 31.319 69.5778C34.6572 67.3074 37.6761 65.2566 39.8716 63.7647C40.9743 63.0262 41.8475 62.4174 42.4813 62.0232C42.6709 61.9534 42.8605 62.0382 42.9453 62.1629C43.0401 62.2777 43.0601 62.4174 43.0351 62.5122C42.9952 62.7018 42.8705 62.7418 42.8755 62.7418Z" fill="#01375E"/>
<path d="M42.1419 61.1487L30.6154 69.0177C30.4408 69.1374 30.2063 69.0925 30.0865 68.9179L30.0616 68.8829C29.9418 68.7083 29.9867 68.4738 30.1613 68.354L41.6878 60.4851C41.8625 60.3653 42.097 60.4102 42.2167 60.5849L42.2417 60.6198C42.3615 60.7944 42.3165 61.029 42.1419 61.1487Z" fill="#E0E0E0"/>
<path d="M42.1419 61.1491C42.1319 61.1441 42.2517 61.0942 42.2916 60.8946C42.3065 60.7948 42.2766 60.675 42.1768 60.5653C42.087 60.4605 41.9024 60.4006 41.7377 60.4854C41.099 60.9295 40.1859 61.5582 39.0582 62.3366C36.7828 63.8935 33.6542 66.0391 30.1963 68.4092C30.1064 68.4691 30.0516 68.5789 30.0565 68.6887C30.0565 68.7436 30.0765 68.7935 30.1064 68.8434C30.1414 68.8983 30.1713 68.9382 30.2162 68.9681C30.306 69.028 30.4258 69.043 30.5206 68.998C30.6154 68.9481 30.7302 68.8583 30.83 68.7935C31.2541 68.5041 31.6683 68.2246 32.0774 67.9452C32.8958 67.3863 33.6841 66.8524 34.4376 66.3385C35.9395 65.3206 37.2968 64.4024 38.4344 63.629C39.5671 62.8656 40.4903 62.2468 41.1339 61.8127C41.4483 61.6031 41.6978 61.4385 41.8724 61.3237C41.9523 61.2738 42.0171 61.2289 42.067 61.199C42.1169 61.159 42.1419 61.1441 42.1419 61.1491C42.1419 61.1491 42.1219 61.169 42.082 61.199C42.0321 61.2339 41.9722 61.2788 41.8974 61.3337C41.7227 61.4534 41.4832 61.6281 41.1739 61.8427C40.5352 62.2867 39.622 62.9155 38.4943 63.6939C37.3566 64.4723 36.0094 65.4004 34.5124 66.4283C33.764 66.9422 32.9756 67.4811 32.1572 68.04C31.7481 68.3194 31.3339 68.6039 30.9098 68.8933C30.8 68.9631 30.7102 69.038 30.5805 69.1078C30.4408 69.1727 30.2711 69.1577 30.1464 69.0679C30.0815 69.028 30.0316 68.9581 30.0017 68.9082C29.9617 68.8434 29.9368 68.7685 29.9318 68.6937C29.9218 68.539 29.9967 68.3843 30.1264 68.2995C33.5943 65.9443 36.7329 63.8086 39.0133 62.2568C40.1559 61.4884 41.0691 60.8646 41.7177 60.4405C41.9074 60.3457 42.1119 60.4156 42.2067 60.5403C42.3065 60.6551 42.3415 60.7998 42.3165 60.8996C42.2666 61.1092 42.1319 61.1491 42.1419 61.1491Z" fill="#01375E"/>
<path d="M41.3236 59.6155L29.4977 67.689C29.323 67.8088 29.0885 67.7639 28.9688 67.5892L28.9438 67.5543C28.8241 67.3797 28.869 67.1452 29.0436 67.0254L40.8695 58.9519C41.0441 58.8321 41.2786 58.877 41.3984 59.0517L41.4233 59.0866C41.5381 59.2562 41.4932 59.4958 41.3236 59.6155Z" fill="#E0E0E0"/>
<path d="M41.3235 59.6188C41.3135 59.6138 41.4383 59.5589 41.4732 59.3543C41.4882 59.2545 41.4532 59.1298 41.3484 59.02C41.2536 58.9152 41.054 58.8653 40.8994 58.9651C40.2457 59.4192 39.3076 60.0629 38.1599 60.8612C35.8297 62.458 32.6263 64.6535 29.0835 67.0785C28.9887 67.1434 28.9338 67.2532 28.9438 67.3679C28.9488 67.4228 28.9687 67.4777 28.9987 67.5226C29.0386 67.5775 29.0685 67.6174 29.1184 67.6474C29.2132 67.7072 29.338 67.7073 29.4328 67.6574C29.5326 67.5925 29.6473 67.5126 29.7521 67.4428C30.1862 67.1484 30.6104 66.859 31.0295 66.5746C31.8678 66.0057 32.6761 65.4568 33.4446 64.9329C34.9814 63.89 36.3686 62.947 37.5362 62.1586C38.6988 61.3752 39.6419 60.7415 40.3006 60.2974C40.6249 60.0828 40.8744 59.9181 41.054 59.7984C41.1389 59.7435 41.2037 59.7036 41.2536 59.6687C41.2985 59.6287 41.3185 59.6138 41.3235 59.6188C41.3235 59.6188 41.3035 59.6387 41.2586 59.6687C41.2087 59.7036 41.1489 59.7485 41.069 59.8084C40.8944 59.9331 40.6449 60.1078 40.3255 60.3273C39.6719 60.7814 38.7338 61.4251 37.5811 62.2234C36.4185 63.0218 35.0363 63.9699 33.5045 65.0227C32.736 65.5467 31.9277 66.1005 31.0944 66.6744C30.6752 66.9588 30.2511 67.2532 29.817 67.5476C29.7072 67.6224 29.6074 67.6923 29.4827 67.7721C29.3479 67.847 29.1733 67.842 29.0386 67.7571C28.9737 67.7222 28.9138 67.6524 28.8839 67.5975C28.839 67.5326 28.814 67.4578 28.804 67.3779C28.7891 67.2232 28.8689 67.0636 28.9987 66.9737C32.5464 64.5587 35.7599 62.3781 38.0951 60.7864C39.2577 60.003 40.2008 59.3693 40.8594 58.9252C41.0441 58.8104 41.2636 58.8753 41.3634 58.995C41.4682 59.1098 41.5081 59.2545 41.4832 59.3593C41.4482 59.5738 41.3135 59.6188 41.3235 59.6188Z" fill="#01375E"/>
<path d="M40.59 58.0179L28.2851 66.4157C28.1105 66.5355 27.8759 66.4906 27.7562 66.3159L27.7312 66.281C27.6115 66.1064 27.6564 65.8718 27.831 65.7521L40.1359 57.3542C40.3106 57.2345 40.5451 57.2794 40.6648 57.454L40.6898 57.4889C40.8095 57.6636 40.7646 57.8981 40.59 58.0179Z" fill="#E0E0E0"/>
<path d="M40.59 58.0187C40.575 58.0138 40.7097 57.9589 40.7397 57.7443C40.7547 57.6395 40.7048 57.5098 40.595 57.405C40.4902 57.3002 40.2806 57.2653 40.1259 57.395C39.4473 57.8641 38.4793 58.5327 37.2817 59.361C34.8667 61.0176 31.5435 63.293 27.866 65.8078C27.7712 65.8727 27.7163 65.9925 27.7312 66.1072C27.7462 66.217 27.826 66.3368 27.9258 66.3867C28.0256 66.4416 28.1554 66.4316 28.2502 66.3667C28.3649 66.2919 28.4747 66.212 28.5895 66.1372C29.0386 65.8328 29.4777 65.5284 29.9118 65.234C30.78 64.6452 31.6183 64.0714 32.4167 63.5275C34.0134 62.4447 35.4505 61.4667 36.663 60.6484C37.8705 59.835 38.8485 59.1764 39.5321 58.7173C39.8665 58.4928 40.1309 58.3231 40.3156 58.1984C40.4004 58.1435 40.4702 58.0986 40.5201 58.0637C40.565 58.0287 40.59 58.0187 40.59 58.0187C40.59 58.0187 40.57 58.0387 40.5251 58.0736C40.4752 58.1086 40.4104 58.1585 40.3255 58.2183C40.1409 58.3481 39.8864 58.5277 39.5571 58.7572C38.8785 59.2263 37.9105 59.8949 36.7129 60.7232C35.5054 61.5515 34.0733 62.5345 32.4816 63.6273C31.6832 64.1712 30.8499 64.745 29.9816 65.3388C29.5475 65.6332 29.1084 65.9376 28.6593 66.242C28.5496 66.3168 28.4348 66.3966 28.32 66.4715C28.1903 66.5613 28.0057 66.5763 27.861 66.5014C27.7911 66.4665 27.7262 66.4066 27.6863 66.3418C27.6414 66.2819 27.6065 66.202 27.5965 66.1222C27.5766 65.9625 27.6514 65.7929 27.7861 65.6981C31.4686 63.1932 34.8018 60.9278 37.2219 59.2812C38.4294 58.4678 39.4074 57.8092 40.091 57.3501C40.2657 57.2154 40.5052 57.2553 40.6149 57.3751C40.7297 57.4898 40.7796 57.6345 40.7597 57.7443C40.7447 57.8541 40.6898 57.9289 40.6499 57.9639C40.6199 58.0088 40.59 58.0187 40.59 58.0187Z" fill="#01375E"/>
<path d="M22.6167 61.6326C22.6965 61.7524 24.8422 64.357 25.9449 65.6943C26.3491 66.1833 26.9578 66.4627 27.5915 66.4478L28.5246 66.4278L40.8295 58.0948L41.1888 57.2466C41.4383 56.6528 41.4034 55.9791 41.089 55.4153L38.5292 50.8496L22.6167 61.6326Z" fill="#01375E"/>
<g opacity="0.3">
<g opacity="0.3">
<path opacity="0.3" d="M32.2072 69.979C33.5744 69.4451 34.7719 68.6667 36.0693 67.7785C37.1171 67.06 38.165 66.3963 39.2927 65.598C40.116 65.0141 40.8545 64.4503 41.6679 63.8515C42.077 63.5471 42.4662 63.128 42.4962 62.9883L32.2072 69.979Z" fill="#01375E"/>
</g>
</g>
<g opacity="0.3">
<g opacity="0.3">
<path opacity="0.3" d="M30.7951 68.8384C32.2521 68.2397 33.5445 67.4014 34.9416 66.4433C36.0693 65.6699 37.202 64.9464 38.4145 64.0931C39.3027 63.4644 40.1061 62.8606 40.9793 62.217C41.4234 61.8926 41.8475 61.4485 41.8825 61.2988L30.7951 68.8384Z" fill="#01375E"/>
</g>
</g>
<g opacity="0.3">
<g opacity="0.3">
<path opacity="0.3" d="M29.837 67.4205C31.294 66.8217 32.5864 65.9834 33.9835 65.0254C35.1112 64.2519 36.2439 63.5284 37.4564 62.6752C38.3446 62.0464 39.148 61.4427 40.0212 60.799C40.4653 60.4746 40.8894 60.0306 40.9243 59.8809L29.837 67.4205Z" fill="#01375E"/>
</g>
</g>
<g opacity="0.3">
<g opacity="0.3">
<path opacity="0.3" d="M28.874 65.9986C30.331 65.3998 31.6233 64.5615 33.0205 63.6035C34.1482 62.8301 35.2809 62.1065 36.4934 61.2533C37.3816 60.6246 38.185 60.0208 39.0582 59.3771C39.5023 59.0528 39.9264 58.6087 39.9613 58.459L28.874 65.9986Z" fill="#01375E"/>
</g>
</g>
<path d="M41.1889 56.2171C41.2088 56.247 37.9355 58.5024 33.8738 61.2518C29.8121 64.0012 26.5088 66.2067 26.4889 66.1768C26.4689 66.1468 29.7422 63.8964 33.8039 61.142C37.8607 58.3927 41.1689 56.1872 41.1889 56.2171Z" fill="#01375E"/>
<path d="M38.3895 50.8304C38.4144 50.8603 34.8667 53.3253 30.4707 56.3291C26.0696 59.333 22.4869 61.7431 22.467 61.7082C22.442 61.6782 25.9898 59.2132 30.3858 56.2094C34.7819 53.2105 38.3645 50.8004 38.3895 50.8304Z" fill="#01375E"/>
<path d="M59.8286 56.2713C61.6 47.0152 55.5274 38.0785 46.2713 36.3071C37.0152 34.5357 28.0784 40.6083 26.307 49.8644C25.0247 56.5657 27.8539 63.0974 33.0283 66.8647C32.6491 68.8507 32.22 71.0911 32.22 71.0911L46.91 73.9004C46.91 73.9004 47.4539 71.5452 47.888 69.4345C53.8159 67.6831 58.5862 62.7631 59.8286 56.2713Z" fill="#01375E" fill-opacity="0.4"/>
<path d="M38.5968 72.9765C39.6796 67.1234 41.1715 61.3452 42.1146 55.4622C42.5238 52.9324 43.5267 48.7309 40.6925 47.249C37.3444 45.4975 35.6079 50.5722 35.6029 53.0072C35.5979 56.2007 37.3543 59.2245 40.2634 60.6117C43.1076 61.9689 46.5456 61.7693 49.0754 59.8233C51.4107 58.027 53.0074 54.7736 52.3487 51.7997C52.0643 50.5123 51.221 49.1551 49.8339 48.9056C48.3269 48.6361 47.1743 49.7389 46.5106 50.9714C45.7971 52.3036 45.4179 53.8405 45.0087 55.2876C44.5397 56.9492 44.1205 58.6257 43.7263 60.3073C42.908 63.7553 42.1745 67.2282 41.3612 70.6761C41.1765 71.4645 40.9819 72.2579 40.7823 73.0413C40.5827 73.8197 41.7903 74.154 41.9849 73.3706C43.4718 67.5026 44.5497 61.5348 46.1863 55.7067C46.5356 54.4692 46.8549 53.1619 47.3938 51.9893C47.8379 51.0163 48.8658 49.4994 50.1083 50.3277C51.1162 51.0013 51.3009 52.4633 51.221 53.5661C51.1262 54.8983 50.6073 56.1857 49.8339 57.2685C48.1972 59.5588 45.3829 60.6666 42.6286 60.0927C39.8293 59.5139 37.6637 57.4581 37.035 54.6588C36.7356 53.3315 36.8055 51.9244 37.2446 50.637C37.6238 49.5093 38.6766 47.5384 40.1486 48.3617C41.5657 49.1501 41.3961 51.1061 41.2663 52.4733C41.1715 53.4912 41.0169 54.4992 40.8522 55.5071C39.8991 61.2554 38.4571 66.9088 37.3943 72.6371C37.2496 73.4305 38.4521 73.7698 38.5968 72.9765Z" fill="white"/>
<path d="M34.8195 66.6515C34.8195 66.6565 34.7547 66.6216 34.6349 66.5467C34.5201 66.4719 34.3405 66.3771 34.1259 66.2274C33.6868 65.943 33.0731 65.4939 32.3745 64.8652C31.6759 64.2414 30.9025 63.4281 30.169 62.4301C29.4355 61.4322 28.7469 60.2396 28.213 58.9123C27.6891 57.58 27.3697 56.2428 27.215 55.0103C27.0604 53.7778 27.0653 52.6551 27.1452 51.722C27.225 50.7889 27.3597 50.0404 27.4795 49.5314C27.5344 49.277 27.5943 49.0824 27.6292 48.9476C27.6641 48.8129 27.6891 48.748 27.6941 48.748C27.6991 48.748 27.6841 48.8179 27.6541 48.9526C27.6292 49.0874 27.5743 49.282 27.5244 49.5414C27.4196 50.0504 27.2949 50.7989 27.23 51.727C27.1602 52.6551 27.1701 53.7728 27.3298 54.9903C27.4845 56.2128 27.8088 57.5351 28.3278 58.8574C28.8567 60.1747 29.5353 61.3573 30.2588 62.3503C30.9823 63.3482 31.7408 64.1616 32.4294 64.7903C33.118 65.419 33.7168 65.8781 34.1459 66.1775C34.3555 66.3322 34.5301 66.4369 34.6399 66.5168C34.7646 66.6016 34.8195 66.6465 34.8195 66.6515Z" fill="#01375E"/>
<path d="M29.0214 45.6938C29.0513 45.7088 28.9116 46.078 28.707 46.5221C28.5025 46.9662 28.3128 47.3105 28.2829 47.3005C28.253 47.2856 28.3927 46.9163 28.5973 46.4722C28.8019 46.0281 28.9915 45.6789 29.0214 45.6938Z" fill="#01375E"/>
<path d="M57.2288 59.8182C57.2238 59.8182 57.2438 59.7583 57.2887 59.6485C57.3386 59.5288 57.4035 59.3691 57.4833 59.1695C57.5282 59.0647 57.5731 58.95 57.628 58.8252C57.6779 58.6955 57.7178 58.5558 57.7727 58.4011C57.8725 58.0967 58.0022 57.7574 58.0921 57.3632C58.142 57.1686 58.1969 56.964 58.2517 56.7545C58.3066 56.5399 58.3366 56.3154 58.3815 56.0808C58.4813 55.6168 58.5262 55.1128 58.5861 54.5889C58.6659 53.531 58.6659 52.3584 58.5212 51.1409C58.3615 49.9234 58.0771 48.7857 57.7378 47.7778C57.5482 47.2788 57.3835 46.8048 57.1739 46.3806C57.0741 46.1661 56.9893 45.9565 56.8845 45.7619C56.7798 45.5673 56.6799 45.3827 56.5802 45.208C56.4005 44.8488 56.186 44.5494 56.0163 44.2799C55.9265 44.1452 55.8516 44.0204 55.7718 43.9057C55.692 43.7959 55.6171 43.6961 55.5473 43.6063C55.4175 43.4316 55.3177 43.2919 55.2379 43.1871C55.168 43.0923 55.1331 43.0375 55.1381 43.0375C55.1431 43.0325 55.183 43.0824 55.2579 43.1722C55.3377 43.272 55.4475 43.4067 55.5822 43.5764C55.652 43.6662 55.7319 43.766 55.8167 43.8708C55.8965 43.9805 55.9764 44.1053 56.0712 44.24C56.2458 44.5094 56.4654 44.8038 56.655 45.1631C56.7548 45.3378 56.8596 45.5224 56.9644 45.717C57.0692 45.9116 57.159 46.1212 57.2638 46.3357C57.4783 46.7599 57.653 47.2389 57.8426 47.7379C58.1869 48.7508 58.4813 49.8935 58.6409 51.121C58.7857 52.3484 58.7807 53.531 58.6958 54.5939C58.631 55.1228 58.5811 55.6317 58.4763 56.0958C58.4264 56.3303 58.3965 56.5549 58.3366 56.7694C58.2767 56.984 58.2218 57.1886 58.1719 57.3832C58.0771 57.7774 57.9374 58.1167 57.8326 58.4211C57.7777 58.5707 57.7328 58.7155 57.6779 58.8402C57.623 58.9649 57.5681 59.0797 57.5232 59.1845C57.4334 59.3791 57.3586 59.5388 57.3037 59.6585C57.2588 59.7633 57.2338 59.8182 57.2288 59.8182Z" fill="#01375E"/>
<g opacity="0.2">
<g opacity="0.2">
<path opacity="0.2" d="M44.7193 40.9125C44.5646 40.154 43.881 39.4904 43.0078 39.0363C41.7603 38.3876 40.2983 38.3078 38.9561 38.7219C35.0041 39.9345 32.5292 41.8306 30.4983 45.6528C29.8097 46.9452 29.166 49.1756 29.5852 50.6526C29.7948 51.3961 30.2688 52.0497 30.9574 52.399C32.7437 53.3072 34.5999 51.7553 35.5181 50.1137C36.3763 48.5818 36.9252 46.7705 38.3323 45.7177C39.49 44.8494 41.0119 44.6748 42.3541 44.1309C43.6964 43.587 45.0087 42.3296 44.7193 40.9125Z" fill="white"/>
</g>
</g>
<g opacity="0.2">
<g opacity="0.2">
<path opacity="0.2" d="M51.5603 41.5407C51.1462 40.3481 49.6792 39.6096 48.6962 39.8441C47.8878 40.0637 47.1793 40.6575 46.86 41.4309C46.4807 42.369 46.7252 43.5316 47.4787 44.2102C48.2272 44.8888 49.4347 45.0086 50.288 44.4747C51.1462 43.9358 51.8947 42.4937 51.5603 41.5407Z" fill="white"/>
</g>
</g>
<path d="M34.6849 80.4023C34.6849 80.4023 35.2138 80.9063 35.4832 81.4352C35.6229 81.7097 35.8874 81.8993 36.1918 81.9542L39.1458 82.518C39.4751 82.5829 39.8194 82.4781 40.0589 82.2386C40.3383 81.9592 40.7974 81.6498 41.2215 81.6448L34.6849 80.4023Z" fill="#01375E" fill-opacity="0.4"/>
<path d="M33.0532 71.5605C33.0432 71.6204 32.8486 76.3707 32.7738 78.182C32.7438 78.9255 33.0682 79.659 33.6769 80.0881C33.9015 80.2478 34.1659 80.3726 34.4853 80.4324C35.7527 80.672 40.9521 81.6649 40.9521 81.6649C40.9521 81.6649 42.6436 81.9843 43.2823 80.7169C43.9559 79.3846 45.7722 73.9806 45.7722 73.9806L33.0532 71.5605Z" fill="#01375E"/>
<path d="M43.8062 80.178L32.5342 78.0723C32.3596 78.0373 32.2398 77.8677 32.2747 77.693L32.2797 77.6581C32.3147 77.4835 32.4843 77.3637 32.659 77.3986L43.931 79.5043C44.1056 79.5393 44.2254 79.7089 44.1904 79.8836L44.1854 79.9185C44.1555 80.0931 43.9859 80.2129 43.8062 80.178Z" fill="#E0E0E0"/>
<path d="M43.8111 80.1809C43.8061 80.1709 43.9059 80.2108 44.0456 80.121C44.1105 80.0761 44.1754 79.9863 44.1804 79.8665C44.1954 79.7518 44.1355 79.6071 43.9957 79.5472C43.387 79.4224 42.4739 79.2727 41.3611 79.0632C39.1257 78.649 36.047 78.0802 32.6489 77.4515C32.5591 77.4365 32.4643 77.4664 32.4044 77.5313C32.3745 77.5662 32.3495 77.6012 32.3395 77.6461C32.3296 77.691 32.3196 77.7409 32.3246 77.7858C32.3346 77.8756 32.3894 77.9554 32.4693 77.9954C32.5391 78.0303 32.6639 78.0403 32.7637 78.0602C33.1778 78.1401 33.587 78.2149 33.9862 78.2898C34.7895 78.4394 35.563 78.5842 36.2965 78.7239C37.7685 79.0033 39.0908 79.2528 40.2085 79.4673C41.3162 79.6819 42.2144 79.8566 42.8431 79.9763C43.1475 80.0362 43.387 80.0861 43.5567 80.121C43.6315 80.136 43.6964 80.151 43.7413 80.1609C43.7862 80.1759 43.8111 80.1809 43.8111 80.1809C43.8111 80.1809 43.7912 80.1809 43.7463 80.1759C43.6964 80.1659 43.6365 80.1609 43.5567 80.146C43.387 80.116 43.1425 80.0761 42.8381 80.0212C42.2044 79.9065 41.3062 79.7468 40.1935 79.5472C39.0758 79.3426 37.7485 79.0981 36.2765 78.8287C35.538 78.6939 34.7646 78.5492 33.9662 78.3995C33.567 78.3247 33.1579 78.2498 32.7437 78.17L32.589 78.1401C32.5391 78.1301 32.4793 78.1201 32.4194 78.0902C32.3096 78.0353 32.2298 77.9205 32.2148 77.7958C32.2098 77.7309 32.2198 77.676 32.2348 77.6161C32.2497 77.5562 32.2847 77.5014 32.3296 77.4565C32.4144 77.3666 32.5491 77.3217 32.6739 77.3467C36.0669 77.9854 39.1456 78.5692 41.3761 78.9883C42.4888 79.2079 43.387 79.3676 44.0157 79.5073C44.1754 79.5771 44.2353 79.7468 44.2153 79.8715C44.2053 79.9963 44.1305 80.0961 44.0606 80.141C43.9059 80.2308 43.8061 80.1809 43.8111 80.1809Z" fill="#01375E"/>
<path d="M44.3252 78.7736L32.5742 76.5781C32.3995 76.5432 32.2798 76.3735 32.3147 76.1989L32.3197 76.164C32.3546 75.9893 32.5243 75.8696 32.6989 75.9045L44.4499 78.1C44.6246 78.135 44.7444 78.3046 44.7094 78.4793L44.7044 78.5142C44.6695 78.6888 44.4998 78.8036 44.3252 78.7736Z" fill="#E0E0E0"/>
<path d="M44.3252 78.7726C44.3202 78.7626 44.425 78.8075 44.5697 78.7077C44.6395 78.6578 44.6944 78.563 44.6994 78.4383C44.7094 78.3185 44.6345 78.1688 44.4798 78.1239C43.8262 78.0042 42.8881 77.8345 41.7404 77.6299C39.4202 77.2008 36.2217 76.612 32.6939 75.9583C32.6041 75.9384 32.5043 75.9733 32.4394 76.0432C32.4095 76.0781 32.3895 76.118 32.3795 76.1629C32.3646 76.2178 32.3646 76.2577 32.3696 76.3076C32.3845 76.3974 32.4544 76.4773 32.5392 76.5122C32.624 76.5372 32.7488 76.5521 32.8536 76.5771C33.2827 76.6569 33.7068 76.7368 34.126 76.8166C34.9593 76.9713 35.7626 77.126 36.5261 77.2707C38.053 77.5601 39.4302 77.8195 40.5878 78.0441C41.7404 78.2686 42.6735 78.4483 43.3272 78.573C43.6465 78.6379 43.8911 78.6878 44.0707 78.7227C44.1505 78.7377 44.2154 78.7526 44.2653 78.7626C44.3002 78.7626 44.3252 78.7676 44.3252 78.7726C44.3252 78.7726 44.3002 78.7726 44.2603 78.7676C44.2104 78.7576 44.1455 78.7477 44.0657 78.7377C43.8861 78.7077 43.6366 78.6628 43.3172 78.6079C42.6636 78.4882 41.7255 78.3235 40.5728 78.1139C39.4102 77.8994 38.033 77.6499 36.5061 77.3655C35.7427 77.2258 34.9393 77.0761 34.106 76.9214C33.6919 76.8415 33.2677 76.7667 32.8336 76.6869C32.7238 76.6619 32.624 76.6569 32.4993 76.617C32.3795 76.5721 32.2847 76.4623 32.2598 76.3326C32.2448 76.2677 32.2548 76.1979 32.2698 76.143C32.2847 76.0781 32.3147 76.0182 32.3596 75.9683C32.4444 75.8685 32.5841 75.8236 32.7139 75.8486C36.2417 76.5122 39.4351 77.116 41.7554 77.5551C42.913 77.7796 43.8461 77.9543 44.4948 78.089C44.6695 78.1439 44.7493 78.3135 44.7343 78.4433C44.7243 78.573 44.6595 78.6778 44.5846 78.7277C44.425 78.8225 44.3202 78.7676 44.3252 78.7726Z" fill="#01375E"/>
<path d="M44.7542 77.3442L32.6988 75.0938C32.5242 75.0588 32.4044 74.8892 32.4394 74.7145L32.4443 74.6796C32.4793 74.505 32.6489 74.3852 32.8236 74.4201L44.879 76.6705C45.0536 76.7055 45.1734 76.8751 45.1384 77.0498L45.1334 77.0847C45.0985 77.2593 44.9289 77.3791 44.7542 77.3442Z" fill="#E0E0E0"/>
<path d="M44.7542 77.3427C44.7492 77.3327 44.859 77.3776 45.0037 77.2728C45.0736 77.2229 45.1284 77.1231 45.1284 76.9934C45.1334 76.8736 45.0436 76.7189 44.8889 76.689C44.2203 76.5693 43.2622 76.3946 42.0797 76.18C39.7045 75.7409 36.4312 75.1372 32.8186 74.4685C32.7238 74.4486 32.624 74.4835 32.5641 74.5584C32.5342 74.5933 32.5142 74.6382 32.5042 74.6831C32.4942 74.738 32.4892 74.7829 32.4992 74.8278C32.5192 74.9226 32.594 74.9975 32.6838 75.0224C32.7836 75.0424 32.9034 75.0623 33.0082 75.0873C33.4473 75.1721 33.8814 75.2519 34.3105 75.3318C35.1638 75.4915 35.9871 75.6461 36.7705 75.7958C38.3373 76.0902 39.7444 76.3597 40.932 76.5842C42.1096 76.8138 43.0676 76.9984 43.7363 77.1281C44.0606 77.193 44.3151 77.2429 44.4997 77.2828C44.5796 77.3028 44.6444 77.3127 44.6993 77.3277C44.7292 77.3327 44.7542 77.3427 44.7542 77.3427C44.7542 77.3427 44.7292 77.3427 44.6843 77.3377C44.6344 77.3277 44.5696 77.3177 44.4848 77.3077C44.3001 77.2778 44.0456 77.2329 43.7213 77.178C43.0527 77.0583 42.0946 76.8836 40.912 76.6691C39.7245 76.4495 38.3123 76.19 36.7455 75.9056C35.9621 75.7609 35.1388 75.6062 34.2856 75.4515C33.8614 75.3717 33.4273 75.2919 32.9832 75.207C32.8685 75.1871 32.7687 75.1671 32.6439 75.1422C32.5192 75.1023 32.4144 74.9975 32.3844 74.8677C32.3695 74.8029 32.3745 74.728 32.3844 74.6731C32.3944 74.6083 32.4244 74.5434 32.4693 74.4935C32.5541 74.3887 32.6988 74.3388 32.8335 74.3638C36.4462 75.0424 39.7145 75.6611 42.0896 76.1102C43.2672 76.3397 44.2253 76.5243 44.8939 76.6541C45.0736 76.694 45.1684 76.8686 45.1584 77.0034C45.1534 77.1381 45.0885 77.2479 45.0137 77.2978C44.859 77.3976 44.7492 77.3377 44.7542 77.3427Z" fill="#01375E"/>
<path d="M45.2732 75.9359L32.7289 73.5957C32.5542 73.5608 32.4345 73.3911 32.4694 73.2165L32.4744 73.1816C32.5093 73.0069 32.679 72.8872 32.8536 72.9221L45.398 75.2623C45.5726 75.2972 45.6924 75.4669 45.6575 75.6415L45.6525 75.6765C45.6225 75.8511 45.4529 75.9659 45.2732 75.9359Z" fill="#E0E0E0"/>
<path d="M45.2732 75.9351C45.2682 75.9252 45.383 75.9701 45.5277 75.8603C45.5975 75.8054 45.6474 75.6956 45.6474 75.5659C45.6424 75.4411 45.5376 75.2915 45.368 75.2765C44.6744 75.1517 43.6764 74.9721 42.4539 74.7526C39.989 74.2985 36.5959 73.6698 32.8436 72.9762C32.7438 72.9562 32.639 72.9961 32.5791 73.076C32.5192 73.1508 32.4993 73.2706 32.5292 73.3604C32.5591 73.4552 32.644 73.5251 32.7388 73.545C32.8535 73.565 32.9683 73.5899 33.0831 73.6099C33.5421 73.6947 33.9912 73.7795 34.4303 73.8644C35.3135 74.029 36.1668 74.1887 36.9801 74.3434C38.6018 74.6528 40.0638 74.9272 41.2963 75.1617C42.5188 75.3962 43.5118 75.5908 44.2054 75.7206C44.5447 75.7904 44.8091 75.8403 44.9938 75.8803C45.0786 75.9002 45.1484 75.9152 45.1983 75.9252C45.2532 75.9252 45.2732 75.9301 45.2732 75.9351C45.2732 75.9351 45.2482 75.9351 45.2033 75.9301C45.1484 75.9202 45.0836 75.9102 44.9988 75.8952C44.8091 75.8603 44.5447 75.8154 44.2054 75.7555C43.5118 75.6308 42.5138 75.4511 41.2913 75.2316C40.0588 75.007 38.5968 74.7376 36.9701 74.4382C36.1568 74.2885 35.3035 74.1288 34.4203 73.9642C33.9762 73.8793 33.5272 73.7995 33.0731 73.7147C32.9583 73.6947 32.8436 73.6698 32.7288 73.6498C32.5941 73.6249 32.4743 73.5251 32.4344 73.3903C32.4144 73.3255 32.4094 73.2506 32.4244 73.1858C32.4344 73.1259 32.4593 73.051 32.5042 73.0011C32.5891 72.8914 32.7388 72.8365 32.8735 72.8614C36.6209 73.57 40.0139 74.2087 42.4739 74.6727C43.6964 74.9072 44.6894 75.1018 45.383 75.2316C45.5726 75.2565 45.6874 75.4262 45.6874 75.5659C45.6874 75.7056 45.6275 75.8204 45.5476 75.8803C45.4728 75.9401 45.393 75.9501 45.348 75.9501C45.2981 75.9451 45.2732 75.9351 45.2732 75.9351Z" fill="#01375E"/>
<path d="M32.1849 67.2637C32.16 67.3834 31.8905 70.2626 31.7508 71.7395C31.7009 72.2834 31.9005 72.8173 32.2947 73.1916L32.8735 73.7454L45.378 76.1256L46.1065 75.8262C46.6155 75.6166 47.0047 75.1875 47.1494 74.6536L48.3569 70.3374L32.1849 67.2637Z" fill="#01375E"/>
<g opacity="0.3">
<g opacity="0.3">
<path opacity="0.3" d="M32.9583 78.1289C34.111 78.6329 35.3085 78.8824 36.6308 79.1269C37.6986 79.3265 38.7415 79.556 39.9041 79.7506C40.7574 79.8953 41.5458 80.0001 42.3991 80.1248C42.8332 80.1897 43.3222 80.1697 43.422 80.0999L32.9583 78.1289Z" fill="#01375E"/>
</g>
</g>
<g opacity="0.3">
<g opacity="0.3">
<path opacity="0.3" d="M32.7937 76.5801C34.0412 77.099 35.3285 77.3685 36.7556 77.6329C37.9083 77.8475 39.031 78.092 40.2834 78.3066C41.2015 78.4612 42.0498 78.581 42.9729 78.7157C43.437 78.7856 43.9659 78.7706 44.0757 78.7057L32.7937 76.5801Z" fill="#01375E"/>
</g>
</g>
<g opacity="0.3">
<g opacity="0.3">
<path opacity="0.3" d="M33.0682 75.1387C34.3156 75.6576 35.603 75.9271 37.0301 76.1915C38.1827 76.4061 39.3055 76.6506 40.5579 76.8651C41.476 77.0198 42.3243 77.1396 43.2474 77.2743C43.7115 77.3442 44.2404 77.3292 44.3502 77.2643L33.0682 75.1387Z" fill="#01375E"/>
</g>
</g>
<g opacity="0.3">
<g opacity="0.3">
<path opacity="0.3" d="M33.3425 73.6914C34.59 74.2103 35.8774 74.4798 37.3044 74.7443C38.4571 74.9588 39.5798 75.2033 40.8322 75.4179C41.7504 75.5726 42.5986 75.6923 43.5218 75.827C43.9858 75.8969 44.5147 75.8819 44.6245 75.8171L33.3425 73.6914Z" fill="#01375E"/>
</g>
</g>
<path d="M46.7302 75.2046C46.7252 75.2346 43.3771 74.6208 39.2505 73.8374C35.1239 73.054 31.7857 72.3904 31.7907 72.3604C31.7957 72.3305 35.1439 72.9442 39.2704 73.7276C43.392 74.511 46.7352 75.1747 46.7302 75.2046Z" fill="#01375E"/>
<path d="M48.2821 70.2459C48.2771 70.2808 44.6395 69.6271 40.1537 68.7938C35.6678 67.9605 32.0402 67.252 32.0452 67.222C32.0502 67.1871 35.6878 67.8408 40.1736 68.6741C44.6545 69.5074 48.2871 70.2109 48.2821 70.2459Z" fill="#01375E"/>
</svg>
