<svg width="80" height="67" viewBox="0 0 80 67" fill="none" xmlns="http://www.w3.org/2000/svg">
<path d="M79.6904 66.001H0.553481C0.386291 66.001 0.250061 65.7904 0.250061 65.5196V4.15941C0.250061 3.88862 0.386291 3.66797 0.553481 3.66797H79.6966C79.8638 3.66797 80 3.88862 80 4.15941V65.5196C79.9938 65.7904 79.8576 66.001 79.6904 66.001ZM0.856901 65.0282H79.3932V4.65085H0.856901V65.0282Z" fill="black"/>
<path d="M79.6965 0.279297H0.593323V5.11175H79.6965V0.279297Z" fill="#01375E"/>
<path d="M79.6965 5.39225H0.593313C0.426102 5.39225 0.289856 5.26658 0.289856 5.11235V0.279894C0.296049 0.125667 0.432295 0 0.593313 0H79.6965C79.8637 0 80 0.125667 80 0.279894V5.11235C80 5.26658 79.8637 5.39225 79.6965 5.39225ZM0.89677 4.83246H79.3931V0.559788H0.89677V4.83246Z" fill="black"/>
<path d="M12.9544 54.9769C12.9446 54.9769 12.9446 54.9769 12.9347 54.9769L9.05071 54.8487C8.80488 54.8388 8.60822 54.6514 8.58856 54.4049C8.52956 53.5862 8.50006 52.876 8.50006 52.225C8.50006 42.9435 12.5316 34.1157 19.5523 28.0102C19.6506 27.9313 19.7785 27.882 19.8965 27.8919C20.0243 27.9017 20.1423 27.9609 20.221 28.0596L22.63 30.8509C22.9152 31.1764 23.1905 31.5019 23.4757 31.8274L23.987 32.4291C24.164 32.6263 24.1345 32.9321 23.9378 33.1096C18.392 37.9329 15.216 44.8965 15.216 52.225C15.216 52.9056 15.2455 53.6454 15.3143 54.4049C15.3241 54.5331 15.2848 54.6712 15.1963 54.7698C15.1078 54.8684 14.98 54.9276 14.8522 54.9276C14.3015 54.9375 13.7115 54.9572 12.9839 54.9868C12.9741 54.9769 12.9642 54.9769 12.9544 54.9769ZM9.52269 53.9018L12.9544 54.0202C13.4657 54.0005 13.9082 53.9807 14.3212 53.9709C14.2818 53.3692 14.2622 52.7774 14.2622 52.225C14.2622 44.7781 17.4284 37.6962 22.9643 32.7052L22.7579 32.4685C22.4825 32.143 22.1974 31.8175 21.9221 31.492L19.8276 29.0656C13.2395 34.9738 9.47352 43.3874 9.47352 52.2349C9.46369 52.7281 9.48336 53.2804 9.52269 53.9018Z" fill="black"/>
<path d="M54.1348 30.8994C54.0463 30.8994 53.9578 30.8797 53.8791 30.8205C49.8476 28.256 45.1966 26.9047 40.4375 26.9047C36.0225 26.9047 31.6763 28.0785 27.8611 30.2879C27.6448 30.4062 27.3793 30.3569 27.2318 30.1597C25.9633 28.4237 24.8915 26.8653 23.9476 25.3759C23.8787 25.2674 23.8591 25.1293 23.8886 25.0109C23.9181 24.8827 23.9967 24.7742 24.1049 24.7052C29.0509 21.7363 34.695 20.168 40.4375 20.168C46.9469 20.168 53.2105 22.1308 58.5596 25.8395C58.6776 25.9184 58.7563 26.0466 58.7661 26.1945C58.7759 26.3326 58.7268 26.4806 58.6284 26.5792C57.1732 28.0193 55.7277 29.4889 54.4789 30.7515C54.3806 30.8501 54.2626 30.8994 54.1348 30.8994ZM40.4375 25.948C45.2556 25.948 49.9558 27.2795 54.0659 29.8046C55.1279 28.7295 56.3275 27.5162 57.537 26.3129C52.4533 22.9297 46.5634 21.1346 40.4375 21.1346C35.0392 21.1346 29.7195 22.5648 25.0292 25.2772C25.8257 26.52 26.7205 27.822 27.7529 29.2424C31.6271 27.0921 36.0028 25.948 40.4375 25.948Z" fill="black"/>
<path d="M62.7583 30.0137C61.2834 31.2565 59.8281 32.519 58.4023 33.821C63.1713 38.5061 66.1409 45.0061 66.1409 52.2163C66.1409 52.9265 66.1114 53.6367 66.0426 54.3764C67.1832 54.3863 68.3336 54.406 69.4743 54.4455C70.2511 54.4652 71.0279 54.4849 71.7948 54.5145C71.8538 53.7353 71.8833 52.9758 71.8833 52.2163C71.8932 43.5661 68.4025 35.7148 62.7583 30.0137Z" fill="#01375E"/>
<path d="M72.2472 55.0164L71.785 54.9967C71.254 54.9671 70.7132 54.9572 70.1822 54.9473L69.4644 54.9276C68.3828 54.898 67.2619 54.8684 66.0426 54.8586L65.5214 54.8487L65.5706 54.3259C65.6394 53.5862 65.6689 52.8957 65.6689 52.2053C65.6689 45.3798 62.9747 38.9685 58.068 34.1552L57.7042 33.8001L58.0779 33.4549C59.484 32.1726 60.9589 30.8904 62.4535 29.6278L62.7879 29.3418L63.1025 29.6574C69.081 35.7037 72.375 43.7129 72.375 52.2053C72.375 52.9549 72.3455 53.7144 72.2767 54.5429L72.2472 55.0164ZM66.5637 53.9018C67.5962 53.9117 68.5598 53.9314 69.4939 53.961L70.2019 53.9807C70.5854 53.9906 70.9689 54.0004 71.3524 54.0103C71.3917 53.3889 71.4114 52.7872 71.4114 52.2152C71.4114 44.1271 68.3337 36.4928 62.719 30.6635C61.4801 31.709 60.2608 32.7743 59.0907 33.8395C63.9482 38.791 66.6129 45.3009 66.6129 52.2152C66.6227 52.7675 66.603 53.3199 66.5637 53.9018Z" fill="black"/>
<path d="M39.5525 52.0283C39.3657 52.0283 39.1789 52.0086 38.9822 51.9593C38.3136 51.7916 37.7826 51.3477 37.3893 50.6376C36.3765 48.803 37.6548 47.2643 38.4709 46.7119C38.5004 46.6922 38.5201 46.6823 38.5496 46.6725C38.6774 46.6133 51.4504 41.0108 54.8428 39.4721C55.0493 39.3834 55.2951 39.4425 55.4328 39.63C55.5704 39.8174 55.5507 40.0738 55.3934 40.2415L55.3443 40.2908C55.3246 40.3105 55.3049 40.3303 55.2853 40.3401L41.3225 51.476C41.3126 51.4858 41.3028 51.4957 41.293 51.4957C41.2635 51.5154 40.4867 52.0283 39.5525 52.0283ZM38.9822 47.5306C38.7462 47.7081 37.4483 48.7635 38.2349 50.174C38.4906 50.6474 38.815 50.9236 39.2084 51.0222C39.9065 51.1998 40.644 50.7658 40.762 50.6967L51.8339 41.869C46.9862 44.0093 39.641 47.2445 38.9822 47.5306Z" fill="black"/>
<path d="M39.5132 25.3145C39.464 25.3145 39.4149 25.2947 39.3854 25.2454C38.6381 24.2492 37.9006 23.2234 37.1729 22.1976C37.1238 22.1286 37.1434 22.0299 37.2123 21.9708C37.2811 21.9214 37.3794 21.9412 37.4384 22.0102C38.1562 23.0261 38.9035 24.0519 39.641 25.0482C39.6902 25.1172 39.6803 25.2158 39.6115 25.275C39.5722 25.3046 39.5427 25.3145 39.5132 25.3145Z" fill="black"/>
<path d="M42.168 25.4136C42.1189 25.4136 42.0697 25.3939 42.0402 25.3446L39.7196 21.9515C39.6705 21.8825 39.6901 21.774 39.759 21.7247C39.8278 21.6753 39.936 21.6951 39.9851 21.7641L42.3057 25.1571C42.3549 25.2262 42.3352 25.3347 42.2664 25.384C42.227 25.4037 42.1975 25.4136 42.168 25.4136Z" fill="black"/>
<path d="M45.2852 25.8304C45.236 25.8304 45.1868 25.8107 45.1573 25.7614C44.2232 24.5087 43.2596 23.2659 42.2763 22.0626C42.2173 21.9935 42.2271 21.8949 42.296 21.8357C42.3648 21.7766 42.4631 21.7864 42.5221 21.8555C43.5054 23.0687 44.4789 24.3115 45.413 25.5641C45.4622 25.6332 45.4523 25.7318 45.3835 25.791C45.354 25.8206 45.3245 25.8304 45.2852 25.8304Z" fill="black"/>
<path d="M49.0119 26.8472C48.9627 26.8472 48.9136 26.8275 48.8841 26.7881L45.6294 22.5764C45.5704 22.5073 45.59 22.4087 45.6589 22.3495C45.7277 22.2903 45.826 22.31 45.885 22.3791L49.1397 26.5908C49.1987 26.6598 49.1791 26.7585 49.1102 26.8176C49.0807 26.8374 49.0512 26.8472 49.0119 26.8472Z" fill="black"/>
<path d="M52.5518 28.1677C52.5026 28.1677 52.4534 28.148 52.4239 28.1085L48.8742 23.453C48.8251 23.384 48.8349 23.2853 48.9037 23.2261C48.9726 23.1768 49.0709 23.1867 49.1299 23.2557L52.6796 27.9113C52.7288 27.9803 52.7189 28.079 52.6501 28.1381C52.6206 28.1579 52.5813 28.1677 52.5518 28.1677Z" fill="black"/>
<path d="M54.9902 27.8896C54.941 27.8896 54.8918 27.8699 54.8623 27.8205L52.8171 24.9601C52.7679 24.8911 52.7778 24.7925 52.8564 24.7333C52.9253 24.684 53.0236 24.6938 53.0826 24.7727L55.1278 27.6331C55.177 27.7022 55.1672 27.8008 55.0885 27.86C55.0492 27.8797 55.0197 27.8896 54.9902 27.8896Z" fill="black"/>
<path d="M36.6419 25.6702C36.5928 25.6702 36.5534 25.6505 36.5141 25.611C35.7668 24.6839 35.0392 23.7074 34.3607 22.7211C34.3115 22.652 34.3312 22.5435 34.4 22.4942C34.4688 22.4449 34.577 22.4646 34.6262 22.5336C35.2948 23.5101 36.0225 24.4767 36.7599 25.4039C36.8189 25.473 36.8091 25.5716 36.7403 25.6308C36.7108 25.6604 36.6813 25.6702 36.6419 25.6702Z" fill="black"/>
<path d="M33.9281 26.0971C33.879 26.0971 33.8396 26.0774 33.8101 26.0379L31.5879 23.4044C31.5289 23.3353 31.5387 23.2367 31.6075 23.1775C31.6764 23.1184 31.7747 23.1282 31.8337 23.1973L34.0559 25.8308C34.1149 25.8998 34.1051 25.9985 34.0363 26.0577C33.9969 26.0873 33.9674 26.0971 33.9281 26.0971Z" fill="black"/>
<path d="M31.3223 27.0503C31.283 27.0503 31.2437 27.0404 31.2142 27.0109C30.3194 26.1725 29.4541 25.2946 28.6281 24.397C28.5691 24.328 28.5691 24.2294 28.6379 24.1702C28.7068 24.111 28.8051 24.111 28.8641 24.18C29.6802 25.0678 30.5455 25.9456 31.4305 26.7741C31.4993 26.8333 31.4993 26.9319 31.4403 27.001C31.4108 27.0306 31.3617 27.0503 31.3223 27.0503Z" fill="black"/>
<path d="M28.9428 27.9597C28.9133 27.9597 28.8739 27.9498 28.8444 27.9301C28.0873 27.358 27.3302 26.7564 26.6025 26.1448C26.5337 26.0856 26.5239 25.987 26.5829 25.918C26.6419 25.8489 26.7402 25.8391 26.809 25.8982C27.5268 26.5098 28.284 27.1016 29.0313 27.6737C29.1001 27.723 29.1198 27.8315 29.0608 27.9005C29.0411 27.94 28.9919 27.9597 28.9428 27.9597Z" fill="black"/>
<g opacity="0.1294">
<path opacity="0.1294" d="M73.5776 31.7611C73.515 30.8015 72.4501 31.0985 71.7953 31.0699C70.7418 31.0814 69.694 31.1271 68.6405 31.0928C65.3491 31.0471 62.0577 31.0357 58.7777 30.8015C55.3439 30.6016 51.9102 30.5216 48.4707 30.3616C45.6463 30.2874 42.8161 30.3959 39.9917 30.4131C36.6433 30.4016 33.3064 30.5616 29.958 30.5901C27.629 30.6472 25.3 30.6587 22.9766 30.6472C21.7352 30.653 20.4938 30.7386 19.2581 30.7272C17.863 30.7101 16.4678 30.6073 15.0727 30.6415C13.9053 30.6587 12.7437 30.8072 11.5763 30.87C8.91698 30.99 6.25198 31.0699 3.59266 31.0242C3.00613 31.03 2.4253 31.0357 1.83877 31.0185C1.56543 31.03 1.27501 30.9443 1.02446 31.0757C0.432233 31.3099 0.403761 32.0639 0.796679 32.4351C0.808068 32.7893 1.05862 33.1434 1.50279 33.1377C2.89794 33.252 4.29308 33.1092 5.69392 33.0863C8.61518 33.1549 11.5364 33.132 14.4577 33.1834C17.043 33.2577 19.6226 32.9207 22.2136 32.9664C25.8352 32.9892 29.4512 33.0406 33.0729 33.0635C35.6582 33.0521 38.2378 33.0006 40.8231 33.0406C42.6396 33.0121 44.4561 32.8407 46.2727 32.8864C48.186 32.8807 50.0993 32.8121 52.007 32.8578C55.0535 32.9892 58.0944 33.1035 61.1466 33.0349C64.9505 33.0463 68.7601 33.3148 72.5583 33.0578C72.8487 33.0235 73.1733 33.1092 73.3897 32.875C73.589 32.6808 73.5947 32.378 73.4637 32.161C73.5378 32.041 73.5776 31.8982 73.5776 31.7611Z" fill="black"/>
</g>
</svg>
