<svg width="75" height="101" viewBox="0 0 75 101" fill="none" xmlns="http://www.w3.org/2000/svg">
<g opacity="0.6">
<path opacity="0.6" d="M11.6928 15.5464C11.4639 14.8862 26.5029 3.87796 26.5029 3.87796L39.5897 0.994565C39.5897 0.994565 39.7917 1.31793 40.1552 1.91078C44.5175 8.9307 72.5894 54.257 73.7338 58.7303C74.9186 63.3923 72.5086 97.1445 69.0215 98.9635C65.5344 100.782 34.2984 86.5271 31.4172 82.6735C28.6571 78.9817 14.4259 23.3478 11.6928 15.5464Z" fill="#9263B7"/>
<path opacity="0.6" d="M14.8567 17.218C14.6413 16.6117 14.5201 16.2748 14.5201 16.2748L38.8761 4.60641C38.8761 4.60641 39.0646 4.90284 39.4012 5.45528C43.3999 12.0171 69.1561 54.3117 70.2601 58.4482C70.4351 59.0815 70.5563 60.3077 70.6236 61.9245C70.6505 62.6656 70.6775 63.4875 70.6909 64.3902C70.8256 74.7248 69.56 93.979 67.2173 95.2186C64.6726 96.5525 46.4562 83.3346 39.3608 77.0827C38.5933 76.409 37.9605 75.8161 37.4893 75.3311C37.1662 75.0077 36.9238 74.7247 36.7622 74.4957C34.2311 71.0464 17.4552 24.44 14.8567 17.218Z" fill="#9263B7"/>
<path opacity="0.6" d="M66.2749 59.0406C66.2749 59.0406 63.9591 65.589 55.1134 69.8333C46.2543 74.0776 38.3915 71.3019 38.3915 71.3019L29.5323 50.4847L39.859 62.975C39.859 62.975 45.5542 63.514 49.9837 61.3851C54.4133 59.2697 58.4525 54.0553 58.4525 54.0553L55.6385 39.0588L66.2749 59.0406Z" fill="#9263B7"/>
<path opacity="0.6" d="M67.5811 59.4977L58.4526 54.0677L67.1233 60.8047L67.5811 59.4977Z" fill="#9263B7"/>
<path opacity="0.6" d="M38.809 72.1914L39.8457 62.9752L37.503 71.7333L38.809 72.1914Z" fill="#9263B7"/>
<path opacity="0.6" d="M41.9744 42.3498L50.8276 38.1094L47.0148 30.1367L38.1616 34.3771L41.9744 42.3498Z" fill="#9263B7"/>
<path opacity="0.6" d="M32.242 47.0275L41.0952 42.7871L37.2823 34.8144L28.4291 39.0547L32.242 47.0275Z" fill="#9263B7"/>
<path opacity="0.6" d="M42.4056 43.2345L51.2588 38.9941L47.4459 31.0215L38.5927 35.2618L42.4056 43.2345Z" fill="#9263B7"/>
<path opacity="0.6" d="M32.6566 47.8947L41.5098 43.6543L37.6969 35.6816L28.8437 39.922L32.6566 47.8947Z" fill="#9263B7"/>
<path opacity="0.6" d="M48.7615 56.5373L57.6147 52.2969L53.8019 44.3242L44.9487 48.5646L48.7615 56.5373Z" fill="#9263B7"/>
<path opacity="0.6" d="M39.0125 61.1974L47.8657 56.957L44.0529 48.9843L35.1996 53.2247L39.0125 61.1974Z" fill="#9263B7"/>
<path opacity="0.6" d="M48.0872 52.4943L56.9404 48.2539L53.1276 40.2812L44.2743 44.5216L48.0872 52.4943Z" fill="#9263B7"/>
<path opacity="0.6" d="M39.4437 62.088L48.2969 57.8477L44.484 49.875L35.6308 54.1153L39.4437 62.088Z" fill="#9263B7"/>
<path opacity="0.6" d="M48.0044 23.1182L39.4819 7.58277C39.4819 7.58277 29.8149 7.85225 25.3853 9.98113C20.9557 12.0965 15.1394 18.1598 15.1394 18.1598L22.3021 35.4199L48.0044 23.1182Z" fill="#9263B7"/>
</g>
<path d="M0.585115 16.8274C0.356231 16.1672 0.235044 15.8168 0.235044 15.8168L28.4955 2.28901C28.4955 2.28901 28.6974 2.61237 29.061 3.20522C33.4232 10.2251 61.4952 55.5515 62.6396 60.0248C63.8244 64.6868 61.4144 98.439 57.9273 100.258C54.4401 102.077 26.6375 82.4993 23.7428 78.6458C20.9693 74.9404 3.30479 24.6288 0.585115 16.8274Z" fill="url(#paint0_linear_256_1709)"/>
<path d="M3.74931 18.4856C3.53389 17.8792 3.41271 17.5424 3.41271 17.5424L27.7687 5.87399C27.7687 5.87399 27.9572 6.17042 28.2938 6.72285C32.2925 13.2847 58.0486 55.5793 59.1527 59.7158C59.3277 60.3491 59.4489 61.5752 59.5162 63.1921C59.5431 63.9332 59.5701 64.7551 59.5835 65.6578C59.7182 75.9923 58.4525 95.2466 56.1098 96.4862C53.5652 97.8201 35.3488 84.6022 28.2534 78.3503C27.4859 77.6766 26.8531 77.0837 26.3819 76.5986C26.0587 76.2753 25.8164 75.9923 25.6548 75.7633C23.1102 72.3274 6.33435 25.7211 3.74931 18.4856Z" fill="url(#paint1_linear_256_1709)"/>
<path opacity="0.64" d="M36.8162 28.7916L52.5015 61.5872L28.6168 70.8437L14.6683 39.3956L36.8162 28.7916Z" fill="#8DB5C9"/>
<path d="M55.1538 60.3219C55.1538 60.3219 52.838 66.8702 43.9923 71.1145C35.1332 75.3588 27.2704 72.5832 27.2704 72.5832L18.4112 51.766L28.7379 64.2563C28.7379 64.2563 34.4331 64.7952 38.8627 62.6664C43.2922 60.5375 47.3314 55.3365 47.3314 55.3365L44.5174 40.34L55.1538 60.3219Z" fill="url(#paint2_linear_256_1709)"/>
<path d="M56.46 60.779L47.3315 55.349L56.0022 62.0859L56.46 60.779Z" fill="url(#paint3_linear_256_1709)"/>
<path d="M27.7011 73.4727L28.7378 64.2565L26.3816 73.0011L27.7011 73.4727Z" fill="url(#paint4_linear_256_1709)"/>
<path d="M30.8548 43.6349L39.708 39.3945L35.8951 31.4218L27.042 35.6622L30.8548 43.6349Z" fill="#EFD0A3"/>
<path d="M21.118 48.2892L29.9712 44.0488L26.1583 36.0761L17.3051 40.3165L21.118 48.2892Z" fill="#EFD0A3"/>
<path d="M31.2855 44.5255L40.1387 40.2852L36.3258 32.3125L27.4726 36.5528L31.2855 44.5255Z" fill="#C9A26D"/>
<path d="M21.5374 49.1759L30.3906 44.9355L26.5778 36.9629L17.7245 41.2032L21.5374 49.1759Z" fill="#C9A26D"/>
<path d="M37.6419 57.8224L46.4951 53.582L42.6822 45.6093L33.829 49.8497L37.6419 57.8224Z" fill="#EFD0A3"/>
<path d="M27.9051 62.4787L36.7583 58.2383L32.9454 50.2656L24.0922 54.5059L27.9051 62.4787Z" fill="#EFD0A3"/>
<path d="M38.0682 58.6896L46.9214 54.4492L43.1085 46.4765L34.2553 50.7169L38.0682 58.6896Z" fill="#C9A26D"/>
<path d="M28.3245 63.3654L37.1777 59.125L33.3649 51.1523L24.5117 55.3927L28.3245 63.3654Z" fill="#C9A26D"/>
<path d="M36.8833 24.3995L28.3608 8.86402C28.3608 8.86402 18.6938 9.1335 14.2642 11.2624C9.83463 13.3913 4.0183 19.4411 4.0183 19.4411L11.181 36.7012L36.8833 24.3995Z" fill="#EFD0A3"/>
<path opacity="0.47" d="M11.1946 36.7012L4.03184 19.4411C4.03184 19.4411 9.84821 13.3913 14.2778 11.2624C18.7074 9.1335 28.3743 8.86402 28.3743 8.86402L29.6265 11.1411C27.1087 11.2624 20.0403 11.7744 16.4454 13.4991C12.0159 15.6145 6.19953 21.6777 6.19953 21.6777L12.2313 36.2161L11.1946 36.7012Z" fill="#D1659B"/>
<path opacity="0.21" d="M26.355 76.624C28.2938 77.0148 36.0624 78.0792 46.416 73.1208C54.1173 69.4289 57.8198 65.5485 59.4893 63.2309C59.5162 63.972 59.5432 64.7939 59.5566 65.6967C57.6313 68.0411 53.9422 71.45 47.17 74.6972C38.23 78.982 31.2289 78.7798 28.2264 78.3891C27.4725 77.7019 26.8397 77.1091 26.355 76.624Z" fill="#9263B7"/>
<path d="M40.9092 71.4908L37.5163 64.4035L31.3499 65.1716L29.465 72.6091C29.465 72.6226 36.0488 72.7304 40.9092 71.4908Z" fill="url(#paint5_linear_256_1709)"/>
<defs>
<linearGradient id="paint0_linear_256_1709" x1="74.5425" y1="79.7612" x2="-1.74615" y2="18.2541" gradientUnits="userSpaceOnUse">
<stop stop-color="#CFEEFA"/>
<stop offset="1" stop-color="white"/>
</linearGradient>
<linearGradient id="paint1_linear_256_1709" x1="107.979" y1="13.9313" x2="25.5286" y2="59.2897" gradientUnits="userSpaceOnUse">
<stop stop-color="#CFEEFA"/>
<stop offset="1" stop-color="white"/>
</linearGradient>
<linearGradient id="paint2_linear_256_1709" x1="15.9835" y1="49.8213" x2="72.7329" y2="68.7321" gradientUnits="userSpaceOnUse">
<stop stop-color="#9AFFCF"/>
<stop offset="1" stop-color="#0A57A8"/>
</linearGradient>
<linearGradient id="paint3_linear_256_1709" x1="43.8665" y1="44.1055" x2="47.8874" y2="51.0803" gradientUnits="userSpaceOnUse">
<stop stop-color="#CFEEFA"/>
<stop offset="1" stop-color="white"/>
</linearGradient>
<linearGradient id="paint4_linear_256_1709" x1="21.0233" y1="57.2752" x2="25.0444" y2="64.2502" gradientUnits="userSpaceOnUse">
<stop stop-color="#CFEEFA"/>
<stop offset="1" stop-color="white"/>
</linearGradient>
<linearGradient id="paint5_linear_256_1709" x1="16.3289" y1="65.873" x2="47.398" y2="70.6425" gradientUnits="userSpaceOnUse">
<stop stop-color="#D9FF5E"/>
<stop offset="1"/>
</linearGradient>
</defs>
</svg>
