<svg width="50" height="36" viewBox="0 0 50 36" fill="none" xmlns="http://www.w3.org/2000/svg">
<path d="M36.0043 27.8971C36.1839 27.8236 36.3697 27.7491 36.4962 27.6141C36.6258 27.4786 36.6925 27.2895 36.7567 27.1054C36.8134 26.9444 36.8724 26.7784 36.9728 26.6583C37.065 26.5472 37.1957 26.4619 37.3265 26.3876L37.3746 26.3617C37.5398 26.2651 37.7135 26.1625 37.822 26.0112C37.9304 25.86 37.9708 25.6637 38.0088 25.4724C38.0392 25.3043 38.0756 25.1337 38.1578 24.9974C38.2406 24.8641 38.3771 24.7543 38.5108 24.6466C38.6616 24.5269 38.8179 24.4017 38.904 24.238C38.9899 24.0728 39.0025 23.8695 39.0106 23.6779C39.0219 23.5079 39.0291 23.3322 39.0913 23.1877C39.1535 23.0433 39.2748 22.9153 39.3932 22.7894C39.5252 22.6488 39.6643 22.5025 39.7263 22.3251C39.7871 22.1494 39.7689 21.9506 39.7519 21.7596C39.7345 21.5874 39.72 21.4133 39.7619 21.2593C39.8025 21.107 39.9039 20.9615 40.0047 20.8224C40.1137 20.6648 40.2282 20.5016 40.2661 20.3198C40.3021 20.1367 40.2574 19.9388 40.2111 19.752C40.1726 19.5861 40.1329 19.4126 40.1495 19.2575C40.1707 19.1018 40.2498 18.9438 40.3265 18.7909C40.3694 18.7075 40.4148 18.6206 40.4491 18.5322C40.5688 18.233 40.4727 17.9748 40.3784 17.729C40.3184 17.5663 40.2563 17.4008 40.2516 17.2189C40.2475 17.0622 40.3035 16.8966 40.3601 16.7357C40.4244 16.5516 40.4875 16.3598 40.4714 16.1749C40.4519 15.9889 40.3557 15.8158 40.2591 15.6506C40.1755 15.4992 40.0871 15.347 40.061 15.1903C40.0353 15.0367 40.0681 14.8635 40.0985 14.6954C40.1334 14.5046 40.1723 14.3085 40.1282 14.1262C40.0842 13.9438 39.9592 13.789 39.8439 13.636C39.7373 13.499 39.6284 13.3577 39.5811 13.2072C39.5313 13.0603 39.5412 12.8921 39.548 12.7133C39.5556 12.5186 39.5639 12.3176 39.4941 12.1421C39.4252 11.9729 39.2804 11.8336 39.141 11.6983C39.0988 11.6573 39.0513 11.6123 39.0117 11.5678C38.9206 11.4726 38.8587 11.3935 38.8218 11.314C38.7511 11.1749 38.7357 11.0056 38.7176 10.8289C38.7001 10.6347 38.6789 10.4364 38.5856 10.2723C38.4892 10.1087 38.3258 9.99259 38.1704 9.87693C38.0246 9.774 37.8889 9.67434 37.804 9.54674C37.7126 9.41696 37.6712 9.24208 37.6292 9.07358C37.5829 8.88683 37.5342 8.69414 37.4216 8.54859C37.3056 8.40195 37.1269 8.31016 36.9546 8.219C36.7993 8.13637 36.6491 8.05613 36.5425 7.94117C36.4373 7.82443 36.369 7.65978 36.3063 7.50061C36.2328 7.32101 36.1552 7.13569 36.0233 7.00871C35.8878 6.8791 35.6987 6.81245 35.5146 6.7482C35.3536 6.69156 35.1876 6.63252 35.0675 6.53214C34.944 6.43067 34.856 6.2815 34.7678 6.1308C34.6712 5.96559 34.5717 5.79137 34.4204 5.68296C34.2692 5.57455 34.0733 5.5372 33.8821 5.49918C33.7166 5.46524 33.543 5.42935 33.4086 5.34994C33.2722 5.26767 33.1635 5.12783 33.0545 4.99592C32.9426 4.85499 32.8266 4.70836 32.6783 4.61997C32.4956 4.51146 32.2882 4.50256 32.0843 4.49629C31.9162 4.4879 31.7436 4.48019 31.5941 4.41558C31.4492 4.3503 31.3217 4.23211 31.1957 4.1137C31.055 3.98014 30.9089 3.84265 30.735 3.7832C30.559 3.7209 30.3572 3.7395 30.1661 3.75652C29.994 3.77391 29.8199 3.78844 29.6659 3.74653C29.5136 3.70594 29.3712 3.6041 29.2294 3.50688C29.0714 3.39475 28.9082 3.28022 28.7264 3.24238C28.542 3.20807 28.3489 3.25372 28.1586 3.29738C27.9927 3.33588 27.8209 3.37683 27.6641 3.35893C27.5068 3.33795 27.3504 3.25862 27.1973 3.18038C27.027 3.09208 26.847 3.00205 26.66 2.99329C26.4757 2.981 26.2866 3.05438 26.1068 3.1264C25.9487 3.18579 25.7851 3.2507 25.6253 3.25527C25.4716 3.25894 25.303 3.20344 25.142 3.1468C24.9553 3.08608 24.7662 3.01943 24.5813 3.03554C24.3953 3.05496 24.2226 3.15426 24.0539 3.24826C23.9089 3.33248 23.7538 3.4229 23.5969 3.44749C23.4433 3.47318 23.2701 3.44037 23.102 3.40996C22.9107 3.37194 22.7149 3.33459 22.5327 3.3802C22.3535 3.42382 22.1952 3.54618 22.0411 3.66478L21.9989 3.69929C21.8799 3.78913 21.7519 3.88187 21.6138 3.92731C21.4665 3.97411 21.2987 3.96726 21.1199 3.96045C20.9248 3.94975 20.7242 3.94457 20.5483 4.01129C20.3759 4.08064 20.2397 4.22493 20.1075 4.36392C19.9871 4.48702 19.8596 4.61587 19.7205 4.68663C19.581 4.75432 19.415 4.7708 19.235 4.78778C19.0413 4.80833 18.8426 4.82648 18.6787 4.92134C18.5335 5.00402 18.4261 5.14093 18.3356 5.26436L18.2831 5.33501C18.1797 5.47764 18.0805 5.61651 17.9529 5.70132C17.8196 5.79012 17.648 5.8326 17.4823 5.87265C17.2925 5.91938 17.1014 5.96789 16.9545 6.08228C16.8079 6.19821 16.7128 6.37581 16.6249 6.5492C16.5392 6.70498 16.4651 6.85432 16.3466 6.95825C16.2299 7.0635 16.0652 7.13172 15.9061 7.19441C15.728 7.26775 15.5442 7.34507 15.4142 7.47745C15.2846 7.61291 15.2179 7.80207 15.1536 7.98617C15.097 8.14711 15.038 8.31313 14.9391 8.43306C14.8377 8.55652 14.6854 8.64495 14.5373 8.72962C14.3693 8.82824 14.1984 8.92885 14.0915 9.07986C13.9815 9.23132 13.9427 9.42742 13.9046 9.61868C13.8711 9.78724 13.8383 9.96042 13.7556 10.0937C13.7151 10.161 13.6579 10.2214 13.5974 10.2806C13.7328 10.2277 13.8682 10.1638 13.9682 10.0735C14.0852 9.96983 14.161 9.82181 14.2465 9.6645C14.3344 9.4911 14.4295 9.3135 14.5761 9.19757C14.7227 9.08164 14.9141 9.03467 15.104 8.98794C15.2694 8.94635 15.4412 8.90541 15.5745 8.81661C15.7036 8.73157 15.8013 8.59293 15.9047 8.4503L15.9572 8.37965C16.0477 8.25622 16.1533 8.11799 16.3003 8.03663C16.464 7.94023 16.6627 7.92208 16.8566 7.90307C17.0364 7.88455 17.2026 7.86961 17.3422 7.80192C17.4813 7.73116 17.6087 7.60231 17.7291 7.47921C17.8613 7.34022 17.9975 7.19593 18.1699 7.12658C18.3458 7.05986 18.5448 7.06526 18.7415 7.07574C18.9203 7.08255 19.0863 7.08808 19.2354 7.0426C19.372 6.99739 19.5 6.90465 19.6205 6.81458L19.6627 6.78007C19.8166 6.65993 19.9764 6.53734 20.1543 6.49549C20.3365 6.44988 20.5324 6.48723 20.7236 6.52525C20.8917 6.55566 21.0649 6.58847 21.2185 6.56278C21.3752 6.53665 21.5305 6.44777 21.6755 6.36355C21.8442 6.26955 22.0184 6.17003 22.2029 6.15083C22.3893 6.13449 22.5785 6.20115 22.7636 6.26209C22.9246 6.31873 23.0932 6.37423 23.2469 6.37056C23.4067 6.36599 23.5718 6.30085 23.7284 6.24169C23.908 6.16813 24.0973 6.09629 24.2816 6.10858C24.4686 6.11734 24.6471 6.20759 24.8189 6.29567C24.9718 6.37237 25.1266 6.45193 25.2855 6.47268C25.4423 6.49058 25.6141 6.44963 25.78 6.41113C25.97 6.36593 26.1619 6.32205 26.3478 6.35613C26.5309 6.3922 26.6941 6.50673 26.8508 6.62063C26.9928 6.71939 27.1349 6.81969 27.2872 6.86028C27.4395 6.90088 27.6152 6.88612 27.7875 6.87027C27.9786 6.85325 28.1804 6.83465 28.3563 6.89695C28.5321 6.95771 28.6763 7.09389 28.8171 7.22745C28.9428 7.34432 29.0705 7.46405 29.2154 7.52933C29.3663 7.59217 29.5392 7.60142 29.7056 7.61004C29.908 7.61653 30.1168 7.62366 30.2997 7.73372C30.448 7.8221 30.5639 7.96874 30.6759 8.10967C30.7836 8.24335 30.8936 8.38142 31.03 8.46369C31.1628 8.54333 31.338 8.57899 31.5035 8.61293C31.6947 8.65095 31.8906 8.6883 32.0418 8.79671C32.1931 8.90512 32.2939 9.07758 32.3892 9.24455C32.4774 9.39525 32.5654 9.54442 32.6889 9.64589C32.8092 9.74782 32.975 9.80531 33.136 9.86195C33.3201 9.9262 33.5092 9.99285 33.6447 10.1225C33.7766 10.2494 33.8542 10.4348 33.9277 10.6144C33.9904 10.7735 34.0586 10.9382 34.1639 11.0549C34.2689 11.1701 34.4192 11.2503 34.576 11.3328C34.7468 11.4241 34.927 11.5157 35.0429 11.6623C35.1558 11.8094 35.2028 12.0008 35.2506 12.1873C35.2926 12.3558 35.3338 12.5292 35.4254 12.6605C35.5105 12.7896 35.6476 12.8875 35.7917 12.9907C35.9472 13.1063 36.1108 13.224 36.207 13.3861C36.3003 13.5502 36.3215 13.7485 36.339 13.9426C36.357 14.1194 36.3724 14.2886 36.4432 14.4277C36.4803 14.5088 36.5407 14.5881 36.6331 14.6815C36.6727 14.7261 36.7202 14.771 36.7624 14.812C36.9016 14.9458 37.0463 15.0851 37.1155 15.2559C37.1853 15.4313 37.1768 15.6308 37.1694 15.827C37.1626 16.0058 37.154 16.1723 37.2025 16.321C37.2498 16.4714 37.3586 16.6128 37.4653 16.7498C37.5819 16.901 37.7071 17.0573 37.7496 17.2399C37.7937 17.4223 37.7548 17.6184 37.7199 17.8092C37.6895 17.9773 37.6567 18.1505 37.6823 18.3041C37.7085 18.4607 37.7969 18.613 37.8805 18.7643C37.9771 18.9296 38.0736 19.1042 38.0928 19.2887C38.1091 19.4751 38.046 19.6669 37.9815 19.8494C37.9249 20.0104 37.8689 20.1759 37.873 20.3327C37.8777 20.5145 37.9413 20.6799 37.9998 20.8428C38.0941 21.0886 38.1902 21.3467 38.0705 21.646C38.0362 21.7344 37.9908 21.8213 37.9479 21.9047C37.8712 22.0576 37.7921 22.2155 37.7709 22.3712C37.7543 22.5263 37.794 22.6999 37.8325 22.8658C37.8787 23.0525 37.9251 23.2503 37.8875 23.4336C37.8514 23.6167 37.7369 23.7798 37.626 23.9362C37.5253 24.0752 37.4239 24.2207 37.3833 24.373C37.3427 24.5253 37.3575 24.701 37.3733 24.8733C37.3903 25.0644 37.4085 25.2631 37.3477 25.4388C37.2856 25.6163 37.1464 25.761 37.0146 25.9031C36.8977 26.0288 36.7749 26.157 36.7127 26.3015C36.6505 26.4459 36.6433 26.6216 36.632 26.7917C36.6239 26.9832 36.613 27.1878 36.5254 27.3517C36.4395 27.517 36.2832 27.6422 36.1322 27.7603C36.0676 27.8139 36.0013 27.8661 35.9432 27.9203C35.9628 27.9142 35.9836 27.9065 36.0043 27.8971Z" fill="white"/>
<path d="M26.7846 31.9443C27.0196 32.0231 27.2601 32.1074 27.5275 32.01C27.641 31.9682 27.7497 31.905 27.8574 31.8451C28.0054 31.7605 28.1605 31.67 28.3144 31.6459C28.4679 31.6202 28.6442 31.6526 28.8097 31.6865C29.0005 31.7215 29.1966 31.7603 29.38 31.713C29.5593 31.6694 29.7176 31.547 29.8702 31.4286C30.0045 31.3255 30.1459 31.2166 30.2959 31.1663C30.4432 31.1195 30.622 31.1263 30.7914 31.1329C30.9834 31.1441 31.1845 31.1524 31.3599 31.0826C31.5323 31.0132 31.6687 30.8705 31.8038 30.7295C31.9242 30.6064 32.0443 30.4817 32.1876 30.4072C32.3302 30.3391 32.4962 30.3226 32.6732 30.3061C32.8668 30.2855 33.0656 30.2674 33.2295 30.1725C33.3951 30.079 33.5132 29.9184 33.6249 29.7573C33.7283 29.6147 33.8279 29.4789 33.9551 29.391C34.0853 29.3026 34.26 29.2597 34.4287 29.2192L34.5092 29.1995C34.6561 29.1607 34.8255 29.1138 34.9554 29.0129C35.1036 28.8967 35.1969 28.7178 35.285 28.546C35.3653 28.3957 35.4474 28.2373 35.5629 28.1338C35.6658 28.0416 35.8027 27.9775 35.9412 27.9241C35.9991 27.8684 36.0672 27.8175 36.1302 27.7642C36.281 27.6445 36.4373 27.5193 36.5234 27.3556C36.6093 27.1904 36.6219 26.9871 36.63 26.7955C36.6413 26.6255 36.6485 26.4498 36.7107 26.3053C36.7729 26.1609 36.8942 26.0329 37.0126 25.907C37.1446 25.7664 37.2837 25.6201 37.3457 25.4427C37.4065 25.267 37.3884 25.0682 37.3713 24.8772C37.3539 24.705 37.3394 24.5309 37.3813 24.3769C37.4219 24.2246 37.5233 24.0791 37.6241 23.94C37.7331 23.7824 37.8476 23.6192 37.8855 23.4374C37.9215 23.2543 37.8768 23.0564 37.8305 22.8696C37.792 22.7037 37.7523 22.5302 37.7689 22.3751C37.7901 22.2194 37.8692 22.0614 37.9459 21.9085C37.9888 21.8251 38.0342 21.7382 38.0685 21.6498C38.1882 21.3506 38.0921 21.0924 37.9978 20.8466C37.9378 20.6839 37.8757 20.5184 37.871 20.3365C37.8669 20.1798 37.9229 20.0142 37.9795 19.8533C38.0438 19.6692 38.1069 19.4774 38.0908 19.2925C38.0713 19.1065 37.9751 18.9334 37.8785 18.7682C37.7949 18.6168 37.7065 18.4646 37.6804 18.3079C37.6547 18.1543 37.6873 17.9796 37.7179 17.813C37.7528 17.6222 37.7917 17.4261 37.7477 17.2438C37.7036 17.0614 37.5786 16.9066 37.4633 16.7536C37.3567 16.6166 37.2478 16.4753 37.2005 16.3248C37.1507 16.1779 37.1606 16.0097 37.1674 15.8309C37.175 15.6362 37.1833 15.4352 37.1135 15.2597C37.0446 15.0905 36.8998 14.9512 36.7604 14.8159C36.7182 14.7749 36.6707 14.7299 36.6311 14.6854C36.54 14.5902 36.4781 14.5111 36.4412 14.4316C36.3705 14.2925 36.3551 14.1232 36.337 13.9465C36.3195 13.7523 36.2983 13.554 36.205 13.3899C36.1086 13.2263 35.9452 13.1102 35.7898 12.9945C35.6441 12.8916 35.5083 12.7919 35.4235 12.6643C35.332 12.5346 35.2906 12.3597 35.2486 12.1912C35.2023 12.0044 35.1536 11.8117 35.041 11.6662C34.925 11.5196 34.7463 11.4278 34.574 11.3366C34.4187 11.254 34.2685 11.1737 34.1619 11.0588C34.0567 10.942 33.9884 10.7774 33.9257 10.6182C33.8522 10.4386 33.7746 10.2533 33.6427 10.1263C33.5072 9.9967 33.3181 9.93005 33.134 9.8658C32.973 9.80916 32.807 9.75012 32.6869 9.64974C32.5634 9.54827 32.4754 9.3991 32.3872 9.2484C32.2906 9.08319 32.1911 8.90897 32.0398 8.80056C31.8886 8.69215 31.6927 8.6548 31.5015 8.61678C31.336 8.58284 31.1624 8.54695 31.028 8.46754C30.8916 8.38527 30.7829 8.24543 30.6739 8.11352C30.562 7.97259 30.446 7.82596 30.2977 7.73757C30.1166 7.62883 29.9076 7.62016 29.7037 7.61389C29.5356 7.6055 29.363 7.59779 29.2135 7.53318C29.0686 7.4679 28.9411 7.34971 28.8151 7.2313C28.6744 7.09774 28.5283 6.96025 28.3544 6.9008C28.18 6.83827 27.9766 6.8571 27.7855 6.87412C27.6134 6.89151 27.4393 6.90604 27.2853 6.86413C27.133 6.82354 26.9906 6.7217 26.8488 6.62448C26.6908 6.51235 26.5276 6.39782 26.3458 6.35998C26.1614 6.32567 25.9683 6.37132 25.778 6.41498C25.6121 6.45348 25.4403 6.49443 25.2835 6.47653C25.1262 6.45555 24.9698 6.37622 24.8169 6.29952C24.6466 6.21122 24.4666 6.12119 24.2796 6.11243C24.0953 6.10014 23.9062 6.17352 23.7264 6.24554C23.5683 6.30493 23.4048 6.36984 23.2449 6.37441C23.0913 6.37808 22.9226 6.32258 22.7617 6.26594C22.5749 6.20522 22.3858 6.13857 22.2009 6.15468C22.0149 6.17411 21.8422 6.2734 21.6735 6.3674C21.5285 6.45162 21.3734 6.54204 21.2165 6.56663C21.0629 6.59232 20.8897 6.55951 20.7216 6.5291C20.5304 6.49108 20.3345 6.45373 20.1524 6.49934C19.9731 6.54296 19.8148 6.66532 19.6607 6.78392L19.6185 6.81843C19.4996 6.90827 19.3715 7.00101 19.2334 7.04645C19.0861 7.09325 18.9183 7.0864 18.7395 7.07959C18.5444 7.06889 18.3438 7.06371 18.1679 7.13043C17.9955 7.19978 17.8594 7.34407 17.7271 7.48306C17.6067 7.60616 17.4793 7.73501 17.3402 7.80577C17.2006 7.87346 17.0347 7.88994 16.8546 7.90692C16.661 7.92747 16.4622 7.94562 16.2983 8.04048C16.1531 8.12316 16.0457 8.26007 15.9553 8.3835L15.9027 8.45415C15.7993 8.59678 15.7001 8.73565 15.5725 8.82046C15.4392 8.90926 15.2676 8.95174 15.102 8.99179C14.9121 9.03852 14.721 9.08703 14.5741 9.20142C14.4275 9.31735 14.3324 9.49495 14.2445 9.66835C14.1588 9.82412 14.0847 9.97346 13.9662 10.0774C13.866 10.1661 13.7308 10.2315 13.5954 10.2844L13.5927 10.288C13.5318 10.3441 13.4657 10.3979 13.3976 10.4488C13.3002 10.5245 13.2018 10.605 13.1205 10.694C12.929 10.9015 12.9179 11.158 12.9041 11.4071C12.8959 11.5767 12.8856 11.7529 12.8173 11.9092C12.7555 12.0568 12.634 12.1832 12.5154 12.3076C12.3834 12.4481 12.2474 12.5939 12.1854 12.7714C12.1246 12.9471 12.1427 13.1459 12.1602 13.34C12.1741 13.5095 12.1888 13.6851 12.1467 13.8377C12.1076 13.9897 12.0047 14.1354 11.907 14.2741C11.7949 14.4321 11.6804 14.5953 11.6425 14.7771C11.6082 14.9615 11.6539 15.1546 11.6975 15.3449C11.7391 15.5103 11.7772 15.6841 11.7591 15.8394C11.7412 15.9963 11.6588 16.1531 11.5821 16.306C11.4942 16.4794 11.4007 16.6568 11.3919 16.8437C11.3832 17.0307 11.4576 17.2165 11.5281 17.3965C11.5908 17.5557 11.6559 17.7208 11.657 17.878C11.662 18.0409 11.6203 18.1965 11.5793 18.3457C11.5326 18.5319 11.4808 18.7252 11.5117 18.9363C11.5399 19.1068 11.6299 19.2698 11.7221 19.4262C11.8052 19.5745 11.8941 19.7299 11.9202 19.8865C11.9455 20.037 11.9131 20.2133 11.8792 20.3788C11.8458 20.5694 11.8089 20.7683 11.8527 20.9491C11.8963 21.1284 12.0187 21.2867 12.1371 21.4393C12.2402 21.5736 12.3521 21.7146 12.3994 21.865C12.4493 22.0119 12.4398 22.1832 12.4327 22.3605C12.4247 22.5521 12.4138 22.7566 12.4834 22.9305C12.5523 23.0998 12.697 23.2391 12.836 23.3713C12.9591 23.4917 13.0873 23.6145 13.1587 23.7583C13.2264 23.8978 13.2429 24.0638 13.2596 24.2423C13.2802 24.4359 13.2999 24.6345 13.3932 24.7986C13.4867 24.9642 13.6503 25.0818 13.8084 25.194C13.9515 25.3004 14.0868 25.397 14.1752 25.5272C14.2635 25.6575 14.308 25.8319 14.3465 25.9978C14.3928 26.1845 14.4417 26.3788 14.5541 26.5228C14.6736 26.672 14.8492 26.7643 15.023 26.8552C15.1784 26.9378 15.3282 27.015 15.4347 27.13C15.4946 27.1951 15.5432 27.2793 15.5989 27.4017C15.6278 27.4698 15.6584 27.5393 15.6816 27.6114C15.7452 27.7768 15.8115 27.9496 15.9269 28.0711C16.0553 28.2065 16.2392 28.2802 16.4194 28.3497C16.566 28.4053 16.7212 28.4659 16.8412 28.5648C16.9611 28.6636 17.0495 28.8159 17.1373 28.9635C17.2343 29.1318 17.3339 29.306 17.4849 29.4129C17.6361 29.5213 17.8351 29.5582 18.0232 29.5967C18.1918 29.6301 18.3654 29.666 18.4983 29.7457C18.6347 29.8279 18.7433 29.9678 18.8493 30.1001C18.971 30.2538 19.0946 30.4103 19.2579 30.4934C19.4247 30.579 19.6259 30.5888 19.818 30.6C19.9875 30.6082 20.1668 30.6181 20.3112 30.6803C20.4762 30.7536 20.6083 30.8711 20.7327 30.9898C20.9309 31.1715 21.1324 31.3544 21.4539 31.3576C21.5483 31.3579 21.643 31.3487 21.7394 31.3409C21.9084 31.3239 22.0856 31.3089 22.2366 31.3513C22.3889 31.3919 22.5344 31.4933 22.673 31.591C22.8311 31.7031 22.9978 31.8202 23.1791 31.855C23.362 31.8895 23.5567 31.8437 23.7439 31.8005C23.9128 31.7615 24.0831 31.7208 24.2384 31.7389C24.3957 31.7599 24.5521 31.8392 24.7052 31.9175C24.8786 32.0053 25.0575 32.0986 25.2429 32.1076C25.4299 32.1164 25.6161 32.045 25.7957 31.9714C25.9553 31.9118 26.1204 31.8467 26.2802 31.8421C26.4586 31.8348 26.6257 31.8906 26.7846 31.9443ZM24.877 9.94761C29.0699 9.33235 32.9684 12.2331 33.5837 16.426C33.9993 19.2587 32.8096 21.9604 30.6991 23.5982C29.6884 24.3885 28.4654 24.933 27.1053 25.1326C22.9154 25.7474 19.017 22.8467 18.4017 18.6538C18.1926 17.2289 18.3899 15.8389 18.9081 14.5984C19.908 12.1905 22.1121 10.3533 24.877 9.94761Z" fill="white"/>
<mask id="mask0_256_1744" style="mask-type:alpha" maskUnits="userSpaceOnUse" x="18" y="9" width="16" height="17">
<path d="M18.4019 18.6562C18.1928 17.2314 18.3901 15.8413 18.9083 14.6009C19.9098 12.1927 22.1123 10.3558 24.8788 9.94983C29.0717 9.33457 32.9686 12.2355 33.5838 16.4284C33.9995 19.2612 32.8096 21.9613 30.6993 23.6006C29.6886 24.391 28.4656 24.9355 27.107 25.1348C22.9156 25.7499 19.0172 22.8491 18.4019 18.6562Z" fill="black"/>
</mask>
<g mask="url(#mask0_256_1744)">
<path d="M8.68359 29.9561C9.27783 29.5447 12.2998 29.0462 13.9825 28.1919C15.6651 27.3376 16.6689 27.1006 20.8864 26.5887C24.5704 26.141 25.3545 25.9614 27.4042 24.1453L27.4461 24.1628C29.9565 21.8936 29.3678 21.3883 30.5343 20.5547C31.1664 20.1016 32 19.9273 32.9311 19.6774C33.2951 19.6916 33.7259 19.5608 34.3057 19.2334C34.6788 19.0842 35.0596 18.9024 35.4405 18.6672C37.3322 17.5005 37.7903 18.6811 39.5762 19.4529C41.3652 20.2242 43.2024 19.9939 43.7083 19.2383C44.2145 18.4843 40.5804 13.0743 40.5804 13.0743L39.3452 13.5891C39.3452 13.5891 41.1351 16.6829 41.3883 17.7865C41.3883 17.7865 39.9317 17.3504 38.9456 16.7744C38.3434 16.4238 37.8484 16.1282 37.4875 15.8239C37.493 15.7649 37.4917 15.7242 37.4853 15.7125C37.4458 15.6365 37.1897 15.5104 37.161 15.4973C37.0865 15.4076 37.0194 15.3151 36.9706 15.2184C36.6878 14.6636 37.6254 14.2868 37.6254 14.2868L36.7895 12.8155C36.7895 12.8155 35.9853 13.426 35.6533 12.9004C35.5977 12.811 35.5546 12.7103 35.5155 12.6043C35.5165 12.59 35.5444 12.2869 35.4972 12.212C35.4893 12.2006 35.4559 12.1772 35.3986 12.151C35.3224 11.6854 35.3208 11.1065 35.3283 10.4068C35.34 9.26425 35.7107 7.79052 35.7107 7.79052C36.5288 8.57212 38.2693 11.6935 38.2693 11.6935L39.3444 10.8922C39.3444 10.8922 36.5586 5.00053 35.6514 5.04867C34.744 5.09528 33.6053 6.5574 33.352 8.48754C33.1002 10.4175 33.8792 11.4156 31.9088 12.4428C31.4981 12.6572 31.1386 12.8988 30.8104 13.15C30.2502 13.4714 29.9237 13.7663 29.754 14.0792C29.0625 14.7503 28.4859 15.3777 27.7732 15.69C26.4601 16.2635 26.3275 15.4993 23.092 16.495C22.4688 16.6871 21.9363 16.9399 21.4869 17.223C18.0968 19.2342 15.0984 24.398 13.7139 24.4312C12.0944 24.4721 11.4727 25.3077 10.2677 26.1249C9.06295 26.9437 7.07135 27.494 6.30116 27.8966C5.65336 28.2324 5.15373 29.2026 5.34586 29.6433C4.90936 29.7892 4.5724 29.9378 4.47427 30.0733C4.13476 30.537 5.40131 31.3724 5.85213 31.3456C6.30317 31.3203 8.08959 30.3689 8.68359 29.9561ZM8.6017 28.4543C9.00803 28.3066 9.7369 28.0407 10.6053 27.7496C9.43981 28.3109 8.49926 28.7856 8.33656 28.8457C8.21124 28.8924 7.82341 28.9839 7.33881 29.1023C7.76279 28.8496 8.20109 28.5981 8.6017 28.4543Z" fill="#DAEFEE"/>
<path d="M8.68359 29.9561C9.27783 29.5447 12.2998 29.0462 13.9825 28.1919C15.6651 27.3376 16.6689 27.1006 20.8864 26.5887C24.5704 26.141 25.3545 25.9614 27.4042 24.1453L27.4461 24.1628C29.9565 21.8936 29.3678 21.3883 30.5343 20.5547C31.1664 20.1016 32 19.9273 32.9311 19.6774C33.2951 19.6916 33.7259 19.5608 34.3057 19.2334C34.6788 19.0842 35.0596 18.9024 35.4405 18.6672C37.3322 17.5005 37.7903 18.6811 39.5762 19.4529C41.3652 20.2242 43.2024 19.9939 43.7083 19.2383C44.2145 18.4843 40.5804 13.0743 40.5804 13.0743L39.3452 13.5891C39.3452 13.5891 41.1351 16.6829 41.3883 17.7865C41.3883 17.7865 39.9317 17.3504 38.9456 16.7744C38.3434 16.4238 37.8484 16.1282 37.4875 15.8239C37.493 15.7649 37.4917 15.7242 37.4853 15.7125C37.4458 15.6365 37.1897 15.5104 37.161 15.4973C37.0865 15.4076 37.0194 15.3151 36.9706 15.2184C36.6878 14.6636 37.6254 14.2868 37.6254 14.2868L36.7895 12.8155C36.7895 12.8155 35.9853 13.426 35.6533 12.9004C35.5977 12.811 35.5546 12.7103 35.5155 12.6043C35.5165 12.59 35.5444 12.2869 35.4972 12.212C35.4893 12.2006 35.4559 12.1772 35.3986 12.151C35.3224 11.6854 35.3208 11.1065 35.3283 10.4068C35.34 9.26425 35.7107 7.79052 35.7107 7.79052C36.5288 8.57212 38.2693 11.6935 38.2693 11.6935L39.3444 10.8922C39.3444 10.8922 36.5586 5.00053 35.6514 5.04867C34.744 5.09528 33.6053 6.5574 33.352 8.48754C33.1002 10.4175 33.8792 11.4156 31.9088 12.4428C31.4981 12.6572 31.1386 12.8988 30.8104 13.15C30.2502 13.4714 29.9237 13.7663 29.754 14.0792C29.0625 14.7503 28.4859 15.3777 27.7732 15.69C26.4601 16.2635 26.3275 15.4993 23.092 16.495C22.4688 16.6871 21.9363 16.9399 21.4869 17.223C18.0968 19.2342 15.0984 24.398 13.7139 24.4312C12.0944 24.4721 11.4727 25.3077 10.2677 26.1249C9.06295 26.9437 7.07135 27.494 6.30116 27.8966C5.65336 28.2324 5.15373 29.2026 5.34586 29.6433C4.90936 29.7892 4.5724 29.9378 4.47427 30.0733C4.13476 30.537 5.40131 31.3724 5.85213 31.3456C6.30317 31.3203 8.08959 30.3689 8.68359 29.9561ZM8.6017 28.4543C9.00803 28.3066 9.7369 28.0407 10.6053 27.7496C9.43981 28.3109 8.49926 28.7856 8.33656 28.8457C8.21124 28.8924 7.82341 28.9839 7.33881 29.1023C7.76279 28.8496 8.20109 28.5981 8.6017 28.4543Z" fill="#DAEFEE"/>
<path opacity="0.34" d="M25.2599 18.9191C25.112 18.9408 24.9742 18.8383 24.9525 18.6904C24.9308 18.5426 25.0333 18.4048 25.1812 18.3831C25.3291 18.3614 25.4668 18.4639 25.4885 18.6118C25.5102 18.7597 25.4077 18.8974 25.2599 18.9191Z" fill="url(#paint0_linear_256_1744)"/>
</g>
<path d="M27.2899 22.259C24.4236 24.9235 24.0068 25.0854 19.7908 25.597C15.5748 26.1087 14.5695 26.3459 12.8869 27.2002C11.2042 28.0545 8.18223 28.553 7.58799 28.9643C6.99376 29.3757 5.20603 30.3288 4.75675 30.3554C4.30748 30.382 3.03939 29.5468 3.3789 29.0832C3.71841 28.6195 6.83618 28.0015 7.24073 27.8524C7.64529 27.7034 12.914 24.9618 14.3984 24.7613C15.8827 24.5608 19.7277 20.1807 21.5651 20.177C23.404 20.1731 27.792 20.0941 27.2899 22.259Z" fill="url(#paint1_linear_256_1744)"/>
<path d="M4.04334 28.8078C3.47159 28.5824 4.04325 27.3001 4.81887 26.9018C5.59294 26.5036 7.59464 25.9563 8.80452 25.1479C10.0164 24.3422 10.6423 23.5158 12.2662 23.4724C13.6541 23.4357 16.6798 18.348 20.0879 16.3619C20.5413 16.082 21.0751 15.8335 21.7009 15.6412C24.949 14.6527 25.0812 15.4034 26.4007 14.8356C27.7212 14.2645 28.5783 12.6449 30.5601 11.6289C32.5405 10.613 31.7618 9.63403 32.0206 7.73734C32.2822 5.83868 33.4277 4.39793 34.3384 4.34935C34.5045 4.34044 34.734 4.52635 34.9956 4.83434C36.1699 6.21612 38.0264 10.0833 38.0264 10.0833L37.4127 10.5305L36.9459 10.8697C36.9459 10.8697 36.0043 9.21096 35.1815 8.02812C34.8853 7.60304 34.6049 7.24214 34.3905 7.04011C34.3905 7.04011 34.0125 8.49039 33.9988 9.61351C33.9835 10.7369 33.9884 11.5449 34.3191 12.0654C34.5018 12.3525 34.8327 12.2931 35.0887 12.186C35.2956 12.0999 35.4579 11.9787 35.4579 11.9787L35.8601 12.6743L36.2922 13.4227C36.2922 13.4227 35.3504 13.7975 35.6323 14.3407C35.9178 14.8864 36.6202 15.3029 37.6109 15.8642C37.9089 16.0324 38.2464 16.1901 38.5761 16.3272C39.343 16.6446 40.0592 16.8534 40.0592 16.8534C39.8103 15.7704 38.0234 12.7326 38.0234 12.7326L39.2629 12.2229C39.2629 12.2229 39.4314 12.4673 39.6898 12.8608C40.6332 14.295 42.7836 17.6892 42.3826 18.2722C41.8923 18.989 40.1632 19.2304 38.4369 18.576C38.37 18.5502 38.3045 18.5242 38.2371 18.4955C37.6696 18.2556 37.2352 17.976 36.8473 17.7438C36.0104 17.2403 35.3847 16.9486 34.0882 17.7373C32.1864 18.8901 30.3322 18.7848 29.1577 19.6082C27.9863 20.4311 28.5739 20.9263 26.0495 23.1647L21.2029 21.2904L20.5728 21.8514C19.9038 22.4491 19.1869 22.9888 18.4246 23.4672C16.913 24.4157 15.1069 25.4029 13.9752 25.5272C11.7335 25.7742 8.23334 27.0471 7.12588 27.4446C6.34663 27.7214 5.42497 28.3947 4.74671 28.6922C4.45539 28.8169 4.21285 28.8757 4.04334 28.8078Z" fill="url(#paint2_linear_256_1744)"/>
<path d="M4.76858 28.7614C4.84568 28.2752 5.25656 27.6312 5.75687 27.3707C6.52934 26.9632 8.52749 26.4061 9.73549 25.5765C10.944 24.75 11.5663 23.9007 13.1923 23.8636C14.5804 23.831 17.5827 18.5903 20.9824 16.5531C21.4333 16.2679 21.9659 16.0123 22.5925 15.8164C25.8373 14.811 25.9718 15.5876 27.289 15.0073C28.6089 14.4235 29.4581 12.7526 31.4346 11.7143C33.4124 10.6741 32.6272 9.66045 32.8781 7.70004C33.1041 5.92557 34.0602 4.54126 34.916 4.26057C36.0976 5.69417 37.974 9.69934 37.974 9.69934L37.3623 10.1585C36.785 9.16227 35.8001 7.53031 35.2426 6.99171C35.2426 6.99171 35.1872 7.21729 35.1162 7.56191C35.0109 8.10343 34.8698 8.93961 34.8634 9.64892C34.854 10.5969 34.8585 11.327 35.042 11.8565C35.0831 11.9752 35.1324 12.0847 35.1926 12.183C35.3431 12.4231 35.5892 12.4318 35.8147 12.3651C36.0888 12.2849 36.3331 12.0988 36.3331 12.0988L37.1749 13.595C37.1749 13.595 36.2361 13.9774 36.5194 14.5419C36.8075 15.1056 37.5139 15.5392 38.5065 16.1259C38.522 16.1348 38.5359 16.144 38.5515 16.1529C39.5404 16.7257 40.9606 17.1585 40.9606 17.1585C40.7061 16.0382 38.9019 12.8907 38.9019 12.8907L39.6488 12.578C40.5997 14.0647 42.7679 17.5825 42.3696 18.183C41.8825 18.9213 40.1538 19.1621 38.4235 18.4774C37.7953 18.1139 37.3375 17.7493 36.8291 17.6097C35.9893 17.0853 35.3619 16.7808 34.0687 17.5894C32.1717 18.7712 30.3161 18.6533 29.1451 19.4984C27.9772 20.3429 28.5675 20.8575 26.053 23.1581L21.1949 21.1974L20.5672 21.774C19.9009 22.3883 19.1862 22.9425 18.426 23.433C16.9184 24.4057 15.1163 25.4169 13.9847 25.5398C11.7432 25.7839 8.24764 27.082 7.14162 27.4873C6.36469 27.7676 5.44569 28.4573 4.76858 28.7614Z" fill="url(#paint3_linear_256_1744)"/>
<path d="M24.4524 20.9797C25.0362 21.536 26.6572 22.8965 26.7614 23.1552C26.7614 23.1552 26.3456 23.7869 25.9007 23.8327C25.9007 23.8327 23.747 22.0704 22.7993 21.8107C22.0602 21.6063 21.5576 21.9589 21.1623 21.9342C21.096 21.9018 21.0726 21.8177 21.1055 21.7512C21.2757 21.415 21.4736 21.1606 21.6087 19.2181C21.7453 17.2754 21.3418 15.6454 21.3418 15.6454C21.6086 15.2788 22.352 15.2329 22.352 15.2329C22.516 15.4569 22.8315 17.5748 23.0006 18.3719C23.0196 18.4583 23.0385 18.5447 23.0589 18.6292C23.2555 19.4531 23.6737 20.2039 24.2662 20.7979C24.3272 20.8586 24.3898 20.9191 24.4524 20.9797Z" fill="url(#paint4_linear_256_1744)"/>
<path d="M34.8053 16.2903C34.806 16.211 34.7948 16.1349 34.7678 16.0657C34.4968 15.3574 33.1452 14.4604 32.2916 14.7959L32.1326 14.516C32.86 13.9583 32.7778 12.3432 32.3043 11.7484C32.2589 11.6896 32.1997 11.6419 32.1308 11.6002C34.2787 10.9255 34.5252 11.4987 34.5252 11.4987C34.5252 11.4987 34.555 11.1896 34.5074 11.1159C34.4615 11.0434 33.4507 10.5473 31.359 11.3646C29.8817 11.9714 29.1885 12.4281 28.9118 12.9349C28.8982 12.9567 29.6359 12.6047 29.9251 13.3956C29.9251 13.3956 30.2174 14.7193 31.5465 14.7102C31.623 14.7096 31.6952 14.7005 31.7636 14.6859L31.9557 15.0234C31.908 15.0746 31.8642 15.1313 31.8247 15.1965C31.1357 16.329 32.1285 17.2559 32.1285 17.2559C32.6641 17.9086 31.9765 18.3508 32.0026 18.3515C32.5808 18.3749 33.3352 18.0219 34.6149 17.0709C36.391 15.7011 36.4799 14.5835 36.4411 14.5069C36.4006 14.4291 36.1188 14.2952 36.1188 14.2952C36.1188 14.2952 36.487 14.7988 34.8053 16.2903Z" fill="url(#paint5_linear_256_1744)"/>
<path d="M35.7694 17.519C39.0309 18.8387 42.7448 17.2646 44.0645 14.0031C45.3842 10.7415 43.8101 7.0277 40.5486 5.70796C37.2871 4.38822 33.5732 5.96235 32.2535 9.22388C30.9337 12.4854 32.5079 16.1993 35.7694 17.519Z" fill="white"/>
<path d="M31.9618 12.5234C32.464 15.9459 35.6456 18.3132 39.068 17.811C42.4905 17.3088 44.8578 14.1272 44.3556 10.7047C43.8534 7.28227 40.6718 4.91493 37.2494 5.41714C33.8269 5.91936 31.4596 9.10094 31.9618 12.5234Z" fill="url(#paint6_linear_256_1744)"/>
<path d="M35.3218 14.8403C37.0022 16.4085 39.6355 16.3175 41.2037 14.6372C42.7718 12.9569 42.6808 10.3235 41.0005 8.75535C39.3202 7.18723 36.6868 7.27819 35.1187 8.95851C33.5506 10.6388 33.6415 13.2722 35.3218 14.8403Z" fill="white"/>
<path d="M34.2579 12.2456C34.5728 14.3912 36.5673 15.8752 38.7128 15.5604C40.8583 15.2456 42.3424 13.2511 42.0276 11.1055C41.7127 8.96 39.7182 7.47593 37.5727 7.79076C35.4272 8.10559 33.9431 10.1001 34.2579 12.2456Z" fill="url(#paint7_linear_256_1744)"/>
<path d="M36.5518 15.3737C36.5518 15.3737 36.3739 16.2416 35.7984 16.5983C35.2229 16.955 35.2747 16.8687 35.2747 16.8687L36.2208 16.818L36.3224 17.5316C36.3224 17.5316 37.2674 16.6156 37.3923 15.6972L36.5518 15.3737Z" fill="white"/>
<path d="M38.269 15.7929C38.2484 15.8667 38.5738 17.2053 39.2402 17.7039L39.2384 17.1015L39.8166 17.2133C39.8166 17.2133 39.0606 16.2007 39.0479 15.5779L38.269 15.7929Z" fill="white"/>
<defs>
<linearGradient id="paint0_linear_256_1744" x1="25.1811" y1="18.3829" x2="25.2598" y2="18.9189" gradientUnits="userSpaceOnUse">
<stop stop-color="#FFE3D9"/>
<stop offset="1" stop-color="#FF9494"/>
</linearGradient>
<linearGradient id="paint1_linear_256_1744" x1="16.1233" y1="27.6791" x2="14.3047" y2="22.7644" gradientUnits="userSpaceOnUse">
<stop stop-color="#FFE3D9"/>
<stop offset="1" stop-color="#FF9494"/>
</linearGradient>
<linearGradient id="paint2_linear_256_1744" x1="26.8095" y1="13.3209" x2="17.8006" y2="38.8006" gradientUnits="userSpaceOnUse">
<stop stop-color="#FFE3D9"/>
<stop offset="0.2231" stop-color="#FFDFD5"/>
<stop offset="0.4494" stop-color="#FFD3CB"/>
<stop offset="0.6772" stop-color="#FFBEB9"/>
<stop offset="0.9049" stop-color="#FFA2A0"/>
<stop offset="1" stop-color="#FF9494"/>
</linearGradient>
<linearGradient id="paint3_linear_256_1744" x1="27.2272" y1="13.2227" x2="17.79" y2="38.7657" gradientUnits="userSpaceOnUse">
<stop stop-color="#FFE3D9"/>
<stop offset="1" stop-color="#FF9494"/>
</linearGradient>
<linearGradient id="paint4_linear_256_1744" x1="24.5982" y1="24.343" x2="21.2864" y2="15.5388" gradientUnits="userSpaceOnUse">
<stop stop-color="#ED889E"/>
<stop offset="1" stop-color="#EA687E"/>
</linearGradient>
<linearGradient id="paint5_linear_256_1744" x1="34.1502" y1="17.6896" x2="31.7632" y2="11.215" gradientUnits="userSpaceOnUse">
<stop stop-color="#ED889E"/>
<stop offset="1" stop-color="#EA687E"/>
</linearGradient>
<linearGradient id="paint6_linear_256_1744" x1="32.7117" y1="14.7081" x2="43.6057" y2="8.519" gradientUnits="userSpaceOnUse">
<stop stop-color="#ED889E"/>
<stop offset="1" stop-color="#EA687E"/>
</linearGradient>
<linearGradient id="paint7_linear_256_1744" x1="34.7282" y1="13.6148" x2="41.5561" y2="9.73581" gradientUnits="userSpaceOnUse">
<stop stop-color="#ED889E"/>
<stop offset="1" stop-color="#EA687E"/>
</linearGradient>
</defs>
</svg>
