<svg width="995" height="567" viewBox="0 0 995 567" fill="none" xmlns="http://www.w3.org/2000/svg">
<path opacity="0.19" d="M-11.9739 418.535C15.9097 396.302 8.8439 406.733 19.0248 418.535C29.2058 430.355 32.6057 426.016 48.4659 418.535C64.3071 411.054 139.05 427.158 158.31 446.535C177.57 465.932 203.611 469.129 214.837 463.59C226.062 458.032 273.814 511.12 282.874 513.385C291.934 515.651 294.195 521.323 302.134 512.243C310.055 503.164 336.096 534.933 430.099 557.679C524.101 580.407 551.282 557.641 576.184 531.411C601.104 505.162 534.282 441.891 568.263 412.387C602.225 382.883 586.384 360.174 614.685 363.677C630.033 365.58 654.668 365.409 674.023 364.876C674.612 364.114 675.543 363.658 676.834 363.791C684.812 364.59 691.479 360.821 698.279 357.129C701.28 355.492 704.642 354.064 707.7 352.256C711.974 342.11 717.919 328.652 720.008 327.263C723.408 324.998 727.948 311.388 727.948 300.024C727.948 288.679 773.249 280.742 785.083 283.007C796.916 285.272 808.351 290.944 830.992 283.007C853.633 275.069 830.992 283.007 852.645 245.565C874.299 208.105 1080.14 230.813 1096 245.565L1085.8 217.184L-101 194L-101 404.145C-101.019 404.145 -39.8575 440.787 -11.9739 418.535ZM840.907 217.032C845.846 213.949 854.431 216.671 854.336 223.219C854.298 226.093 852.645 228.967 850.366 231.289C852.778 232.964 853.082 237.247 849.511 237.799C843.585 238.732 837.735 236.505 836.215 230.185C835.076 225.484 836.652 219.678 840.907 217.032ZM756.952 264.029C759.023 257.386 759.023 250.629 764.018 244.975C768.653 239.741 774.351 236.79 781.056 235.249C792.624 232.565 805.882 232.298 817.316 235.82C827.801 239.056 836.139 247.374 831.942 259.004C827.383 271.643 810.877 273.299 799.442 273.813C787.495 274.346 775.586 273.223 763.733 272.005C762.214 272.309 760.675 272.5 759.061 272.538C757.465 272.595 756.401 271.738 755.87 270.577C753.609 268.731 753.951 264.505 756.952 264.029ZM282.817 494.141C275.315 491.495 269.901 485.119 263.842 480.284C261.259 478.228 263.006 475.087 265.532 474.345C264.887 471.49 264.906 468.654 266.178 466.179C269.578 459.612 279.284 461.458 284.394 464.637C290.643 468.52 297.424 475.677 297.728 483.463C298.032 491.629 290.225 496.749 282.817 494.141ZM480.529 545.269C478.553 548.314 474.773 550.37 471.297 551.112C463.016 552.883 454.468 550.008 446.301 548.923C434.259 547.306 422.235 545.421 410.44 542.509C410.193 542.452 409.965 542.375 409.756 542.28C407.135 541.671 404.609 540.7 402.253 539.368C399.746 538.435 397.258 537.503 394.75 536.589C380.676 531.43 366.525 526.101 353.419 518.734C341.415 512.015 328.65 502.897 323.864 489.383C312.676 457.804 357.959 442.462 380.258 435.99C392.148 432.545 404.419 434.6 416.404 436.275C428.161 437.912 439.9 439.549 451.524 441.967C468.049 445.431 485.087 449.961 499.599 458.908C508.906 464.637 523.741 475.83 517.662 488.602C516.219 491.648 513.674 494.598 510.559 495.931C506.627 497.606 502.144 497.149 497.965 497.13C490.577 497.092 481.858 499.376 478.857 506.876C476.939 511.672 478.249 516.507 479.484 521.304C480.681 525.948 481.801 530.479 481.991 535.295C482.086 538.74 482.504 542.204 480.529 545.269ZM540.835 535.18C539.791 539.349 537.606 543.137 534.909 546.544C534.453 547.496 533.884 548.41 533.162 549.266C532.193 550.446 531.053 551.379 529.819 552.14C529.154 552.788 528.489 553.416 527.824 554.025C526.324 555.414 524.5 555.243 523.19 554.329C515.858 555.243 507.273 552.483 501.745 549.361C489.266 542.299 480.073 523.112 492.685 511.653C503.911 501.451 524.272 506.228 534.453 515.632C539.981 520.714 542.697 527.795 540.835 535.18ZM557.797 538.302C557.057 538.74 556.088 538.873 555.176 538.702C554.682 538.949 554.131 539.121 553.543 539.178C551.377 539.406 549.231 539.558 547.331 538.283C546.002 537.388 544.976 536.018 544.292 534.571C542.621 531.031 542.317 526.786 545.888 524.35C548.186 522.751 551.415 524.825 551.434 527.452C551.434 527.376 551.453 527.414 551.472 527.49C551.491 527.49 551.491 527.49 551.51 527.509C552.308 527.947 553.125 528.347 553.96 528.747C556.031 529.717 558.158 531.069 559.127 533.258C559.944 535.047 559.659 537.198 557.797 538.302ZM568.073 504.515C569.669 511.768 564.274 521.951 556.05 521.78C552.156 521.704 548.813 518.906 545.622 516.983C540.779 514.071 536.277 510.53 531.281 507.903C529.515 506.971 529.154 505.315 529.629 503.868C529.363 502.802 529.591 501.603 530.541 500.575C533.219 497.663 537.53 496.464 541.12 495.15C544.463 493.932 547.578 492.618 551.225 492.485C558.956 492.219 566.364 496.673 568.073 504.515ZM575.006 388.27C571.283 396.949 564.16 403.06 559.013 410.769C556.468 414.595 554.853 418.725 553.847 423.198C552.84 427.634 551.624 431.974 547.787 434.81C541.386 439.53 531.167 437.779 523.912 436.656C515.782 435.4 507.861 433.211 499.884 431.307C497.699 430.793 496.978 428.928 497.32 427.215C492.742 421.238 493.198 411.949 494.319 404.887C495.857 395.122 501.46 386.69 508.013 379.533C519.942 366.551 538.613 353.322 557.057 354.083C564.521 354.388 572.328 357.205 576.013 364.152C579.983 371.614 578.178 380.865 575.006 388.27ZM517.643 334.991C519.22 325.512 530.598 320.068 538.461 316.756C546.04 313.558 556.753 308.989 565.015 312.149C576.925 316.699 575.861 334.134 567.275 341.482C561.14 346.736 553.087 348.353 545.109 349.724C544.539 350.523 543.571 350.999 542.241 350.847C541.576 350.771 540.854 350.695 540.114 350.6C538.081 350.961 536.106 351.361 534.168 351.856C531.604 352.503 529.876 350.6 529.61 348.582C522.563 346.545 516.371 342.7 517.643 334.991ZM618.807 332.821C616.965 338.95 611.418 344.489 606.803 348.639C604.447 350.771 601.712 352.96 598.692 354.045C594.532 355.53 590.657 354.273 586.764 352.636C585.32 352.027 584.769 350.923 584.826 349.8C581.369 348.506 577.988 345.936 579.299 341.748C580.458 338.018 584.807 335.791 588.074 334.268C592.918 332.003 598.065 330.289 603.27 329.128C607.41 328.196 612.007 327.282 616.224 328.272C618.142 328.71 619.377 330.956 618.807 332.821ZM700.425 275.869C704.528 271.339 710.948 267.322 716.95 266.009C724.377 264.372 730.056 270.672 729.278 277.944C728.86 281.732 726.979 285.405 724.054 287.88C722.345 289.327 720.445 290.183 718.242 290.507C715.431 290.925 712.506 290.392 709.979 291.915C707.776 293.248 705.668 291.991 704.851 290.164C704.224 290.373 703.445 290.373 702.61 290.031C695.734 287.195 695.848 280.913 700.425 275.869ZM680.443 329.528C685.743 325.95 691.669 323.17 697.462 320.467C702.876 317.936 708.84 315.69 714.823 317.555C716.798 318.183 717.862 320.106 717.406 322.104C716.324 326.92 713.113 330.08 709.068 332.65C707.168 333.849 705.117 334.877 703.407 336.323C701.432 337.999 700.349 340.321 699.058 342.491C696.247 347.211 692.695 351.323 687.319 353.093C682.457 354.692 676.341 354.54 671.573 352.674C670.642 352.313 669.996 351.704 669.598 350.999C661.126 345.022 674.631 333.43 680.443 329.528ZM663.102 355.263C661.012 356.995 658.866 357.357 656.207 357.357C656.017 357.357 655.846 357.338 655.694 357.319C655.162 357.604 654.573 357.795 653.946 357.852C651.439 358.099 648.4 357.547 646.994 355.206C645.38 352.541 647.089 349.172 649.597 347.821C653.396 345.784 659.968 347.23 663.102 350.01C664.488 351.247 664.564 354.026 663.102 355.263ZM459.445 258.128C459.787 247.259 466.131 239.569 475.818 235.077C486.949 229.938 498.839 231.289 510.198 234.982C521.936 238.789 533.504 245.185 545.983 246.117C553.087 246.65 560.21 245.642 567.256 244.956C570.96 244.595 574.664 244.29 578.368 244.347C581.008 244.385 583.857 245.09 586.441 244.633C588.587 244.252 589.936 243.833 592.101 244.823C594.228 245.794 595.938 247.26 597.305 249.163C599.433 252.094 600.174 256.758 602.339 259.861C610.544 252.875 620.288 247.355 631.229 246.727C643.689 246.022 654.421 252.875 662.019 262.278C663.14 263.668 663.709 266.199 662.019 267.513C655.333 272.709 647.716 275.774 639.739 278.42C632.54 280.799 624.733 282.836 618.598 287.518C613.052 291.725 609.462 298.063 604.048 302.499C598.255 307.238 591.645 309.351 584.256 307.638C583.782 307.543 583.383 307.371 583.06 307.143C581.464 308.799 578.653 309.142 577.513 306.496C576.184 303.374 571.435 303.127 568.51 302.917C563.667 302.575 558.804 302.917 553.998 303.431C544.083 304.497 534.339 306.515 524.386 307.314C512.914 308.247 500.663 308.247 489.722 304.269C480.415 300.881 473.425 294.58 468.163 286.262C462.978 278.02 459.141 267.95 459.445 258.128ZM236.794 372.889C244.601 366.208 255.01 362.82 264.773 360.25C290.605 353.455 317.729 355.206 343.58 361.24C348.803 362.458 354.084 363.696 359.459 364.038C363.524 364.305 370.875 364.628 372.584 359.774C373.458 357.3 372.318 354.273 372.337 351.723C372.356 349.001 373.002 346.393 374.313 343.975C376.82 339.312 381.189 336.362 386.013 334.515C391.047 332.574 396.384 332.022 401.626 330.899C406.679 329.833 411.655 328.443 416.651 327.13C427.801 324.179 438.969 321.324 450.461 320.068C461.344 318.869 472.684 319.363 482.827 323.818C490.52 327.206 499.2 333.487 501.099 342.224C504.556 357.966 488.221 371.747 477.091 379.799C469.911 384.996 462.142 389.45 454.013 392.952C451.106 394.189 448.067 395.465 444.933 396.397C445.465 396.569 445.959 396.721 446.396 396.892C448.162 397.635 449.663 399.386 448.979 401.442C447.707 405.325 445.37 408.504 442.122 410.94C434.98 416.308 425.407 417.754 416.746 418.592C408.578 419.372 400.373 419.182 392.167 419.468C360.542 420.61 328.878 420.077 297.538 415.432C283.824 413.396 270.3 410.483 256.966 406.733C248.855 404.449 239.187 401.708 233.489 395.065C227.278 387.927 230.127 378.619 236.794 372.889ZM188.682 423.446C192.993 418.059 200.61 415.718 207.087 414.366C224.486 410.75 242.587 414.557 257.194 424.702C262.455 428.376 270.224 433.63 271.991 440.216C273.89 447.277 267.223 452.169 261.886 455.234C256.415 458.394 249.368 462.677 242.891 462.62C235.882 462.562 230.222 457.309 223.574 455.672C223.061 455.539 222.643 455.329 222.282 455.082C220.801 455.177 219.319 455.253 217.838 455.31C214.134 455.424 210.411 455.31 206.783 454.587C198.787 452.988 193.069 447.829 189.1 440.92C185.87 435.343 184.313 428.928 188.682 423.446ZM130.35 400.89C130.692 401.156 131.053 401.423 131.395 401.67C137.397 400.547 143.494 400.033 149.212 400.414C155.271 400.813 166.23 403.364 167.883 410.388C168.852 414.557 165.566 417.735 162.28 419.62C158.386 421.847 154.245 421.961 149.99 420.781C144.938 419.41 140.265 416.86 135.84 413.909C135.175 415.908 132.876 417.545 130.426 416.327C127.615 414.956 124.557 415.451 121.556 415.28C118.764 415.128 116.313 414.519 113.806 413.3C110.634 411.758 112.04 407.59 114.68 406.524C117.985 405.191 121.537 404.011 125.203 403.041C125.773 400.852 128.033 399.138 130.35 400.89ZM20.9243 394.075C26.3566 391.543 30.1364 386.861 35.2079 383.834C39.1017 381.512 43.3755 379.704 47.6112 378.086C57.3362 374.336 67.6311 372.033 78.002 371.024C87.0053 370.148 96.2745 370.377 105.088 372.528C109.096 373.518 113.027 374.964 116.655 376.925C119.599 378.524 124.576 381.055 124.633 384.805C124.728 390.744 121.537 396.93 116.275 399.786C110.976 402.641 104.632 402.469 98.8577 401.689C92.1147 400.794 85.5427 398.929 79.0087 397.045C74.1651 395.636 68.6187 393.58 63.8132 393.314C62.4646 393.238 62.1987 393.257 61.5529 393.523C60.1663 394.094 58.8937 394.989 57.6971 395.883C54.582 398.225 51.7519 400.966 48.5608 403.231C41.59 408.161 33.9922 408.484 27.7431 402.184C26.8884 401.327 26.6035 400.357 26.6794 399.424C26.0336 399.805 25.3688 400.166 24.685 400.49C20.3733 402.469 16.6126 396.074 20.9243 394.075ZM-36.4575 387.584C-33.1525 384.52 -27.8911 384.443 -24.0353 386.442C-19.5526 388.764 -17.9002 393.485 -18.9259 398.263C-19.0968 399.005 -19.4197 399.595 -19.8185 400.014C-18.394 402.622 -21.566 406.695 -25.0989 405.02C-25.0989 405.02 -25.08 405.02 -25.061 405.02C-25.1369 404.982 -25.2319 404.963 -25.3459 404.906C-25.7068 404.754 -26.0677 404.601 -26.4286 404.468C-27.4733 404.03 -28.4989 403.593 -29.5246 403.136C-31.6899 402.127 -33.7983 400.966 -35.6408 399.424C-39.4396 396.264 -40.2564 391.125 -36.4575 387.584Z" fill="url(#paint0_linear_278_15627)"/>
<path opacity="0.19" d="M924.919 88.5723C901.299 100.899 907.3 95.0874 898.737 88.4272C890.175 81.7563 887.29 84.1721 873.872 88.2895C860.469 92.4069 797.391 83.0341 781.184 72.0866C764.977 61.1284 742.993 59.2147 733.495 62.2658C723.996 65.3276 683.83 35.3582 676.185 34.0466C668.54 32.7351 666.648 29.5462 659.914 34.5965C653.196 39.6468 631.301 21.7243 551.977 8.53925C472.653 -4.63515 449.625 7.99356 428.512 22.5741C407.383 37.1651 463.624 72.9298 434.832 89.3023C406.057 105.675 419.366 118.473 395.473 116.378C382.517 115.24 361.709 115.22 345.36 115.428C344.86 115.852 344.073 116.104 342.982 116.023C336.247 115.538 330.604 117.619 324.85 119.656C322.31 120.559 319.466 121.343 316.877 122.342C313.236 128.007 308.173 135.519 306.404 136.288C303.526 137.542 299.649 145.146 299.614 151.513C299.579 157.87 261.293 162.106 251.305 160.781C241.318 159.456 231.678 156.225 212.53 160.566C193.383 164.908 212.53 160.566 194.126 181.444C175.721 202.332 1.93841 188.645 -11.4113 180.305L-2.88457 196.255L999.413 214.799L1000.07 97.0519C1000.08 97.052 948.538 76.2348 924.919 88.5723ZM203.951 197.486C199.771 199.191 192.528 197.626 192.628 193.957C192.67 192.347 194.074 190.744 196.006 189.454C193.974 188.504 193.731 186.103 196.749 185.81C201.757 185.315 206.691 186.59 207.955 190.138C208.903 192.778 207.553 196.024 203.951 197.486ZM275.005 171.546C273.236 175.259 273.215 179.045 268.978 182.189C265.048 185.1 260.226 186.727 254.558 187.559C244.78 189.009 233.581 189.096 223.935 187.07C215.089 185.208 208.072 180.508 211.654 174.011C215.543 166.95 229.489 166.1 239.148 165.865C249.241 165.623 259.296 166.307 269.303 167.046C270.587 166.882 271.887 166.783 273.251 166.769C274.599 166.744 275.494 167.229 275.94 167.882C277.843 168.927 277.541 171.294 275.005 171.546ZM676.173 44.8297C682.502 46.3473 687.054 49.9456 692.157 52.6829C694.332 53.8469 692.847 55.5985 690.711 56.0027C691.247 57.6055 691.222 59.1946 690.14 60.5751C687.248 64.2388 679.056 63.1588 674.75 61.3538C669.484 59.1488 663.779 55.1068 663.547 50.7433C663.315 46.1663 669.925 43.3339 676.173 44.8297ZM509.345 15.2572C511.023 13.5599 514.222 12.4258 517.16 12.0261C524.16 11.0729 531.37 12.7234 538.265 13.3695C548.431 14.3325 558.58 15.4446 568.534 17.1316C568.742 17.1648 568.934 17.2085 569.111 17.2628C571.322 17.6164 573.453 18.1721 575.438 18.9297C577.553 19.4641 579.652 19.9983 581.766 20.522C593.638 23.4782 605.573 26.5307 616.62 30.7196C626.738 34.5406 637.49 39.7091 641.491 47.304C650.842 65.0504 612.549 73.4349 593.695 76.9568C583.641 78.8316 573.284 77.6223 563.167 76.6277C553.241 75.6554 543.332 74.6833 533.522 73.2744C519.575 71.256 505.199 68.6378 492.97 63.5572C485.127 60.3033 472.633 53.9626 477.806 46.8345C479.035 45.1348 481.194 43.4936 483.829 42.7616C487.155 41.8414 490.94 42.1183 494.469 42.1486C500.709 42.2045 508.08 40.9654 510.638 36.7772C512.273 34.0985 511.181 31.3834 510.153 28.6899C509.157 26.0819 508.224 23.5383 508.079 20.839C508.009 18.9081 507.667 16.9651 509.345 15.2572ZM458.379 20.6277C459.274 18.2968 461.131 16.1846 463.419 14.2881C463.807 13.757 464.292 13.2477 464.904 12.7712C465.726 12.1144 466.691 11.5971 467.736 11.1763C468.3 10.8168 468.863 10.4679 469.427 10.1298C470.698 9.35821 472.238 9.46272 473.342 9.9808C479.537 9.50316 486.78 11.0898 491.438 12.8648C501.956 16.8801 509.662 27.6739 498.974 34.0355C489.461 39.6997 472.278 36.9274 463.709 31.611C459.056 28.7375 456.784 24.7572 458.379 20.6277ZM444.063 18.7992C444.69 18.5574 445.508 18.4872 446.278 18.5875C446.696 18.4512 447.161 18.3577 447.659 18.3285C449.488 18.2106 451.302 18.1354 452.902 18.8588C454.022 19.3663 454.884 20.139 455.457 20.9528C456.858 22.9444 457.102 25.3242 454.078 26.6727C452.132 27.5579 449.411 26.3802 449.403 24.9083C449.403 24.9509 449.387 24.9295 449.371 24.8868C449.355 24.8867 449.355 24.8867 449.339 24.8759C448.667 24.6269 447.978 24.3991 447.274 24.1712C445.528 23.6176 443.735 22.8504 442.924 21.6193C442.24 20.613 442.487 19.4091 444.063 18.7992ZM435.279 37.6823C433.954 33.6113 438.541 27.9305 445.487 28.065C448.776 28.1259 451.59 29.7093 454.28 30.8015C458.361 32.456 462.153 34.4608 466.364 35.956C467.853 36.4869 468.152 37.4165 467.747 38.2248C467.968 38.8233 467.772 39.4942 466.967 40.0657C464.695 41.685 461.05 42.3367 458.014 43.0558C455.187 43.7228 452.552 44.4441 449.471 44.5017C442.941 44.6149 436.698 42.0845 435.279 37.6823ZM429.062 102.784C432.234 97.9379 438.269 94.5476 442.64 90.2521C444.802 88.1203 446.178 85.8134 447.042 83.3118C447.906 80.8314 448.946 78.4054 452.196 76.8342C457.617 74.2191 466.242 75.2481 472.367 75.9113C479.229 76.6533 485.912 77.9169 492.644 79.0208C494.487 79.3189 495.091 80.3676 494.797 81.3259C498.645 84.6962 498.231 89.8988 497.263 93.8505C495.933 99.3147 491.174 104.013 485.617 107.993C475.502 115.211 459.691 122.536 444.116 122.023C437.813 121.817 431.228 120.202 428.137 116.292C424.808 112.093 426.36 106.918 429.062 102.784ZM477.345 132.905C475.984 138.209 466.358 141.206 459.706 143.025C453.295 144.781 444.233 147.291 437.264 145.482C427.22 142.877 428.172 133.112 435.446 129.036C440.644 126.121 447.452 125.252 454.194 124.521C454.677 124.076 455.497 123.814 456.62 123.906C457.181 123.951 457.79 123.997 458.416 124.054C460.133 123.861 461.803 123.646 463.441 123.378C465.609 123.027 467.063 124.102 467.281 125.234C473.226 126.408 478.444 128.591 477.345 132.905ZM391.896 133.647C393.471 130.222 398.173 127.144 402.084 124.841C404.08 123.657 406.397 122.443 408.951 121.85C412.469 121.037 415.738 121.759 419.021 122.695C420.239 123.043 420.701 123.664 420.649 124.293C423.565 125.034 426.412 126.49 425.292 128.83C424.302 130.915 420.622 132.143 417.857 132.981C413.76 134.227 409.407 135.163 405.008 135.789C401.507 136.293 397.622 136.783 394.064 136.209C392.445 135.954 391.409 134.69 391.896 133.647ZM322.785 165.177C319.305 167.696 313.871 169.916 308.797 170.624C302.519 171.507 297.742 167.95 298.422 163.879C298.787 161.759 300.387 159.709 302.865 158.336C304.313 157.534 305.92 157.063 307.782 156.892C310.158 156.67 312.627 156.982 314.765 156.141C316.63 155.405 318.407 156.118 319.091 157.146C319.621 157.032 320.279 157.035 320.984 157.231C326.782 158.853 326.666 162.372 322.785 165.177ZM339.828 135.204C335.341 137.184 330.327 138.714 325.426 140.201C320.846 141.595 315.801 142.825 310.754 141.752C309.087 141.391 308.195 140.309 308.586 139.191C309.515 136.498 312.236 134.742 315.661 133.321C317.269 132.658 319.005 132.092 320.454 131.289C322.127 130.36 323.049 129.064 324.146 127.854C326.535 125.222 329.548 122.935 334.094 121.968C338.206 121.095 343.371 121.209 347.392 122.276C348.177 122.483 348.72 122.828 349.055 123.224C356.191 126.613 344.749 133.045 339.828 135.204ZM354.555 120.866C356.325 119.905 358.139 119.712 360.385 119.725C360.545 119.726 360.689 119.737 360.818 119.748C361.268 119.591 361.766 119.487 362.295 119.458C364.414 119.331 366.979 119.655 368.159 120.973C369.514 122.474 368.06 124.354 365.938 125.099C362.723 126.222 357.177 125.381 354.538 123.809C353.371 123.11 353.316 121.552 354.555 120.866ZM526.261 176.244C525.939 182.333 520.557 186.612 512.361 189.084C502.944 191.911 492.906 191.098 483.324 188.976C473.421 186.788 463.671 183.15 453.134 182.569C447.136 182.238 441.117 182.769 435.163 183.12C432.033 183.306 428.904 183.459 425.776 183.41C423.546 183.376 421.142 182.968 418.959 183.212C417.145 183.415 416.005 183.644 414.179 183.079C412.385 182.525 410.946 181.696 409.797 180.623C408.009 178.97 407.398 176.354 405.579 174.605C398.627 178.481 390.38 181.528 381.137 181.829C370.611 182.166 361.568 178.276 355.18 172.972C354.238 172.188 353.765 170.767 355.197 170.039C360.86 167.158 367.302 165.477 374.048 164.031C380.136 162.732 386.736 161.627 391.932 159.032C396.63 156.701 399.681 153.166 404.267 150.707C409.175 148.078 414.764 146.925 420.999 147.92C421.4 147.975 421.736 148.073 422.009 148.202C423.361 147.282 425.737 147.103 426.691 148.591C427.804 150.346 431.814 150.507 434.284 150.638C438.374 150.853 442.482 150.684 446.542 150.418C454.92 149.867 463.156 148.782 471.564 148.381C481.257 147.912 491.605 147.969 500.833 150.25C508.683 152.192 514.567 155.755 518.985 160.44C523.339 165.082 526.548 170.742 526.261 176.244ZM714.668 112.984C708.054 116.691 699.252 118.541 690.998 119.935C669.159 123.622 646.256 122.514 624.441 119.012C620.033 118.305 615.577 117.587 611.038 117.37C607.606 117.201 601.398 116.986 599.939 119.697C599.194 121.08 600.147 122.781 600.123 124.21C600.098 125.735 599.545 127.193 598.43 128.541C596.298 131.143 592.599 132.775 588.519 133.787C584.262 134.852 579.752 135.136 575.321 135.741C571.05 136.314 566.842 137.07 562.619 137.782C553.193 139.383 543.751 140.931 534.042 141.581C524.845 142.202 515.27 141.872 506.717 139.328C500.23 137.394 492.918 133.834 491.341 128.929C488.47 120.093 502.309 112.448 511.735 107.988C517.816 105.11 524.391 102.651 531.268 100.726C533.726 100.047 536.297 99.3463 538.947 98.8383C538.498 98.7398 538.082 98.6522 537.713 98.5542C536.223 98.13 534.962 97.1417 535.545 95.993C536.632 93.8232 538.615 92.0531 541.366 90.7031C547.415 87.7288 555.505 86.9631 562.823 86.5343C569.724 86.1352 576.653 86.2803 583.585 86.1587C610.299 85.6667 637.04 86.1135 663.496 88.8625C675.072 90.0679 686.486 91.763 697.736 93.9265C704.579 95.2443 712.736 96.8254 717.528 100.574C722.752 104.603 720.317 109.805 714.668 112.984ZM755.461 84.8817C751.802 87.8798 745.362 89.1561 739.887 89.883C725.181 91.8281 709.904 89.6102 697.599 83.8572C693.167 81.7741 686.622 78.7941 685.15 75.0956C683.568 71.1298 689.214 68.42 693.731 66.7279C698.361 64.983 704.327 62.6162 709.797 62.6785C715.716 62.7433 720.481 65.7135 726.091 66.6618C726.523 66.7389 726.876 66.8581 727.18 66.9985C728.431 66.9521 729.683 66.9164 730.934 66.8913C734.063 66.8446 737.207 66.926 740.269 67.3483C747.018 68.2816 751.831 71.1987 755.162 75.0888C757.872 78.2289 759.168 81.8305 755.461 84.8817ZM804.657 97.7932C804.369 97.6423 804.065 97.4913 803.777 97.351C798.704 97.9522 793.553 98.2117 788.726 97.9716C783.609 97.7193 774.361 96.2388 772.987 92.2955C772.182 89.9553 774.967 88.1895 777.748 87.149C781.044 85.9194 784.541 85.8747 788.131 86.5559C792.394 87.3474 796.333 88.7985 800.061 90.4723C800.629 89.3556 802.575 88.4491 804.641 89.1432C807.011 89.9242 809.596 89.6612 812.13 89.7713C814.488 89.8697 816.555 90.2224 818.669 90.9167C821.343 91.7955 820.143 94.1246 817.91 94.7096C815.114 95.4407 812.111 96.0853 809.012 96.6121C808.523 97.8359 806.609 98.7853 804.657 97.7932ZM897.057 102.123C892.461 103.517 889.254 106.123 884.961 107.795C881.666 109.078 878.05 110.071 874.468 110.958C866.242 113.013 857.54 114.256 848.778 114.772C841.171 115.221 833.343 115.049 825.906 113.803C822.524 113.23 819.208 112.401 816.15 111.285C813.668 110.375 809.473 108.934 809.436 106.832C809.374 103.504 812.089 100.053 816.541 98.4776C821.026 96.9026 826.384 97.0283 831.258 97.4926C836.951 98.0254 842.496 99.1014 848.008 100.188C852.095 101 856.773 102.178 860.831 102.349C861.97 102.398 862.194 102.389 862.741 102.243C863.913 101.929 864.991 101.434 866.005 100.938C868.643 99.6409 871.042 98.1183 873.744 96.864C879.647 94.1343 886.065 93.9885 891.323 97.5481C892.042 98.032 892.28 98.5773 892.213 99.0995C892.76 98.8892 893.322 98.6897 893.901 98.5116C897.549 97.4225 900.705 101.024 897.057 102.123ZM945.502 106.029C942.701 107.731 938.257 107.749 935.006 106.611C931.227 105.288 929.846 102.636 930.728 99.9635C930.874 99.5483 931.149 99.2192 931.487 98.9864C930.292 97.5186 932.984 95.251 935.962 96.2061C935.962 96.2061 935.946 96.206 935.93 96.2059C935.994 96.2276 936.074 96.2388 936.171 96.2713C936.475 96.3583 936.779 96.4453 937.084 96.5216C937.965 96.7718 938.829 97.022 939.694 97.2827C941.52 97.8581 943.297 98.5186 944.849 99.3911C948.047 101.179 948.721 104.063 945.502 106.029Z" fill="url(#paint1_linear_278_15627)"/>
<defs>
<linearGradient id="paint0_linear_278_15627" x1="1095.97" y1="380.529" x2="-101.02" y2="380.529" gradientUnits="userSpaceOnUse">
<stop offset="0.00396825" stop-color="white"/>
</linearGradient>
<linearGradient id="paint1_linear_278_15627" x1="-9.48873" y1="105.679" x2="1001.49" y2="111.28" gradientUnits="userSpaceOnUse">
<stop offset="0.00396825" stop-color="white"/>
</linearGradient>
</defs>
</svg>
