<svg width="414" height="401" viewBox="0 0 414 401" fill="none" xmlns="http://www.w3.org/2000/svg">
<path opacity="0.19" d="M-101.895 294.939C-82.1306 279.202 -87.1391 286.585 -79.9225 294.939C-72.706 303.307 -70.296 300.234 -59.0538 294.939C-47.825 289.644 5.15494 301.043 18.8072 314.759C32.4595 328.489 50.9182 330.753 58.8753 326.832C66.8324 322.898 100.68 360.476 107.103 362.08C113.525 363.683 115.127 367.698 120.755 361.271C126.369 354.844 144.828 377.332 211.46 393.434C278.092 409.522 297.359 393.407 315.01 374.84C332.674 356.259 285.309 311.472 309.396 290.587C333.469 269.703 322.24 253.628 342.301 256.107C353.18 257.455 370.642 257.333 384.362 256.956C384.779 256.417 385.439 256.094 386.354 256.188C392.009 256.754 396.735 254.086 401.555 251.472C403.682 250.314 406.065 249.303 408.233 248.023C411.262 240.841 415.477 231.315 416.958 230.332C419.368 228.728 422.585 219.094 422.585 211.051C422.585 203.02 454.696 197.401 463.084 199.005C471.472 200.608 479.577 204.623 495.626 199.005C511.675 193.386 495.626 199.005 510.975 172.502C526.324 145.985 672.23 162.059 683.473 172.502L676.243 152.412L-165 136.001L-165 284.753C-165.014 284.753 -121.66 310.69 -101.895 294.939ZM502.654 152.304C506.155 150.121 512.241 152.048 512.173 156.683C512.146 158.718 510.975 160.752 509.359 162.396C511.069 163.582 511.285 166.614 508.753 167.004C504.553 167.664 500.406 166.088 499.329 161.615C498.521 158.287 499.639 154.177 502.654 152.304ZM443.145 185.571C444.612 180.869 444.612 176.086 448.153 172.084C451.438 168.379 455.477 166.29 460.23 165.199C468.429 163.299 477.827 163.11 485.932 165.603C493.364 167.894 499.275 173.782 496.299 182.014C493.068 190.961 481.368 192.133 473.263 192.497C464.794 192.874 456.352 192.079 447.951 191.217C446.874 191.433 445.783 191.567 444.639 191.594C443.508 191.635 442.754 191.028 442.377 190.206C440.775 188.899 441.017 185.908 443.145 185.571ZM107.062 348.458C101.744 346.585 97.9068 342.071 93.6118 338.649C91.7808 337.193 93.0194 334.97 94.8101 334.445C94.3524 332.424 94.3659 330.416 95.268 328.664C97.678 324.016 104.558 325.323 108.18 327.573C112.609 330.322 117.416 335.388 117.631 340.899C117.847 346.679 112.313 350.304 107.062 348.458ZM247.206 384.649C245.806 386.805 243.127 388.26 240.663 388.785C234.793 390.038 228.734 388.004 222.945 387.236C214.409 386.09 205.886 384.756 197.525 382.695C197.35 382.655 197.189 382.601 197.04 382.533C195.182 382.102 193.392 381.415 191.722 380.472C189.945 379.812 188.181 379.151 186.404 378.505C176.427 374.853 166.397 371.08 157.107 365.866C148.598 361.11 139.55 354.656 136.157 345.089C128.227 322.736 160.325 311.876 176.131 307.295C184.56 304.856 193.257 306.311 201.753 307.497C210.087 308.656 218.407 309.814 226.647 311.526C238.361 313.978 250.438 317.185 260.724 323.517C267.321 327.573 277.837 335.496 273.528 344.537C272.505 346.693 270.701 348.781 268.493 349.724C265.706 350.91 262.528 350.587 259.566 350.573C254.329 350.546 248.149 352.163 246.022 357.472C244.662 360.867 245.591 364.29 246.466 367.685C247.314 370.973 248.109 374.179 248.243 377.588C248.31 380.027 248.607 382.479 247.206 384.649ZM289.954 377.507C289.213 380.458 287.665 383.14 285.753 385.551C285.43 386.225 285.026 386.872 284.514 387.478C283.828 388.314 283.02 388.974 282.145 389.513C281.674 389.971 281.202 390.416 280.731 390.847C279.668 391.83 278.375 391.709 277.446 391.062C272.249 391.709 266.163 389.755 262.245 387.546C253.4 382.547 246.883 368.965 255.823 360.854C263.78 353.632 278.213 357.014 285.43 363.67C289.348 367.267 291.273 372.28 289.954 377.507ZM301.977 379.717C301.452 380.027 300.765 380.121 300.119 380C299.769 380.175 299.378 380.297 298.961 380.337C297.426 380.499 295.905 380.606 294.558 379.704C293.616 379.07 292.889 378.1 292.404 377.076C291.219 374.57 291.004 371.565 293.535 369.841C295.164 368.709 297.453 370.178 297.467 372.037C297.467 371.983 297.48 372.01 297.494 372.064C297.507 372.064 297.507 372.064 297.52 372.078C298.086 372.387 298.665 372.67 299.257 372.953C300.725 373.64 302.233 374.597 302.919 376.147C303.498 377.413 303.296 378.936 301.977 379.717ZM309.261 355.801C310.392 360.935 306.568 368.143 300.738 368.022C297.978 367.968 295.609 365.987 293.347 364.626C289.914 362.565 286.723 360.059 283.182 358.199C281.929 357.539 281.674 356.367 282.01 355.343C281.822 354.588 281.983 353.739 282.657 353.012C284.555 350.95 287.611 350.102 290.156 349.172C292.525 348.309 294.734 347.38 297.319 347.285C302.798 347.097 308.049 350.25 309.261 355.801ZM314.175 273.516C311.536 279.66 306.487 283.985 302.839 289.442C301.035 292.15 299.89 295.074 299.177 298.24C298.463 301.38 297.601 304.452 294.882 306.459C290.344 309.801 283.101 308.561 277.958 307.766C272.195 306.877 266.581 305.328 260.926 303.98C259.378 303.616 258.866 302.296 259.108 301.083C255.864 296.853 256.187 290.277 256.981 285.278C258.072 278.366 262.043 272.397 266.688 267.331C275.144 258.142 288.379 248.778 301.452 249.317C306.743 249.532 312.277 251.526 314.889 256.444C317.703 261.726 316.424 268.274 314.175 273.516ZM273.515 235.802C274.632 229.092 282.697 225.239 288.271 222.894C293.643 220.63 301.237 217.397 307.093 219.633C315.535 222.854 314.781 235.196 308.695 240.397C304.347 244.116 298.638 245.261 292.983 246.231C292.579 246.797 291.893 247.134 290.95 247.026C290.479 246.972 289.967 246.918 289.442 246.851C288.002 247.107 286.601 247.39 285.228 247.74C283.41 248.198 282.185 246.851 281.997 245.423C277.002 243.981 272.613 241.259 273.515 235.802ZM345.223 234.266C343.917 238.605 339.985 242.526 336.714 245.463C335.044 246.972 333.105 248.522 330.964 249.29C328.016 250.341 325.269 249.451 322.509 248.292C321.486 247.861 321.096 247.08 321.136 246.285C318.686 245.369 316.289 243.55 317.218 240.585C318.039 237.944 321.122 236.368 323.438 235.29C326.872 233.687 330.52 232.474 334.209 231.652C337.144 230.992 340.403 230.345 343.392 231.046C344.751 231.356 345.627 232.946 345.223 234.266ZM403.076 193.952C405.985 190.745 410.535 187.902 414.79 186.973C420.054 185.814 424.08 190.274 423.528 195.421C423.232 198.102 421.899 200.703 419.825 202.454C418.614 203.478 417.267 204.085 415.705 204.314C413.713 204.61 411.639 204.233 409.849 205.311C408.287 206.254 406.792 205.365 406.213 204.071C405.769 204.219 405.217 204.219 404.625 203.977C399.751 201.969 399.832 197.523 403.076 193.952ZM388.913 231.935C392.669 229.402 396.87 227.435 400.976 225.522C404.813 223.73 409.041 222.14 413.282 223.46C414.682 223.905 415.436 225.266 415.113 226.68C414.346 230.089 412.07 232.326 409.202 234.145C407.856 234.994 406.402 235.721 405.19 236.745C403.79 237.931 403.023 239.575 402.107 241.111C400.114 244.452 397.597 247.363 393.786 248.616C390.34 249.748 386.004 249.64 382.625 248.319C381.965 248.063 381.507 247.632 381.225 247.134C375.22 242.903 384.793 234.697 388.913 231.935ZM376.62 250.152C375.139 251.378 373.618 251.634 371.733 251.634C371.598 251.634 371.477 251.621 371.369 251.607C370.992 251.809 370.575 251.944 370.131 251.984C368.353 252.16 366.199 251.769 365.203 250.111C364.058 248.225 365.27 245.84 367.047 244.884C369.74 243.442 374.399 244.466 376.62 246.433C377.603 247.309 377.657 249.276 376.62 250.152ZM232.262 181.394C232.504 173.701 237.001 168.257 243.867 165.077C251.757 161.44 260.186 162.396 268.237 165.01C276.557 167.705 284.757 172.232 293.603 172.892C298.638 173.27 303.687 172.555 308.682 172.07C311.307 171.814 313.933 171.599 316.558 171.639C318.43 171.666 320.449 172.165 322.28 171.841C323.802 171.572 324.758 171.276 326.293 171.976C327.801 172.663 329.012 173.701 329.982 175.048C331.49 177.123 332.015 180.424 333.55 182.621C339.366 177.676 346.273 173.768 354.028 173.324C362.86 172.825 370.467 177.676 375.853 184.332C376.647 185.315 377.051 187.107 375.853 188.037C371.113 191.715 365.714 193.885 360.06 195.758C354.957 197.442 349.423 198.884 345.075 202.198C341.143 205.176 338.598 209.663 334.761 212.802C330.655 216.157 325.969 217.653 320.732 216.44C320.395 216.373 320.113 216.251 319.884 216.09C318.753 217.262 316.76 217.505 315.952 215.632C315.01 213.422 311.644 213.247 309.571 213.099C306.137 212.856 302.691 213.099 299.284 213.462C292.256 214.217 285.349 215.645 278.294 216.211C270.162 216.871 261.478 216.871 253.723 214.055C247.126 211.657 242.171 207.197 238.442 201.309C234.766 195.475 232.046 188.347 232.262 181.394ZM74.4395 262.629C79.9731 257.899 87.3512 255.501 94.2716 253.682C112.582 248.872 131.809 250.111 150.133 254.383C153.835 255.245 157.578 256.121 161.388 256.363C164.27 256.552 169.48 256.781 170.692 253.345C171.311 251.594 170.503 249.451 170.517 247.646C170.53 245.719 170.988 243.873 171.917 242.162C173.694 238.861 176.791 236.772 180.211 235.465C183.779 234.091 187.562 233.7 191.278 232.905C194.859 232.151 198.387 231.167 201.928 230.237C209.831 228.149 217.748 226.128 225.893 225.239C233.608 224.39 241.646 224.74 248.836 227.893C254.288 230.291 260.441 234.738 261.788 240.922C264.238 252.065 252.659 261.82 244.769 267.52C239.68 271.198 234.174 274.351 228.411 276.83C226.351 277.706 224.197 278.609 221.975 279.269C222.352 279.39 222.702 279.498 223.012 279.619C224.264 280.145 225.328 281.384 224.843 282.84C223.941 285.588 222.285 287.838 219.983 289.563C214.92 293.363 208.135 294.387 201.995 294.98C196.206 295.532 190.389 295.397 184.573 295.599C162.156 296.408 139.712 296.031 117.497 292.743C107.776 291.301 98.1895 289.24 88.7379 286.585C82.9889 284.969 76.1359 283.028 72.0968 278.326C67.6941 273.273 69.7137 266.684 74.4395 262.629ZM40.3357 298.416C43.392 294.602 48.7909 292.945 53.3821 291.988C65.7149 289.428 78.5459 292.123 88.8995 299.305C92.6289 301.905 98.1357 305.624 99.3878 310.286C100.734 315.285 96.0084 318.748 92.2251 320.917C88.3475 323.154 83.3525 326.185 78.7614 326.145C73.7932 326.104 69.781 322.386 65.0687 321.227C64.7052 321.133 64.4089 320.984 64.1531 320.809C63.1029 320.877 62.0528 320.93 61.0026 320.971C58.3772 321.052 55.7383 320.971 53.1667 320.459C47.4985 319.327 43.4459 315.676 40.632 310.785C38.3431 306.837 37.239 302.296 40.3357 298.416ZM-1.01146 282.449C-0.769117 282.638 -0.513273 282.826 -0.270925 283.001C3.98362 282.206 8.30545 281.843 12.358 282.112C16.653 282.395 24.4216 284.2 25.593 289.172C26.2796 292.123 23.9504 294.373 21.6212 295.707C18.8611 297.284 15.9259 297.365 12.91 296.529C9.32868 295.559 6.01664 293.754 2.87959 291.665C2.40836 293.08 0.779193 294.239 -0.957632 293.376C-2.95027 292.406 -5.11796 292.756 -7.24523 292.635C-9.2244 292.527 -10.9612 292.096 -12.7385 291.234C-14.9869 290.142 -13.9905 287.192 -12.1191 286.437C-9.77638 285.494 -7.25865 284.659 -4.66015 283.971C-4.25623 282.422 -2.65404 281.209 -1.01146 282.449ZM-78.5762 277.625C-74.7255 275.833 -72.0463 272.519 -68.4515 270.376C-65.6914 268.732 -62.662 267.452 -59.6596 266.307C-52.7661 263.653 -45.4688 262.022 -38.1176 261.308C-31.7358 260.688 -25.1654 260.85 -18.9183 262.373C-16.0774 263.073 -13.2904 264.097 -10.7189 265.485C-8.63198 266.617 -5.10441 268.409 -5.06401 271.063C-4.9967 275.267 -7.25869 279.646 -10.9881 281.667C-14.7445 283.689 -19.2414 283.567 -23.3344 283.015C-28.114 282.382 -32.7725 281.061 -37.404 279.727C-40.8373 278.73 -44.7688 277.275 -48.1751 277.086C-49.131 277.032 -49.3195 277.046 -49.7773 277.234C-50.7601 277.639 -51.6621 278.272 -52.5104 278.905C-54.7184 280.563 -56.7245 282.503 -58.9864 284.106C-63.9276 287.596 -69.3131 287.825 -73.7427 283.365C-74.3486 282.759 -74.5505 282.072 -74.4967 281.411C-74.9545 281.681 -75.4257 281.937 -75.9104 282.166C-78.9667 283.567 -81.6324 279.04 -78.5762 277.625ZM-119.25 273.031C-116.908 270.861 -113.178 270.807 -110.445 272.222C-107.267 273.866 -106.096 277.208 -106.823 280.589C-106.944 281.115 -107.173 281.533 -107.456 281.829C-106.446 283.675 -108.695 286.558 -111.199 285.373C-111.199 285.373 -111.185 285.373 -111.172 285.373C-111.226 285.346 -111.293 285.332 -111.374 285.292C-111.63 285.184 -111.886 285.076 -112.141 284.982C-112.882 284.672 -113.609 284.362 -114.336 284.039C-115.871 283.325 -117.365 282.503 -118.671 281.411C-121.364 279.175 -121.943 275.537 -119.25 273.031Z" fill="url(#paint0_linear_256_7316)"/>
<path opacity="0.19" d="M420.974 59.2092C409.909 68.0307 412.713 63.8919 408.673 59.2092C404.633 54.519 403.284 56.241 396.99 59.2092C390.704 62.1774 361.044 55.7878 353.401 48.0992C345.758 40.403 335.424 39.1341 330.97 41.3319C326.515 43.5373 307.566 22.4729 303.971 21.5741C300.375 20.6753 299.478 18.4246 296.328 22.0273C293.185 25.6299 282.851 13.0244 245.548 3.99898C208.246 -5.01894 197.46 4.01407 187.578 14.4217C177.689 24.8369 204.206 49.942 190.721 61.6487C177.244 73.3554 183.53 82.3657 172.3 80.976C166.209 80.2208 156.433 80.2888 148.753 80.5002C148.519 80.8023 148.15 80.9836 147.637 80.9307C144.472 80.6135 141.826 82.1089 139.128 83.5742C137.937 84.2237 136.603 84.7902 135.389 85.5077C133.693 89.5332 131.334 94.873 130.505 95.4243C129.156 96.3231 127.354 101.723 127.354 106.232C127.354 110.734 109.377 113.883 104.682 112.984C99.9858 112.086 95.4483 109.835 86.4637 112.984C77.4791 116.134 86.4637 112.984 77.871 127.841C69.2784 142.704 -12.4045 133.694 -18.6982 127.841L-14.6507 139.102L456.302 148.301L456.302 64.919C456.309 64.919 432.039 50.3801 420.974 59.2092ZM82.5292 139.162C80.5694 140.386 77.1625 139.306 77.2002 136.707C77.2153 135.567 77.871 134.426 78.7755 133.505C77.8183 132.84 77.6977 131.141 79.1147 130.922C81.4664 130.552 83.7879 131.436 84.3909 133.943C84.8431 135.809 84.2175 138.112 82.5292 139.162ZM115.845 120.514C115.023 123.15 115.023 125.832 113.041 128.075C111.201 130.152 108.94 131.322 106.28 131.934C101.689 132.999 96.4281 133.105 91.8906 131.708C87.73 130.424 84.421 127.123 86.0868 122.508C87.8958 117.493 94.4458 116.836 98.9833 116.632C103.724 116.421 108.45 116.866 113.154 117.35C113.757 117.229 114.367 117.153 115.008 117.138C115.641 117.116 116.063 117.456 116.274 117.916C117.171 118.649 117.035 120.326 115.845 120.514ZM303.993 29.2099C306.971 30.2597 309.119 32.7898 311.523 34.7082C312.548 35.5239 311.855 36.7701 310.852 37.0647C311.109 38.1976 311.101 39.3229 310.596 40.3048C309.247 42.9105 305.395 42.1778 303.368 40.9165C300.888 39.3758 298.197 36.536 298.076 33.4469C297.956 30.2068 301.054 28.1751 303.993 29.2099ZM225.536 8.92332C226.32 7.71489 227.82 6.89921 229.2 6.60465C232.486 5.90225 235.878 7.0427 239.119 7.47321C243.898 8.11519 248.669 8.86291 253.349 10.0185C253.447 10.0411 253.538 10.0713 253.621 10.1091C254.661 10.3508 255.663 10.736 256.598 11.2647C257.593 11.6347 258.58 12.0048 259.575 12.3674C265.161 14.4141 270.776 16.5289 275.977 19.4518C280.74 22.1179 285.806 25.7356 287.705 31.098C292.144 43.628 274.175 49.7154 265.326 52.2834C260.608 53.6504 255.739 52.8347 250.983 52.1701C246.317 51.5205 241.659 50.871 237.046 49.9118C230.488 48.5372 223.727 46.7397 217.969 43.1899C214.276 40.9165 208.389 36.4756 210.801 31.4077C211.374 30.1993 212.384 29.0286 213.62 28.4999C215.18 27.8353 216.959 28.0165 218.617 28.0241C221.549 28.0392 225.009 27.1329 226.2 24.1571C226.961 22.2538 226.441 20.3355 225.951 18.4322C225.476 16.5893 225.031 14.7918 224.956 12.8809C224.918 11.5139 224.753 10.1393 225.536 8.92332ZM201.605 12.9263C202.02 11.2722 202.887 9.76923 203.957 8.4173C204.138 8.03966 204.364 7.67714 204.65 7.33727C205.035 6.869 205.487 6.49891 205.977 6.1968C206.241 5.94001 206.504 5.69078 206.768 5.44909C207.364 4.89774 208.087 4.96572 208.607 5.32825C211.517 4.96572 214.924 6.06086 217.117 7.2995C222.069 10.1015 225.717 17.7147 220.712 22.2614C216.258 26.3096 208.178 24.4139 204.138 20.6829C201.944 18.6663 200.866 15.8567 201.605 12.9263ZM194.874 11.6876C195.168 11.5139 195.553 11.461 195.914 11.529C196.11 11.4308 196.329 11.3629 196.563 11.3402C197.422 11.2496 198.274 11.1891 199.027 11.6952C199.555 12.0502 199.962 12.5939 200.233 13.1679C200.897 14.5727 201.017 16.257 199.6 17.2237C198.688 17.8582 197.407 17.0349 197.399 15.9926C197.399 16.0229 197.392 16.0078 197.384 15.9776C197.377 15.9776 197.377 15.9775 197.369 15.97C197.053 15.7963 196.728 15.6377 196.397 15.4791C195.575 15.0939 194.731 14.5576 194.347 13.6891C194.023 12.9791 194.136 12.1257 194.874 11.6876ZM190.797 25.0936C190.163 22.2161 192.304 18.1754 195.568 18.2434C197.113 18.2736 198.439 19.3838 199.706 20.1466C201.628 21.3022 203.414 22.707 205.396 23.7493C206.097 24.1194 206.241 24.7764 206.052 25.3504C206.158 25.7734 206.067 26.2492 205.69 26.6571C204.628 27.8126 202.917 28.2884 201.492 28.8096C200.166 29.2929 198.929 29.8141 197.482 29.867C194.414 29.9727 191.475 28.2054 190.797 25.0936ZM188.045 71.218C189.523 67.7739 192.349 65.3495 194.392 62.2907C195.402 60.7726 196.043 59.1337 196.442 57.3588C196.842 55.599 197.324 53.877 198.846 52.7516C201.387 50.8785 205.442 51.5734 208.321 52.019C211.547 52.5175 214.69 53.386 217.856 54.1413C218.723 54.3452 219.009 55.0854 218.873 55.7652C220.69 58.1367 220.509 61.8224 220.064 64.6245C219.454 68.499 217.23 71.8448 214.63 74.6846C209.896 79.8356 202.487 85.0847 195.168 84.7826C192.206 84.6618 189.108 83.544 187.646 80.7872C186.071 77.8266 186.787 74.156 188.045 71.218ZM210.808 92.3579C210.183 96.1192 205.668 98.2793 202.547 99.5935C199.54 100.862 195.289 102.675 192.01 101.421C187.284 99.6161 187.706 92.6978 191.113 89.7825C193.548 87.6979 196.744 87.056 199.909 86.5122C200.135 86.195 200.52 86.0061 201.047 86.0666C201.311 86.0968 201.598 86.127 201.892 86.1648C202.698 86.0213 203.482 85.8626 204.251 85.6663C205.268 85.4095 205.954 86.1648 206.06 86.9653C208.856 87.7735 211.313 89.2991 210.808 92.3579ZM170.664 93.219C171.395 90.787 173.596 88.5892 175.428 86.9427C176.362 86.0968 177.448 85.2282 178.646 84.7977C180.297 84.2086 181.835 84.7071 183.38 85.3566C183.953 85.5983 184.171 86.0363 184.149 86.482C185.52 86.9955 186.862 88.0152 186.342 89.6768C185.882 91.1571 184.156 92.0407 182.86 92.645C180.938 93.5437 178.895 94.2235 176.83 94.6842C175.187 95.0543 173.362 95.4168 171.689 95.0241C170.928 94.8503 170.438 93.9591 170.664 93.219ZM138.276 115.817C136.648 117.614 134.1 119.208 131.718 119.729C128.771 120.378 126.517 117.879 126.827 114.993C126.992 113.49 127.739 112.033 128.899 111.051C129.578 110.477 130.331 110.137 131.206 110.009C132.321 109.842 133.482 110.054 134.485 109.45C135.359 108.921 136.196 109.42 136.52 110.145C136.768 110.061 137.077 110.061 137.409 110.197C140.138 111.323 140.092 113.815 138.276 115.817ZM146.205 94.5256C144.102 95.9455 141.751 97.0482 139.452 98.1207C137.304 99.1252 134.937 100.016 132.562 99.2762C131.779 99.027 131.357 98.2642 131.537 97.4711C131.967 95.5603 133.241 94.3066 134.846 93.2869C135.6 92.8111 136.414 92.4033 137.092 91.8293C137.876 91.1646 138.306 90.2432 138.819 89.3822C139.934 87.5091 141.344 85.8777 143.477 85.1753C145.406 84.5409 147.833 84.6013 149.725 85.3415C150.094 85.485 150.351 85.7267 150.509 86.0061C153.871 88.3777 148.512 92.9773 146.205 94.5256ZM153.087 84.3143C153.916 83.627 154.768 83.4835 155.823 83.4835C155.898 83.4835 155.966 83.4911 156.026 83.4987C156.237 83.3854 156.471 83.3098 156.72 83.2872C157.715 83.189 158.921 83.408 159.479 84.337C160.119 85.3944 159.441 86.7312 158.446 87.2674C156.938 88.0756 154.331 87.5016 153.087 86.3989C152.537 85.908 152.506 84.8053 153.087 84.3143ZM233.903 122.856C233.767 127.168 231.25 130.22 227.406 132.002C222.989 134.041 218.27 133.505 213.763 132.04C209.105 130.529 204.515 127.992 199.563 127.621C196.744 127.41 193.917 127.81 191.121 128.082C189.651 128.226 188.181 128.347 186.711 128.324C185.664 128.309 184.533 128.029 183.508 128.211C182.656 128.362 182.121 128.528 181.262 128.135C180.417 127.75 179.739 127.168 179.196 126.413C178.352 125.25 178.058 123.4 177.199 122.168C173.943 124.94 170.076 127.131 165.735 127.38C160.79 127.659 156.531 124.94 153.516 121.209C153.072 120.658 152.846 119.653 153.516 119.132C156.17 117.07 159.192 115.854 162.358 114.805C165.215 113.86 168.312 113.052 170.747 111.194C172.948 109.525 174.372 107.01 176.521 105.25C178.82 103.37 181.443 102.531 184.375 103.211C184.563 103.249 184.721 103.317 184.849 103.408C185.483 102.75 186.598 102.615 187.05 103.664C187.578 104.903 189.462 105.001 190.623 105.084C192.545 105.22 194.475 105.084 196.382 104.88C200.316 104.457 204.183 103.657 208.133 103.34C212.685 102.97 217.547 102.97 221.888 104.548C225.582 105.892 228.355 108.392 230.443 111.693C232.501 114.963 234.024 118.959 233.903 122.856ZM322.256 77.3205C319.159 79.9715 315.028 81.3159 311.154 82.3355C300.903 85.0319 290.14 84.337 279.881 81.9428C277.808 81.4594 275.713 80.9685 273.58 80.8325C271.967 80.7268 269.05 80.5984 268.372 82.5244C268.025 83.5062 268.477 84.7071 268.47 85.7191C268.462 86.7992 268.206 87.8339 267.686 88.7931C266.691 90.6435 264.957 91.8142 263.043 92.5468C261.045 93.3171 258.927 93.5362 256.847 93.9818C254.842 94.4047 252.867 94.9561 250.885 95.4772C246.46 96.6479 242.028 97.7808 237.468 98.2793C233.149 98.7551 228.649 98.5587 224.624 96.7914C221.572 95.447 218.127 92.9546 217.373 89.4879C216.002 83.2419 222.484 77.7737 226.901 74.5789C229.75 72.517 232.833 70.7497 236.059 69.36C237.212 68.8691 238.418 68.363 239.662 67.993C239.45 67.925 239.255 67.8646 239.081 67.7966C238.38 67.502 237.785 66.8072 238.056 65.9915C238.561 64.4507 239.488 63.1894 240.777 62.2227C243.611 60.0928 247.41 59.5188 250.847 59.1865C254.088 58.8769 257.344 58.9524 260.6 58.8391C273.15 58.3859 285.715 58.5974 298.152 60.4403C303.594 61.2484 308.961 62.404 314.252 63.8918C317.47 64.7982 321.307 65.8858 323.568 68.5217C326.033 71.3539 324.902 75.0472 322.256 77.3205ZM341.349 57.2606C339.638 59.398 336.615 60.327 334.045 60.8632C327.141 62.2982 319.958 60.7877 314.161 56.7621C312.073 55.3044 308.991 53.2199 308.29 50.6067C307.536 47.8046 310.182 45.8636 312.3 44.6476C314.47 43.3938 317.267 41.6945 319.837 41.7171C322.618 41.7398 324.864 43.8243 327.502 44.4739C327.706 44.5267 327.872 44.6098 328.015 44.708C328.603 44.6702 329.191 44.64 329.779 44.6174C331.249 44.5721 332.726 44.6174 334.166 44.9044C337.339 45.5388 339.608 47.5856 341.183 50.3272C342.464 52.5401 343.082 55.0854 341.349 57.2606ZM364.496 66.2105C364.36 66.1048 364.217 65.999 364.082 65.9009C361.7 66.3465 359.28 66.5504 357.011 66.3993C354.607 66.2407 350.258 65.2287 349.602 62.4417C349.218 60.7877 350.522 59.5264 351.826 58.7787C353.371 57.895 355.014 57.8497 356.702 58.318C358.707 58.8617 360.562 59.8738 362.318 61.0445C362.582 60.2515 363.494 59.6019 364.466 60.0853C365.582 60.6291 366.795 60.4327 367.986 60.5007C369.094 60.5611 370.066 60.8028 371.061 61.2862C372.32 61.8979 371.762 63.552 370.714 63.9749C369.403 64.5036 367.993 64.9719 366.539 65.3571C366.313 66.2256 365.416 66.9054 364.496 66.2105ZM407.919 68.9144C405.763 69.9189 404.263 71.7769 402.251 72.9777C400.706 73.8992 399.01 74.6167 397.329 75.2587C393.47 76.7465 389.385 77.6604 385.269 78.0607C381.696 78.4081 378.018 78.3175 374.521 77.464C372.93 77.0713 371.37 76.4973 369.931 75.7194C368.762 75.0849 366.787 74.0804 366.765 72.5926C366.727 70.2361 367.993 67.7815 370.081 66.6486C372.184 65.5157 374.702 65.5836 376.993 65.8933C379.669 66.2483 382.277 66.9884 384.87 67.7362C386.792 68.2951 388.993 69.1108 390.9 69.2165C391.435 69.2467 391.54 69.2392 391.797 69.1334C392.347 68.9068 392.852 68.5519 393.327 68.1969C394.563 67.2679 395.686 66.1803 396.952 65.2815C399.718 63.3254 402.733 63.197 405.213 65.6969C405.552 66.0368 405.665 66.422 405.635 66.7921C405.892 66.641 406.155 66.4975 406.427 66.3691C408.138 65.5836 409.63 68.1213 407.919 68.9144ZM430.69 71.4899C429.378 72.7058 427.29 72.7361 425.76 71.943C423.981 71.0216 423.326 69.1485 423.733 67.2528C423.8 66.9582 423.929 66.7241 424.087 66.5579C423.522 65.5232 424.78 63.9069 426.182 64.5716C426.182 64.5716 426.175 64.5716 426.167 64.5716C426.197 64.5867 426.235 64.5943 426.28 64.6169C426.423 64.6773 426.567 64.7377 426.71 64.7906C427.124 64.9643 427.531 65.138 427.938 65.3193C428.798 65.7196 429.634 66.1803 430.366 66.7921C431.873 68.0458 432.197 70.0851 430.69 71.4899Z" fill="url(#paint1_linear_256_7316)"/>
<defs>
<linearGradient id="paint0_linear_256_7316" x1="683.453" y1="268.036" x2="-165.014" y2="268.036" gradientUnits="userSpaceOnUse">
<stop offset="0.00396825" stop-color="white"/>
</linearGradient>
<linearGradient id="paint1_linear_256_7316" x1="-17.9892" y1="74.9886" x2="457.008" y2="74.9886" gradientUnits="userSpaceOnUse">
<stop offset="0.00396825" stop-color="white"/>
</linearGradient>
</defs>
</svg>
