<svg width="414" height="1216" viewBox="0 0 414 1216" fill="none" xmlns="http://www.w3.org/2000/svg">
<path opacity="0.14" d="M196.661 1192.67C199.401 1188.58 202.307 1187.92 204.982 1189.12C204.314 1188.53 203.698 1187.83 203.093 1187.27C202.468 1186.68 201.779 1186.08 201.045 1186.07C200.096 1186.04 199.126 1186.55 198.228 1187.26C196.452 1188.68 194.555 1191.1 193.697 1194.36C193.393 1195.49 192.418 1195.24 192.536 1193.99C192.828 1190.79 193.078 1187.57 193.219 1184.36C193.442 1179.53 193.343 1174.68 192.614 1170.15C191.784 1164.96 190.235 1160.41 188.442 1156.21C188.095 1155.38 188.6 1154.16 189.162 1154.45C191.141 1155.42 193.085 1156.57 195.107 1157.26C196.772 1157.83 198.625 1158.19 200.375 1157.65C201.793 1157.22 203.115 1156.07 204.381 1154.81C206.819 1152.38 209.249 1149.22 212.025 1149.11C212.351 1149.09 212.496 1149.45 212.529 1149.86C212.594 1149.87 212.678 1149.89 212.739 1149.94C213.495 1150.52 213.713 1152.16 213.843 1153.55C214.04 1155.75 214.013 1158.04 213.946 1160.31C213.826 1165.46 213.401 1170.66 212.807 1175.81C212.537 1178.16 212.223 1180.54 211.806 1182.84C211.527 1184.48 211.184 1186.12 210.678 1187.62C210.042 1189.41 208.904 1190.42 207.774 1190.48C207.448 1190.5 207.127 1190.46 206.812 1190.34C207.663 1191.08 208.509 1191.88 209.417 1192.17C210.409 1192.48 211.081 1191.63 211.764 1188.96C212.99 1184.04 213.407 1178.1 213.957 1172.7C214.566 1166.8 215.343 1160.98 216.778 1155.86C219.088 1147.56 222.414 1141.77 225.744 1138.15C229.238 1134.38 232.737 1132.77 236.193 1133.11C239.69 1133.46 243.129 1135.14 246.028 1139.58C248.847 1143.93 251.129 1151.3 251.455 1161.04C251.775 1170.83 250.6 1181.23 250.32 1191.24C250.259 1193.42 250.245 1195.56 250.319 1197.66C254.474 1196.23 255.847 1200.27 255.541 1207.27C257.354 1188.39 255.731 1177.82 256.064 1174.37C256.787 1167.01 257.108 1159.81 257.55 1152.45C257.943 1145.71 258.493 1138.36 260.088 1132.3C261.471 1127.03 263.324 1122.65 265.263 1119.13C269.34 1111.75 274.077 1107.83 278.5 1106.86C280.589 1106.42 282.734 1106.65 284.729 1107.41C286.705 1108.14 288.294 1110.52 288.694 1116.23C288.995 1120.43 288.711 1124.93 288.717 1129.29C288.718 1133.75 288.878 1138.08 289.085 1142.38C289.432 1149.61 289.942 1156.7 290.148 1164.06C290.497 1163.74 290.827 1163.4 291.176 1163.08C290.49 1157.99 290.074 1152.49 290.16 1146.64C290.284 1138.37 291.376 1130.15 293.187 1122.7C295.212 1114.45 298.022 1107.79 300.813 1101.65C303.237 1096.33 305.778 1091.46 308.433 1087.35C313.004 1080.29 317.97 1075.37 322.799 1075.01C327.237 1074.69 331.325 1078.57 334.434 1085.89C337.156 1092.32 339.108 1100.88 340.473 1110.33C342.042 1108.51 343.591 1106.66 345.161 1104.81C345.385 1090.24 347.198 1075.53 350.571 1062.45C354.153 1048.63 359.062 1037.77 364.206 1029.17C366.692 1025.02 369.253 1021.29 371.892 1018.49C374.06 1016.19 376.627 1014.05 378.673 1015.83C380.621 1017.48 381.659 1023.33 382.403 1028.23C383.302 1034.2 383.858 1040.69 384.347 1047.19C384.539 1049.74 384.683 1052.34 384.921 1054.85C386.007 1053.4 387.091 1051.97 388.175 1050.54C387.758 1048.39 387.371 1046.13 386.958 1043.93C386.111 1039.52 385.189 1035.24 384.293 1030.91C383.49 1027.04 382.765 1023.01 381.936 1019.2C381.236 1015.97 380.461 1012.86 379.964 1009.23C379.444 1005.34 379.381 1001.14 379.664 996.669C380.334 986.365 382 976.333 383.487 966.373C385.245 954.597 387.211 942.923 389.498 931.578C389.672 930.726 389.942 930.315 390.205 930.271C391.67 925.606 393.415 921.526 395.386 918.976C397.379 916.428 399.483 915.511 401.476 915.752C405.932 916.293 409.995 921.343 413.792 926.2C421.404 935.958 427.67 1014.28 432.143 1034.1C433.155 1038.61 434.838 978.512 435.549 983.561C439.189 978.18 509.612 1105.65 509.612 1105.65L540.783 -476.771C540.783 -476.771 414.655 109.155 366.501 201.495C361.903 210.305 358.047 218.178 354.817 225.235C355.866 225.381 356.881 225.676 357.903 226.166C360.779 227.557 363.276 230.497 365.456 233.888C369.642 240.418 372.806 248.966 374.872 258.293C375.915 262.957 376.681 267.86 377.089 272.907C377.578 278.869 377.62 285.013 377.359 291.154C377.123 297.254 376.588 303.31 376.051 309.386C375.493 315.743 375.02 322.105 374.29 328.448C373.171 338.393 371.448 349.999 366.745 357.093C364.685 360.219 362.001 363.038 359.378 363.677C358.165 363.972 356.925 363.789 355.873 362.864C354.597 361.749 353.837 359.831 353.113 357.742C351.433 352.92 349.897 347.915 348.405 342.891C346.914 337.867 345.497 332.72 343.817 327.898C341.092 320.098 338.492 311.529 334.471 305.66C331.519 301.345 327.548 299.285 323.546 299.017C318.708 300.89 314.38 305.375 310.836 312.019C309.217 315.049 307.809 318.421 306.523 321.888C304.906 326.281 303.952 331.05 303.138 335.96C302.286 341.082 301.374 346.135 300.189 351.102C298.93 356.453 297.59 361.732 296.476 367.159C294.292 377.735 292.272 388.431 291.036 399.34C290.495 404.076 289.959 409.028 290.022 413.79C290.067 417.944 290.754 421.63 291.825 425.107C291.994 425.704 291.713 426.547 291.336 426.669C289.711 427.257 288.099 427.131 286.478 427.395C284.88 427.638 283.492 428.806 282.275 430.83C281.111 432.729 280.25 435.191 279.457 437.595C278.629 440.19 277.922 442.88 277.237 445.573C276.548 448.33 275.856 451.109 275.186 453.889C274.295 458.403 273.379 462.959 272.461 467.536C272.15 469.868 271.925 472.207 271.894 474.561C271.848 477.931 272.294 481.1 273.212 483.766C273.231 483.789 273.253 483.791 273.274 483.792C274.989 484.834 276.433 486.567 277.461 489.198C278.691 492.299 279.444 495.968 280.722 499.008C284.209 507.299 289.905 511.374 293.463 519.585C294.344 521.599 295.262 523.422 295.952 525.68C296.576 527.675 297.032 529.872 297.308 532.164C297.862 537.007 297.452 542.293 296.387 547.097C293.929 558.408 289.431 568.155 285.72 578.352C284.812 580.855 283.923 583.38 283.157 586.002C282.514 588.157 282.013 590.431 281.512 592.706C280.475 597.425 279.564 602.197 278.588 606.964C276.622 616.692 274.524 626.712 271.067 635.308C268.817 640.884 265.784 646.248 262.295 649.393C261.96 655.659 262.015 662.754 259.597 667.993C258.295 670.832 256.334 672.972 254.411 673.774C253.427 674.195 252.433 674.182 251.459 673.912C250.548 673.669 249.681 673.147 248.763 672.989C247.248 672.72 245.623 672.767 244.198 671.9C243.682 671.579 243.264 671.114 243.099 670.171C242.935 669.229 242.973 668.172 243.05 667.184C243.408 662.023 244.723 657.066 245.1 651.928C245.228 650.273 245.337 648.595 245.204 646.963C245.065 645.136 244.578 643.607 244.024 642.115C243.774 641.426 243.524 640.758 243.274 640.068C241.367 636.223 239.759 631.86 238.38 627.343C238.002 626.081 237.626 624.798 237.295 623.496C236.995 624.576 236.694 625.655 236.394 626.735C236.933 629.825 237.837 632.662 238.723 635.455C239.246 637.074 239.751 638.649 240.394 640.125C240.981 641.468 241.594 642.77 242.159 644.132C243.141 646.522 243.969 649.224 244.028 652.363C244.081 655.308 243.663 658.454 243.096 661.307C241.952 667.12 239.831 672.706 237.007 676.487C235.607 678.367 234.025 679.801 232.346 680.535C230.733 681.253 229.116 681.192 227.537 680.918C225.083 680.49 222.669 679.546 220.31 678.455C220.308 678.476 220.285 678.496 220.284 678.518C221.054 678.902 221.799 679.327 222.542 679.796C223.924 680.66 225.274 681.651 226.616 682.75C227.89 681.94 229.196 681.826 230.506 681.949C231.837 682.074 233.249 682.551 234.606 682.073C235.606 681.718 236.492 680.619 237.293 679.493C238.508 677.771 239.746 675.748 241.192 674.953C241.133 674.321 241.39 673.519 241.863 673.556C242.401 673.598 242.935 673.682 243.442 673.83C248.408 675.059 253.147 679.189 256.667 685.105C258.35 687.938 259.792 691.38 260.516 695.414C261.241 699.448 261.16 703.831 260.23 708.018C259.304 712.14 257.682 716.036 256.096 719.48C254.275 723.425 252.166 727.196 249.679 729.705C248.528 730.87 247.279 731.638 246.054 731.823C245.754 737.076 244.913 742.329 243.787 747.365C240.351 762.643 234.592 776.098 230.645 790.99C228.996 797.197 227.371 803.362 225.393 809.327C223.503 815.018 221.39 820.496 218.924 825.515C214.193 835.201 208.262 842.784 201.459 846.277C197.63 848.249 193.665 848.893 189.819 848.572C186.317 848.279 182.813 847.444 179.517 845.61C174.564 842.826 170.372 837.485 167.841 829.418C165.465 821.861 164.675 812.827 164.322 804C163.912 793.959 164.054 783.786 163.866 773.675C163.786 769.41 163.642 765.14 163.385 760.925C158.246 761.932 152.948 761.369 147.459 759.083C51.3473 718.735 -2.11113 -6.47021 -2.11113 -6.47021L-58.0371 523.745C-12.7764 526.027 -16.8345 691.625 -5.36488 704.061C4.18958 714.424 5.16978 724.359 9.85951 761.996C12.0498 758.577 14.5934 760.634 15.6647 765.777C16.2811 768.7 16.343 772.359 15.8625 776.04C15.475 779.08 14.577 781.453 13.5243 782.755C13.2363 783.122 12.9318 783.423 12.6307 783.68C12.8033 785.077 12.9991 786.455 13.1899 787.896C13.2607 788.378 13.3298 788.88 13.3989 789.383C14.2857 788.825 15.1576 788.179 16.0428 787.642C17.722 786.627 19.3875 786.345 20.928 787.395C23.9876 789.492 26.441 795.217 28.1063 802.178C28.9407 805.637 29.6193 809.43 30.1274 813.47C30.5978 817.16 30.9836 821.103 31.0518 825.238C31.1238 830.994 30.3309 836.749 28.3933 840.533C27.7044 841.885 26.9496 842.972 26.1849 843.907C25.8752 844.554 25.5655 845.2 25.2541 845.867C24.4905 847.624 23.998 849.51 24.0342 852.107C24.0848 855.354 24.5703 858.57 25.0016 861.371C25.4066 863.954 25.9275 866.437 26.6455 868.331C27.4015 870.292 28.3416 871.554 29.4062 872.047C30.2626 872.438 31.3835 872.763 32.2315 871.034C32.9254 869.618 33.2712 867.115 33.4992 865.014C33.7723 862.333 34.021 859.131 33.9898 856.469C33.9408 853.201 33.3426 850.322 33.0073 847.399C32.7722 845.413 32.5424 843.082 32.6796 840.758C32.5641 838.068 32.7994 835.038 33.0147 832.266C33.2767 828.892 33.4791 825.729 33.4036 822.523C33.3064 822.105 33.2654 821.518 33.3551 820.92L33.3568 820.898C33.2965 819.726 33.598 818.906 33.9439 818.63C35.6808 813.252 38.4503 811.565 40.6599 811.239C43.5691 810.816 46.2294 813.877 48.305 818.34C50.6976 823.456 52.4439 830.488 53.9552 837.762C54.8336 842.046 55.5811 846.623 56.1118 851.485C56.5636 855.693 56.9359 860.089 57.06 864.617C57.1468 868.235 57.1612 873.619 55.8147 876.477C55.1422 877.895 54.3665 878.137 53.6539 877.844C52.2917 877.284 51.1139 875.463 49.7318 874.88C46.5278 873.528 43.1902 876.404 40.0497 881.198C38.0366 884.284 36.1648 888.614 34.2423 892.205C32.7752 894.945 31.0977 898.166 29.3997 899.98C29.5314 900.79 29.6631 901.601 29.7733 902.409C33.02 894.856 36.7104 888.83 40.5428 885.43C42.9819 883.263 45.5227 882.293 47.897 882.91C50.1655 883.497 52.4084 885.249 53.9052 889.646C55.1181 893.243 55.566 898.337 55.9329 903.36C56.3029 908.62 56.7276 913.734 56.8146 919.297C56.8665 923.085 57.0077 926.836 57.22 930.506C57.3687 933.048 57.4826 935.759 57.8398 938.122C58.0389 939.456 58.4766 940.225 59.075 940.596C60.723 941.653 62.7948 939.76 64.5273 938.338C66.4897 936.739 68.4674 934.666 70.4607 933.783C72.3879 932.917 74.3454 933.609 76.1141 934.784C77.8827 935.959 79.5416 937.991 81.0148 940.743C86.7653 951.632 88.8883 973.309 87.0674 994.528C86.0918 1005.98 83.9534 1017.92 80.828 1026.97C77.3944 1036.93 72.9491 1041.82 68.5871 1045.63C68.5408 1045.67 68.4945 1045.71 68.4267 1045.75C68.9116 1047.58 69.3931 1049.45 69.916 1051.35C70.5039 1050.19 71.1265 1049.13 71.777 1048.28C73.6607 1045.74 75.6839 1044.75 77.5738 1045.2C82.1621 1046.27 85.8874 1054 89.001 1061.53C90.2045 1064.41 91.3268 1067.5 92.4243 1070.64C93.469 1073.61 94.5603 1076.27 95.1081 1080.36C96.1066 1087.83 96.0881 1097.54 95.1229 1106.07C94.642 1110.31 93.8897 1114.7 92.6274 1117.87C92.8288 1118.34 93.0104 1118.79 93.2118 1119.26C94.7706 1110.88 96.2302 1102.39 98.0666 1094.34C100.497 1083.65 103.86 1073.21 108.339 1072.07C109.728 1071.72 111.011 1072.47 112.257 1073.41C113.667 1074.47 114.997 1076 116.236 1077.87C118.676 1081.54 120.721 1086.67 122.608 1092.18C123.595 1095.07 124.528 1098.08 125.464 1101.07C125.725 1101.89 125.984 1102.73 126.244 1103.55C126.244 1103.55 126.266 1103.55 126.264 1103.58C127.855 1103.7 129.506 1103.05 130.898 1101.28C132.096 1099.77 132.979 1097.59 133.428 1095.16C133.919 1092.45 133.729 1089.61 133.255 1087.08C132.787 1084.47 132.043 1082.08 131.224 1079.81C130.797 1078.63 129.717 1076.39 130.634 1074.88C130.955 1074.36 131.402 1074.18 131.784 1074C132.366 1073.74 132.927 1073.48 133.503 1073.03C134.792 1072.02 136.346 1070.39 137.738 1070.57C140.351 1070.9 141.677 1075.82 142.12 1079.86C142.132 1079.99 142.143 1080.12 142.112 1080.25C142.224 1080.47 142.335 1080.72 142.47 1080.92C144.064 1083.51 146.283 1084.74 148.439 1085.39C150.805 1086.11 153.262 1086.21 155.715 1086.1C156.778 1086.05 157.823 1085.96 158.893 1085.83C160.071 1085.71 161.265 1085.08 162.425 1084.63C164.521 1083.82 167.599 1082.61 169.007 1085.92C170.214 1088.76 170.352 1093.12 170.465 1096.67C170.521 1098.45 170.535 1100.23 170.57 1102C170.602 1103.82 170.72 1105.64 170.555 1107.49C170.416 1108.99 170.109 1110.44 169.48 1111.58C168.929 1112.55 168.216 1113.1 167.498 1113.44C165.814 1114.24 164.067 1114.17 162.403 1115.27C161.331 1115.98 160.455 1117.24 159.5 1118.39C158.236 1119.92 156.918 1121.28 155.533 1122.41C152.717 1124.7 149.733 1125.81 146.741 1125.9C146.417 1125.9 146.16 1125.31 146.223 1124.78C146.599 1121.33 145.639 1118.38 144.234 1116.41C141.895 1113.11 138.117 1112.19 135.221 1115.23C133.005 1117.59 131.773 1122.03 130.902 1126.29C131.143 1128.47 131.337 1130.71 131.506 1133C131.73 1136.24 131.82 1139.53 131.843 1142.86C132.418 1143.25 132.824 1144.15 132.998 1145.24C133.254 1146.69 133.309 1148.21 133.407 1149.73C133.514 1151.14 133.734 1152.48 134.021 1153.8C134.469 1155.82 135.14 1157.49 136.433 1157.83C138.063 1158.28 139.886 1157.37 141.435 1156.08C143.055 1154.71 144.794 1152.64 145.59 1149.64C146.076 1147.84 146.163 1145.88 146.203 1143.98C146.237 1142.14 146.25 1140.3 146.35 1138.45C146.439 1136.75 146.49 1134.98 146.877 1133.35C147.232 1131.84 147.929 1130.66 148.71 1129.79C150.199 1128.16 152.143 1127.92 153.572 1129.28C154.359 1130.02 154.821 1131.31 155.235 1132.66C155.738 1134.25 156.179 1135.82 156.826 1137.23C157.769 1139.3 158.905 1141.09 159.873 1143.11C161.748 1141.25 163.741 1140.65 165.617 1140.45C171.699 1139.82 177.391 1145.06 182.327 1152.23C183.513 1153.94 184.666 1155.81 185.786 1157.82C186.812 1159.65 187.813 1161.52 188.636 1164.01C190.034 1168.29 190.68 1174.17 190.665 1180.49C190.641 1189.43 189.168 1202.55 187.693 1215.97C190.193 1204.94 193.577 1197.29 196.661 1192.67ZM354.441 468.735C353.959 472.157 352.322 474.862 350.814 477.015C349.256 479.251 347.537 481.063 345.924 483.164C344.264 485.327 342.838 488.092 340.881 489.345C335.759 492.645 336.51 478.239 336.567 473.055C336.586 471.413 336.607 469.75 336.473 468.14C336.31 466.051 335.993 464.016 335.696 461.982C335.115 458.046 334.297 453.55 334.91 449.274C335 448.675 335.284 448.351 335.547 448.307C335.745 447.717 336.251 447.324 336.596 447.891C336.997 448.571 337.427 449.166 337.86 449.719C339.907 452.321 342.3 454.085 344.662 455.695C345.833 456.5 347.006 457.261 348.178 458.044C349.309 458.802 350.469 459.454 351.573 460.275C353.479 461.634 355.012 464.736 354.441 468.735ZM365.043 363.966C365.065 363.967 365.088 363.947 365.109 363.949C365.247 363.571 365.503 363.331 365.791 363.526C367.456 364.65 368.703 366.974 370.228 368.498C371.773 370.045 373.554 370.788 375.261 371.634C376.804 372.381 378.313 373.277 379.732 374.489C381.721 376.179 383.515 378.415 385.026 381.235C387.88 386.538 389.559 393.608 390.188 401.094C390.833 408.949 390.341 417.235 389.035 425.133C387.731 433.009 385.538 440.644 382.567 447.159C379.627 453.546 375.882 458.877 371.627 461.876C363.645 467.461 355.842 462.401 349.054 456.512C347.292 454.97 345.501 453.534 343.741 451.97C342.891 451.212 342.033 450.281 341.151 449.672C340.493 449.231 339.809 448.854 339.131 448.391C337.714 447.416 336.429 446.148 335.69 443.691C335.053 441.588 335.178 439.133 335.954 436.945C336.728 434.778 337.936 433.142 339.108 431.698C340.422 430.092 341.751 428.574 343.013 426.812C345.486 423.372 347.681 419.327 349.386 414.638C351.042 410.032 352.155 404.886 352.797 399.682C353.195 396.513 353.42 393.331 353.71 390.154C354.025 386.654 354.223 383.275 353.992 379.841C353.817 377.082 353.468 374.05 354.16 371.271C354.727 368.98 355.879 367.513 357.135 366.659C359.695 364.891 362.385 364.775 365.043 363.966ZM292.032 419.372C291.195 412.043 291.901 404.077 292.743 396.575C294.813 378.272 299.439 361.033 303.576 343.69C305.143 337.153 306.525 330.493 308.339 324.127C309.7 319.411 311.293 314.778 313.465 311.034C318.482 302.408 325.433 302.018 331.519 303.29C332.114 303.423 332.143 304.723 331.779 305.235C332.067 305.43 332.286 305.663 332.356 305.885C333.191 308.22 334.028 310.533 334.843 312.845C338.92 324.123 342.943 335.527 346.168 347.755C349.341 359.806 351.88 373.062 351.724 387.038C351.636 393.474 350.912 400.012 349.358 406.096C347.767 412.372 345.347 418.194 342.453 422.877C338.1 429.912 332.633 434.59 327.238 437.781C321.436 441.201 315.283 443.015 309.395 442.255C304.128 441.565 298.818 438.644 295.379 431.696C293.653 428.298 292.538 423.995 292.032 419.372ZM274.875 481.56C273.548 477.76 273.701 472.734 274.202 468.233C274.849 462.403 276.014 456.591 277.559 451.176C278.697 447.113 280.057 443.241 281.214 439.201C281.869 436.895 282.464 434.52 283.242 432.311C283.661 431.089 284.221 430.008 284.996 429.485C285.954 428.846 286.99 428.883 287.967 428.829C291.749 428.582 295.119 431.698 297.731 435.944C300.19 439.918 302.133 444.977 303.224 450.704C303.606 450.799 303.913 451.579 303.593 452.355C303.566 452.417 303.563 452.46 303.537 452.523C303.568 452.677 303.598 452.852 303.607 453.004C303.734 453.879 303.241 454.381 302.842 454.22C302.652 454.725 302.442 455.206 302.251 455.71C300.483 460.372 298.895 465.221 297.088 469.837C295.362 474.244 293.422 478.612 290.969 481.794C288.393 485.161 285.407 486.853 282.358 486.854C279.525 486.851 276.415 485.96 274.875 481.56ZM302.833 532.874C301.838 531.759 301.07 530.229 300.302 528.699C299.348 526.787 298.393 524.876 297.439 522.964C295.568 519.208 293.649 515.513 291.5 512.276C289.448 509.177 287.184 506.579 285.162 503.374C284.18 501.827 283.248 500.177 282.464 498.3C281.861 496.869 280.943 495.047 281.059 493.002C281.245 489.492 284.324 489.385 285.69 488.778C288.064 487.73 290.259 485.652 292.169 482.773C294.055 479.936 295.638 476.535 297.2 473.132C298.556 470.146 299.929 467.226 301.324 464.307C303.546 459.637 307.545 451.04 304.184 446.131C303.776 445.537 304.004 443.998 304.642 444.134C307.025 444.643 309.454 444.832 311.865 444.976C313.801 445.105 315.766 445.43 317.723 445.02C319.459 444.658 321.186 443.862 322.884 442.891C326.257 440.948 329.53 438.348 332.992 437.212C333.281 437.105 333.5 437.359 333.58 437.712C333.82 437.687 334.058 437.965 334.119 438.294C334.248 438.866 334.075 439.415 333.789 439.76C333.147 440.51 332.865 441.915 332.726 443.137C332.358 446.762 332.806 450.472 333.188 453.896C333.607 457.691 333.849 461.536 334.002 465.418C334.409 474.66 334.316 484.209 333.03 493.535C332.388 498.177 331.452 502.709 330.126 506.974C328.943 510.795 327.464 514.248 325.766 517.445C322.598 523.426 318.77 528.728 314.633 532.147C310.839 535.333 306.333 536.821 302.833 532.874ZM30.6597 846.438C32.0608 848.169 33.2673 851.57 33.4029 856.229C33.5416 861.126 32.157 866.424 30.4505 868.626C28.6479 870.951 27.1416 868.347 26.3571 864.525C25.6205 860.922 25.2121 856.155 25.5544 851.469C25.371 851.325 25.2257 850.968 25.1747 850.51C25.0382 849.483 25.2688 848.463 25.6198 847.841C27.2178 844.809 29.1809 844.594 30.6597 846.438ZM143.598 824.119C142.661 823.376 142.001 821.855 141.494 820.302C140.846 818.349 140.452 816.178 140.104 813.968C139.323 808.718 139.044 803.119 139.13 797.547C139.188 792.903 139.443 787.67 140.692 783.291C140.927 782.488 141.184 781.686 141.54 781C141.669 780.729 141.774 780.5 141.995 780.149C142.168 779.882 142.36 779.637 142.548 779.436C143.591 778.263 144.812 777.579 145.962 776.977C148.895 775.41 152.067 774.381 155.044 774.482C156.079 774.519 157.19 774.692 158.043 775.688C158.955 776.753 159.452 778.435 159.715 780.336C160.051 782.697 160.027 785.225 159.964 787.707C159.893 790.576 159.668 793.478 159.403 796.333C159.166 799.103 158.865 801.869 158.606 804.638C158.528 805.367 158.47 806.119 158.391 806.848C158.699 807.066 158.905 807.753 158.656 808.447C158.521 808.804 158.363 809.159 158.208 809.493C158.173 809.944 158.159 810.397 158.147 810.829C158.131 811.865 157.467 812.073 157.14 811.55C155.422 814.725 153.471 817.578 151.443 820.015C149.316 822.618 146.062 826.084 143.598 824.119ZM129.007 1080.79C129.796 1080.93 130.336 1081.77 130.767 1083.47C131.25 1085.33 131.554 1087.53 131.718 1089.88C131.852 1091.77 131.829 1094.02 131.32 1095.84C130.874 1097.4 130.239 1098.07 129.622 1098.22C128.236 1098.52 126.926 1096.45 125.897 1094.66C124.772 1092.71 123.515 1090.24 122.937 1086.82C122.893 1086.56 122.895 1086.26 122.916 1085.98C122.61 1084.91 122.924 1082.54 123.615 1082.55C125.388 1082.56 127.238 1080.45 129.007 1080.79ZM265.027 1110.2C262.944 1117.52 259.19 1122.42 258.077 1131.45C257.57 1135.48 257.481 1139.69 256.726 1143.56C256.077 1146.91 254.838 1149.77 253.535 1149.57C252.359 1149.39 251.577 1146.93 250.984 1144.55C250.329 1141.84 249.852 1138.79 249.275 1135.92C249.194 1135.56 249.12 1135.13 249.023 1134.71C248.872 1134.7 248.733 1134.53 248.633 1134.16C246.783 1127.9 244.349 1123.04 241.356 1121.21C240.323 1120.58 239.284 1120.03 238.293 1119.15C237.38 1118.37 236.422 1117.34 235.82 1115.35C235.251 1113.49 235.243 1110.81 235.762 1108.3C236.618 1104.23 238.212 1101.81 239.6 1099.53C243.345 1093.36 246.911 1086.16 250.611 1079.72C253.764 1074.22 257.571 1068.35 260.997 1069.91C263.945 1071.22 265.962 1078.1 266.752 1085.75C267.555 1093.51 267.169 1102.67 265.027 1110.2ZM303.18 1084.54C302.759 1090.24 301.334 1095.77 299.919 1100.35C298.498 1105 296.742 1109.23 294.72 1111.04C292.349 1113.17 290.186 1110.94 288.649 1107.06C286.765 1102.35 285.16 1097.13 282.414 1096.01C281.786 1095.74 281.784 1093.54 282.165 1092.53C282.624 1088.84 283.958 1085.32 284.921 1082.67C286.342 1078.84 287.874 1075.26 289.476 1072.19C292.372 1066.64 295.803 1065.07 298.735 1067.14C301.522 1069.12 303.877 1075.27 303.18 1084.54ZM351.218 1022.93C354.201 1029.63 352.518 1042.95 350.628 1052.53C349.461 1058.36 348.055 1063.94 346.523 1069.18C344.822 1074.93 342.34 1081.27 339.888 1078.59C339.25 1077.89 338.707 1076.81 338.241 1075.57C336.776 1073.83 335.516 1071.12 334.738 1067.21C333.934 1063.08 333.711 1058.16 333.959 1053.01C334.448 1042.82 336.814 1032.13 339.984 1025.56C341.608 1022.19 343.452 1019.89 345.316 1019.28C347.382 1018.57 349.705 1019.57 351.218 1022.93ZM339.347 1019.01C338.063 1021.33 336.978 1023.88 336.002 1027.26C333.61 1035.51 331.871 1045.93 328.769 1052.45C325.307 1059.71 321.517 1056.99 318.522 1052.95C316.759 1050.59 315.104 1047.67 313.617 1044.27C312.236 1041.16 310.965 1037.75 310.178 1033.13C309.259 1027.7 309.072 1021.2 309.753 1014.65C310.441 1008.03 311.781 1001.9 313.272 996.075C315.489 987.296 317.845 978.68 320.492 970.778C323.024 963.234 326.023 955.251 329.468 952.103C330.911 950.788 332.415 950.646 333.667 952.062C335.278 953.873 336.164 957.509 337.104 961.279C339.472 970.609 343.121 976.535 345.542 985.738C345.944 987.24 346.276 988.822 346.577 990.51C346.845 990.12 347.173 990.081 347.379 990.767C348.224 993.535 348.342 997.306 347.527 1001.11C346.653 1005.13 345.205 1008.18 343.854 1010.82C342.393 1013.75 340.853 1016.31 339.347 1019.01ZM234.147 913.265C234.531 913.9 234.909 914.6 235.342 915.152C235.832 915.796 236.353 916.333 236.873 916.871C237.994 918.039 239.164 919.124 240.279 920.357C240.359 920.449 240.416 920.54 240.451 920.651C240.978 921.103 241.502 921.598 241.999 922.155C245.98 926.594 248.399 934.154 249.581 942.332C250.153 946.376 250.349 950.542 250.081 954.824C249.82 959.3 249.364 963.784 248.759 968.234C248.15 972.727 247.438 977.168 246.535 981.552C245.876 984.744 245.215 988.238 243.927 990.906C241.766 995.343 238.542 996.757 235.54 996.697C232.365 996.645 229.237 995.148 226.477 992.815C225.056 991.624 223.79 990.098 222.51 988.485C220.778 986.275 219.149 983.857 217.674 981.127C216.256 978.509 214.971 975.555 214.2 972.122C213.75 970.12 213.561 968.095 213.735 965.86C213.892 963.558 214.308 961.256 214.614 958.988C215.203 954.753 216.023 950.601 217.357 946.791C218.72 942.875 220.58 939.539 221.963 935.647C222.709 933.564 223.215 931.225 223.797 929.022C224.379 926.819 225.002 924.64 225.665 922.508C226.212 920.756 226.781 919.006 227.391 917.28C227.894 915.806 228.459 914.38 229.178 913.203C229.872 912.068 230.732 911.292 231.647 911.211C232.672 911.096 233.435 912.128 234.147 913.265ZM234.464 907.236C233.582 905.784 232.819 904.47 232.606 902.205C232.427 900.332 232.428 898.365 232.558 896.407C233.064 889.615 235.462 882.688 239.119 879.599C240.138 878.727 241.191 878.268 242.274 877.963C243.466 877.645 244.738 877.42 245.871 877.875C246.919 878.302 247.755 879.794 248.374 881.291C248.993 882.787 249.491 884.448 249.735 886.326C250.23 890.256 249.72 894.584 249.385 898.622C249.108 902.19 248.773 905.947 247.802 909.266C246.837 912.499 245.372 914.655 243.509 916.089C242.658 916.736 240.054 919.085 239.605 916.78C239.589 916.714 239.592 916.671 239.574 916.627C238.513 915.528 237.641 913.947 236.883 912.288C236.063 910.603 235.366 908.711 234.464 907.236ZM380.215 873.715C382.663 876.175 385.131 879.761 386.673 885.523C387.844 889.938 388.472 895.5 388.622 901.371C388.974 914.371 387.389 928.387 385.724 941.468C384.914 947.718 384.04 953.963 383.189 960.188C382.343 966.349 381.683 972.611 380.836 978.793C379.891 985.66 378.745 992.9 376.947 998.793C376.1 1001.62 375.033 1004.22 373.856 1005.73C372.464 1007.5 371.02 1007.72 369.609 1008.62C368.356 1009.43 367.113 1011.52 365.931 1013.09C364.993 1014.32 364.011 1015.54 363.008 1016.2C361.023 1017.53 359.463 1015.62 358.376 1011.79C357.713 1009.47 357.21 1006.75 356.756 1003.97C356.716 1003.92 356.697 1003.9 356.659 1003.83C354.226 998.953 352.69 991.72 350.753 985.473C349.128 980.223 347.315 975.434 345.637 970.309C343.942 965.118 342.339 959.589 341.219 953.124C340.34 948.018 339.506 941.489 340.243 935.06C340.884 929.315 342.341 924.197 343.877 919.733C345.72 914.384 347.752 909.656 349.829 905.19C351.878 900.809 353.993 896.693 356.127 892.599C358.338 888.36 360.476 883.662 362.796 879.972C368.486 870.75 374.8 868.257 380.215 873.715ZM243.385 859.197C243.886 859.711 243.556 860.896 243.085 861.119C243.352 864.642 243.076 868.751 241.379 871.386C240.569 872.62 239.563 873.321 238.546 873.609C237.418 873.932 236.259 873.821 235.359 872.605C234.559 871.483 234.089 869.739 233.996 867.872C233.914 866.136 234.155 864.425 234.461 862.72C234.735 861.141 235.069 859.351 235.63 857.968C236.188 856.627 237.207 856.317 238.051 856.318C239.931 856.334 241.844 857.607 243.385 859.197ZM229.224 822.661C227.893 821.974 226.429 820.78 225.901 818.382C225.257 815.543 226.111 811.783 226.946 809.102C227.926 805.957 229.249 803.119 230.758 800.685C231.004 800.293 231.262 800.313 231.459 800.566C233.058 798.637 234.518 803.225 235.087 805.367C235.94 808.59 236.638 812.125 237.031 815.701C237.217 817.488 237.028 819.635 236.468 821.278C235.767 823.343 234.483 824 233.296 823.972C231.914 823.951 230.492 823.322 229.224 822.661ZM208.665 845.669C211.707 840.197 215.119 835.252 218.748 831.123C220.623 828.977 222.589 827.054 224.643 825.679C226.421 824.498 228.325 823.651 230.164 823.924C233.732 824.482 236.34 829.895 236.474 836.24C236.6 842.693 234.995 849.162 233.823 855.341C232.935 860.093 231.821 866.082 233.099 870.505L233.938 870.57C234.712 870.63 234.543 872.801 233.769 872.741L233.49 872.719C233.288 873.374 232.781 873.767 232.489 873.074C232.435 872.94 232.38 872.806 232.326 872.672C229.913 872.549 227.522 872.429 225.119 872.177C222.03 871.851 218.931 871.372 215.911 870.446C213.186 869.607 210.395 868.504 207.997 866.242C206.284 864.639 204.585 861.999 204.558 858.171C204.573 853.242 206.804 849.027 208.665 845.669ZM162.761 853.065C161.434 852.054 159.912 851.871 158.461 851.629C156.729 851.364 154.993 851.165 153.285 850.6C152 850.154 150.648 849.465 149.664 847.94C148.679 846.415 148.242 844.241 148.345 841.806C148.455 838.723 149.386 836.201 150.638 834.006C152.063 831.522 153.842 829.499 155.667 828.278C157.218 827.253 158.994 826.656 160.425 827.999C161.615 829.108 162.166 831.766 162.513 833.977C162.977 836.91 163.235 840 163.34 843.1C163.431 845.55 163.494 848.085 163.302 850.556C163.29 850.706 163.257 850.855 163.227 850.961C163.227 850.961 163.227 850.961 163.248 850.963C163.918 851.534 163.434 853.593 162.761 853.065ZM60.9328 935.054C60.1407 934.949 59.4252 934.137 59.0179 932.419C58.5777 930.568 58.6853 928.069 58.7829 925.698C59.0455 919.254 58.7902 913.073 58.439 907.013C58.4342 906.797 58.4293 906.58 58.4443 906.387C58.2585 904.881 58.2349 903.236 58.5041 901.44C58.8862 899.027 59.6762 897.207 60.4726 895.864C62.0423 893.197 63.9029 892.909 65.4503 893.591C68.5468 894.934 71.5482 899.729 72.9005 907.38C73.5593 911.15 73.8089 916.012 73.0648 920.581C72.334 924.978 70.9599 927.076 69.4606 928.56C68.0573 929.921 66.6379 930.654 65.2296 932.08C63.8411 933.528 62.3449 935.25 60.9328 935.054ZM102.697 907.164C103.432 909.405 103.363 913.075 103.223 916.264C103.101 919.238 103.034 922.324 102.759 925.308C102.536 927.626 102.14 929.93 101.374 931.449C100.428 933.321 99.2884 933.795 98.253 934.039C97.0638 934.314 95.8899 933.834 94.9517 932.269C94.0169 930.661 93.4583 927.829 93.3415 924.599C93.2179 921.735 93.3922 918.376 93.6887 915.394C94.0134 912.327 94.5912 909.064 95.6541 907.352C95.7404 906.797 95.9276 906.336 96.2006 906.162C97.3372 905.451 98.5052 904.893 99.638 904.786C100.794 904.66 101.98 904.99 102.697 907.164ZM148.964 922.67C147.715 917.038 146.93 910.708 147.833 904.378C148.31 901.021 149.225 897.87 150.399 895C151.675 891.942 153.238 889.361 154.743 886.689C157.733 881.321 160.686 875.886 163.848 870.813C166.884 865.968 170.139 861.378 173.746 858.091C176.935 855.182 180.327 854.386 183.642 855.422C185.397 855.947 187.079 856.835 188.757 857.787C190.848 858.987 192.943 860.144 195.039 861.28C199.441 863.632 203.842 866.006 208.237 868.445C217.008 873.299 225.72 878.364 234.3 884.003C235 884.468 234.537 886.529 233.816 886.062C233.672 885.965 233.507 885.866 233.363 885.768C233.356 885.854 233.351 885.918 233.345 886.004C232.825 889.077 232.244 892.102 231.599 895.122C228.785 908.243 224.901 920.935 220.102 932.324C217.741 937.935 215.145 943.246 212.246 947.994C209.767 952.06 207.079 955.765 204.432 959.494C198.747 967.528 192.601 975.655 185.764 979.6C182.685 981.371 179.45 982.093 176.408 980.884C174.792 980.24 173.29 978.977 171.885 977.571C170.34 976.024 168.923 974.227 167.563 972.241C161.915 963.932 157.473 952.907 154.097 941.23C152.347 935.083 150.388 929.115 148.964 922.67ZM84.0046 1045.94C82.7226 1044.07 81.1796 1041.94 80.8784 1037.46C80.5888 1033.11 81.7612 1028.6 82.7428 1024.87C85.6761 1013.84 87.6875 1001.58 88.4357 988.883C88.8005 982.793 88.8608 977.004 88.3653 971.409C87.9242 966.229 87.2148 961.439 86.5799 956.525C86.2559 954.014 85.9551 951.483 85.7254 948.87C85.6269 947.911 85.8276 946.997 86.086 946.455C86.1791 945.814 86.373 945.267 86.6526 945.007C90.8522 941.615 95.1515 939.722 98.9675 943.218C102.722 946.666 105.6 953.895 107.359 963.544C108.15 967.843 108.719 972.492 109.309 977.143C109.926 982.012 110.599 986.713 111.315 991.417C111.957 995.683 112.84 1000.46 112.035 1005.81C111.218 1011.32 109.067 1014.79 107.169 1015.01C106.231 1015.11 105.338 1014.63 104.439 1014.23C103.559 1013.86 102.643 1013.68 101.73 1013.74C100.275 1013.82 98.7681 1014.57 97.3247 1016.45C94.4843 1020.16 92.5029 1027.58 91.0737 1035.12C90.6354 1037.42 90.2402 1039.72 89.883 1042.09C89.5623 1044.28 89.1393 1046.1 88.3925 1047.36C86.8444 1050.03 85.2486 1047.75 84.0046 1045.94ZM101.167 1073.63C100.197 1075.54 99.1607 1076.63 98.1392 1075.86C96.8732 1074.9 95.8748 1071.88 95.111 1069.18C94.2796 1066.24 93.3422 1063.55 92.5655 1060.46C91.8234 1057.49 91.2636 1054.11 91.0911 1050.21C90.9186 1046.3 91.158 1042.11 91.6239 1038.06C92.3145 1031.95 93.5342 1025.99 95.3878 1021.62C98.7505 1013.68 103.17 1013.31 106.325 1017.8C109.618 1022.46 111.876 1032.93 111.37 1044.46C111.007 1052.47 108.913 1071.64 104.85 1068.81C104.46 1068.54 104.111 1068.02 103.77 1067.41C102.926 1069.64 102.086 1071.82 101.167 1073.63ZM123.56 1074.35C121.533 1076.23 119.421 1075.28 117.675 1073.27C117.478 1073.86 117.213 1074.2 116.905 1073.99C115.765 1073.08 114.785 1071.49 113.754 1070C113.368 1069.41 112.983 1068.8 112.505 1068.54C112.069 1068.31 111.629 1068.13 111.228 1067.73C109.663 1066.16 109.78 1061.02 110.311 1056.7C110.878 1052.18 111.85 1048.02 112.478 1043.55C113.039 1039.4 113.378 1033.91 114.977 1031.42C116.529 1028.99 118.093 1031.12 119.276 1032.88C120.58 1034.75 121.832 1037.01 122.959 1039.47C124.292 1042.37 125.346 1046.06 125.943 1050.62C126.499 1054.88 126.847 1060.14 126.482 1065.13C126.186 1069.5 125.12 1072.92 123.56 1074.35ZM131.202 1071.18C130.416 1071.27 129.593 1071.3 128.866 1070.92C128.099 1070.49 127.759 1069.29 127.581 1067.96C127.115 1064.49 127.626 1060.42 127.949 1056.81C128.131 1054.75 128.268 1052.71 128.101 1050.68C127.911 1048.4 127.403 1046.31 126.844 1044.32C126.075 1041.68 123.483 1038.02 125.088 1034.62C126.378 1031.94 128.723 1031.25 130.481 1030.89C131.294 1030.74 132.127 1030.59 132.923 1030.65C133.782 1030.72 134.665 1031.04 135.482 1031.39C137.074 1032.05 138.985 1033.35 139.538 1036.24C139.743 1036.39 139.889 1036.75 139.85 1037.24C139.778 1038.73 139.727 1040.21 139.698 1041.7C139.542 1047.9 139.514 1054.1 139.27 1060.31C139.226 1061.43 139.229 1062.51 139.228 1063.63C139.227 1064.76 139.177 1065.96 138.814 1067.02C138.424 1068.13 137.69 1068.68 137.03 1069.11C135.183 1070.32 133.144 1070.97 131.202 1071.18ZM158.954 1083.37C154.93 1084.23 150.739 1083.62 147.167 1080.88C143.84 1078.33 141.066 1073.66 140.598 1066.88C140.482 1065.03 140.563 1063.15 140.579 1061.27C140.614 1059.16 140.627 1057.04 140.64 1054.92C140.669 1050.64 140.699 1046.37 140.904 1042.06C141.28 1034.15 142.313 1025.58 145.568 1019.31C147.322 1015.94 149.513 1013.63 151.864 1012.04C153.76 1010.73 155.79 1009.94 157.744 1010.39C161.078 1011.19 163.377 1015.29 165.704 1019.01C166.935 1020.99 168.237 1022.88 169.706 1024.3C171.377 1025.9 173.24 1026.69 175.181 1026.75C175.441 1026.75 175.614 1027.02 175.652 1027.37C175.875 1027.28 176.123 1027.43 176.214 1027.94C176.497 1029.3 176.69 1030.72 176.793 1032.18C177.385 1039.31 176.503 1047.05 175.197 1054.13C173.85 1061.44 171.803 1068.87 168.818 1074.71C167.543 1077.21 166.07 1079.47 164.379 1080.92C162.689 1082.34 160.757 1082.99 158.954 1083.37ZM145.233 1147.27C145.07 1148.54 144.655 1148.87 144.354 1148.57C142.946 1152.22 141.226 1154.59 139.466 1154.69C137.792 1154.8 136.322 1152.85 135.229 1149.93C133.047 1144.06 132.535 1134.22 133.878 1125.01C134.755 1119 136.719 1115.15 138.841 1115.41C141.113 1115.67 143.023 1119.47 144.264 1124.11C145.921 1130.33 146.392 1138.76 145.233 1147.27ZM158.313 1136.18C157.318 1133.68 156.968 1130.39 157.172 1127.21C157.358 1124.26 158.044 1121.55 159.332 1119.44C160.524 1117.46 162.047 1116.23 163.561 1115.4C165.165 1114.51 166.823 1114.05 168.458 1113.88C170.008 1113.7 171.441 1114.46 172.483 1116.35C173.468 1118.16 173.942 1120.68 174.268 1123.17C174.549 1125.4 174.698 1127.66 174.822 1129.96C175.085 1129.92 175.348 1130.15 175.385 1130.78C175.539 1133.82 176.273 1136.34 177.286 1138.61C177.712 1139.53 176.979 1140.9 176.424 1140.25C174.419 1137.93 171.959 1135.64 169.352 1136.35C167.119 1136.97 165.012 1139.04 162.748 1139.51C160.949 1139.85 159.348 1138.73 158.313 1136.18ZM190.698 1149.98C185.715 1146.48 182.123 1139.26 177.976 1133.62C177.781 1133.35 177.724 1132.98 177.774 1132.61C177.451 1133.15 176.826 1133.12 176.772 1132.15C176.643 1129.63 176.359 1127.16 176.006 1124.73C175.286 1119.81 174.267 1115.11 173.682 1110.11C173.142 1105.64 172.951 1100.87 173.445 1096.17C174.289 1088.09 177.078 1080.86 180.901 1075.91C185.087 1070.46 189.953 1068.24 194.786 1066.44C197.527 1065.39 200.316 1064.57 203.091 1064.2C205.408 1063.89 207.98 1063.63 209.842 1066.11C210.585 1067.12 211.173 1068.46 211.671 1069.84C212.294 1071.58 212.916 1073.31 213.515 1075.07C214.959 1079.31 216.353 1083.63 217.491 1088.2C219.538 1096.38 220.91 1105.43 220.945 1114.73C220.968 1119.17 220.744 1123.73 219.907 1128.1C219.212 1131.77 217.914 1134.82 216.322 1137.51C212.833 1143.44 208.264 1147.41 203.819 1149.79C199.419 1152.15 194.799 1152.87 190.698 1149.98Z" fill="url(#paint0_linear_256_7315)"/>
<defs>
<linearGradient id="paint0_linear_256_7315" x1="411.516" y1="1081.29" x2="249.253" y2="71.4644" gradientUnits="userSpaceOnUse">
<stop offset="0.00396825" stop-color="#E8EFFF"/>
</linearGradient>
</defs>
</svg>
