<svg width="271" height="679" viewBox="0 0 271 679" fill="none" xmlns="http://www.w3.org/2000/svg">
<g clip-path="url(#clip0_198_1544)">
<path d="M95.994 679C132.424 679 161.956 672.203 161.956 663.818C161.956 655.434 132.424 648.637 95.994 648.637C59.5643 648.637 30.0321 655.434 30.0321 663.818C30.0321 672.203 59.5643 679 95.994 679Z" fill="#9DA3A6"/>
<path d="M271 663.219C271 654.832 241.474 648.037 205.038 648.037C168.603 648.037 139.076 654.832 139.076 663.219C139.076 671.605 168.603 678.4 205.038 678.4C241.474 678.4 271 671.605 271 663.219Z" fill="#9DA3A6"/>
<path d="M189.048 403.015C188.075 399.196 189.011 391.746 186.165 389.05C185.51 388.432 184.761 387.964 183.956 387.59C183.918 387.534 183.843 387.478 183.825 387.403C181.26 380.252 182.72 354.475 183.881 336.972C184.405 329.11 180.099 317.953 178.114 310.315C176.785 305.167 179.406 295.321 172.609 294.535C164.353 293.58 159.616 303.557 158.305 309.454C155.871 320.48 157.032 320.723 158.548 336.017C159.747 348.185 175.624 377.201 168.135 388.938C168.135 388.938 164.615 393.243 164.072 393.973C163.173 395.153 162.724 397.792 162.649 400.825C162.593 403.633 165.42 403.633 165.963 406.254C166.543 409.099 165.925 414.902 167.086 415.482C171.037 417.448 170.924 414.715 174.201 414.434C180.66 413.854 183.02 415.164 187.101 410.372C189.629 407.47 189.517 404.887 189.048 403.015Z" fill="#FFBC79"/>
<path d="M182.083 316.68C181.26 311.981 180.174 303.95 179.612 297.623C177.496 274.074 177.852 250.637 176.691 226.994C176.279 218.776 175.287 210.614 174.725 202.415C174.295 195.957 173.958 189.517 171.018 183.639C170.7 183.003 170.007 183.078 169.614 183.471C169.295 183.414 168.977 183.546 168.79 183.939C166.749 188.712 166.992 193.991 165.775 198.989C164.015 206.252 161.638 213.347 159.915 220.61C156.639 234.538 155.571 248.634 155.141 262.898C154.691 278.042 155.066 293.205 155.553 308.35C155.759 314.976 156.395 321.734 156.096 328.361C155.908 332.629 162.78 362.262 162.78 372.24C162.78 375.254 161.207 387.571 163.716 387.159C169.146 386.261 179.2 386.411 184.405 384.595C186.277 383.94 187.064 383.921 187.288 381.768C187.962 375.254 183.862 326.938 182.083 316.68Z" fill="white"/>
<path d="M171.523 293.448C169.52 293.486 167.329 293.767 165.401 294.272C163.678 294.721 161.113 295.919 160.514 297.904C159.934 299.832 162.817 300.861 163.21 298.971C163.454 297.773 165.757 296.968 166.712 296.35C168.247 295.358 169.801 294.441 171.542 293.973C171.804 293.898 171.823 293.448 171.523 293.448ZM174.575 286.372C168.209 286.971 163.004 285.268 156.807 283.864C156.414 283.77 156.058 284.089 156.451 284.276C161.076 286.429 170.306 289.742 175.624 288.413C177.234 288.001 176.429 286.185 174.575 286.372ZM169.295 279.24C164.671 278.211 161.338 275.833 157.238 273.437C156.976 273.287 156.657 273.418 156.919 273.643C159.765 276.226 165.626 280.663 169.651 280.925C170.849 281 170.643 279.54 169.295 279.24Z" fill="#CCCCCC"/>
<path d="M161.619 178.099C151.19 174.786 144.375 174.542 132.748 169.731C122.918 165.276 123.91 150.15 124.846 136.654C120.784 130.757 97.6791 136.167 97.6791 136.167C97.6791 136.167 100.937 160.989 86.6137 166.717C86.2392 166.867 85.9396 167.092 85.6026 167.204C78.1695 169.563 69.4819 169.113 60.3637 170.274C37.0533 173.251 43.363 173.756 47.9876 210.521C48.7553 216.587 62.8352 251.667 66.9168 278.53C69.8189 297.699 62.8913 332.63 62.8913 338.901C62.8726 356.928 70.2121 378.867 74.0316 381.844C76.241 383.566 97.1923 380.14 116.777 381.301C131.1 382.162 144.637 388.901 149.861 384.802C162.256 375.105 161.6 362.918 162.387 345.734C162.948 333.566 165.457 275.366 168.116 240.379C169.164 226.602 170.325 215.969 170.325 213.872C170.344 184.033 175.568 182.517 161.619 178.099Z" fill="#FFBC79"/>
<path d="M78.0946 91.6323C78.0946 87.8135 77.9635 84.1444 77.4767 80.4005C77.3831 79.6704 77.1959 79.1088 76.9525 78.6221C76.9337 78.3039 76.915 77.9857 76.8963 77.6862C76.8214 76.825 76.578 76.2073 76.2784 75.6831C76.3533 74.5225 76.0725 73.2496 75.1925 72.688C73.6572 71.6959 72.0283 71.3027 70.4368 71.4151C70.3057 71.3963 70.1559 71.3963 70.0249 71.3963C69.7815 71.3027 69.5381 71.284 69.2947 71.3402C67.2351 71.3402 65.213 72.0141 63.5841 74.1107C61.2624 77.1058 60.9628 82.1976 61.8054 86.578C61.8428 86.7465 61.8803 86.915 61.9177 87.0834C62.1611 89.3298 62.7603 91.4638 63.7713 93.1486C64.0147 93.5792 64.2956 93.9348 64.5951 94.2531C67.4036 99.2512 71.5789 102.209 75.3423 99.532C76.5218 99.2325 77.5329 97.8098 77.5329 95.2452C77.5329 94.8895 77.5142 94.5339 77.5142 94.1782C77.8699 93.5043 78.0946 92.6806 78.0946 91.6323Z" fill="#FF9B54"/>
<path d="M74.9304 89.2918C74.9304 87.7755 74.8929 86.3528 74.687 84.8927C74.6495 84.6119 74.5746 84.3872 74.481 84.2C74.481 84.069 74.481 83.9567 74.4623 83.8257C74.4249 83.4887 74.35 83.2453 74.2189 83.0394C74.2563 82.5902 74.1253 82.0847 73.7883 81.8601C73.1704 81.467 72.5525 81.3172 71.9159 81.3734C71.8598 81.3734 71.8036 81.3734 71.7662 81.3734C71.6538 81.3359 71.5602 81.3359 71.4666 81.3359C70.6428 81.3359 69.8564 81.598 69.2198 82.4217C68.3024 83.601 68.19 85.5853 68.5083 87.3075C68.527 87.3824 68.5458 87.4385 68.5645 87.5134C68.6768 88.3933 68.9015 89.2356 69.2947 89.8908C69.3883 90.0593 69.5006 90.2091 69.613 90.3214C70.7177 92.2869 72.3653 93.4476 73.8257 92.3993C74.3125 92.2682 74.687 91.7066 74.687 90.7145C74.687 90.5647 74.687 90.4337 74.687 90.2839C74.8368 90.0219 74.9304 89.7036 74.9304 89.2918Z" fill="#CF5025"/>
<path d="M153.137 95.9389C153.68 92.663 154.279 89.5368 155.216 86.4106C155.403 85.8116 155.646 85.3436 155.908 84.9692C155.983 84.7071 156.039 84.4451 156.114 84.1643C156.302 83.4342 156.582 82.9288 156.901 82.5357C156.994 81.5248 157.425 80.4765 158.23 80.1208C159.69 79.4656 161.132 79.372 162.48 79.6903C162.611 79.6903 162.724 79.709 162.855 79.709C163.079 79.6716 163.304 79.6903 163.491 79.7651C165.251 80.0459 166.899 80.9258 167.985 82.9288C169.576 85.8303 169.127 90.2294 167.798 93.8611C167.741 93.9921 167.667 94.1419 167.629 94.2916C167.105 96.1823 166.3 97.9232 165.195 99.2336C164.914 99.5706 164.633 99.8326 164.334 100.076C161.244 103.97 157.256 105.917 154.392 103.109C153.437 102.697 152.744 101.33 153.119 99.14C153.156 98.8405 153.212 98.541 153.268 98.2227C153.1 97.5863 153.006 96.8375 153.137 95.9389Z" fill="#FF9B54"/>
<path d="M157.949 93.6173C158.193 92.2321 158.436 90.903 158.829 89.5552C158.904 89.2931 159.016 89.0872 159.129 88.9374C159.147 88.8251 159.185 88.7128 159.204 88.6005C159.279 88.2822 159.428 88.0763 159.559 87.9078C159.597 87.4773 159.784 87.028 160.121 86.8783C160.739 86.6162 161.357 86.56 161.919 86.6911C161.975 86.6911 162.031 86.7098 162.087 86.7098C162.181 86.6911 162.274 86.7098 162.349 86.7285C163.117 86.8595 163.81 87.2152 164.259 88.0763C164.933 89.3118 164.746 91.1838 164.184 92.7375C164.165 92.7937 164.128 92.8498 164.109 92.9247C163.884 93.7297 163.547 94.4784 163.079 95.0213C162.967 95.1711 162.836 95.2834 162.724 95.377C161.394 97.0243 159.709 97.8667 158.492 96.6686C158.08 96.4814 157.799 95.9199 157.949 94.9839C157.968 94.8528 157.987 94.7218 158.005 94.5908C157.912 94.31 157.874 93.9917 157.949 93.6173Z" fill="#CF5025"/>
<path d="M114.418 163.498C117.058 164.546 122.675 165.164 127.936 165.632C123.367 159.005 124.116 147.324 124.846 136.654C120.784 130.757 97.6791 136.167 97.6791 136.167C97.6791 136.167 95.8817 156.122 114.418 163.498Z" fill="#E6A25E"/>
<path d="M162.798 86.0724C167.18 79.4269 165.738 56.4579 165.045 50.7296C161.244 19.8047 140.012 17.9328 128.011 16.2667C105.768 13.1593 75.4172 18.3633 73.058 40.6023C67.8717 89.236 79.349 106.982 80.5099 114.377C83.075 130.756 95.0204 143.991 110.673 148.521C114.717 149.701 124.959 151.048 131.287 151.011C141.828 150.936 150.142 137.533 152.37 131.018C158.979 111.737 152.22 102.096 162.798 86.0724Z" fill="#FFBC79"/>
<path d="M137.466 103.782C134.789 95.7696 133.572 91.539 131.081 83.3023C128.984 76.376 128.179 66.9788 126.794 71.0222C125.727 74.0922 122.038 93.0927 120.484 102.041C120.072 104.399 119.885 104.399 119.866 104.886C119.754 107.263 120.784 108.462 122.955 110.427C126.195 113.366 130.07 113.422 133.759 111.943C137.597 110.408 139.207 109.004 137.466 103.782Z" fill="#CF5025"/>
<path d="M136.661 101.366C134.133 93.9346 133.347 89.9847 131.006 82.3284C129.022 75.9075 128.273 67.2029 126.944 70.9281C125.67 74.5223 119.978 101.759 119.866 103.968C119.754 106.177 120.634 105.597 122.675 106.215C123.611 106.495 132.935 107.6 134.807 108.105C139.526 109.341 138.309 106.215 136.661 101.366Z" fill="#FF9B54"/>
<path d="M104.775 71.6777C91.8187 71.6777 91.8187 79.1656 104.775 79.1656C117.732 79.1656 117.732 71.6777 104.775 71.6777Z" fill="white"/>
<path d="M101.424 72.4082C96.5931 72.4082 96.5931 79.8961 101.424 79.8961C106.254 79.8961 106.254 72.4082 101.424 72.4082Z" fill="#262626"/>
<path d="M105.356 75.1971C123.536 75.6838 109.587 70.7792 104.813 71.4906C100.019 72.2019 83.8052 74.6168 105.356 75.1971Z" fill="#262626"/>
<path d="M147.726 76.3945C135.126 76.3945 135.126 83.8824 147.726 83.8824C160.327 83.8824 160.327 76.3945 147.726 76.3945Z" fill="white"/>
<path d="M148.644 79.408C166.805 79.8947 152.875 74.9902 148.101 75.7015C143.308 76.4129 127.093 78.8277 148.644 79.408Z" fill="#262626"/>
<path d="M144.731 76.7695C139.9 76.7695 139.9 84.2574 144.731 84.2574C149.561 84.2574 149.561 76.7695 144.731 76.7695Z" fill="#262626"/>
<path d="M95.8817 116.249C103.352 124.916 107.79 135.736 117.881 136.035C122.712 136.185 128.909 137.477 133.328 134.781C138.72 131.505 141.997 127.724 145.667 121.921C145.966 121.434 133.983 127.443 122.431 126.207C109.063 124.803 95.8068 116.174 95.8817 116.249Z" fill="#FFBC79"/>
<path d="M148.962 118.514C148.962 118.514 139.6 134.557 121.926 133.078C104.251 131.599 94.44 114.097 92.5115 111.457C90.583 108.818 91.5566 107.676 94.1591 109.641C105.655 118.346 131.175 123.681 145.798 118.103C152.257 115.65 148.962 118.514 148.962 118.514Z" fill="#262626"/>
<path d="M141.566 120.068C138.196 121.06 132.673 121.116 132.673 121.116C122.113 121.285 109.849 118.589 100.862 114.377C100.75 114.92 101.442 116.848 101.105 117.26C100.675 117.803 98.7088 117.69 98.1284 117.915C102.828 123.4 110.991 129.746 121.963 130.663C122.937 130.738 123.873 130.775 124.79 130.757C134.32 130.588 141.136 125.777 143.27 124.092C143.064 123.849 141.08 123.288 140.967 123.007C140.836 122.726 141.622 120.405 141.566 120.068Z" fill="white"/>
<path d="M161.563 66.8851C158.399 66.3984 153.868 66.024 150.685 65.7057C148.812 65.5185 142.371 65.6309 138.702 62.3175C136.286 60.1273 134.227 64.9008 137.148 67.0723C139.076 68.5137 141.136 69.4684 143.57 69.431C144.693 69.4122 157.856 68.5699 161.638 68.1767C162.405 68.0831 162.237 66.9974 161.563 66.8851Z" fill="#664228"/>
<path d="M116.028 59.1906C108.894 56.0831 94.7021 54.7728 90.1336 62.2419C88.2426 65.3307 90.1149 65.1247 92.6613 62.5976C97.9974 57.2999 108.052 61.5493 114.081 63.6833C115.073 64.039 117.863 63.571 118.668 62.1858C119.361 60.9315 117.75 59.9394 116.028 59.1906Z" fill="#664228"/>
<path d="M256.883 652.755C256.883 650.565 237.055 648.768 212.584 648.768C188.112 648.768 168.284 650.546 168.284 652.755C168.284 653.298 168.284 655.881 168.284 656.742C168.284 660.168 188.112 662.938 212.584 662.938C237.055 662.938 256.883 660.168 256.883 656.742C256.883 655.881 256.883 653.316 256.883 652.755Z" fill="white"/>
<path d="M246.248 642.759C242.054 643.526 207.247 632.07 202.454 630.029C197.755 628.045 193.261 625.162 188.412 623.702C182.477 621.905 174.95 627.502 171.823 632.837C169.164 637.368 166.955 645.174 168.94 650.415C169.876 652.905 172.254 653.448 174.426 653.953C179.181 655.058 183.694 655.076 188.505 655.376C199.702 656.05 250.011 658.221 256.714 652.437C258.924 650.509 256.883 640.849 246.248 642.759Z" fill="#E62E2E"/>
<path d="M241.211 655.732C248.794 655.17 254.711 654.159 256.714 652.437C258.849 650.603 256.995 641.561 247.315 642.647C247.315 642.647 247.296 642.647 247.296 642.666C244.975 644.538 243.982 648.225 242.953 650.902C242.485 652.119 241.661 653.935 241.211 655.732Z" fill="#9A1F1F"/>
<path d="M221.908 643.901C221.945 643.527 221.87 643.152 221.683 642.871C222.264 642.067 222.694 640.943 223.031 640.363C223.537 639.502 224.173 638.491 224.623 637.48C223.949 637.274 223.256 637.068 222.582 636.844C222.058 637.948 221.533 639.053 220.99 640.157C220.897 640.344 220.298 641.486 220.035 642.441C219.286 642.666 218.575 643.246 218.182 643.901C217.695 644.687 218.107 645.998 219.081 646.166C219.492 646.241 219.886 646.241 220.241 646.147C220.616 646.166 220.99 646.073 221.327 645.717C221.814 645.23 221.908 644.463 221.926 643.807C221.926 643.826 221.908 643.864 221.908 643.901Z" fill="white"/>
<path d="M217.19 635.12C216.497 634.895 215.823 634.671 215.149 634.465C214.493 635.42 213.969 636.487 213.464 637.479C212.977 638.452 211.835 639.931 211.704 641.185C211.498 641.241 211.292 641.335 211.123 641.466C210.861 641.578 210.674 641.747 210.58 641.971C210.524 642.046 210.449 642.121 210.393 642.196C210.187 642.477 210.15 642.776 210.187 643.038C210.037 643.413 210.224 643.918 210.487 644.18C210.693 644.386 210.898 644.536 211.142 644.705C211.778 645.135 212.509 644.761 212.921 644.237C213.183 643.9 213.201 643.413 213.426 643.095C213.875 642.458 213.613 641.803 213.108 641.429C213.707 640.792 214.119 639.781 214.475 639.145C215.242 637.741 215.991 636.187 217.19 635.12Z" fill="white"/>
<path d="M205.001 640.156C204.982 640.1 204.944 640.044 204.926 639.988C206.442 638.546 207.678 636.731 209.064 635.177C209.7 634.465 210.393 633.773 211.086 633.099C210.374 632.856 209.7 632.631 209.045 632.406C208.596 632.968 208.184 633.511 207.847 633.941C206.573 635.476 205.113 637.199 204.233 639.052C203.746 638.79 203.147 638.846 202.679 639.258C202.585 639.333 202.529 639.407 202.492 639.501V639.52C202.473 639.576 202.436 639.632 202.417 639.688C202.379 639.744 202.379 639.819 202.361 639.875C202.342 639.969 202.286 640.044 202.267 640.119C201.836 642.477 205.45 642.421 205.001 640.156Z" fill="white"/>
<path d="M241.342 642.104C240.743 641.973 240.088 641.823 239.414 641.654C238.272 642.871 237.13 644.2 236.325 645.642C235.857 645.342 235.257 645.38 234.752 645.754C234.658 645.829 234.602 645.904 234.546 645.979V645.997C234.508 646.053 234.49 646.091 234.452 646.166C234.415 646.222 234.415 646.297 234.396 646.353C234.359 646.428 234.303 646.503 234.284 646.596C233.741 648.899 237.336 649.067 237.036 646.765C237.036 646.709 236.999 646.652 236.98 646.596C238.534 645.267 239.882 643.545 241.342 642.104Z" fill="white"/>
<path d="M232.936 639.932C232.318 639.763 231.7 639.576 231.082 639.389C230.82 639.894 230.595 640.343 230.446 640.587C229.772 641.747 229.116 642.964 228.573 644.2C227.993 644.069 227.263 644.331 226.944 644.817C226.532 645.248 226.308 645.772 226.551 646.427C226.626 646.614 226.738 646.783 226.869 646.914C226.963 647.082 227.113 647.232 227.3 647.307C227.431 647.363 227.581 647.419 227.712 647.476C228.161 647.663 228.835 647.644 229.135 647.195C229.341 646.895 229.528 646.614 229.715 646.315C229.94 645.978 229.884 645.36 229.622 645.061C229.603 645.023 229.566 645.005 229.547 644.967C230.333 643.75 231.12 642.534 231.887 641.298C232.074 641.073 232.524 640.531 232.936 639.932Z" fill="white"/>
<path d="M162.724 340.399C148.307 341.541 132.261 346.988 115.841 345.865C96.7617 344.555 78.8061 341.728 62.9101 337.797C62.4045 385.757 72.4776 419.939 78.0197 466.888C79.8546 482.406 81.4648 496.315 82.5694 507.004C84.3481 524.413 87.063 559.569 89.3847 590.718C90.1149 600.453 88.6545 619.135 88.7107 621.362C88.823 625.387 90.6953 625.874 90.9387 629.318C91.0885 631.303 89.2911 634.017 89.4221 635.795C89.5345 637.499 92.4366 638.566 91.5379 639.708C90.583 640.906 85.4528 645.005 89.6655 648.806C93.3353 652.138 113.556 648.338 113.556 648.338C113.556 648.338 132.954 649.629 135.949 645.867C137.822 643.527 134.021 638.547 131.343 637.798C129.92 637.405 133.721 636.619 133.44 634.916C133.141 633.081 130.857 628.682 130.52 626.604C128.76 615.803 125.633 602.568 123.498 587.892C119.155 558.015 115.073 524.713 115.447 506.779C115.691 495.117 113.631 484.147 112.826 466.401C111.74 442.533 111.16 417.093 111.047 400.901C111.029 397.194 113.613 392.159 118.818 389.201C122.656 387.011 126.606 401.912 127.992 405.899C137.129 431.938 149.299 486.749 153.493 514.473C157.238 539.258 163.135 600.977 166.019 632.089C166.244 634.56 163.884 637.611 164.072 639.652C164.296 642.198 166.805 643.396 166.693 644.949C166.506 647.888 166.225 649.405 167.704 650.64C171.523 653.86 180.417 647.327 184.592 644.874C189.03 642.272 195.789 628.214 206.199 631.396C208.333 632.051 210 629.524 208.539 625.762C208.053 624.489 204.345 624.17 204.027 622.298C203.765 620.726 204.626 618.704 204.327 616.963C203.877 614.455 202.211 612.134 201.687 609.307C195.733 577.315 185.379 526.772 181.372 501.351C175.193 462.227 161.825 398.486 162.724 340.399Z" fill="#2E6666"/>
<path d="M162.724 340.399C148.307 341.541 132.261 346.988 115.841 345.865C96.7617 344.555 78.8061 341.728 62.9101 337.797C62.4045 385.757 72.4776 419.939 78.0197 466.888C79.8546 482.406 81.4648 496.315 82.5694 507.004C84.3481 524.413 87.063 559.569 89.3847 590.718C90.1149 600.453 88.6545 619.135 88.7107 621.362C88.823 625.387 90.6953 625.874 90.9387 629.318C91.0885 631.303 89.2911 634.017 89.4221 635.795C89.5345 637.499 92.4366 638.566 91.5379 639.708C90.583 640.906 85.4528 645.005 89.6655 648.806C93.3353 652.138 113.556 648.338 113.556 648.338C113.556 648.338 132.954 649.629 135.949 645.867C137.822 643.527 134.021 638.547 131.343 637.798C129.92 637.405 133.721 636.619 133.44 634.916C133.141 633.081 130.857 628.682 130.52 626.604C128.76 615.803 125.633 602.568 123.498 587.892C119.155 558.015 115.073 524.713 115.447 506.779C115.691 495.117 113.631 484.147 112.826 466.401C111.74 442.533 111.16 417.093 111.047 400.901C111.029 397.194 113.613 392.159 118.818 389.201C122.656 387.011 126.606 401.912 127.992 405.899C137.129 431.938 149.299 486.749 153.493 514.473C157.238 539.258 163.135 600.977 166.019 632.089C166.244 634.56 163.884 637.611 164.072 639.652C164.296 642.198 166.805 643.396 166.693 644.949C166.506 647.888 166.225 649.405 167.704 650.64C171.523 653.86 180.417 647.327 184.592 644.874C189.03 642.272 195.789 628.214 206.199 631.396C208.333 632.051 210 629.524 208.539 625.762C208.053 624.489 204.345 624.17 204.027 622.298C203.765 620.726 204.626 618.704 204.327 616.963C203.877 614.455 202.211 612.134 201.687 609.307C195.733 577.315 185.379 526.772 181.372 501.351C175.193 462.227 161.825 398.486 162.724 340.399Z" fill="#2E6666"/>
<path d="M162.724 340.399C148.307 341.541 132.261 346.988 115.841 345.865C96.7617 344.555 78.8061 341.728 62.9101 337.797C62.4045 385.757 72.4776 419.939 78.0197 466.888C79.8546 482.406 81.4648 496.315 82.5694 507.004C84.3481 524.413 87.063 559.569 89.3847 590.718C90.1149 600.453 88.6545 619.135 88.7107 621.362C88.823 625.387 90.6953 625.874 90.9387 629.318C91.0885 631.303 89.2911 634.017 89.4221 635.795C89.5345 637.499 92.4366 638.566 91.5379 639.708C90.583 640.906 85.4528 645.005 89.6655 648.806C93.3353 652.138 113.556 648.338 113.556 648.338C113.556 648.338 132.954 649.629 135.949 645.867C137.822 643.527 134.021 638.547 131.343 637.798C129.92 637.405 133.721 636.619 133.44 634.916C133.141 633.081 130.857 628.682 130.52 626.604C128.76 615.803 125.633 602.568 123.498 587.892C119.155 558.015 115.073 524.713 115.447 506.779C115.691 495.117 113.631 484.147 112.826 466.401C111.74 442.533 111.16 417.093 111.047 400.901C111.029 397.194 113.613 392.159 118.818 389.201C122.656 387.011 126.606 401.912 127.992 405.899C137.129 431.938 149.299 486.749 153.493 514.473C157.238 539.258 163.135 600.977 166.019 632.089C166.244 634.56 163.884 637.611 164.072 639.652C164.296 642.198 166.805 643.396 166.693 644.949C166.506 647.888 166.225 649.405 167.704 650.64C171.523 653.86 180.417 647.327 184.592 644.874C189.03 642.272 195.789 628.214 206.199 631.396C208.333 632.051 210 629.524 208.539 625.762C208.053 624.489 204.345 624.17 204.027 622.298C203.765 620.726 204.626 618.704 204.327 616.963C203.877 614.455 202.211 612.134 201.687 609.307C195.733 577.315 185.379 526.772 181.372 501.351C175.193 462.227 161.825 398.486 162.724 340.399Z" fill="#404040"/>
<path opacity="0.5" d="M206.18 631.435C208.315 632.09 209.981 629.563 208.521 625.8C208.034 624.527 204.327 624.209 204.008 622.337C203.746 620.764 204.607 618.743 204.308 617.002C203.859 614.493 202.192 612.172 201.668 609.345C195.714 577.353 185.36 526.81 181.353 501.389C180.174 493.957 178.751 485.646 177.215 476.66C179.125 487.817 181.297 509.495 173.658 506.687C168.865 504.927 162.836 485.028 160.477 480.648C154.673 469.884 142.409 426.96 139.488 414.661C132.916 386.899 114.38 353.897 127.412 404.196C127.636 404.87 127.823 405.469 127.973 405.919C137.11 431.958 149.28 486.769 153.474 514.493C157.219 539.278 163.117 600.996 166 632.109C166.225 634.579 163.866 637.631 164.053 639.671C164.278 642.217 166.787 643.415 166.674 644.969C166.487 647.908 166.206 649.424 167.685 650.66C171.505 653.879 180.398 647.346 184.574 644.894C189.03 642.292 195.789 628.234 206.18 631.435Z" fill="#262626"/>
<path opacity="0.5" d="M131.306 637.8C129.883 637.407 133.684 636.621 133.403 634.917C133.103 633.083 130.819 628.684 130.482 626.606C128.722 615.805 125.595 602.57 123.461 587.894C119.117 558.017 115.035 524.715 115.41 506.781C115.653 495.119 113.594 484.149 112.789 466.403C111.778 444.033 111.197 420.278 111.047 404.066C109.1 408.728 108.276 414.381 107.883 417.882C106.554 429.563 107.733 441.3 108.595 452.962C109.4 463.876 109.662 474.771 110.617 485.665C110.579 486.47 110.561 487.294 110.504 488.099C110.055 495.344 108.932 505.976 101.817 509.945C97.1361 512.547 93.4476 505.958 91.7438 502.682C85.8647 491.412 83.5992 477.915 81.3711 465.523C80.3226 459.683 79.1243 453.936 77.8324 448.133C76.4095 441.73 74.9678 435.029 72.4776 428.87C74.4623 440.907 76.4469 453.355 78.0384 466.89C79.8733 482.408 81.4835 496.317 82.5881 507.006C84.3669 524.415 87.0817 559.571 89.4034 590.72C90.1336 600.454 88.6732 619.137 88.7294 621.364C88.8417 625.389 90.714 625.876 90.9574 629.32C91.1072 631.304 89.3098 634.019 89.4408 635.797C89.5532 637.501 92.4553 638.568 91.5566 639.71C90.6017 640.908 85.4715 645.007 89.6842 648.807C93.354 652.139 113.575 648.339 113.575 648.339C113.575 648.339 132.972 649.631 135.968 645.868C137.784 643.528 133.983 638.549 131.306 637.8Z" fill="#262626"/>
<path d="M111.141 621.923C111.384 621.923 111.441 621.474 111.197 621.399C105.037 619.714 94.7957 618.423 89.3472 624.525C89.9089 625.967 90.6766 626.959 90.9013 628.943C94.5148 621.53 105.655 621.867 111.141 621.923Z" fill="#262626"/>
<path d="M124.023 623.815C126.869 625.855 130.538 628.326 132.486 632.126C131.699 630.179 130.707 627.914 130.482 626.604C130.332 625.649 130.145 624.638 129.977 623.646C128.947 622.991 127.898 622.448 126.906 621.98C122.637 620.015 118.293 618.161 113.837 617.019C113.388 616.907 113.144 617.806 113.594 618.068C117.039 620.015 120.69 621.437 124.023 623.815Z" fill="#262626"/>
<path d="M184.648 626.044C184.386 626.175 184.536 626.53 184.817 626.455C190.846 624.827 203.035 621.326 208.67 626.249C208.614 626.1 208.595 625.95 208.539 625.8C208.053 624.527 204.345 624.209 204.027 622.337C203.952 621.906 203.971 621.438 204.027 620.97C197.362 620.615 189.629 623.591 184.648 626.044Z" fill="#262626"/>
<path d="M165.981 632.782C167.966 629.749 171.505 627.465 174.295 625.556C177.852 623.122 181.877 621.456 185.603 619.341C186.071 619.079 185.716 618.349 185.21 618.499C180.286 620.052 175.512 622.168 170.849 624.395C169.108 625.219 167.255 626.267 165.57 627.521C165.719 629.113 165.869 630.666 166 632.126C166.019 632.314 166 632.557 165.981 632.782Z" fill="#262626"/>
<path d="M186.483 632.202C181.559 633.755 176.785 635.871 172.123 638.098C169.838 639.184 167.386 640.626 165.326 642.441C166.038 643.359 166.749 644.107 166.712 644.969C166.637 646.073 166.562 646.972 166.562 647.72C168.303 644.07 172.422 641.412 175.568 639.259C179.125 636.825 183.151 635.159 186.877 633.044C187.326 632.782 186.97 632.052 186.483 632.202Z" fill="#262626"/>
<path d="M137.616 655.393C137.616 653.203 125.408 651.406 110.355 651.406C95.3012 651.406 83.0937 653.185 83.0937 655.393C83.0937 655.936 83.0937 658.52 83.0937 659.381C83.0937 662.806 95.3012 665.577 110.355 665.577C125.408 665.577 137.616 662.806 137.616 659.381C137.616 658.501 137.616 655.936 137.616 655.393Z" fill="white"/>
<path d="M83.5992 654.926C83.5992 654.945 83.5992 654.963 83.5992 654.982C83.412 655.263 83.4682 655.712 83.8614 655.806C91.3694 657.322 99.3455 658.314 107.022 657.734C115.354 658.258 137.447 656.442 137.616 655.394C138.627 648.468 137.616 638.041 110.355 639.913C90.6953 641.26 84.9286 649.179 83.5992 654.926Z" fill="#E62E2E"/>
<path d="M118.069 643.001C102.098 640.923 91.3132 645.715 87.2128 655.618C87.269 655.693 87.3439 655.768 87.4562 655.787C94.4025 657.303 101.78 658.295 108.876 657.715C114.118 658.07 125.24 657.34 131.868 656.517C130.726 648.168 127.281 644.199 118.069 643.001Z" fill="#9A1F1F"/>
<path d="M133.01 636C126.925 633.903 119.136 634.222 113.875 634.914C113.575 634.952 113.613 635.345 113.893 635.363C119.492 635.719 130.258 636.225 135.144 640.979C134.096 639.444 132.56 638.134 131.287 637.778C130.239 637.498 132.13 636.973 133.01 636Z" fill="#404040"/>
<path d="M90.8077 640.455C93.2604 638.471 96.4621 637.123 99.0833 635.962C103.034 634.222 107.284 633.304 111.347 631.919C111.853 631.751 111.647 630.964 111.122 631.02C105.992 631.638 100.918 632.874 95.9191 634.184C93.897 634.727 91.7064 635.494 89.6843 636.543C90.3957 637.816 92.2868 638.714 91.5191 639.688C91.3694 639.875 91.1072 640.137 90.8077 640.455Z" fill="#404040"/>
<path d="M84.76 357.527C80.8282 354.045 76.7278 348.654 71.0359 347.456C70.1559 347.268 69.2572 347.268 68.3959 347.381C68.3211 347.343 68.2649 347.325 68.19 347.287C57.7237 342.588 53.2114 317.841 45.0668 302.322C41.3971 295.34 32.4661 286.093 26.7929 280.626C22.9547 276.939 16.2892 271.117 10.0731 274C2.52763 277.5 3.7072 288.489 5.69186 294.198C9.38033 304.868 12.6756 303.09 19.7904 316.718C23.6849 324.187 53.7731 351.349 55.4956 360.316C55.1586 361.346 54.9152 362.338 54.8216 363.236C54.391 367.561 59.3526 374.599 60.9441 377.781C63.1909 382.218 65.4189 384.333 68.864 385.943C72.4589 383.397 76.0537 381.151 78.6937 379.185C83.8988 375.329 87.5873 370.163 92.3617 366.044C90.3208 362.712 87.6621 360.091 84.76 357.527Z" fill="#FFBC79"/>
<path d="M44.8796 174.018C38.6448 180.626 26.1564 219.282 22.2432 229.971C18.3301 240.66 7.97612 260.053 5.56082 265.426C-1.40422 280.869 -3.03314 286.729 7.78888 300.843C21.2134 318.346 47.3511 363.929 48.2685 365.707C49.1859 367.485 69.5568 345.958 67.7968 342.513C66.6547 340.304 41.9213 294.497 37.9894 288.301C37.3903 287.346 39.0754 283.266 38.5699 282.442C37.278 280.327 34.1512 281.955 34.0576 281.469C33.9265 280.682 38.6635 279.877 39.0941 278.38C39.4686 277.069 36.5478 276.545 37.2405 274.842C38.0456 272.876 39.3375 275.497 39.9741 273.045C43.5502 259.323 53.0991 241.334 55.1025 238.338C61.0939 229.428 59.1467 211.438 56.5816 198.129C51.1706 169.843 44.8796 174.018 44.8796 174.018Z" fill="white"/>
<path d="M36.0235 273.044C32.7657 270.348 27.4109 269.525 23.7224 272.052C23.6849 272.071 23.6849 272.127 23.7411 272.146C25.2577 272.426 26.8304 271.996 28.3657 271.94C30.8372 271.865 32.8031 272.819 34.4133 274.654C35.4057 275.777 37.1657 273.98 36.0235 273.044ZM32.4474 280.495C30.7061 279.184 27.3921 279.783 25.3139 279.764C22.5803 279.746 19.7531 280.101 17.4127 281.58C17.2629 281.674 17.3565 281.936 17.5437 281.88C20.6518 280.869 23.6849 281.019 26.8492 281.711C28.5904 282.104 30.8185 283.003 32.4474 282.03C33.0653 281.655 32.9529 280.888 32.4474 280.495ZM14.4731 283.153C10.9719 283.995 8.14465 287.046 5.93531 289.705C4.41873 291.539 7.88253 293.055 8.1821 290.641C8.59401 287.271 12.1514 285.249 14.5854 283.434C14.7352 283.321 14.6416 283.097 14.4731 283.153ZM36.4729 286.803C32.9155 287.121 30.0134 286.223 26.5683 285.493C26.3436 285.437 26.1564 285.605 26.3811 285.699C28.9649 286.822 34.095 288.544 37.072 287.851C37.952 287.664 37.5027 286.728 36.4729 286.803Z" fill="#CCCCCC"/>
<path d="M69.1449 408.725C66.9355 399.028 62.3296 385.624 60.8692 382.18C59.4275 378.754 59.4275 378.436 62.8913 376.564C66.3551 374.692 84.2171 365.651 87.9617 355.037C89.029 351.985 91.9872 355.654 93.1481 356.908C94.3089 358.181 88.6545 400.02 69.1449 408.725Z" fill="#404040"/>
<path d="M145.011 353.876C146.734 351.929 147.595 353.183 149.617 357.863C151.639 362.543 160.57 374.168 163.735 375.684C166.899 377.201 166.768 380.945 165.607 382.498C164.446 384.052 164.877 397.586 165.457 402.51C157.687 399.983 141.697 373.438 141.828 360.035C143.289 356.609 145.011 353.876 145.011 353.876Z" fill="#404040"/>
<path d="M93.2042 357.078C93.1855 357.022 93.1668 356.965 93.1481 356.928C91.9872 355.674 89.029 352.005 87.9617 355.056C84.2171 365.67 66.3551 374.712 62.8913 376.584C59.4275 378.456 59.4275 378.774 60.8692 382.2C60.9816 382.48 61.1314 382.855 61.2999 383.285C72.047 379.167 86.2017 367.561 93.2042 357.078Z" fill="#666666"/>
<path d="M163.753 375.684C160.589 374.168 151.658 362.543 149.636 357.863C147.614 353.183 146.753 351.929 145.03 353.876C145.03 353.876 144.637 354.494 144.075 355.505C148.232 365.183 157.182 377.219 165.401 382.985C165.457 382.835 165.513 382.723 165.57 382.629C165.813 381.375 166.094 380.458 166.337 380.121C166.356 380.102 166.375 380.065 166.375 380.046C166.412 378.436 165.719 376.639 163.753 375.684Z" fill="#666666"/>
<path d="M123.236 352.678C123.236 354.512 121.757 378.511 120.484 381.3C115.841 381.3 114.68 377.556 114.418 374.224C114.099 370.218 115.841 355.991 116.271 351.891C116.683 347.829 123.236 352.678 123.236 352.678Z" fill="#666666"/>
<path d="M119.904 379.259C118.537 378.866 117.376 377.612 117.095 374.093C116.852 370.948 117.994 360.558 118.63 354.98C118.761 353.838 118.874 352.865 118.93 352.172C119.791 352.303 121.121 352.996 122.132 353.651C121.963 358.237 120.802 374.317 119.904 379.259Z" fill="#404040"/>
<path d="M185.042 259.586C182.814 242.626 182.102 225.591 178.957 208.743C177.178 199.271 177.59 186.71 168.266 181.169C167.648 180.795 166.974 181.113 166.637 181.637C160.926 181.169 159.709 192.813 159.428 196.631C158.417 210.746 157.631 225.254 157.331 239.406C157.163 247.699 154.991 257.807 158.829 265.557C162.892 273.794 177.328 263.985 182.57 262.805C183.881 262.525 185.229 260.99 185.042 259.586Z" fill="#E62E2E"/>
<path d="M161.619 178.1C152.538 175.217 146.21 174.655 137.054 171.379C137.054 171.735 137.054 172.072 136.998 172.428C135.893 180.683 123.255 185.812 108.782 183.865C95.5072 182.087 85.3405 174.992 84.5728 167.467C77.3644 169.489 69.07 169.152 60.3637 170.275C37.0533 173.251 43.363 173.757 47.9876 210.522C48.6429 215.782 53.6795 237.347 59.9143 259.979C59.5586 264.191 59.6522 268.216 61.2062 272.278C62.3109 275.18 63.4717 278.456 65.1568 281.264C65.5875 284.24 65.8309 287.198 65.9619 290.099C65.3628 291.747 64.1083 293.525 64.1271 295.247C64.1645 297.812 64.6326 301.238 65.6998 304.289C65.5126 306.797 65.2504 309.231 64.9509 311.552C63.7339 312.881 62.6479 314.323 61.899 315.427C59.8956 318.385 60.0454 321.567 62.1798 324.001C61.2998 325.292 60.7569 326.809 60.6445 328.4C60.5509 329.729 61.0003 331.002 61.3373 332.275C61.3373 332.294 61.3373 332.312 61.356 332.331C61.1688 333.51 61.0377 334.484 61.0377 335.158C61.019 353.185 163.491 359.175 164.278 341.99C164.315 341.373 164.334 340.642 164.371 339.838C165.289 338.883 166.075 337.853 166.431 336.543C166.955 334.596 166.038 332.312 165.064 330.309C165.401 329.392 165.569 328.344 165.869 327.501C166.318 326.228 166.992 324.937 166.899 323.57C166.824 322.372 166.131 321.211 165.158 320.238C166.468 315.24 167.517 310.991 166.318 305.712C166.075 304.607 165.738 303.503 165.382 302.417C165.944 282.218 166.786 258.557 168.153 240.399C169.089 228.156 170.363 215.838 170.363 213.892C170.344 184.034 175.568 182.517 161.619 178.1Z" fill="#9A1F1F"/>
<path d="M96.2936 357.694C95.526 357.769 94.7021 357.545 93.9345 357.526C93.9157 357.526 92.343 357.395 89.909 356.927C87.6809 356.496 80.7908 353.707 78.3193 351.423C78.1882 351.348 78.0572 352.06 77.9636 353.052C78.3567 353.557 78.7125 354.1 79.0682 354.755C79.6487 355.86 79.7797 356.777 79.8359 357.751C80.1916 358.331 80.5286 358.93 80.8657 359.51C85.3967 361.588 91.7251 364.902 95.0204 363.423C95.7694 363.086 96.4434 362 96.874 360.559C97.08 359.754 96.6681 357.638 96.2936 357.694Z" fill="#FFBC79"/>
<path d="M168.434 17.7835C165.85 9.97742 168.097 4.45511 168.94 1.4974C169.202 0.580139 168.06 -0.000170998 167.404 0.598859C166.693 1.21661 166.094 1.8718 165.551 2.56442C165.401 2.48955 165.232 2.43339 165.045 2.47083C164.633 2.5457 164.221 2.67674 163.828 2.8265C164.072 2.56442 164.353 2.28363 164.577 2.02155C165.045 1.4974 164.596 0.5427 163.847 0.767336C162.593 1.16045 161.488 1.83436 160.439 2.60186C160.514 2.45211 160.608 2.32107 160.664 2.17131C160.851 1.70332 160.458 1.23533 160.046 1.08557C157.144 0.130867 153.961 2.04027 151.078 3.65017C151.284 3.08858 150.965 2.45211 150.216 2.39595C147.333 2.15259 144.543 3.03242 141.735 3.63145C140.331 3.93096 138.908 4.23048 137.485 4.52999C138.664 3.93096 139.694 3.18217 140.405 2.11515C140.705 1.6846 140.406 1.01069 139.9 0.898373C136.811 0.168306 133.815 2.00283 130.913 2.95754C128.161 3.8748 125.221 4.41767 122.375 5.14774C123.91 3.98712 125.202 2.56442 126.12 0.804775C126.401 0.261904 125.858 -0.206087 125.333 0.0185487C121.139 1.85308 117.657 4.60487 113.238 6.12116C110.991 6.88867 108.67 7.03843 106.367 7.22562C107.303 6.62659 108.239 6.02756 109.138 5.35366C109.681 4.94182 109.55 4.00584 108.763 4.00584C102.697 4.04328 97.0987 7.86209 91.8562 10.5577C89.4596 11.7932 86.8009 12.7292 84.4231 14.0209C84.4979 13.4967 84.1235 12.8977 83.5243 13.1223C73.9568 16.6978 70.1934 38.0756 69.5381 50.9922C69.2572 56.4771 72.0657 78.6037 72.3091 81.7112C72.4402 83.3024 73.8257 83.3773 74.9865 83.5832C79.1057 84.3507 81.4086 83.4709 80.6597 81.9171C79.6674 79.8392 77.0835 72.0144 76.7653 69.7306C76.2223 65.7808 85.1533 40.7338 90.8638 37.6825C104.363 30.4755 115.691 34.8371 129.153 39.6107C129.153 39.8353 129.321 40.1722 129.583 40.0412C148.307 30.6814 160.252 46.7616 164.633 42.6807C171.13 36.7465 170.999 25.5522 168.434 17.7835Z" fill="#66542A"/>
<path d="M62.8352 208.8C61.2624 197.793 56.2446 182.162 48.774 173.626C47.8566 172.577 46.677 172.671 45.8158 173.308C39.3562 174.917 36.7912 185.868 35.0873 191.054C30.2193 205.936 17.8807 225.797 14.6229 241.241C14.3795 242.364 15.1846 243.038 16.0833 243.825C21.5505 248.598 36.5478 255.262 46.7519 258.744C54.6906 261.44 52.8931 260.841 55.2897 255.3C57.0122 251.312 63.0037 237.348 63.9024 233.473C65.6062 226.153 63.996 216.943 62.8352 208.8Z" fill="#E62E2E"/>
<g opacity="0.6">
<g opacity="0.6">
<path opacity="0.6" d="M147.09 257.133C147.258 242.606 135.612 230.7 121.083 230.551C106.554 230.382 94.646 242.026 94.4962 256.552C94.3277 271.079 105.974 282.984 120.503 283.134C135.013 283.303 146.921 271.659 147.09 257.133Z" fill="#9A1F1F"/>
<path opacity="0.6" d="M120.484 284.445C105.262 284.277 92.9983 271.754 93.1668 256.534C93.3353 241.315 105.861 229.054 121.083 229.222C136.305 229.391 148.569 241.914 148.4 257.133C148.232 272.371 135.706 284.614 120.484 284.445ZM121.064 231.843C107.284 231.693 95.9379 242.775 95.7881 256.553C95.6383 270.331 106.722 281.656 120.503 281.825C134.283 281.974 145.611 270.892 145.779 257.115C145.929 243.337 134.845 232.012 121.064 231.843Z" fill="#C7E62E"/>
</g>
<g opacity="0.6">
<path opacity="0.6" d="M139.713 257.039C139.825 246.593 131.456 238.02 120.99 237.907C110.542 237.795 101.967 246.163 101.854 256.627C101.742 267.073 110.111 275.646 120.578 275.759C131.025 275.871 139.6 267.503 139.713 257.039Z" fill="#9A1F1F"/>
<path opacity="0.6" d="M120.559 277.069C109.4 276.938 100.431 267.765 100.544 256.608C100.675 245.452 109.849 236.466 121.008 236.597C132.167 236.728 141.154 245.901 141.023 257.058C140.892 268.215 131.718 277.2 120.559 277.069ZM120.971 239.218C111.253 239.106 103.259 246.93 103.165 256.627C103.053 266.343 110.879 274.317 120.578 274.43C130.295 274.542 138.29 266.717 138.383 257.02C138.496 247.323 130.688 239.33 120.971 239.218Z" fill="#C7E62E"/>
</g>
<g opacity="0.6">
<path opacity="0.6" d="M124.528 251.143C124.509 253.184 122.843 254.812 120.802 254.794C118.761 254.775 117.132 253.109 117.151 251.068L117.451 223.045C117.47 221.005 119.136 219.376 121.177 219.395C123.218 219.413 124.846 221.079 124.828 223.12L124.528 251.143Z" fill="#9A1F1F"/>
<path opacity="0.6" d="M120.784 256.085C118.031 256.047 115.803 253.782 115.841 251.03L116.159 223.007C116.196 220.255 118.462 218.027 121.214 218.065C123.966 218.102 126.195 220.367 126.157 223.119L125.839 251.143C125.82 253.913 123.555 256.122 120.784 256.085ZM121.177 220.704C119.866 220.686 118.78 221.753 118.78 223.063L118.462 251.086C118.443 252.397 119.51 253.483 120.821 253.483C122.132 253.501 123.218 252.434 123.218 251.124L123.536 223.101C123.555 221.79 122.487 220.723 121.177 220.704Z" fill="#C7E62E"/>
</g>
</g>
<path d="M151.433 142.437C153.68 135.866 154.13 128.865 154.186 121.883C151.19 129.371 150.722 134.594 142.484 138.375C138.814 140.06 127.674 144.44 129.752 135.773C129.846 135.342 129.34 132.516 125.951 133.395C124.154 133.863 123.873 133.92 122.019 133.62C120.334 132.665 117.619 134.144 118.406 136.353C121.476 144.889 98.2034 136.035 94.8519 133.358C88.2613 128.079 84.9848 123.343 82.4946 115.574C79.8733 107.45 75.6044 98.4458 71.7662 85.9785C73.3015 97.4537 75.9602 109.247 79.2367 122.07C85.3592 146.013 99.3268 146.817 111.834 149.345C124.734 151.909 147.951 152.564 151.433 142.437Z" fill="#7A4E4E"/>
</g>
<defs>
<clipPath id="clip0_198_1544">
<rect width="271" height="679" fill="white"/>
</clipPath>
</defs>
</svg>
