<svg width="388" height="332" viewBox="0 0 388 332" fill="none" xmlns="http://www.w3.org/2000/svg">
<path d="M385.56 179.596C384.766 174.647 381.816 166.225 378.607 162.965C374.199 158.508 366.874 166.487 360.635 166.487C354.412 166.487 347.071 158.524 342.663 162.965C339.454 166.209 336.829 173.386 335.711 179.596C334.884 184.118 332.502 194.736 335.711 197.98C337.347 199.635 341.334 200.504 343.83 197.735C347.427 193.753 352.241 188.608 360.635 188.608C369.03 188.608 373.843 193.753 377.441 197.735C379.936 200.504 383.907 199.635 385.56 197.98C388.785 194.736 386.289 184.135 385.56 179.596Z" fill="#262626"/>
<path d="M372.093 164.228C370.731 168.62 371.687 176.19 373.519 182.22C374.848 186.611 377.57 197.147 381.913 198.54C382.74 198.802 383.809 198.818 384.879 198.54C385.138 198.376 385.365 198.196 385.56 197.999C388.768 194.755 386.273 184.153 385.56 179.614C384.765 174.666 381.816 166.244 378.607 162.983C377.278 161.64 375.674 161.443 373.908 161.803C373.081 162.328 372.449 163.114 372.093 164.228Z" fill="#404040"/>
<path d="M342.663 162.966C339.454 166.21 336.829 173.387 335.711 179.597C334.884 184.12 332.502 194.737 335.711 197.982C335.905 198.178 336.148 198.359 336.391 198.539C337.445 198.817 338.498 198.801 339.325 198.539C343.668 197.162 346.374 186.627 347.719 182.219C349.55 176.189 350.507 168.602 349.145 164.228C348.805 163.113 348.157 162.327 347.33 161.77C345.58 161.426 343.992 161.622 342.663 162.966Z" fill="#404040"/>
<path d="M374.702 169.288C373.584 169.288 372.692 168.371 372.692 167.256C372.692 166.126 373.6 165.225 374.702 165.225C375.82 165.225 376.711 166.142 376.711 167.256C376.711 168.371 375.804 169.288 374.702 169.288ZM376.711 175.203C376.711 174.073 375.804 173.172 374.702 173.172C373.584 173.172 372.692 174.089 372.692 175.203C372.692 176.334 373.6 177.235 374.702 177.235C375.804 177.235 376.711 176.318 376.711 175.203ZM370.764 169.19C369.646 169.19 368.754 170.107 368.754 171.222C368.754 172.352 369.662 173.254 370.764 173.254C371.882 173.254 372.773 172.336 372.773 171.222C372.773 170.091 371.882 169.19 370.764 169.19ZM378.624 169.19C377.505 169.19 376.614 170.107 376.614 171.222C376.614 172.352 377.522 173.254 378.624 173.254C379.742 173.254 380.633 172.336 380.633 171.222C380.649 170.091 379.742 169.19 378.624 169.19Z" fill="#E62E2E"/>
<path d="M363.536 172.978C363.536 171.356 362.239 170.045 360.635 170.045C359.031 170.045 357.734 171.356 357.734 172.978C357.734 174.6 359.031 175.911 360.635 175.911C362.223 175.927 363.536 174.6 363.536 172.978Z" fill="#666666"/>
<path d="M357.54 181.772C357.54 179.298 355.563 177.299 353.116 177.299C350.669 177.299 348.692 179.298 348.692 181.772C348.692 184.246 350.669 186.245 353.116 186.245C355.563 186.245 357.54 184.246 357.54 181.772Z" fill="#666666"/>
<path d="M357.005 180.459H354.428V177.854H351.819V180.459H349.242V183.097H351.819V185.702H354.428V183.097H357.005V180.459Z" fill="#C7E62E"/>
<path d="M372.546 182.335C372.546 179.86 370.569 177.861 368.122 177.861C365.675 177.861 363.698 179.86 363.698 182.335C363.698 184.809 365.675 186.808 368.122 186.808C370.569 186.791 372.546 184.792 372.546 182.335Z" fill="#666666"/>
<path d="M371.477 182.335C371.477 180.467 369.97 178.943 368.122 178.943C366.275 178.943 364.767 180.467 364.767 182.335C364.767 184.203 366.275 185.727 368.122 185.727C369.986 185.727 371.477 184.203 371.477 182.335Z" fill="#C7E62E"/>
<path d="M351.576 170.044C351.576 167.569 349.599 165.57 347.152 165.57C344.705 165.57 342.728 167.569 342.728 170.044C342.728 172.518 344.705 174.517 347.152 174.517C349.599 174.517 351.576 172.518 351.576 170.044Z" fill="#666666"/>
<path d="M350.506 170.044C350.506 168.176 348.999 166.652 347.152 166.652C345.304 166.652 343.797 168.176 343.797 170.044C343.797 171.912 345.304 173.436 347.152 173.436C348.999 173.436 350.506 171.912 350.506 170.044Z" fill="#E62E2E"/>
<path d="M191.079 17.9845C190.285 13.0361 187.335 4.61392 184.126 1.3532C179.719 -3.10367 172.394 4.87609 166.154 4.87609C159.931 4.87609 152.59 -3.08728 148.182 1.3532C144.973 4.59753 142.348 11.7744 141.23 17.9845C140.403 22.5069 138.021 33.1247 141.23 36.3691C142.867 38.024 146.853 38.8924 149.349 36.1233C152.947 32.1416 157.76 26.9966 166.154 26.9966C174.549 26.9966 179.362 32.1416 182.96 36.1233C185.455 38.8924 189.426 38.024 191.079 36.3691C194.304 33.1247 191.808 22.5233 191.079 17.9845Z" fill="#262626"/>
<path d="M177.612 2.61904C176.251 7.01037 177.207 14.5805 179.038 20.6104C180.367 25.0017 183.089 35.5376 187.433 36.9303C188.259 37.1925 189.329 37.2089 190.398 36.9303C190.657 36.7665 190.884 36.5862 191.079 36.3896C194.288 33.1453 191.792 22.5438 191.079 18.0051C190.285 13.0566 187.335 4.63446 184.127 1.37374C182.798 0.03013 181.193 -0.166496 179.427 0.193985C178.6 0.718322 177.968 1.50483 177.612 2.61904Z" fill="#404040"/>
<path d="M148.182 1.35646C144.973 4.60079 142.348 11.7777 141.23 17.9878C140.403 22.5102 138.021 33.128 141.23 36.3723C141.424 36.569 141.667 36.7492 141.91 36.9294C142.964 37.208 144.017 37.1916 144.844 36.9294C149.187 35.5531 151.893 25.0172 153.238 20.6095C155.07 14.5796 156.026 6.99308 154.664 2.61814C154.324 1.50393 153.676 0.717422 152.849 0.160314C151.099 -0.183782 149.511 0.0128442 148.182 1.35646Z" fill="#404040"/>
<path d="M180.221 7.67689C179.103 7.67689 178.211 6.7593 178.211 5.64509C178.211 4.51449 179.119 3.61328 180.221 3.61328C181.339 3.61328 182.23 4.53087 182.23 5.64509C182.23 6.7593 181.323 7.67689 180.221 7.67689ZM182.23 13.5921C182.23 12.4615 181.323 11.5603 180.221 11.5603C179.103 11.5603 178.211 12.4779 178.211 13.5921C178.211 14.7227 179.119 15.6239 180.221 15.6239C181.323 15.6239 182.23 14.7063 182.23 13.5921ZM176.283 7.57858C175.165 7.57858 174.273 8.49617 174.273 9.61039C174.273 10.741 175.181 11.6422 176.283 11.6422C177.401 11.6422 178.292 10.7246 178.292 9.61039C178.292 8.47978 177.401 7.57858 176.283 7.57858ZM184.143 7.57858C183.025 7.57858 182.133 8.49617 182.133 9.61039C182.133 10.741 183.041 11.6422 184.143 11.6422C185.261 11.6422 186.152 10.7246 186.152 9.61039C186.168 8.47978 185.261 7.57858 184.143 7.57858Z" fill="#E62E2E"/>
<path d="M169.055 11.3666C169.055 9.74444 167.759 8.43359 166.154 8.43359C164.55 8.43359 163.254 9.74444 163.254 11.3666C163.254 12.9888 164.55 14.2996 166.154 14.2996C167.743 14.316 169.055 12.9888 169.055 11.3666Z" fill="#666666"/>
<path d="M163.059 20.1627C163.059 17.6885 161.082 15.6895 158.635 15.6895C156.188 15.6895 154.211 17.6885 154.211 20.1627C154.211 22.6369 156.188 24.636 158.635 24.636C161.082 24.636 163.059 22.6369 163.059 20.1627Z" fill="#666666"/>
<path d="M162.524 18.8514H159.947V16.2461H157.338V18.8514H154.762V21.4895H157.338V24.0948H159.947V21.4895H162.524V18.8514Z" fill="#C7E62E"/>
<path d="M178.065 20.7193C178.065 18.2451 176.088 16.2461 173.641 16.2461C171.194 16.2461 169.217 18.2451 169.217 20.7193C169.217 23.1936 171.194 25.1926 173.641 25.1926C176.088 25.1762 178.065 23.1772 178.065 20.7193Z" fill="#666666"/>
<path d="M176.996 20.7199C176.996 18.852 175.489 17.3281 173.641 17.3281C171.794 17.3281 170.287 18.852 170.287 20.7199C170.287 22.5879 171.794 24.1117 173.641 24.1117C175.505 24.1117 176.996 22.5879 176.996 20.7199Z" fill="#C7E62E"/>
<path d="M157.095 8.43419C157.095 5.95997 155.118 3.96094 152.671 3.96094C150.224 3.96094 148.247 5.95997 148.247 8.43419C148.247 10.9084 150.224 12.9074 152.671 12.9074C155.118 12.9074 157.095 10.9084 157.095 8.43419Z" fill="#666666"/>
<path d="M156.026 8.43477C156.026 6.56682 154.518 5.04297 152.671 5.04297C150.824 5.04297 149.316 6.56682 149.316 8.43477C149.316 10.3027 150.824 11.8266 152.671 11.8266C154.518 11.8266 156.026 10.3027 156.026 8.43477Z" fill="#E62E2E"/>
<path d="M229.501 311.277C228.707 306.329 225.758 297.907 222.549 294.646C218.141 290.189 210.816 298.169 204.577 298.169C198.354 298.169 191.013 290.206 186.605 294.646C183.396 297.891 180.77 305.067 179.652 311.277C178.826 315.8 176.444 326.418 179.652 329.662C181.289 331.317 185.276 332.185 187.771 329.416C191.369 325.435 196.182 320.29 204.577 320.29C212.971 320.29 217.784 325.435 221.382 329.416C223.878 332.185 227.848 331.317 229.501 329.662C232.726 326.418 230.231 315.816 229.501 311.277Z" fill="#262626"/>
<path d="M216.034 295.912C214.673 300.303 215.629 307.873 217.46 313.903C218.789 318.295 221.512 328.831 225.855 330.223C226.681 330.485 227.751 330.502 228.821 330.223C229.08 330.059 229.307 329.879 229.501 329.683C232.71 326.438 230.214 315.837 229.501 311.298C228.707 306.35 225.758 297.927 222.549 294.667C221.22 293.323 219.616 293.126 217.849 293.487C217.023 294.011 216.391 294.798 216.034 295.912Z" fill="#404040"/>
<path d="M186.605 294.649C183.396 297.894 180.771 305.071 179.652 311.281C178.826 315.803 176.444 326.421 179.652 329.665C179.847 329.862 180.09 330.042 180.333 330.222C181.386 330.501 182.44 330.485 183.266 330.222C187.609 328.846 190.316 318.31 191.661 313.902C193.492 307.873 194.448 300.286 193.087 295.911C192.747 294.797 192.098 294.01 191.272 293.453C189.522 293.109 187.934 293.306 186.605 294.649Z" fill="#404040"/>
<path d="M218.643 300.97C217.525 300.97 216.634 300.052 216.634 298.938C216.634 297.807 217.541 296.906 218.643 296.906C219.762 296.906 220.653 297.824 220.653 298.938C220.653 300.052 219.745 300.97 218.643 300.97ZM220.653 306.885C220.653 305.754 219.745 304.853 218.643 304.853C217.525 304.853 216.634 305.771 216.634 306.885C216.634 308.016 217.541 308.917 218.643 308.917C219.745 308.917 220.653 307.999 220.653 306.885ZM214.705 300.872C213.587 300.872 212.696 301.789 212.696 302.903C212.696 304.034 213.603 304.935 214.705 304.935C215.824 304.935 216.715 304.018 216.715 302.903C216.715 301.773 215.824 300.872 214.705 300.872ZM222.565 300.872C221.447 300.872 220.556 301.789 220.556 302.903C220.556 304.034 221.463 304.935 222.565 304.935C223.683 304.935 224.575 304.018 224.575 302.903C224.591 301.773 223.683 300.872 222.565 300.872Z" fill="#E62E2E"/>
<path d="M207.478 304.66C207.478 303.037 206.181 301.727 204.577 301.727C202.972 301.727 201.676 303.037 201.676 304.66C201.676 306.282 202.972 307.593 204.577 307.593C206.165 307.609 207.478 306.282 207.478 304.66Z" fill="#666666"/>
<path d="M201.481 313.456C201.481 310.981 199.504 308.982 197.057 308.982C194.61 308.982 192.633 310.981 192.633 313.456C192.633 315.93 194.61 317.929 197.057 317.929C199.504 317.929 201.481 315.93 201.481 313.456Z" fill="#666666"/>
<path d="M200.947 312.144H198.37V309.539H195.761V312.144H193.184V314.782H195.761V317.388H198.37V314.782H200.947V312.144Z" fill="#C7E62E"/>
<path d="M216.488 314.016C216.488 311.542 214.511 309.543 212.064 309.543C209.617 309.543 207.64 311.542 207.64 314.016C207.64 316.49 209.617 318.489 212.064 318.489C214.511 318.473 216.488 316.474 216.488 314.016Z" fill="#666666"/>
<path d="M215.418 314.017C215.418 312.149 213.911 310.625 212.064 310.625C210.216 310.625 208.709 312.149 208.709 314.017C208.709 315.885 210.216 317.409 212.064 317.409C213.927 317.409 215.418 315.885 215.418 314.017Z" fill="#C7E62E"/>
<path d="M195.518 301.725C195.518 299.251 193.541 297.252 191.093 297.252C188.646 297.252 186.669 299.251 186.669 301.725C186.669 304.199 188.646 306.198 191.093 306.198C193.541 306.198 195.518 304.199 195.518 301.725Z" fill="#666666"/>
<path d="M194.448 301.726C194.448 299.858 192.941 298.334 191.093 298.334C189.246 298.334 187.739 299.858 187.739 301.726C187.739 303.594 189.246 305.118 191.093 305.118C192.941 305.118 194.448 303.594 194.448 301.726Z" fill="#E62E2E"/>
<path d="M200.747 168.713V43.8555C254.84 43.8555 302.782 78.6858 319.497 130.13L200.747 168.713Z" fill="#FCC568" stroke="white"/>
<path d="M200.747 168.712L319.497 130.129C331.848 168.14 325.255 209.767 301.762 242.102L200.747 168.712Z" fill="#FFF7EA" stroke="white"/>
<path d="M200.747 168.711L301.762 242.1C261.229 297.888 183.144 310.255 127.355 269.723C123.123 266.648 119.087 263.31 115.273 259.728L200.747 168.711Z" fill="#FFF3DF" stroke="white"/>
<path d="M200.747 168.713L115.273 259.73C65.0044 212.526 62.5212 133.509 109.727 83.2415C118.696 73.6905 129.113 65.6108 140.594 59.2988L200.747 168.713Z" fill="#FFE8C0" stroke="white"/>
<path d="M200.747 168.713L140.594 59.2995C159.025 49.1678 179.715 43.8555 200.747 43.8555V168.713Z" fill="#FFD691" stroke="white"/>
<path d="M325.261 41.1493C322.282 42.1004 319.459 42.9212 316.975 43.6899V55.0896C320.032 55.5065 323.674 55.2851 327.576 54.0343C337.579 50.8294 343.979 37.2409 343.784 36.6285C343.238 34.9348 335.264 37.9444 325.261 41.1493Z" fill="#A0C000"/>
<path d="M337.592 39.2992C327.368 41.6834 319.889 50.7641 320.032 51.3894C320.292 52.5099 323.869 51.9497 328.916 50.9204C337.332 49.1877 342.236 40.602 343.498 37.5664C341.651 38.0615 339.674 38.8041 337.592 39.2992Z" fill="#809900"/>
<path d="M276.599 41.1485C279.577 42.0996 282.4 42.9204 284.885 43.689V55.0888C281.828 55.5057 278.186 55.2842 274.283 54.0335C264.28 50.8286 257.88 37.2531 258.076 36.6407C258.622 34.934 266.596 37.9436 276.599 41.1485Z" fill="#A0C000"/>
<path d="M264.267 39.2966C274.491 41.6808 281.971 50.7615 281.828 51.3868C281.568 52.5073 277.99 51.9471 272.943 50.9178C264.527 49.1851 259.623 40.5994 258.362 37.5508C260.209 38.0589 262.186 38.8015 264.267 39.2966Z" fill="#809900"/>
<path d="M319.694 53.7335C319.694 49.7078 311.291 31.377 300.936 31.377C290.569 31.377 282.179 49.7078 282.179 53.7335C282.179 57.7593 290.582 51.8314 300.936 51.8314C311.291 51.8444 319.694 57.7593 319.694 53.7335Z" fill="#607300"/>
<path d="M282.166 51.8444C282.166 54.6325 282.777 55.9483 283.857 58.3325L286.94 59.6484C286.693 58.3455 286.524 57.0036 286.524 55.6357C286.524 52.6261 285.444 48.8349 287.538 47.1151C290.66 44.5746 296.475 46.8546 300.923 46.8546C305.359 46.8546 311.186 44.5616 314.308 47.1151C316.403 48.8219 315.323 52.6131 315.323 55.6357C315.323 57.0036 315.154 58.3455 314.907 59.6484L317.989 58.3325C319.069 55.9614 319.68 54.6325 319.68 51.8444C319.68 50.3071 319.537 47.5451 319.654 47.4278C322.711 44.2098 310.965 31.377 300.936 31.377C290.907 31.377 279.161 44.2098 282.205 47.4278C282.309 47.5451 282.166 50.3071 282.166 51.8444Z" fill="#C7E62E"/>
<path d="M282.829 51.845C282.829 54.633 282.777 55.9489 283.87 58.3331L286.953 59.6489C286.706 58.3461 286.537 57.0042 286.537 55.6362C286.537 52.6267 285.457 48.8354 287.551 47.1157C290.673 44.5752 296.488 45.3699 300.936 45.3699C305.372 45.3699 311.199 44.5621 314.321 47.1157C316.416 48.8224 315.336 52.6136 315.336 55.6362C315.336 57.0042 315.167 58.3461 314.92 59.6489L318.002 58.3331C319.082 55.9619 319.043 54.633 319.043 51.845C319.043 50.3076 318.9 47.5456 319.017 47.4284C322.061 44.2234 310.965 32.6934 300.936 32.6934C290.907 32.6934 279.812 44.2234 282.855 47.4284C282.959 47.5456 282.829 50.3076 282.829 51.845Z" fill="#A0C000"/>
<path d="M285.067 41.0571C284.455 41.4089 283.87 41.7476 283.311 42.0733C282.777 42.855 282.361 43.6107 282.101 44.3012C283.194 43.5976 284.52 42.829 286.003 41.9821C291.415 38.9075 296.904 39.8455 299.531 41.8519C297.554 39.2722 291.258 37.5395 285.067 41.0571Z" fill="#C7E62E"/>
<path d="M316.715 41.058C317.326 41.4097 317.911 41.7355 318.471 42.0612C319.004 42.8429 319.407 43.5985 319.694 44.289C318.601 43.5855 317.274 42.8168 315.791 41.97C310.38 38.8953 304.891 39.8333 302.263 41.8397C304.24 39.2731 310.536 37.5403 316.715 41.058Z" fill="#C7E62E"/>
<path d="M0 158.516V175.992H29.1109V158.516C28.3275 153.917 24.1833 144.719 13.8732 144.719C3.56305 144.719 0.328509 153.917 0 158.516Z" fill="#FC6868"/>
<path d="M56.6298 157.98V175.84H28.3528V161.2C28.6055 155.655 31.7339 144.566 42.226 144.566C52.718 144.566 56.2002 153.509 56.6298 157.98Z" fill="#01375E"/>
<path d="M18.5734 164.649V175.84H38.0564V164.649C38.0564 163.576 36.1612 156.064 27.9738 156.064C21.4238 156.064 18.9777 161.788 18.5734 164.649Z" fill="#FCC568"/>
<ellipse cx="14.0248" cy="132.456" rx="9.4004" ry="9.50467" fill="#FC6868"/>
<ellipse cx="42.5292" cy="132.456" rx="9.4004" ry="9.50467" fill="#01375E"/>
<ellipse cx="28.3528" cy="148.627" rx="7.50516" ry="7.58841" fill="#FCC568"/>
</svg>
