<svg width="605" height="518" viewBox="0 0 605 518" fill="none" xmlns="http://www.w3.org/2000/svg">
<path d="M602.084 280.453C600.844 272.726 596.238 259.574 591.228 254.482C584.344 247.522 572.906 259.984 563.163 259.984C553.445 259.984 541.981 247.548 535.097 254.482C530.087 259.549 525.987 270.756 524.241 280.453C522.95 287.516 519.23 304.096 524.241 309.163C526.797 311.747 533.022 313.103 536.919 308.779C542.538 302.561 550.054 294.527 563.163 294.527C576.271 294.527 583.787 302.561 589.406 308.779C593.303 313.103 599.503 311.747 602.084 309.163C607.12 304.096 603.223 287.541 602.084 280.453Z" fill="#262626"/>
<path d="M581.054 256.455C578.929 263.312 580.422 275.134 583.281 284.55C585.356 291.407 589.608 307.86 596.39 310.035C597.681 310.444 599.351 310.47 601.021 310.035C601.426 309.779 601.78 309.498 602.084 309.191C607.095 304.124 603.198 287.569 602.084 280.481C600.844 272.754 596.238 259.602 591.228 254.51C589.152 252.412 586.647 252.105 583.889 252.668C582.598 253.487 581.611 254.715 581.054 256.455Z" fill="#404040"/>
<path d="M535.097 254.485C530.087 259.551 525.987 270.758 524.241 280.456C522.95 287.518 519.23 304.099 524.241 309.165C524.544 309.472 524.924 309.753 525.304 310.035C526.949 310.47 528.594 310.444 529.884 310.035C536.666 307.886 540.893 291.433 542.993 284.55C545.853 275.134 547.346 263.287 545.22 256.455C544.689 254.715 543.676 253.487 542.386 252.617C539.653 252.079 537.173 252.387 535.097 254.485Z" fill="#404040"/>
<path d="M585.129 264.357C583.383 264.357 581.991 262.925 581.991 261.185C581.991 259.419 583.408 258.012 585.129 258.012C586.875 258.012 588.267 259.445 588.267 261.185C588.267 262.925 586.85 264.357 585.129 264.357ZM588.267 273.594C588.267 271.829 586.85 270.422 585.129 270.422C583.383 270.422 581.991 271.855 581.991 273.594C581.991 275.36 583.408 276.767 585.129 276.767C586.85 276.767 588.267 275.334 588.267 273.594ZM578.979 264.204C577.233 264.204 575.841 265.637 575.841 267.377C575.841 269.142 577.258 270.55 578.979 270.55C580.725 270.55 582.117 269.117 582.117 267.377C582.117 265.611 580.725 264.204 578.979 264.204ZM591.253 264.204C589.507 264.204 588.115 265.637 588.115 267.377C588.115 269.142 589.532 270.55 591.253 270.55C592.999 270.55 594.391 269.117 594.391 267.377C594.416 265.611 592.999 264.204 591.253 264.204Z" fill="#E62E2E"/>
<path d="M567.692 270.117C567.692 267.584 565.668 265.537 563.162 265.537C560.657 265.537 558.633 267.584 558.633 270.117C558.633 272.65 560.657 274.697 563.162 274.697C565.643 274.723 567.692 272.65 567.692 270.117Z" fill="#666666"/>
<path d="M558.329 283.856C558.329 279.993 555.242 276.871 551.42 276.871C547.599 276.871 544.511 279.993 544.511 283.856C544.511 287.72 547.599 290.842 551.42 290.842C555.242 290.842 558.329 287.72 558.329 283.856Z" fill="#666666"/>
<path d="M557.494 281.809H553.47V277.74H549.396V281.809H545.372V285.928H549.396V289.997H553.47V285.928H557.494V281.809Z" fill="#C7E62E"/>
<path d="M581.763 284.728C581.763 280.864 578.675 277.742 574.854 277.742C571.033 277.742 567.945 280.864 567.945 284.728C567.945 288.591 571.033 291.713 574.854 291.713C578.675 291.687 581.763 288.566 581.763 284.728Z" fill="#666666"/>
<path d="M580.093 284.728C580.093 281.811 577.739 279.432 574.854 279.432C571.969 279.432 569.616 281.811 569.616 284.728C569.616 287.645 571.969 290.025 574.854 290.025C577.764 290.025 580.093 287.645 580.093 284.728Z" fill="#C7E62E"/>
<path d="M549.016 265.536C549.016 261.672 545.929 258.551 542.107 258.551C538.286 258.551 535.199 261.672 535.199 265.536C535.199 269.4 538.286 272.522 542.107 272.522C545.929 272.522 549.016 269.4 549.016 265.536Z" fill="#666666"/>
<path d="M547.346 265.537C547.346 262.62 544.992 260.24 542.107 260.24C539.222 260.24 536.869 262.62 536.869 265.537C536.869 268.454 539.222 270.833 542.107 270.833C544.992 270.833 547.346 268.454 547.346 265.537Z" fill="#E62E2E"/>
<path d="M298.386 28.0844C297.146 20.357 292.54 7.20503 287.529 2.11313C280.646 -4.84664 269.207 7.61442 259.464 7.61442C249.746 7.61442 238.282 -4.82106 231.399 2.11313C226.388 7.17944 222.289 18.3867 220.542 28.0844C219.252 35.1465 215.532 51.7271 220.542 56.7934C223.098 59.3778 229.324 60.7339 233.221 56.4096C238.839 50.1919 246.355 42.1574 259.464 42.1574C272.573 42.1574 280.089 50.1919 285.707 56.4096C289.604 60.7339 295.805 59.3778 298.386 56.7934C303.422 51.7271 299.525 35.1721 298.386 28.0844Z" fill="#262626"/>
<path d="M277.356 4.0877C275.23 10.9451 276.723 22.7665 279.583 32.1827C281.658 39.0401 285.91 55.4928 292.692 57.6677C293.983 58.0771 295.653 58.1027 297.323 57.6677C297.728 57.4119 298.082 57.1304 298.386 56.8233C303.397 51.757 299.499 35.202 298.386 28.1143C297.146 20.3869 292.54 7.23495 287.529 2.14305C285.454 0.0448855 282.949 -0.262163 280.19 0.300759C278.9 1.11956 277.913 2.34775 277.356 4.0877Z" fill="#404040"/>
<path d="M231.399 2.1175C226.388 7.18381 222.289 18.3911 220.542 28.0887C219.252 35.1508 215.532 51.7315 220.542 56.7978C220.846 57.1048 221.226 57.3863 221.605 57.6678C223.25 58.1028 224.895 58.0772 226.186 57.6678C232.968 55.5184 237.194 39.0657 239.295 32.1827C242.154 22.7665 243.647 10.9196 241.522 4.08773C240.99 2.34779 239.978 1.11959 238.687 0.249622C235.954 -0.287713 233.474 0.0193357 231.399 2.1175Z" fill="#404040"/>
<path d="M281.43 11.9883C279.684 11.9883 278.292 10.5554 278.292 8.81542C278.292 7.04989 279.71 5.64258 281.43 5.64258C283.177 5.64258 284.568 7.07547 284.568 8.81542C284.568 10.5554 283.151 11.9883 281.43 11.9883ZM284.568 21.2253C284.568 19.4598 283.151 18.0525 281.43 18.0525C279.684 18.0525 278.292 19.4854 278.292 21.2253C278.292 22.9908 279.71 24.3981 281.43 24.3981C283.151 24.3981 284.568 22.9653 284.568 21.2253ZM275.281 11.8347C273.535 11.8347 272.143 13.2676 272.143 15.0076C272.143 16.7731 273.56 18.1804 275.281 18.1804C277.027 18.1804 278.419 16.7475 278.419 15.0076C278.419 13.242 277.027 11.8347 275.281 11.8347ZM287.555 11.8347C285.808 11.8347 284.417 13.2676 284.417 15.0076C284.417 16.7731 285.834 18.1804 287.555 18.1804C289.301 18.1804 290.693 16.7475 290.693 15.0076C290.718 13.242 289.301 11.8347 287.555 11.8347Z" fill="#E62E2E"/>
<path d="M263.994 17.7481C263.994 15.215 261.97 13.168 259.464 13.168C256.959 13.168 254.934 15.215 254.934 17.7481C254.934 20.2813 256.959 22.3283 259.464 22.3283C261.944 22.3538 263.994 20.2813 263.994 17.7481Z" fill="#666666"/>
<path d="M254.631 31.4893C254.631 27.6256 251.543 24.5039 247.722 24.5039C243.901 24.5039 240.813 27.6256 240.813 31.4893C240.813 35.353 243.901 38.4746 247.722 38.4746C251.543 38.4746 254.631 35.353 254.631 31.4893Z" fill="#666666"/>
<path d="M253.795 29.4414H249.772V25.373H245.697V29.4414H241.673V33.561H245.697V37.6294H249.772V33.561H253.795V29.4414Z" fill="#C7E62E"/>
<path d="M278.065 32.3584C278.065 28.4947 274.977 25.373 271.156 25.373C267.334 25.373 264.247 28.4947 264.247 32.3584C264.247 36.2221 267.334 39.3438 271.156 39.3438C274.977 39.3182 278.065 36.1965 278.065 32.3584Z" fill="#666666"/>
<path d="M276.394 32.3591C276.394 29.4421 274.041 27.0625 271.156 27.0625C268.271 27.0625 265.917 29.4421 265.917 32.3591C265.917 35.2761 268.271 37.6557 271.156 37.6557C274.066 37.6557 276.394 35.2761 276.394 32.3591Z" fill="#C7E62E"/>
<path d="M245.318 13.167C245.318 9.3033 242.23 6.18164 238.409 6.18164C234.588 6.18164 231.5 9.3033 231.5 13.167C231.5 17.0307 234.588 20.1524 238.409 20.1524C242.23 20.1524 245.318 17.0307 245.318 13.167Z" fill="#666666"/>
<path d="M243.648 13.1677C243.648 10.2507 241.294 7.87109 238.409 7.87109C235.524 7.87109 233.171 10.2507 233.171 13.1677C233.171 16.0847 235.524 18.4643 238.409 18.4643C241.294 18.4643 243.648 16.0847 243.648 13.1677Z" fill="#E62E2E"/>
<path d="M358.386 486.084C357.146 478.357 352.54 465.205 347.529 460.113C340.646 453.153 329.207 465.614 319.464 465.614C309.746 465.614 298.282 453.179 291.399 460.113C286.388 465.179 282.289 476.387 280.542 486.084C279.252 493.146 275.532 509.727 280.542 514.793C283.098 517.378 289.324 518.734 293.221 514.41C298.839 508.192 306.355 500.157 319.464 500.157C332.573 500.157 340.089 508.192 345.707 514.41C349.604 518.734 355.805 517.378 358.386 514.793C363.422 509.727 359.525 493.172 358.386 486.084Z" fill="#262626"/>
<path d="M337.356 462.086C335.23 468.943 336.723 480.765 339.583 490.181C341.658 497.038 345.91 513.491 352.692 515.666C353.983 516.075 355.653 516.101 357.323 515.666C357.728 515.41 358.082 515.128 358.386 514.821C363.397 509.755 359.499 493.2 358.386 486.112C357.146 478.385 352.54 465.233 347.529 460.141C345.454 458.043 342.949 457.736 340.19 458.299C338.9 459.118 337.913 460.346 337.356 462.086Z" fill="#404040"/>
<path d="M291.399 460.116C286.388 465.182 282.289 476.389 280.543 486.087C279.252 493.149 275.532 509.73 280.543 514.796C280.846 515.103 281.226 515.384 281.605 515.666C283.25 516.101 284.895 516.075 286.186 515.666C292.968 513.516 297.194 497.064 299.295 490.181C302.154 480.765 303.648 468.918 301.522 462.086C300.99 460.346 299.978 459.118 298.687 458.248C295.954 457.71 293.474 458.017 291.399 460.116Z" fill="#404040"/>
<path d="M341.43 469.988C339.684 469.988 338.292 468.555 338.292 466.815C338.292 465.05 339.71 463.643 341.43 463.643C343.177 463.643 344.568 465.075 344.568 466.815C344.568 468.555 343.151 469.988 341.43 469.988ZM344.568 479.225C344.568 477.46 343.151 476.052 341.43 476.052C339.684 476.052 338.292 477.485 338.292 479.225C338.292 480.991 339.71 482.398 341.43 482.398C343.151 482.398 344.568 480.965 344.568 479.225ZM335.281 469.835C333.535 469.835 332.143 471.268 332.143 473.008C332.143 474.773 333.56 476.18 335.281 476.18C337.027 476.18 338.419 474.748 338.419 473.008C338.419 471.242 337.027 469.835 335.281 469.835ZM347.555 469.835C345.808 469.835 344.417 471.268 344.417 473.008C344.417 474.773 345.834 476.18 347.555 476.18C349.301 476.18 350.693 474.748 350.693 473.008C350.718 471.242 349.301 469.835 347.555 469.835Z" fill="#E62E2E"/>
<path d="M323.994 475.748C323.994 473.215 321.97 471.168 319.464 471.168C316.959 471.168 314.934 473.215 314.934 475.748C314.934 478.281 316.959 480.328 319.464 480.328C321.944 480.354 323.994 478.281 323.994 475.748Z" fill="#666666"/>
<path d="M314.631 489.487C314.631 485.624 311.543 482.502 307.722 482.502C303.901 482.502 300.813 485.624 300.813 489.487C300.813 493.351 303.901 496.473 307.722 496.473C311.543 496.473 314.631 493.351 314.631 489.487Z" fill="#666666"/>
<path d="M313.795 487.439H309.772V483.371H305.697V487.439H301.673V491.559H305.697V495.627H309.772V491.559H313.795V487.439Z" fill="#C7E62E"/>
<path d="M338.065 490.358C338.065 486.495 334.977 483.373 331.156 483.373C327.335 483.373 324.247 486.495 324.247 490.358C324.247 494.222 327.335 497.344 331.156 497.344C334.977 497.318 338.065 494.197 338.065 490.358Z" fill="#666666"/>
<path d="M336.394 490.359C336.394 487.442 334.041 485.062 331.156 485.062C328.271 485.062 325.917 487.442 325.917 490.359C325.917 493.276 328.271 495.656 331.156 495.656C334.066 495.656 336.394 493.276 336.394 490.359Z" fill="#C7E62E"/>
<path d="M305.318 471.169C305.318 467.305 302.23 464.184 298.409 464.184C294.588 464.184 291.5 467.305 291.5 471.169C291.5 475.033 294.588 478.154 298.409 478.154C302.23 478.154 305.318 475.033 305.318 471.169Z" fill="#666666"/>
<path d="M303.648 471.17C303.648 468.253 301.294 465.873 298.409 465.873C295.524 465.873 293.171 468.253 293.171 471.17C293.171 474.087 295.524 476.466 298.409 476.466C301.294 476.466 303.648 474.087 303.648 471.17Z" fill="#E62E2E"/>
<path d="M313.484 263.457V68.4805C397.955 68.4805 472.819 122.871 498.922 203.206L313.484 263.457Z" fill="#FCC568" stroke="white"/>
<path d="M313.484 263.456L498.922 203.205C518.209 262.563 507.913 327.567 471.227 378.06L313.484 263.456Z" fill="#FFF7EA" stroke="white"/>
<path d="M313.484 263.455L471.227 378.059C407.931 465.176 285.996 484.488 198.876 421.194C192.266 416.392 185.965 411.179 180.009 405.586L313.484 263.455Z" fill="#FFF3DF" stroke="white"/>
<path d="M313.483 263.455L180.009 405.586C101.51 331.872 97.6321 208.481 171.348 129.984C185.354 115.07 201.621 102.452 219.55 92.5957L313.483 263.455Z" fill="#FFE8C0" stroke="white"/>
<path d="M313.483 263.457L219.55 92.5977C248.33 76.7761 280.641 68.4805 313.483 68.4805V263.457Z" fill="#FFD691" stroke="white"/>
<path d="M507.922 64.259C503.271 65.7442 498.863 67.0259 494.983 68.2263V86.028C499.757 86.679 505.444 86.3332 511.538 84.3801C527.159 79.3752 537.152 58.1556 536.848 57.1994C535.995 54.5546 523.543 59.2542 507.922 64.259Z" fill="#A0C000"/>
<path d="M527.179 61.3699C511.213 65.093 499.533 79.2734 499.757 80.2499C500.163 81.9996 505.749 81.1247 513.63 79.5175C526.773 76.8116 534.431 63.4044 536.401 58.6641C533.517 59.4372 530.429 60.5968 527.179 61.3699Z" fill="#809900"/>
<path d="M431.932 64.2584C436.584 65.7435 440.992 67.0253 444.871 68.2256V86.0273C440.098 86.6784 434.41 86.3325 428.317 84.3794C412.696 79.3746 402.702 58.1753 403.007 57.2191C403.86 54.5539 416.312 59.2535 431.932 64.2584Z" fill="#A0C000"/>
<path d="M412.676 61.3688C428.642 65.0919 440.321 79.2722 440.098 80.2488C439.692 81.9984 434.106 81.1236 426.224 79.5164C413.082 76.8105 405.424 63.4033 403.454 58.6426C406.338 59.436 409.426 60.5957 412.676 61.3688Z" fill="#809900"/>
<path d="M499.229 83.9117C499.229 77.6252 486.107 49 469.938 49C453.748 49 440.646 77.6252 440.646 83.9117C440.646 90.1983 453.769 80.9414 469.938 80.9414C486.107 80.9617 499.229 90.1983 499.229 83.9117Z" fill="#607300"/>
<path d="M440.626 80.9617C440.626 85.3155 441.581 87.3703 443.267 91.0934L448.081 93.1482C447.695 91.1138 447.431 89.0182 447.431 86.882C447.431 82.1824 445.745 76.262 449.015 73.5765C453.89 69.6093 462.97 73.1696 469.917 73.1696C476.844 73.1696 485.944 69.589 490.819 73.5765C494.089 76.2417 492.403 82.162 492.403 86.882C492.403 89.0182 492.139 91.1138 491.753 93.1482L496.568 91.0934C498.254 87.3907 499.208 85.3155 499.208 80.9617C499.208 78.561 498.985 74.2479 499.168 74.0648C503.941 69.0396 485.599 49 469.938 49C454.276 49 435.934 69.0396 440.687 74.0648C440.85 74.2479 440.626 78.561 440.626 80.9617Z" fill="#C7E62E"/>
<path d="M441.662 80.9616C441.662 85.3154 441.581 87.3702 443.287 91.0933L448.101 93.1481C447.715 91.1136 447.451 89.0181 447.451 86.8819C447.451 82.1823 445.765 76.2619 449.036 73.5764C453.911 69.6092 462.991 70.8502 469.938 70.8502C476.864 70.8502 485.964 69.5888 490.839 73.5764C494.11 76.2416 492.424 82.1619 492.424 86.8819C492.424 89.0181 492.16 91.1136 491.774 93.1481L496.588 91.0933C498.274 87.3905 498.213 85.3154 498.213 80.9616C498.213 78.5609 497.99 74.2478 498.172 74.0647C502.926 69.0598 485.599 51.0547 469.938 51.0547C454.276 51.0547 436.95 69.0598 441.703 74.0647C441.865 74.2478 441.662 78.5609 441.662 80.9616Z" fill="#A0C000"/>
<path d="M445.156 64.116C444.201 64.6653 443.287 65.1943 442.414 65.7029C441.581 66.9236 440.931 68.1036 440.525 69.1819C442.231 68.0833 444.303 66.8829 446.618 65.5605C455.068 60.7591 463.64 62.2239 467.744 65.357C464.656 61.3288 454.825 58.6229 445.156 64.116Z" fill="#C7E62E"/>
<path d="M494.577 64.1154C495.532 64.6647 496.446 65.1733 497.319 65.6819C498.152 66.9026 498.782 68.0826 499.229 69.1609C497.522 68.0623 495.45 66.8619 493.135 65.5395C484.685 60.7382 476.113 62.203 472.009 65.3361C475.097 61.3282 484.928 58.6223 494.577 64.1154Z" fill="#C7E62E"/>
<path d="M0 247.539V274.83H45.4592V247.539C44.2359 240.358 37.7643 225.994 21.6641 225.994C5.56401 225.994 0.512994 240.358 0 247.539Z" fill="#FC6868"/>
<path d="M88.4323 246.701V274.59H44.2754V251.728C44.67 243.07 49.5553 225.754 65.9395 225.754C82.3238 225.754 87.7615 239.718 88.4323 246.701Z" fill="#01375E"/>
<path d="M29.0039 257.115V274.591H59.4284V257.115C59.4284 255.439 56.4688 243.709 43.6834 243.709C33.4551 243.709 29.6353 252.646 29.0039 257.115Z" fill="#FCC568"/>
<ellipse cx="21.9008" cy="206.842" rx="14.6795" ry="14.8424" fill="#FC6868"/>
<ellipse cx="66.413" cy="206.842" rx="14.6795" ry="14.8424" fill="#01375E"/>
<ellipse cx="44.2754" cy="232.098" rx="11.7199" ry="11.8499" fill="#FCC568"/>
</svg>
