<svg width="700" height="599" viewBox="0 0 700 599" fill="none" xmlns="http://www.w3.org/2000/svg">
<path d="M697.09 324.707C695.654 315.761 690.322 300.533 684.52 294.638C676.551 286.58 663.307 301.007 652.027 301.007C640.775 301.007 627.503 286.61 619.533 294.638C613.732 300.504 608.985 313.479 606.963 324.707C605.469 332.884 601.162 352.081 606.963 357.947C609.923 360.939 617.13 362.509 621.643 357.502C628.147 350.303 636.849 341.001 652.027 341.001C667.204 341.001 675.906 350.303 682.411 357.502C686.923 362.509 694.101 360.939 697.09 357.947C702.921 352.081 698.408 332.913 697.09 324.707Z" fill="#262626"/>
<path d="M672.742 296.924C670.28 304.863 672.009 318.55 675.32 329.452C677.723 337.391 682.645 356.44 690.497 358.958C691.992 359.432 693.925 359.462 695.859 358.958C696.328 358.662 696.738 358.336 697.09 357.981C702.891 352.115 698.379 332.948 697.09 324.741C695.654 315.795 690.322 300.567 684.52 294.672C682.118 292.243 679.217 291.887 676.023 292.539C674.529 293.487 673.386 294.909 672.742 296.924Z" fill="#404040"/>
<path d="M619.533 294.64C613.732 300.506 608.985 313.482 606.963 324.71C605.469 332.886 601.162 352.083 606.963 357.949C607.315 358.304 607.754 358.63 608.194 358.956C610.098 359.46 612.003 359.43 613.497 358.956C621.35 356.468 626.243 337.419 628.675 329.45C631.985 318.548 633.714 304.831 631.253 296.921C630.638 294.907 629.466 293.485 627.971 292.478C624.807 291.856 621.936 292.211 619.533 294.64Z" fill="#404040"/>
<path d="M677.459 306.072C675.437 306.072 673.826 304.413 673.826 302.398C673.826 300.354 675.467 298.725 677.459 298.725C679.481 298.725 681.092 300.384 681.092 302.398C681.092 304.413 679.452 306.072 677.459 306.072ZM681.092 316.766C681.092 314.722 679.452 313.093 677.459 313.093C675.437 313.093 673.826 314.752 673.826 316.766C673.826 318.81 675.467 320.44 677.459 320.44C679.452 320.44 681.092 318.781 681.092 316.766ZM670.339 305.894C668.318 305.894 666.706 307.553 666.706 309.567C666.706 311.611 668.347 313.241 670.339 313.241C672.361 313.241 673.972 311.582 673.972 309.567C673.972 307.523 672.361 305.894 670.339 305.894ZM684.55 305.894C682.528 305.894 680.917 307.553 680.917 309.567C680.917 311.611 682.557 313.241 684.55 313.241C686.571 313.241 688.183 311.582 688.183 309.567C688.212 307.523 686.571 305.894 684.55 305.894Z" fill="#E62E2E"/>
<path d="M657.271 312.742C657.271 309.809 654.927 307.439 652.027 307.439C649.126 307.439 646.782 309.809 646.782 312.742C646.782 315.675 649.126 318.045 652.027 318.045C654.898 318.075 657.271 315.675 657.271 312.742Z" fill="#666666"/>
<path d="M646.43 328.642C646.43 324.169 642.856 320.555 638.432 320.555C634.007 320.555 630.433 324.169 630.433 328.642C630.433 333.116 634.007 336.73 638.432 336.73C642.856 336.73 646.43 333.116 646.43 328.642Z" fill="#666666"/>
<path d="M645.463 326.267H640.805V321.557H636.087V326.267H631.429V331.037H636.087V335.747H640.805V331.037H645.463V326.267Z" fill="#C7E62E"/>
<path d="M673.562 329.66C673.562 325.187 669.987 321.572 665.563 321.572C661.139 321.572 657.564 325.187 657.564 329.66C657.564 334.133 661.139 337.747 665.563 337.747C669.987 337.718 673.562 334.104 673.562 329.66Z" fill="#666666"/>
<path d="M671.628 329.662C671.628 326.284 668.903 323.529 665.563 323.529C662.223 323.529 659.498 326.284 659.498 329.662C659.498 333.039 662.223 335.794 665.563 335.794C668.933 335.794 671.628 333.039 671.628 329.662Z" fill="#C7E62E"/>
<path d="M635.648 307.437C635.648 302.964 632.073 299.35 627.649 299.35C623.225 299.35 619.65 302.964 619.65 307.437C619.65 311.911 623.225 315.525 627.649 315.525C632.073 315.525 635.648 311.911 635.648 307.437Z" fill="#666666"/>
<path d="M633.714 307.439C633.714 304.062 630.989 301.307 627.649 301.307C624.309 301.307 621.584 304.062 621.584 307.439C621.584 310.816 624.309 313.571 627.649 313.571C630.989 313.571 633.714 310.816 633.714 307.439Z" fill="#E62E2E"/>
<path d="M345.47 32.5159C344.034 23.5692 338.701 8.34194 332.9 2.44657C324.93 -5.61142 311.687 8.81594 300.406 8.81594C289.155 8.81594 275.882 -5.58179 267.912 2.44657C262.111 8.31232 257.365 21.2881 255.343 32.5159C253.849 40.6924 249.541 59.8894 255.343 65.7551C258.302 68.7473 265.51 70.3174 270.022 65.3108C276.527 58.1119 285.229 48.8096 300.406 48.8096C315.584 48.8096 324.286 58.1119 330.79 65.3108C335.302 70.3174 342.481 68.7473 345.47 65.7551C351.3 59.8894 346.788 40.722 345.47 32.5159Z" fill="#262626"/>
<path d="M321.121 4.73611C318.66 12.6756 320.389 26.3623 323.7 37.2643C326.102 45.2038 331.025 64.2527 338.877 66.7708C340.371 67.2448 342.305 67.2744 344.239 66.7708C344.708 66.4745 345.118 66.1487 345.47 65.7932C351.271 59.9274 346.759 40.7601 345.47 32.554C344.034 23.6072 338.701 8.37998 332.9 2.48461C330.497 0.0553657 327.597 -0.300134 324.403 0.351615C322.909 1.29961 321.766 2.72161 321.121 4.73611Z" fill="#404040"/>
<path d="M267.913 2.45277C262.111 8.31851 257.365 21.2942 255.343 32.5221C253.849 40.6986 249.542 59.8956 255.343 65.7613C255.695 66.1168 256.134 66.4427 256.574 66.7686C258.478 67.2722 260.383 67.2426 261.877 66.7686C269.729 64.2801 274.622 45.2312 277.054 37.2621C280.365 26.3601 282.094 12.6438 279.633 4.73389C279.017 2.71939 277.845 1.29739 276.351 0.290144C273.187 -0.33198 270.315 0.0235193 267.913 2.45277Z" fill="#404040"/>
<path d="M325.839 13.8802C323.817 13.8802 322.205 12.2212 322.205 10.2067C322.205 8.16258 323.846 6.5332 325.839 6.5332C327.86 6.5332 329.472 8.1922 329.472 10.2067C329.472 12.2212 327.831 13.8802 325.839 13.8802ZM329.472 24.5748C329.472 22.5307 327.831 20.9013 325.839 20.9013C323.817 20.9013 322.205 22.5603 322.205 24.5748C322.205 26.6189 323.846 28.2483 325.839 28.2483C327.831 28.2483 329.472 26.5893 329.472 24.5748ZM318.719 13.7024C316.697 13.7024 315.086 15.3614 315.086 17.3759C315.086 19.4201 316.726 21.0494 318.719 21.0494C320.74 21.0494 322.352 19.3904 322.352 17.3759C322.352 15.3318 320.74 13.7024 318.719 13.7024ZM332.929 13.7024C330.908 13.7024 329.296 15.3614 329.296 17.3759C329.296 19.4201 330.937 21.0494 332.929 21.0494C334.951 21.0494 336.562 19.3904 336.562 17.3759C336.592 15.3318 334.951 13.7024 332.929 13.7024Z" fill="#E62E2E"/>
<path d="M305.651 20.5509C305.651 17.618 303.307 15.248 300.406 15.248C297.506 15.248 295.162 17.618 295.162 20.5509C295.162 23.4838 297.506 25.8538 300.406 25.8538C303.278 25.8834 305.651 23.4838 305.651 20.5509Z" fill="#666666"/>
<path d="M294.81 36.4529C294.81 31.9795 291.235 28.3652 286.811 28.3652C282.387 28.3652 278.812 31.9795 278.812 36.4529C278.812 40.9262 282.387 44.5405 286.811 44.5405C291.235 44.5405 294.81 40.9262 294.81 36.4529Z" fill="#666666"/>
<path d="M293.843 34.0815H289.184V29.3711H284.467V34.0815H279.808V38.8511H284.467V43.5615H289.184V38.8511H293.843V34.0815Z" fill="#C7E62E"/>
<path d="M321.941 37.4607C321.941 32.9873 318.367 29.373 313.942 29.373C309.518 29.373 305.944 32.9873 305.944 37.4607C305.944 41.934 309.518 45.5483 313.942 45.5483C318.367 45.5187 321.941 41.9044 321.941 37.4607Z" fill="#666666"/>
<path d="M320.008 37.4624C320.008 34.0852 317.283 31.3301 313.943 31.3301C310.602 31.3301 307.877 34.0852 307.877 37.4624C307.877 40.8397 310.602 43.5948 313.943 43.5948C317.312 43.5948 320.008 40.8397 320.008 37.4624Z" fill="#C7E62E"/>
<path d="M284.027 15.2478C284.027 10.7744 280.453 7.16016 276.029 7.16016C271.604 7.16016 268.03 10.7744 268.03 15.2478C268.03 19.7211 271.604 23.3354 276.029 23.3354C280.453 23.3354 284.027 19.7211 284.027 15.2478Z" fill="#666666"/>
<path d="M282.094 15.2496C282.094 11.8723 279.369 9.11719 276.029 9.11719C272.688 9.11719 269.964 11.8723 269.964 15.2496C269.964 18.6268 272.688 21.3819 276.029 21.3819C279.369 21.3819 282.094 18.6268 282.094 15.2496Z" fill="#E62E2E"/>
<path d="M414.937 562.789C413.502 553.843 408.169 538.615 402.368 532.72C394.398 524.662 381.154 539.089 369.874 539.089C358.623 539.089 345.35 524.692 337.38 532.72C331.579 538.586 326.832 551.561 324.811 562.789C323.316 570.966 319.009 590.163 324.811 596.029C327.77 599.021 334.978 600.591 339.49 595.584C345.994 588.385 354.697 579.083 369.874 579.083C385.051 579.083 393.753 588.385 400.258 595.584C404.77 600.591 411.949 599.021 414.937 596.029C420.768 590.163 416.256 570.995 414.937 562.789Z" fill="#262626"/>
<path d="M390.589 535.01C388.128 542.949 389.857 556.636 393.168 567.538C395.57 575.477 400.493 594.526 408.345 597.044C409.839 597.518 411.773 597.548 413.707 597.044C414.176 596.748 414.586 596.422 414.937 596.067C420.739 590.201 416.227 571.034 414.937 562.827C413.502 553.881 408.169 538.653 402.368 532.758C399.965 530.329 397.064 529.973 393.871 530.625C392.376 531.573 391.234 532.995 390.589 535.01Z" fill="#404040"/>
<path d="M337.381 532.726C331.579 538.592 326.833 551.568 324.811 562.796C323.317 570.972 319.009 590.169 324.811 596.035C325.162 596.39 325.602 596.716 326.041 597.042C327.946 597.546 329.85 597.516 331.345 597.042C339.197 594.554 344.09 575.505 346.522 567.536C349.833 556.634 351.562 542.917 349.1 535.007C348.485 532.993 347.313 531.571 345.819 530.564C342.654 529.941 339.783 530.297 337.381 532.726Z" fill="#404040"/>
<path d="M395.306 544.154C393.285 544.154 391.673 542.495 391.673 540.48C391.673 538.436 393.314 536.807 395.306 536.807C397.328 536.807 398.94 538.466 398.94 540.48C398.94 542.495 397.299 544.154 395.306 544.154ZM398.94 554.848C398.94 552.804 397.299 551.175 395.306 551.175C393.285 551.175 391.673 552.834 391.673 554.848C391.673 556.892 393.314 558.522 395.306 558.522C397.299 558.522 398.94 556.863 398.94 554.848ZM388.187 543.976C386.165 543.976 384.553 545.635 384.553 547.649C384.553 549.694 386.194 551.323 388.187 551.323C390.208 551.323 391.82 549.664 391.82 547.649C391.82 545.605 390.208 543.976 388.187 543.976ZM402.397 543.976C400.375 543.976 398.764 545.635 398.764 547.649C398.764 549.694 400.405 551.323 402.397 551.323C404.419 551.323 406.03 549.664 406.03 547.649C406.06 545.605 404.419 543.976 402.397 543.976Z" fill="#E62E2E"/>
<path d="M375.119 550.824C375.119 547.891 372.775 545.521 369.874 545.521C366.973 545.521 364.629 547.891 364.629 550.824C364.629 553.757 366.973 556.127 369.874 556.127C372.745 556.157 375.119 553.757 375.119 550.824Z" fill="#666666"/>
<path d="M364.278 566.728C364.278 562.255 360.703 558.641 356.279 558.641C351.854 558.641 348.28 562.255 348.28 566.728C348.28 571.202 351.854 574.816 356.279 574.816C360.703 574.816 364.278 571.202 364.278 566.728Z" fill="#666666"/>
<path d="M363.311 564.359H358.652V559.648H353.935V564.359H349.276V569.128H353.935V573.839H358.652V569.128H363.311V564.359Z" fill="#C7E62E"/>
<path d="M391.409 567.742C391.409 563.269 387.835 559.654 383.41 559.654C378.986 559.654 375.412 563.269 375.412 567.742C375.412 572.215 378.986 575.83 383.41 575.83C387.835 575.8 391.409 572.186 391.409 567.742Z" fill="#666666"/>
<path d="M389.476 567.744C389.476 564.366 386.751 561.611 383.411 561.611C380.07 561.611 377.345 564.366 377.345 567.744C377.345 571.121 380.07 573.876 383.411 573.876C386.78 573.876 389.476 571.121 389.476 567.744Z" fill="#C7E62E"/>
<path d="M353.495 545.519C353.495 541.046 349.921 537.432 345.496 537.432C341.072 537.432 337.497 541.046 337.497 545.519C337.497 549.993 341.072 553.607 345.496 553.607C349.921 553.607 353.495 549.993 353.495 545.519Z" fill="#666666"/>
<path d="M351.561 545.521C351.561 542.144 348.836 539.389 345.496 539.389C342.156 539.389 339.431 542.144 339.431 545.521C339.431 548.898 342.156 551.653 345.496 551.653C348.836 551.653 351.561 548.898 351.561 545.521Z" fill="#E62E2E"/>
<path d="M362.95 305.031V79.2891C460.75 79.2891 547.428 142.262 577.65 235.273L362.95 305.031Z" fill="#FCC568" stroke="white"/>
<path d="M362.95 305.03L577.65 235.271C599.98 303.996 588.06 379.257 545.584 437.718L362.95 305.03Z" fill="#FFF7EA" stroke="white"/>
<path d="M362.95 305.027L545.584 437.715C472.3 538.579 331.124 560.938 230.258 487.657C222.605 482.097 215.309 476.061 208.414 469.586L362.95 305.027Z" fill="#FFF3DF" stroke="white"/>
<path d="M362.949 305.03L208.414 469.589C117.528 384.244 113.038 241.383 198.386 150.499C214.602 133.231 233.435 118.623 254.194 107.211L362.949 305.03Z" fill="#FFE8C0" stroke="white"/>
<path d="M362.95 305.031L254.194 107.212C287.516 88.8937 324.925 79.2891 362.95 79.2891V305.031Z" fill="#FFD691" stroke="white"/>
<path d="M588.07 74.3995C582.684 76.119 577.581 77.603 573.089 78.9927V99.6035C578.616 100.357 585.201 99.9568 592.256 97.6955C610.342 91.9009 621.913 67.333 621.56 66.2259C620.572 63.1637 606.155 68.6049 588.07 74.3995Z" fill="#A0C000"/>
<path d="M610.365 71.0547C591.88 75.3653 578.357 91.7832 578.616 92.9139C579.086 94.9396 585.554 93.9267 594.679 92.0659C609.895 88.933 618.761 73.4102 621.043 67.9219C617.703 68.817 614.128 70.1596 610.365 71.0547Z" fill="#809900"/>
<path d="M500.089 74.3972C505.475 76.1167 510.578 77.6007 515.07 78.9904V99.6012C509.543 100.355 502.958 99.9545 495.903 97.6932C477.818 91.8986 466.247 67.3542 466.599 66.2471C467.587 63.1614 482.004 68.6026 500.089 74.3972Z" fill="#A0C000"/>
<path d="M477.794 71.049C496.279 75.3596 509.802 91.7775 509.543 92.9081C509.073 94.9339 502.606 93.921 493.481 92.0601C478.264 88.9273 469.398 73.4045 467.117 67.8926C470.456 68.8112 474.031 70.1539 477.794 71.049Z" fill="#809900"/>
<path d="M578.005 97.1511C578.005 89.8725 562.812 56.7305 544.092 56.7305C525.348 56.7305 510.179 89.8725 510.179 97.1511C510.179 104.43 525.371 93.712 544.092 93.712C562.812 93.7356 578.005 104.43 578.005 97.1511Z" fill="#607300"/>
<path d="M510.155 93.7356C510.155 98.7764 511.26 101.155 513.212 105.466L518.786 107.845C518.339 105.49 518.033 103.063 518.033 100.59C518.033 95.1489 516.081 88.2943 519.868 85.1851C525.512 80.5918 536.025 84.714 544.068 84.714C552.088 84.714 562.624 80.5682 568.268 85.1851C572.054 88.2708 570.102 95.1253 570.102 100.59C570.102 103.063 569.797 105.49 569.35 107.845L574.924 105.466C576.876 101.179 577.981 98.7764 577.981 93.7356C577.981 90.9561 577.722 85.9624 577.934 85.7504C583.461 79.9323 562.224 56.7305 544.091 56.7305C525.959 56.7305 504.722 79.9323 510.225 85.7504C510.414 85.9624 510.155 90.9561 510.155 93.7356Z" fill="#C7E62E"/>
<path d="M511.354 93.7374C511.354 98.7782 511.26 101.157 513.236 105.468L518.81 107.847C518.363 105.491 518.057 103.065 518.057 100.592C518.057 95.1507 516.105 88.2961 519.891 85.1868C525.536 80.5936 536.048 82.0305 544.091 82.0305C552.111 82.0305 562.647 80.57 568.292 85.1868C572.078 88.2726 570.126 95.1271 570.126 100.592C570.126 103.065 569.82 105.491 569.373 107.847L574.947 105.468C576.899 101.181 576.829 98.7782 576.829 93.7374C576.829 90.9579 576.57 85.9642 576.782 85.7522C582.285 79.9576 562.224 59.1113 544.091 59.1113C525.959 59.1113 505.898 79.9576 511.401 85.7522C511.59 85.9642 511.354 90.9579 511.354 93.7374Z" fill="#A0C000"/>
<path d="M515.399 74.2316C514.294 74.8676 513.236 75.48 512.225 76.0689C511.26 77.4822 510.508 78.8484 510.037 80.0968C512.013 78.8248 514.412 77.4351 517.093 75.904C526.876 70.345 536.801 72.0409 541.552 75.6684C537.977 71.0045 526.594 67.8717 515.399 74.2316Z" fill="#C7E62E"/>
<path d="M572.619 74.2331C573.724 74.8691 574.783 75.458 575.794 76.0469C576.758 77.4602 577.487 78.8264 578.005 80.0748C576.029 78.8028 573.63 77.4131 570.949 75.882C561.166 70.323 551.241 72.0189 546.49 75.6464C550.065 71.0061 561.448 67.8732 572.619 74.2331Z" fill="#C7E62E"/>
<path d="M0 286.595V318.193H52.6324V286.595C51.2161 278.28 43.7233 261.65 25.0826 261.65C6.44199 261.65 0.593942 278.28 0 286.595Z" fill="#FC6868"/>
<path d="M102.386 285.627V317.917H51.2617V291.448C51.7186 281.423 57.3748 261.375 76.3443 261.375C95.3139 261.375 101.61 277.543 102.386 285.627Z" fill="#01375E"/>
<path d="M33.5806 297.685V317.919H68.8059V297.685C68.8059 295.745 65.3793 282.164 50.5764 282.164C38.7342 282.164 34.3116 292.512 33.5806 297.685Z" fill="#FCC568"/>
<ellipse cx="25.3567" cy="239.479" rx="16.9959" ry="17.1844" fill="#FC6868"/>
<ellipse cx="76.8926" cy="239.479" rx="16.9959" ry="17.1844" fill="#01375E"/>
<ellipse cx="51.2618" cy="268.718" rx="13.5693" ry="13.7198" fill="#FCC568"/>
</svg>
