<svg width="104" height="73" viewBox="0 0 104 73" fill="none" xmlns="http://www.w3.org/2000/svg">
<path d="M100.112 34.5923C98.5676 25.0743 92.8316 8.87465 86.5913 2.60281C78.0187 -5.96976 63.7731 9.37891 51.6392 9.37891C39.5367 9.37891 25.2596 -5.93824 16.6871 2.60281C10.4467 8.84313 5.34101 22.6475 3.16635 34.5923C1.559 43.291 -3.07397 63.7138 3.16635 69.9542C6.34955 73.1374 14.1027 74.8077 18.9563 69.4814C25.953 61.8228 35.3135 51.9266 51.6392 51.9266C67.9649 51.9266 77.3253 61.8228 84.322 69.4814C89.1756 74.8077 96.8972 73.1374 100.112 69.9542C106.384 63.7138 101.53 43.3225 100.112 34.5923Z" fill="#262626"/>
<path d="M73.9215 5.03248C71.2741 13.479 73.1336 28.0397 76.695 39.6379C79.2794 48.0844 84.5742 68.3497 93.0207 71.0286C94.628 71.5329 96.7081 71.5644 98.7883 71.0286C99.2925 70.7134 99.7338 70.3668 100.112 69.9885C106.352 63.7482 101.499 43.3569 100.112 34.6267C98.5676 25.1087 92.8316 8.90905 86.5913 2.63721C84.0069 0.0528323 80.8867 -0.325369 77.4514 0.368C75.8441 1.37654 74.6149 2.88934 73.9215 5.03248Z" fill="#404040"/>
<path d="M16.6871 2.60607C10.4467 8.84639 5.34101 22.6507 3.16635 34.5956C1.559 43.2942 -3.07397 63.7171 3.16635 69.9574C3.54456 70.3356 4.0173 70.6823 4.49005 71.029C6.53864 71.5648 8.58724 71.5333 10.1946 71.029C18.6411 68.3816 23.9044 48.1163 26.5203 39.6383C30.0817 28.0401 31.9412 13.4478 29.2938 5.03286C28.6319 2.88972 27.3712 1.37692 25.7639 0.305347C22.3601 -0.356505 19.2714 0.0216961 16.6871 2.60607Z" fill="#404040"/>
<path d="M78.9957 14.7654C76.821 14.7654 75.0876 13.0004 75.0876 10.8573C75.0876 8.68264 76.8526 6.94922 78.9957 6.94922C81.1704 6.94922 82.9038 8.71416 82.9038 10.8573C82.9038 13.0004 81.1388 14.7654 78.9957 14.7654ZM82.9038 26.1429C82.9038 23.9683 81.1388 22.2349 78.9957 22.2349C76.821 22.2349 75.0876 23.9998 75.0876 26.1429C75.0876 28.3176 76.8526 30.051 78.9957 30.051C81.1388 30.051 82.9038 28.2861 82.9038 26.1429ZM71.3371 14.5763C69.1625 14.5763 67.429 16.3412 67.429 18.4844C67.429 20.659 69.194 22.3924 71.3371 22.3924C73.5118 22.3924 75.2452 20.6275 75.2452 18.4844C75.2452 16.3097 73.5118 14.5763 71.3371 14.5763ZM86.6227 14.5763C84.4481 14.5763 82.7147 16.3412 82.7147 18.4844C82.7147 20.659 84.4796 22.3924 86.6227 22.3924C88.7974 22.3924 90.5308 20.6275 90.5308 18.4844C90.5623 16.3097 88.7974 14.5763 86.6227 14.5763Z" fill="#E62E2E"/>
<path d="M57.2807 21.8622C57.2807 18.742 54.7593 16.2207 51.6392 16.2207C48.519 16.2207 45.9977 18.742 45.9977 21.8622C45.9977 24.9824 48.519 27.5037 51.6392 27.5037C54.7278 27.5352 57.2807 24.9824 57.2807 21.8622Z" fill="#666666"/>
<path d="M45.6194 38.7857C45.6194 34.0267 41.7744 30.1816 37.0154 30.1816C32.2563 30.1816 28.4113 34.0267 28.4113 38.7857C28.4113 43.5448 32.2563 47.3898 37.0154 47.3898C41.7744 47.3898 45.6194 43.5448 45.6194 38.7857Z" fill="#666666"/>
<path d="M44.5794 36.2631H39.5682V31.252H34.494V36.2631H29.4828V41.3373H34.494V46.3485H39.5682V41.3373H44.5794V36.2631Z" fill="#C7E62E"/>
<path d="M74.804 39.856C74.804 35.097 70.9589 31.252 66.1999 31.252C61.4409 31.252 57.5958 35.097 57.5958 39.856C57.5958 44.6151 61.4409 48.4601 66.1999 48.4601C70.9589 48.4286 74.804 44.5835 74.804 39.856Z" fill="#666666"/>
<path d="M72.7239 39.856C72.7239 36.2631 69.7928 33.332 66.1999 33.332C62.607 33.332 59.6759 36.2631 59.6759 39.856C59.6759 43.4489 62.607 46.38 66.1999 46.38C69.8243 46.38 72.7239 43.4489 72.7239 39.856Z" fill="#C7E62E"/>
<path d="M34.0213 16.2193C34.0213 11.4603 30.1762 7.61523 25.4172 7.61523C20.6582 7.61523 16.8131 11.4603 16.8131 16.2193C16.8131 20.9783 20.6582 24.8234 25.4172 24.8234C30.1762 24.8234 34.0213 20.9783 34.0213 16.2193Z" fill="#666666"/>
<path d="M31.9412 16.2193C31.9412 12.6264 29.0101 9.69531 25.4172 9.69531C21.8243 9.69531 18.8932 12.6264 18.8932 16.2193C18.8932 19.8122 21.8243 22.7433 25.4172 22.7433C29.0101 22.7433 31.9412 19.8122 31.9412 16.2193Z" fill="#E62E2E"/>
</svg>
