<svg width="62" height="65" viewBox="0 0 62 65" fill="none" xmlns="http://www.w3.org/2000/svg">
<path d="M54.4854 24.5498L30.6877 7.26591L6.91356 24.5498L15.9905 52.5097H45.3849L54.4854 24.5498Z" fill="#262626"/>
<path d="M16.7665 51.4293L8.15987 24.9508L30.6877 8.58407L53.2155 24.9508L44.6089 51.4293H16.7665Z" fill="#FF4D4D"/>
<path d="M30.6877 0L30.6877 7.26591L54.4854 24.5498L61.3989 22.2927L49.6647 6.16106L30.6877 0Z" fill="#262626"/>
<path d="M31.7694 6.7234V1.45594L49.0063 7.07614L59.6588 21.7498L54.65 23.3724L31.7694 6.7234Z" fill="#9A1F1F"/>
<path d="M11.7107 6.16106L0 22.2927L6.91356 24.5498L30.6877 7.26591L30.6877 0L11.7107 6.16106Z" fill="#262626"/>
<path d="M1.71666 21.7263L12.3692 7.07614L29.6295 1.45594V6.7234L6.72545 23.3724L1.71666 21.7263Z" fill="#E62E2E"/>
<path d="M0 42.7758V22.2938L6.91355 24.5513L15.9905 52.5112L11.7107 58.39L0 42.7758Z" fill="#262626"/>
<path d="M1.05823 42.4205V23.7727L6.06702 25.3953L14.8148 52.3205L11.7107 56.6003L1.05823 42.4205Z" fill="#E62E2E"/>
<path d="M45.3849 52.5097L49.6647 58.3891L30.6877 64.5502L11.7107 58.39L15.9905 52.5097H45.3849Z" fill="#262626"/>
<path d="M13.4509 57.8229L16.5314 53.5666H44.844L47.9481 57.8229L30.6877 63.4196L13.4509 57.8229Z" fill="#9A1F1F"/>
<path d="M54.4853 24.5513L61.3989 22.2938V42.2584L49.6647 58.3891L45.3848 52.5112L54.4853 24.5513Z" fill="#262626"/>
<path d="M46.5606 52.3205L55.3084 25.3953L60.3407 23.7727V41.9031L49.6647 56.5768L46.5606 52.3205Z" fill="#9A1F1F"/>
<path d="M27.3015 32.2621C26.9252 30.1457 27.1134 27.4885 26.0317 25.5837C25.9376 25.3486 25.7965 25.1369 25.6084 24.9488L25.5849 24.9253C25.4908 24.8312 25.3967 24.7607 25.3027 24.7372C24.8088 24.4785 24.221 24.4785 23.7742 24.9958C22.6689 26.2892 22.1046 27.7236 21.4697 29.2521C21.1169 30.1222 22.4808 30.9217 23.0687 30.1927C23.2568 29.9576 23.4214 29.7224 23.6096 29.5108C23.6331 30.2633 23.6801 31.0158 23.6331 31.7213C23.492 34.6372 23.492 37.6472 23.9623 40.5396C24.221 42.1386 26.7136 42.021 27.0663 40.5396C27.6777 37.9293 27.7718 34.8723 27.3015 32.2621Z" fill="white"/>
<path d="M40.9875 39.6715C40.4231 38.825 39.2709 39.1307 38.3773 39.1072C37.6248 39.0836 36.7782 39.0601 35.9552 38.9661C38.8006 34.6157 41.4108 26.9026 37.1545 23.9162C33.1804 21.0943 28.2656 29.795 32.8982 30.43C33.345 30.5005 33.6742 30.1948 33.6036 29.7245C33.392 28.4076 32.9452 27.6316 34.0269 26.5264C34.5207 26.0326 35.2262 25.7974 35.9082 25.7269C37.131 25.5858 37.0369 27.7492 37.0369 28.4311C37.0604 32.1936 34.9911 36.3558 32.3808 38.9661C31.5108 39.8361 32.1222 41.0119 32.9922 41.3411C33.2979 41.6233 33.7212 41.7409 34.2386 41.5057C35.2027 41.106 36.449 41.3646 37.4837 41.4117C38.4713 41.4587 39.412 41.3882 40.3526 41.059C40.7759 40.9179 41.0816 40.5651 41.0816 40.0948C41.0816 39.9537 41.0816 39.7891 40.9875 39.6715Z" fill="white"/>
<path d="M16.4844 9.36038C14.8148 8.23164 13.1687 10.1599 13.8507 11.5473C13.6625 11.4768 13.4744 11.4533 13.2863 11.5003C13.1452 11.5238 13.0041 11.5708 12.863 11.6414C12.816 11.6649 12.7689 11.7119 12.7454 11.7354C12.4632 11.806 12.2046 12.0411 12.1575 12.3233C12.0635 12.8172 12.1575 13.1229 12.5103 13.4756C13.0041 13.9694 13.8271 13.8518 14.1799 13.2639C14.415 12.8642 14.4385 12.582 14.368 12.1587C14.415 12.2058 14.4621 12.2528 14.5091 12.2998C16.3903 13.3815 18.2245 10.5597 16.4844 9.36038Z" fill="white"/>
<path d="M4.06819 34.7071C4.09171 34.7541 4.09171 34.8246 4.11522 34.8717C4.30335 35.7182 5.38506 35.5301 5.64373 34.8717L5.71427 34.7071C6.2081 33.5313 3.73897 33.1786 4.06819 34.7071Z" fill="white"/>
<path d="M5.64369 36.5667C4.67955 36.308 3.66838 37.2252 3.97408 38.2363V38.2598C3.92705 39.1299 4.98525 39.6943 5.71423 39.2475C6.01993 39.0594 6.20806 38.8242 6.44321 38.542C6.98407 37.8365 6.39618 36.7784 5.64369 36.5667Z" fill="white"/>
<path d="M31.4167 57.9403C31.3696 57.8698 31.3226 57.7757 31.2756 57.7052C30.5231 56.5059 28.8065 56.788 28.3597 58.0814L28.2656 58.3401C27.9129 59.4218 28.8535 60.527 29.9117 60.527C31.205 60.527 32.1221 59.069 31.4167 57.9403Z" fill="white"/>
<path d="M56.2255 39.8584C56.1314 39.7879 56.0139 39.7409 55.9198 39.6703C55.7317 39.4822 55.5671 39.4117 55.3789 39.3646C55.4495 39.0824 55.4495 38.7532 55.2849 38.4946C55.2614 38.471 55.2614 38.424 55.2379 38.4005C54.9792 37.9772 54.5559 37.8596 54.1091 37.9537C54.0621 37.9537 54.0386 37.9537 53.9915 37.9772C53.239 38.0948 52.9804 39.0589 53.3096 39.6703C53.4272 39.882 53.4036 40.1171 53.5212 40.3052C53.6153 40.4698 53.7799 40.5169 53.9445 40.4699C54.015 40.4463 54.0856 40.4228 54.1561 40.3758C54.1091 40.7991 54.2972 41.2223 54.8851 41.434C55.4495 41.6221 56.0139 41.528 56.3901 41.0577C56.6958 40.6815 56.6958 40.1406 56.2255 39.8584Z" fill="white"/>
<path d="M47.3602 10.7706C47.5718 10.606 47.6424 10.3943 47.5248 10.1592C47.5013 10.0886 47.4542 10.0416 47.4307 9.97106C47.2191 9.52426 46.5607 9.85348 46.6547 10.3003C46.6782 10.3708 46.6782 10.4414 46.7017 10.5119C46.7017 10.5119 46.7017 10.5119 46.7017 10.5354C46.5136 10.3708 46.2785 10.2532 45.9492 10.2532C45.6906 10.2532 45.4789 10.3473 45.3143 10.4414C45.2908 10.4179 45.2908 10.3943 45.2673 10.3943C45.2908 10.2768 45.3143 10.1357 45.3143 9.94754C45.3143 9.61832 44.9381 9.50075 44.7264 9.68888C44.4207 9.94755 44.3972 10.0416 44.2561 10.4414C44.2561 10.4649 44.2561 10.4649 44.2561 10.4884C44.1386 10.606 44.0445 10.7235 43.9975 10.9117C43.9269 11.2879 43.9504 11.5701 43.9739 11.9464C43.9975 12.4402 44.2796 12.7459 44.7029 12.9105C45.1262 13.0751 45.4789 13.0281 45.8552 12.7694C45.8787 12.7694 45.8787 12.7459 45.8787 12.7224C45.9022 12.7224 45.9257 12.7459 45.9728 12.7459C47.1015 12.7459 47.4072 11.5231 46.9604 10.7941C47.031 10.8176 47.1015 10.8646 47.1721 10.8646C47.2191 10.8411 47.2896 10.8176 47.3602 10.7706Z" fill="white"/>
</svg>
