<svg width="414" height="622" viewBox="0 0 414 622" fill="none" xmlns="http://www.w3.org/2000/svg">
<path d="M362.643 621.996C362.643 621.996 496.328 -42.8155 251.002 2.1857C145.926 21.4594 165.542 138.389 119.135 247.801C89.0549 318.717 31.2011 260.703 9.52013 322.674C-12.1608 384.645 13.3185 561.342 22.2544 622H362.643V621.996Z" fill="#E5F0F8"/>
<path d="M67.64 619.937C67.64 619.937 55.6752 572.253 25.8503 557.535C-3.97464 542.818 -35.8087 562.967 -27.7248 584.153C-20.7533 602.423 7.90602 579.96 30.2075 588.792C52.5061 597.625 56.0227 619.937 56.0227 619.937H67.64Z" fill="#40A87B"/>
<path d="M-21.9609 571.449C-21.9609 571.449 10.0496 553.224 33.7997 570.074C57.5498 586.925 65.0649 619.94 65.0649 619.94" stroke="#6ADB6A" stroke-width="4.7964" stroke-miterlimit="10"/>
<path d="M-6.04254 555.973L8.79147 562.924" stroke="#6ADB6A" stroke-width="4.7964" stroke-miterlimit="10"/>
<path d="M16.2449 555.973L23.9617 565.082" stroke="#6ADB6A" stroke-width="4.7964" stroke-miterlimit="10"/>
<path d="M30.8716 562.078L34.3433 570.466" stroke="#6ADB6A" stroke-width="4.7964" stroke-miterlimit="10"/>
<path d="M-13.0756 583.056L-1.64329 564.156" stroke="#6ADB6A" stroke-width="4.7964" stroke-miterlimit="10"/>
<path d="M7.12427 580.347L17.6095 563.521" stroke="#6ADB6A" stroke-width="4.7964" stroke-miterlimit="10"/>
<path d="M24.9341 577.767L40.7012 575.811" stroke="#6ADB6A" stroke-width="4.7964" stroke-miterlimit="10"/>
<path d="M43.2874 587.312L52.324 590.277" stroke="#6ADB6A" stroke-width="4.7964" stroke-miterlimit="10"/>
<path d="M77.9011 620.077C77.9011 620.077 86.3436 460.238 9.9319 480.837C-66.4798 501.436 69.537 587.58 69.4221 620.077H77.9011Z" fill="#6ADB6A"/>
<path d="M74.8132 620.077C74.8132 620.077 72.1457 536.567 17.6768 495.273" stroke="#40A87B" stroke-width="4.7964" stroke-miterlimit="10"/>
<path d="M41.5641 519.487L40.2051 490.691" stroke="#40A87B" stroke-width="4.7964" stroke-miterlimit="10"/>
<path d="M-1.1698 507.555L35.6462 512.35" stroke="#40A87B" stroke-width="4.7964" stroke-miterlimit="10"/>
<path d="M13.1486 532.133L52.0746 536.665" stroke="#40A87B" stroke-width="4.7964" stroke-miterlimit="10"/>
<path d="M32.6116 556.488L62.6775 560.735" stroke="#40A87B" stroke-width="4.7964" stroke-miterlimit="10"/>
<path d="M65.5609 533.732L58.6707 550.462" stroke="#40A87B" stroke-width="4.7964" stroke-miterlimit="10"/>
<path d="M54.2378 506.582L48.3619 530.135" stroke="#40A87B" stroke-width="4.7964" stroke-miterlimit="10"/>
<path d="M71.9943 561.658L66.5051 572.59" stroke="#40A87B" stroke-width="4.7964" stroke-miterlimit="10"/>
<path d="M48.3619 579.066L69.9068 585.852" stroke="#40A87B" stroke-width="4.7964" stroke-miterlimit="10"/>
<path d="M349.894 620.173C349.894 620.173 361.439 574.166 390.213 559.969C418.99 545.77 449.7 565.21 441.902 585.65C435.177 603.275 407.527 581.604 386.01 590.126C364.496 598.648 361.103 620.173 361.103 620.173H349.894Z" fill="#40A87B"/>
<path d="M436.34 573.392C436.34 573.392 405.456 555.808 382.544 572.065C359.629 588.321 352.38 620.175 352.38 620.175" stroke="#6ADB6A" stroke-width="4.6275" stroke-miterlimit="10"/>
<path d="M420.982 558.459L406.669 565.167" stroke="#6ADB6A" stroke-width="4.6275" stroke-miterlimit="10"/>
<path d="M399.479 558.459L392.034 567.247" stroke="#6ADB6A" stroke-width="4.6275" stroke-miterlimit="10"/>
<path d="M385.365 564.35L382.02 572.443" stroke="#6ADB6A" stroke-width="4.6275" stroke-miterlimit="10"/>
<path d="M408.281 581.978L398.162 565.746" stroke="#6ADB6A" stroke-width="4.6275" stroke-miterlimit="10"/>
<path d="M391.096 579.486L375.886 577.6" stroke="#6ADB6A" stroke-width="4.6275" stroke-miterlimit="10"/>
<path d="M373.387 588.695L364.67 591.556" stroke="#6ADB6A" stroke-width="4.6275" stroke-miterlimit="10"/>
<path d="M339.24 620.308C339.24 620.308 331.094 466.095 404.816 485.969C478.538 505.843 347.307 588.956 347.419 620.308H339.24Z" fill="#6ADB6A"/>
<path d="M342.218 620.309C342.218 620.309 344.793 539.739 397.346 499.898" stroke="#40A87B" stroke-width="4.6275" stroke-miterlimit="10"/>
<path d="M374.296 523.259L375.607 495.477" stroke="#40A87B" stroke-width="4.6275" stroke-miterlimit="10"/>
<path d="M415.525 511.748L380.004 516.373" stroke="#40A87B" stroke-width="4.6275" stroke-miterlimit="10"/>
<path d="M401.711 535.461L364.155 539.834" stroke="#40A87B" stroke-width="4.6275" stroke-miterlimit="10"/>
<path d="M382.935 558.959L353.925 563.055" stroke="#40A87B" stroke-width="4.6275" stroke-miterlimit="10"/>
<path d="M351.143 537.002L357.792 553.141" stroke="#40A87B" stroke-width="4.6275" stroke-miterlimit="10"/>
<path d="M362.068 510.809L367.736 533.53" stroke="#40A87B" stroke-width="4.6275" stroke-miterlimit="10"/>
<path d="M344.936 563.945L350.232 574.494" stroke="#40A87B" stroke-width="4.6275" stroke-miterlimit="10"/>
<path d="M367.736 580.742L346.951 587.29" stroke="#40A87B" stroke-width="4.6275" stroke-miterlimit="10"/>
<path d="M402.946 33H154.329C151.387 33 149 36.9026 149 41.7178V61.9024V241.484H408.276V61.9024V41.7178C408.276 36.9026 405.888 33 402.946 33Z" fill="#BBDBF3"/>
<path d="M404.81 52.5918H152.466V238.271H404.81V52.5918Z" fill="#E5F0F8"/>
<path d="M163.324 71.586V69.6348L174.594 63.543V66.5217L167.068 70.6118L174.594 74.7019V77.6806L163.324 71.586Z" fill="white"/>
<path d="M382.895 233.456V230.477L390.421 226.387L382.895 222.297V219.318L394.165 225.41V227.361L382.895 233.456Z" fill="white"/>
<path d="M223.59 68.3105H178.775V72.9102H223.59V68.3105Z" fill="white"/>
<path d="M208.14 86.0879H163.324V90.6875H208.14V86.0879Z" fill="white"/>
<path d="M217.686 98.4707H172.871V103.07H217.686V98.4707Z" fill="white"/>
<path d="M217.686 132.555H172.871V137.154H217.686V132.555Z" fill="white"/>
<path d="M217.686 143.098H172.871V147.697H217.686V143.098Z" fill="white"/>
<path d="M323.422 110.266H188.271V114.865H323.422V110.266Z" fill="white"/>
<path d="M368.82 154.299H188.271V158.898H368.82V154.299Z" fill="white"/>
<path d="M368.82 189.564H188.271V194.164H368.82V189.564Z" fill="white"/>
<path d="M378.227 224.088H205.251V228.688H378.227V224.088Z" fill="white"/>
<path d="M226.942 201.547H188.271V206.147H226.942V201.547Z" fill="white"/>
<path d="M226.942 212.947H188.271V217.547H226.942V212.947Z" fill="white"/>
<path d="M368.82 165.555H188.271V170.154H368.82V165.555Z" fill="white"/>
<path d="M285.956 176.812H188.271V181.412H285.956V176.812Z" fill="white"/>
<path d="M229.713 120.867H188.271V125.467H229.713V120.867Z" fill="white"/>
<path d="M386.837 48.7749L398.309 37.3164" stroke="white" stroke-width="6.5648" stroke-miterlimit="10" stroke-linecap="round" stroke-linejoin="round"/>
<path d="M398.309 48.7749L386.837 37.3164" stroke="white" stroke-width="6.5648" stroke-miterlimit="10" stroke-linecap="round" stroke-linejoin="round"/>
<path d="M12.5939 318.604V349.079H50.881V318.604H12.5939ZM49.0569 347.257L40.7964 327.394L31.0902 343.869L24.2111 335.303L14.4208 347.257V320.426H49.0541V347.257H49.0569Z" fill="#E5F0F8"/>
<path d="M31.7375 328.521C32.7266 328.521 33.528 327.72 33.528 326.732C33.528 325.744 32.7266 324.943 31.7375 324.943C30.7483 324.943 29.947 325.744 29.947 326.732C29.9498 327.72 30.7511 328.521 31.7375 328.521Z" fill="#E5F0F8"/>
<path d="M53.2167 22H19.623C17.6224 22 16 23.6209 16 25.6198V44.9422C16 46.9411 17.6224 48.5648 19.623 48.5648H33.1261V52.9237H24.238C24.0643 52.9237 23.9242 53.0637 23.9242 53.2372V54.3515C23.9242 54.525 24.0643 54.665 24.238 54.665H48.5962C48.7699 54.665 48.91 54.525 48.91 54.3515V53.2372C48.91 53.0637 48.7699 52.9237 48.5962 52.9237H39.7081V48.5648H53.2111C55.2118 48.5648 56.8342 46.9439 56.8342 44.9422V25.6226C56.8398 23.6209 55.2174 22 53.2167 22Z" fill="#E5F0F8"/>
<path d="M71.9999 123.27V120.591L87.4812 112.221V116.314L77.1389 121.932L87.4812 127.551V131.644L71.9999 123.27Z" fill="#E5F0F8"/>
<path d="M92.1915 134.991L89.6528 133.874L99.1994 105L101.738 106.19L92.1915 134.991Z" fill="#E5F0F8"/>
<path d="M119.761 120.591V123.27L104.28 131.641V127.551L114.622 121.932L104.28 116.314V112.221L119.761 120.591Z" fill="#E5F0F8"/>
<path d="M41.9548 200.845C45.0175 205.176 50.7196 206.489 55.343 204.238L66.7081 220.313L69.4961 218.345L58.1338 202.27C61.8157 198.672 62.4742 192.866 59.4088 188.527C56.0071 183.715 49.3382 182.55 44.5243 185.949C39.7048 189.35 38.5532 196.035 41.9548 200.845ZM57.509 189.868C60.1569 193.614 59.2575 198.846 55.5055 201.492C51.734 204.154 46.5194 203.239 43.8714 199.49C41.2067 195.722 42.1034 190.526 45.8749 187.866C49.624 185.221 54.847 186.1 57.509 189.868Z" fill="white"/>
<path d="M289.169 478.957C288.141 478.237 287.015 477.711 285.838 477.378C285.628 478.643 284.496 479.575 283.181 479.511C281.87 479.444 280.839 478.405 280.761 477.123C279.561 477.333 278.384 477.742 277.289 478.352C278.034 479.396 277.897 480.855 276.922 481.737C275.944 482.619 274.478 482.605 273.514 481.759C272.794 482.787 272.268 483.912 271.937 485.085C273.203 485.295 274.134 486.423 274.066 487.733C273.999 489.043 272.954 490.077 271.674 490.155C271.886 491.359 272.296 492.532 272.906 493.626C273.949 492.879 275.411 493.013 276.297 493.99C277.18 494.967 277.166 496.437 276.314 497.397C277.342 498.117 278.468 498.643 279.643 498.973C279.853 497.708 280.985 496.776 282.299 496.84C283.61 496.907 284.641 497.946 284.72 499.228C285.919 499.018 287.096 498.61 288.192 497.999C287.446 496.955 287.583 495.496 288.559 494.615C289.534 493.733 291.002 493.747 291.966 494.592C292.686 493.565 293.213 492.439 293.543 491.266C292.277 491.056 291.347 489.928 291.414 488.618C291.481 487.308 292.526 486.275 293.807 486.196C293.597 484.998 293.188 483.822 292.577 482.728C291.529 483.475 290.069 483.338 289.186 482.364C288.304 481.384 288.315 479.92 289.169 478.957ZM286.779 484.536C288.791 486.762 288.617 490.197 286.387 492.21C284.157 494.223 280.719 494.043 278.707 491.818C276.692 489.589 276.866 486.154 279.096 484.141C281.329 482.129 284.765 482.308 286.779 484.536Z" fill="white"/>
<path d="M277.908 512.918C276.434 515.891 272.828 517.109 269.849 515.637C266.871 514.161 265.658 510.555 267.129 507.585C268.605 504.609 272.212 503.389 275.19 504.864C278.169 506.337 279.382 509.942 277.908 512.918ZM284.625 513.109C284.947 511.759 285.031 510.387 284.896 509.044C283.507 509.343 282.086 508.557 281.621 507.182C281.156 505.807 281.808 504.324 283.095 503.722C282.391 502.574 281.492 501.53 280.419 500.653C279.648 501.846 278.09 502.297 276.784 501.65C275.482 501.003 274.896 499.492 275.378 498.156C274.027 497.834 272.654 497.75 271.312 497.888C271.612 499.276 270.827 500.69 269.452 501.155C268.076 501.619 266.588 500.964 265.985 499.679C264.834 500.388 263.791 501.286 262.912 502.358C264.105 503.125 264.562 504.685 263.915 505.992C263.267 507.297 261.749 507.882 260.415 507.398C260.093 508.747 260.009 510.119 260.146 511.46C261.536 511.16 262.956 511.947 263.422 513.321C263.887 514.696 263.234 516.18 261.948 516.782C262.651 517.929 263.55 518.974 264.624 519.85C265.394 518.657 266.952 518.207 268.258 518.853C269.564 519.5 270.146 521.012 269.664 522.347C271.015 522.669 272.388 522.753 273.73 522.616C273.43 521.227 274.215 519.814 275.591 519.349C276.967 518.884 278.454 519.539 279.057 520.824C280.206 520.121 281.251 519.223 282.128 518.151C280.931 517.378 280.478 515.821 281.125 514.517C281.772 513.204 283.285 512.619 284.625 513.109Z" fill="white"/>
<path d="M428.911 213.081L415.775 193.75L409.583 224.453L419.247 249.298L428.911 213.081Z" fill="#93ACBF"/>
<path d="M241.244 460.857H380.111C383.23 460.857 386.211 458.345 386.771 455.246L429.673 218.509C430.239 215.379 429.791 212.185 426.658 212.185L289.064 192.697C285.931 192.697 282.936 195.236 282.378 198.366L236.596 455.246C236.047 458.345 238.126 460.857 241.244 460.857Z" fill="#93ACBF"/>
<path d="M225.25 460.857H364.117C367.236 460.857 370.217 458.345 370.777 455.246L417.33 198.366C417.896 195.236 415.817 192.697 412.682 192.697H273.07C269.937 192.697 266.942 195.236 266.384 198.366L220.605 455.249C220.053 458.345 222.132 460.857 225.25 460.857Z" fill="#BBDBF3"/>
<path d="M275.592 202.668L233.584 438.115H363.957L380.758 345.293L328.085 206.361H350.905L388.122 304.622L406.576 202.668H275.592Z" fill="#586773"/>
<path d="M321.876 201.261C321.789 201.754 321.775 202.221 321.834 202.666C321.918 203.509 322.24 204.259 322.731 204.858C323.493 205.785 324.667 206.359 326.062 206.359H354.772C357.084 206.359 359.337 204.788 360.329 202.666C360.55 202.221 360.704 201.751 360.794 201.261C361.046 199.856 360.701 198.587 359.939 197.661C359.18 196.734 358.014 196.16 356.607 196.16H327.895C325.09 196.163 322.38 198.461 321.876 201.261Z" fill="#BBDBF3"/>
<path d="M328.085 206.363L380.758 345.296L388.122 304.624L350.905 206.363H328.085Z" fill="#93ACBF"/>
<path d="M275.592 202.668L275.429 203.581L364.167 436.942L378.483 357.866L319.618 202.668H275.592Z" fill="#93ACBF"/>
<path d="M255.933 312.863L253.019 329.196L294.584 438.117H303.716L255.933 312.863Z" fill="#93ACBF"/>
<path d="M252.119 334.232L246.442 366.055L273.97 438.115H291.768L252.119 334.232Z" fill="#93ACBF"/>
<path d="M279.666 455.96H311.464C315.101 455.96 318.609 453.004 319.259 449.39C319.909 445.776 317.468 442.816 313.831 442.816H282.025C278.388 442.816 274.883 445.776 274.233 449.39C273.583 453.001 276.029 455.96 279.666 455.96Z" fill="#BBDBF3"/>
<path d="M180.863 202.705C179.28 206.778 176.716 216.162 175.13 221.207C172.83 228.522 160.599 234.572 148.757 224.706C139.146 216.697 148.264 200.583 151.307 194.712C151.786 193.788 150.918 192.755 149.917 193.052C147.062 193.9 141.763 196.467 137.053 202.542C128.426 213.673 127.885 222.724 129.765 229.426C130.163 230.846 130.376 232.343 130.46 233.824C130.791 239.614 129.185 245.35 126.181 250.311L55.1045 367.693C44.3055 383.605 30.4914 377.961 20.6394 391.354C13.3289 401.287 16.4279 417.44 18.1176 424.173C18.3754 425.198 19.7932 425.296 20.1743 424.311C21.7574 420.237 23.0267 413.409 24.6155 408.362C26.916 401.046 41.0411 395.705 52.8797 405.57C62.4907 413.58 54.4489 427.513 51.4086 433.384C50.9295 434.308 51.7981 435.341 52.7984 435.044C55.6537 434.196 60.35 431.824 65.0602 425.747C73.6877 414.616 73.1525 404.285 71.2723 397.583C70.4765 394.742 70.6867 391.517 71.2247 388.672C71.9476 384.851 73.4411 381.214 75.4558 377.886L148.771 256.82C150.321 254.261 152.436 252.075 154.981 250.498C163.745 245.07 173.166 247.033 180.417 237.173C187.728 227.237 184.609 209.575 182.92 202.842C182.665 201.817 181.247 201.719 180.863 202.705Z" fill="#93ACBF"/>
<path d="M143.344 250.115L64.1887 380.826C63.0567 382.696 60.5993 383.298 58.7275 382.167C56.8558 381.036 56.2533 378.58 57.3826 376.71L136.537 246C137.67 244.13 140.127 243.528 141.999 244.659C143.87 245.793 144.476 248.248 143.344 250.115Z" fill="#586773"/>
<path d="M237.444 611.72H91.9057C84.3177 611.72 78.1672 605.575 78.1672 597.994V317.105C78.1672 309.524 84.3177 303.379 91.9057 303.379H237.444C245.032 303.379 251.182 309.524 251.182 317.105V597.991C251.185 605.575 245.032 611.72 237.444 611.72Z" fill="#BBDBF3"/>
<path d="M239.812 355.693C239.812 369.347 228.732 380.416 215.067 380.416C207.613 380.416 200.93 377.124 196.402 371.908C192.606 367.575 190.322 361.9 190.322 355.693C190.322 342.04 201.401 330.971 215.067 330.971C228.732 330.971 239.812 342.04 239.812 355.693Z" fill="white"/>
<path d="M215.067 354.763C204.408 354.161 199.028 363.792 196.402 371.908C200.93 377.123 207.613 380.415 215.067 380.415C222.52 380.415 229.203 377.123 233.731 371.908C231.106 363.789 225.726 354.161 215.067 354.763Z" fill="#BBDBF3"/>
<path d="M224.075 346.941C224.075 354.256 220.043 361.916 215.07 361.916C210.096 361.916 206.064 354.256 206.064 346.941C206.064 339.626 210.096 335.424 215.07 335.424C220.043 335.424 224.075 339.626 224.075 346.941Z" fill="#BBDBF3"/>
<path d="M153.447 330.971H90.9165V337.648H153.447V330.971Z" fill="white"/>
<path d="M169.99 345.332H90.9165V352.009H169.99V345.332Z" fill="white"/>
<path d="M137.512 403.686H90.9165V409.145H137.512V403.686Z" fill="white"/>
<path d="M137.512 525.148H90.9165V530.608H137.512V525.148Z" fill="white"/>
<path d="M168.777 536.293H90.9165V541.752H168.777V536.293Z" fill="white"/>
<path d="M150.107 413.998H90.9165V419.457H150.107V413.998Z" fill="white"/>
<path d="M154.901 453.498H94.6236C92.5837 453.498 90.9165 451.832 90.9165 449.794V432.938C90.9165 430.9 92.5837 429.234 94.6236 429.234H154.901C156.941 429.234 158.608 430.9 158.608 432.938V449.794C158.608 451.832 156.938 453.498 154.901 453.498Z" fill="white"/>
<path d="M174.451 453.498H234.729C236.769 453.498 238.436 451.832 238.436 449.794V432.938C238.436 430.9 236.769 429.234 234.729 429.234H174.451C172.411 429.234 170.744 430.9 170.744 432.938V449.794C170.744 451.832 172.411 453.498 174.451 453.498Z" fill="white"/>
<path d="M232.403 515.137H96.9465C93.2506 515.137 90.2272 512.117 90.2272 508.424V469.309C90.2272 465.616 93.2506 462.596 96.9465 462.596H232.403C236.099 462.596 239.122 465.616 239.122 469.309V508.427C239.122 512.117 236.099 515.137 232.403 515.137Z" fill="white"/>
<path d="M150.791 478.975H98.4288V483.524H150.791V478.975Z" fill="#E5F0F8"/>
<path d="M178.337 488.756H98.4288V498.764H178.337V488.756Z" fill="#E5F0F8"/>
<path d="M236.732 573.822H92.6202C91.306 573.822 90.23 572.747 90.23 571.434V550.281C90.23 548.968 91.306 547.893 92.6202 547.893H236.732C238.046 547.893 239.122 548.968 239.122 550.281V571.434C239.122 572.747 238.046 573.822 236.732 573.822Z" fill="#E5F0F8"/>
<path d="M162.173 558.355H97.5182V563.358H162.173V558.355Z" fill="white"/>
<path d="M213.737 563.361H231.832V558.359H213.737V563.361Z" fill="white"/>
<path d="M236.732 604.607H92.6202C91.306 604.607 90.23 603.532 90.23 602.219V581.066C90.23 579.753 91.306 578.678 92.6202 578.678H236.732C238.046 578.678 239.122 579.753 239.122 581.066V602.219C239.122 603.532 238.046 604.607 236.732 604.607Z" fill="#E5F0F8"/>
<path d="M162.173 589.141H97.5182V594.143H162.173V589.141Z" fill="white"/>
<path d="M213.737 594.141H231.832V589.138H213.737V594.141Z" fill="white"/>
<path d="M376.53 426.263L371.07 422.863L426.899 333.347L433.231 329.269L432.359 336.748L376.53 426.263Z" fill="#93ACBF"/>
<path d="M311.646 543.962L293.911 532.914C291.486 531.404 290.746 528.213 292.257 525.79L349.863 433.426L376.383 449.945L318.773 542.311C317.263 544.734 314.072 545.473 311.646 543.962Z" fill="#6ADB6A"/>
<path d="M384.899 436.285L358.379 419.765L362.152 413.715C362.453 413.232 363.091 413.084 363.575 413.385L388.338 428.812C388.822 429.113 388.97 429.751 388.669 430.234L384.899 436.285Z" fill="#6ADB6A"/>
<path d="M377.406 441.353C380.062 437.479 384.899 436.285 384.899 436.285L371.639 428.026L358.379 419.766C358.379 419.766 359.435 424.632 357.124 428.722C354.813 432.813 349.857 433.427 349.857 433.427L363.117 441.687L376.377 449.946C376.379 449.947 374.749 445.227 377.406 441.353Z" fill="#40A87B"/>
<path d="M307.278 531.22C306.278 530.596 305.968 529.268 306.592 528.27L355.511 449.833C356.136 448.834 357.464 448.525 358.464 449.149C359.463 449.773 359.774 451.101 359.149 452.1L310.23 530.537C309.608 531.538 308.28 531.846 307.278 531.22Z" fill="#40A87B"/>
<path d="M314.559 535.756C313.559 535.131 313.249 533.803 313.873 532.805L362.792 454.368C363.417 453.37 364.745 453.06 365.745 453.684C366.744 454.309 367.055 455.636 366.43 456.635L317.511 535.072C316.89 536.071 315.559 536.377 314.559 535.756Z" fill="#40A87B"/>
<path d="M299.999 526.685C300.998 527.31 302.33 527.001 302.951 526.002L351.87 447.564C352.495 446.566 352.185 445.236 351.185 444.614C350.185 443.99 348.854 444.299 348.232 445.298L299.313 523.735C298.689 524.733 298.996 526.063 299.999 526.685Z" fill="#40A87B"/>
<path d="M224.126 328.681H160.903C158.844 328.681 157.174 327.012 157.174 324.955V279.832C157.174 277.774 158.844 276.105 160.903 276.105H224.126C226.185 276.105 227.855 277.774 227.855 279.832V324.957C227.855 327.015 226.185 328.681 224.126 328.681Z" fill="#F9E181"/>
<path d="M188.156 310.265C188.156 311.659 187.929 313 187.483 314.299C187.032 315.593 186.368 316.732 185.488 317.712C184.608 318.689 183.504 319.47 182.174 320.05C180.843 320.629 179.296 320.92 177.536 320.92C174.745 320.92 172.462 320.271 170.682 318.977C168.9 317.681 167.732 315.626 167.166 312.799L173.047 311.405C173.249 312.569 173.72 313.496 174.471 314.193C175.216 314.89 176.138 315.24 177.236 315.24C179.03 315.24 180.251 314.635 180.899 313.423C181.549 312.211 181.868 310.542 181.868 308.418V284.756H188.156V310.265Z" fill="white"/>
<path d="M213.083 292.334C212.419 291.368 211.528 290.663 210.412 290.217C209.3 289.767 208.129 289.545 206.899 289.545C206.167 289.545 205.461 289.627 204.78 289.792C204.099 289.957 203.483 290.226 202.934 290.59C202.387 290.954 201.945 291.43 201.611 292.009C201.278 292.589 201.115 293.277 201.115 294.075C201.115 295.271 201.53 296.183 202.362 296.816C203.189 297.449 204.22 297.995 205.453 298.456C206.683 298.924 208.025 299.372 209.491 299.803C210.95 300.237 212.298 300.833 213.528 301.595C214.758 302.362 215.787 303.375 216.619 304.635C217.451 305.895 217.866 307.575 217.866 309.666C217.866 311.558 217.516 313.213 216.818 314.624C216.12 316.035 215.182 317.205 214.002 318.134C212.822 319.064 211.449 319.764 209.889 320.226C208.328 320.693 206.683 320.923 204.954 320.923C202.76 320.923 200.65 320.559 198.621 319.828C196.593 319.097 194.847 317.871 193.387 316.144L198.123 311.558C198.89 312.723 199.896 313.624 201.141 314.274C202.387 314.918 203.71 315.242 205.105 315.242C205.837 315.242 206.565 315.144 207.297 314.946C208.028 314.744 208.692 314.447 209.292 314.047C209.889 313.65 210.37 313.143 210.735 312.53C211.099 311.914 211.281 311.208 211.281 310.41C211.281 309.117 210.866 308.12 210.034 307.423C209.202 306.726 208.171 306.138 206.944 305.657C205.713 305.175 204.368 304.722 202.906 304.288C201.44 303.86 200.098 303.266 198.868 302.521C197.635 301.771 196.604 300.777 195.777 299.529C194.945 298.283 194.531 296.617 194.531 294.526C194.531 292.698 194.903 291.122 195.651 289.792C196.397 288.468 197.38 287.359 198.593 286.48C199.807 285.601 201.194 284.943 202.757 284.515C204.318 284.081 205.912 283.865 207.546 283.865C209.404 283.865 211.208 284.148 212.954 284.713C214.7 285.276 216.269 286.206 217.664 287.502L213.083 292.334Z" fill="white"/>
<path d="M110.22 449.337H41.6286C39.4906 449.337 37.7562 447.604 37.7562 445.468V400.683C37.7562 398.547 39.4906 396.814 41.6286 396.814H110.22C112.358 396.814 114.092 398.547 114.092 400.683V445.468C114.092 447.606 112.358 449.337 110.22 449.337Z" fill="#088CFC"/>
<path d="M41.836 427.749V423.925L63.9357 411.977V417.819L49.1746 425.837L63.9357 433.858V439.7L41.836 427.749Z" fill="white"/>
<path d="M70.6606 444.479L67.0347 442.886L80.6611 401.674L84.2869 403.373L70.6606 444.479Z" fill="white"/>
<path d="M110.01 423.925V427.749L87.91 439.697V433.855L102.671 425.834L87.91 417.813V411.971L110.01 423.925Z" fill="white"/>
<path d="M316.503 588.398H240.565C238.637 588.398 237.077 586.839 237.077 584.913V552.646C237.077 550.719 238.637 549.16 240.565 549.16H316.503C318.431 549.16 319.992 550.719 319.992 552.646V584.913C319.992 586.839 318.431 588.398 316.503 588.398Z" fill="#F9E181"/>
<path d="M243.942 559.607H247.209V566.914H255.792V559.607H259.062V577.95H255.792V569.865H247.209V577.95H243.942V559.607Z" fill="white"/>
<path d="M266.918 562.561H261.289V559.607H275.809V562.561H270.183V577.95H266.916V562.561H266.918Z" fill="white"/>
<path d="M278.121 559.607H283.1L288.001 572.457L292.955 559.607H297.884V577.95H294.774V562.715H294.72L289.144 577.95H286.863L281.287 562.715H281.234V577.95H278.124V559.607H278.121Z" fill="white"/>
<path d="M302.053 559.607H305.321V574.997H313.127V577.95H302.053V559.607Z" fill="white"/>
<path d="M162.597 49.3257H113.6C112.166 49.3257 111 48.1639 111 46.7277V18.598C111 17.1646 112.163 16 113.6 16H162.597C164.031 16 165.197 17.1618 165.197 18.598V46.7277C165.194 48.1639 164.031 49.3257 162.597 49.3257Z" fill="#088CFC"/>
<path d="M130.244 28.4035C129.653 27.768 129.084 27.3452 128.532 27.1325C127.98 26.9197 127.423 26.8161 126.862 26.8161C126.03 26.8161 125.276 26.9645 124.604 27.2585C123.931 27.5524 123.351 27.9611 122.867 28.4847C122.382 29.0054 122.006 29.6157 121.743 30.31C121.477 31.0042 121.345 31.7545 121.345 32.5552C121.345 33.4174 121.477 34.2097 121.743 34.9376C122.006 35.6627 122.382 36.2898 122.867 36.8189C123.351 37.348 123.929 37.7623 124.604 38.0675C125.276 38.3698 126.03 38.521 126.862 38.521C127.512 38.521 128.146 38.367 128.759 38.0563C129.373 37.7455 129.942 37.25 130.471 36.5697L132.831 38.2466C132.105 39.2461 131.22 39.9712 130.174 40.4247C129.129 40.8782 128.02 41.105 126.837 41.105C125.596 41.105 124.458 40.9034 123.421 40.5031C122.385 40.1027 121.491 39.5344 120.743 38.801C119.995 38.0675 119.406 37.1884 118.983 36.1582C118.56 35.1308 118.347 33.9886 118.347 32.7344C118.347 31.4494 118.56 30.282 118.983 29.2293C119.406 28.1795 119.992 27.2837 120.743 26.5418C121.491 25.8027 122.385 25.2316 123.421 24.8285C124.458 24.4281 125.596 24.2266 126.837 24.2266C127.927 24.2266 128.936 24.4197 129.866 24.8061C130.796 25.1924 131.662 25.8447 132.466 26.7685L130.244 28.4035Z" fill="white"/>
<path d="M142.638 28.0854C142.335 27.6459 141.932 27.3268 141.425 27.1224C140.917 26.918 140.385 26.8172 139.825 26.8172C139.491 26.8172 139.169 26.8564 138.861 26.932C138.55 27.0076 138.27 27.128 138.02 27.296C137.771 27.4611 137.569 27.6767 137.418 27.9427C137.266 28.2086 137.191 28.5222 137.191 28.8833C137.191 29.4264 137.381 29.8435 137.76 30.1319C138.138 30.4202 138.606 30.6694 139.166 30.8794C139.727 31.0921 140.337 31.2965 141.004 31.4925C141.668 31.6884 142.282 31.96 142.842 32.3071C143.403 32.6543 143.871 33.1162 144.249 33.6901C144.627 34.264 144.818 35.0283 144.818 35.9801C144.818 36.8424 144.658 37.5955 144.342 38.2366C144.025 38.8777 143.596 39.4124 143.058 39.8351C142.52 40.2578 141.895 40.577 141.186 40.7869C140.475 40.9997 139.727 41.1033 138.939 41.1033C137.939 41.1033 136.981 40.9381 136.056 40.605C135.131 40.2718 134.338 39.7147 133.671 38.928L135.829 36.8424C136.176 37.3715 136.636 37.783 137.202 38.077C137.771 38.3709 138.37 38.5193 139.006 38.5193C139.34 38.5193 139.671 38.4745 140.004 38.3821C140.337 38.2925 140.64 38.1554 140.912 37.9734C141.184 37.7914 141.402 37.5619 141.57 37.2819C141.736 37.002 141.82 36.68 141.82 36.3189C141.82 35.7282 141.632 35.2746 141.254 34.9583C140.875 34.642 140.405 34.3732 139.847 34.152C139.287 33.9337 138.673 33.7237 138.009 33.5277C137.345 33.3318 136.731 33.063 136.171 32.7215C135.61 32.3799 135.142 31.9292 134.764 31.3609C134.386 30.7954 134.195 30.0339 134.195 29.0821C134.195 28.2506 134.366 27.5339 134.705 26.9292C135.047 26.3245 135.493 25.8206 136.045 25.4203C136.597 25.0199 137.23 24.7204 137.939 24.5244C138.651 24.3285 139.376 24.2305 140.119 24.2305C140.965 24.2305 141.786 24.3592 142.582 24.6168C143.375 24.8744 144.092 25.2971 144.728 25.8878L142.638 28.0854Z" fill="white"/>
<path d="M155.665 28.0854C155.362 27.6459 154.958 27.3268 154.451 27.1224C153.944 26.918 153.412 26.8172 152.851 26.8172C152.518 26.8172 152.196 26.8564 151.887 26.932C151.576 27.0076 151.296 27.128 151.047 27.296C150.797 27.4611 150.596 27.6767 150.444 27.9427C150.293 28.2086 150.217 28.5222 150.217 28.8833C150.217 29.4264 150.408 29.8435 150.786 30.1319C151.165 30.4202 151.632 30.6694 152.193 30.8794C152.753 31.0921 153.364 31.2965 154.031 31.4925C154.695 31.6884 155.309 31.96 155.869 32.3071C156.43 32.6543 156.897 33.1162 157.276 33.6901C157.654 34.264 157.845 35.0283 157.845 35.9801C157.845 36.8424 157.685 37.5955 157.368 38.2366C157.052 38.8777 156.623 39.4124 156.085 39.8351C155.547 40.2578 154.922 40.577 154.213 40.7869C153.501 40.9997 152.753 41.1033 151.966 41.1033C150.966 41.1033 150.007 40.9381 149.083 40.605C148.158 40.2718 147.365 39.7147 146.698 38.928L148.856 36.8424C149.203 37.3715 149.663 37.783 150.229 38.077C150.797 38.3709 151.397 38.5193 152.033 38.5193C152.367 38.5193 152.697 38.4745 153.031 38.3821C153.364 38.2925 153.667 38.1554 153.939 37.9734C154.21 37.7914 154.429 37.5619 154.597 37.2819C154.762 37.002 154.846 36.68 154.846 36.3189C154.846 35.7282 154.659 35.2746 154.28 34.9583C153.902 34.642 153.431 34.3732 152.874 34.152C152.313 33.9337 151.7 33.7237 151.036 33.5277C150.369 33.3318 149.758 33.063 149.197 32.7215C148.637 32.3799 148.169 31.9292 147.791 31.3609C147.413 30.7954 147.222 30.0339 147.222 29.0821C147.222 28.2506 147.393 27.5339 147.732 26.9292C148.074 26.3245 148.519 25.8206 149.071 25.4203C149.623 25.0199 150.257 24.7204 150.966 24.5244C151.677 24.3285 152.403 24.2305 153.146 24.2305C153.992 24.2305 154.813 24.3592 155.609 24.6168C156.402 24.8744 157.119 25.2971 157.755 25.8878L155.665 28.0854Z" fill="white"/>
</svg>
