<svg width="447" height="589" viewBox="0 0 447 589" fill="none" xmlns="http://www.w3.org/2000/svg">
<path d="M370.795 588.886C370.795 588.886 497.364 -40.5363 265.097 2.06935C165.614 20.3171 184.187 131.022 140.25 234.61C111.771 301.751 56.9965 246.826 36.4697 305.498C15.9428 364.17 40.0659 531.461 48.5261 588.89H370.795V588.886Z" fill="#E5F0F8"/>
<path d="M91.4957 586.937C91.4957 586.937 80.1679 541.791 51.9305 527.857C23.6932 513.923 -6.44622 532.999 1.20736 553.058C7.80774 570.355 34.9415 549.088 56.0558 557.45C77.1674 565.812 80.4968 586.937 80.4968 586.937H91.4957V586.937Z" fill="#40A87B"/>
<path d="M6.66437 541.03C6.66437 541.03 36.9709 523.776 59.4568 539.729C81.9427 555.682 89.0577 586.94 89.0577 586.94" stroke="#6ADB6A" stroke-width="4.7964" stroke-miterlimit="10"/>
<path d="M11.551 532.961L18.6023 536.033" stroke="#6ADB6A" stroke-width="4.7964" stroke-miterlimit="10"/>
<path d="M21.7354 526.377L35.7798 532.958" stroke="#6ADB6A" stroke-width="4.7964" stroke-miterlimit="10"/>
<path d="M42.8364 526.377L50.1425 535.002" stroke="#6ADB6A" stroke-width="4.7964" stroke-miterlimit="10"/>
<path d="M56.6845 532.158L59.9714 540.099" stroke="#6ADB6A" stroke-width="4.7964" stroke-miterlimit="10"/>
<path d="M15.0767 552.019L25.9005 534.125" stroke="#6ADB6A" stroke-width="4.7964" stroke-miterlimit="10"/>
<path d="M34.2013 549.453L44.1284 533.523" stroke="#6ADB6A" stroke-width="4.7964" stroke-miterlimit="10"/>
<path d="M51.0631 547.013L65.9909 545.16" stroke="#6ADB6A" stroke-width="4.7964" stroke-miterlimit="10"/>
<path d="M68.4395 556.049L76.995 558.856" stroke="#6ADB6A" stroke-width="4.7964" stroke-miterlimit="10"/>
<path d="M101.211 587.07C101.211 587.07 109.204 435.739 36.8595 455.241C-35.4847 474.744 93.2917 556.302 93.1829 587.07H101.211Z" fill="#6ADB6A"/>
<path d="M98.2871 587.07C98.2871 587.07 95.7615 508.005 44.1921 468.91" stroke="#40A87B" stroke-width="4.7964" stroke-miterlimit="10"/>
<path d="M66.8079 491.833L65.5212 464.57" stroke="#40A87B" stroke-width="4.7964" stroke-miterlimit="10"/>
<path d="M26.3488 480.537L61.205 485.077" stroke="#40A87B" stroke-width="4.7964" stroke-miterlimit="10"/>
<path d="M39.905 503.807L76.7589 508.098" stroke="#40A87B" stroke-width="4.7964" stroke-miterlimit="10"/>
<path d="M58.3319 526.865L86.7974 530.886" stroke="#40A87B" stroke-width="4.7964" stroke-miterlimit="10"/>
<path d="M89.5272 505.32L83.0038 521.16" stroke="#40A87B" stroke-width="4.7964" stroke-miterlimit="10"/>
<path d="M78.8069 479.615L73.2438 501.914" stroke="#40A87B" stroke-width="4.7964" stroke-miterlimit="10"/>
<path d="M95.6183 531.76L90.4213 542.11" stroke="#40A87B" stroke-width="4.7964" stroke-miterlimit="10"/>
<path d="M73.2438 548.242L93.6419 554.667" stroke="#40A87B" stroke-width="4.7964" stroke-miterlimit="10"/>
<path d="M358.725 587.161C358.725 587.161 369.655 543.602 396.898 530.162C424.143 516.718 453.218 535.123 445.835 554.475C439.469 571.163 413.29 550.645 392.918 558.713C372.55 566.781 369.337 587.161 369.337 587.161H358.725Z" fill="#40A87B"/>
<path d="M440.57 542.87C440.57 542.87 411.329 526.222 389.637 541.613C367.941 557.005 361.078 587.163 361.078 587.163" stroke="#6ADB6A" stroke-width="4.6275" stroke-miterlimit="10"/>
<path d="M435.855 535.084L429.051 538.047" stroke="#6ADB6A" stroke-width="4.6275" stroke-miterlimit="10"/>
<path d="M426.029 528.732L412.478 535.083" stroke="#6ADB6A" stroke-width="4.6275" stroke-miterlimit="10"/>
<path d="M405.671 528.732L398.622 537.052" stroke="#6ADB6A" stroke-width="4.6275" stroke-miterlimit="10"/>
<path d="M392.308 534.309L389.141 541.971" stroke="#6ADB6A" stroke-width="4.6275" stroke-miterlimit="10"/>
<path d="M432.452 553.469L422.01 536.209" stroke="#6ADB6A" stroke-width="4.6275" stroke-miterlimit="10"/>
<path d="M414.004 550.999L404.424 535.631" stroke="#6ADB6A" stroke-width="4.6275" stroke-miterlimit="10"/>
<path d="M397.733 548.64L383.334 546.854" stroke="#6ADB6A" stroke-width="4.6275" stroke-miterlimit="10"/>
<path d="M380.967 557.359L372.714 560.068" stroke="#6ADB6A" stroke-width="4.6275" stroke-miterlimit="10"/>
<path d="M348.638 587.289C348.638 587.289 340.926 441.286 410.723 460.102C480.521 478.918 356.275 557.606 356.381 587.289H348.638Z" fill="#6ADB6A"/>
<path d="M351.458 587.29C351.458 587.29 353.896 511.009 403.651 473.289" stroke="#40A87B" stroke-width="4.6275" stroke-miterlimit="10"/>
<path d="M381.828 495.407L383.069 469.104" stroke="#40A87B" stroke-width="4.6275" stroke-miterlimit="10"/>
<path d="M420.862 484.508L387.232 488.886" stroke="#40A87B" stroke-width="4.6275" stroke-miterlimit="10"/>
<path d="M407.784 506.959L372.227 511.099" stroke="#40A87B" stroke-width="4.6275" stroke-miterlimit="10"/>
<path d="M390.007 529.207L362.542 533.085" stroke="#40A87B" stroke-width="4.6275" stroke-miterlimit="10"/>
<path d="M359.907 508.418L366.202 523.698" stroke="#40A87B" stroke-width="4.6275" stroke-miterlimit="10"/>
<path d="M370.251 483.619L375.618 505.131" stroke="#40A87B" stroke-width="4.6275" stroke-miterlimit="10"/>
<path d="M354.031 533.928L359.045 543.915" stroke="#40A87B" stroke-width="4.6275" stroke-miterlimit="10"/>
<path d="M375.617 549.83L355.938 556.03" stroke="#40A87B" stroke-width="4.6275" stroke-miterlimit="10"/>
<path d="M408.953 31.2422H173.571C170.785 31.2422 168.525 34.937 168.525 39.4959V58.6061V228.629H413.999V58.6061V39.4959C413.999 34.937 411.739 31.2422 408.953 31.2422Z" fill="#BBDBF3"/>
<path d="M410.717 49.791H171.806V225.586H410.717V49.791Z" fill="#E5F0F8"/>
<path d="M182.086 67.7751V65.9277L192.756 60.1602V62.9803L185.631 66.8527L192.756 70.7251V73.5453L182.086 67.7751Z" fill="white"/>
<path d="M389.969 221.028V218.208L397.095 214.335L389.969 210.463V207.643L400.639 213.41V215.257L389.969 221.028Z" fill="white"/>
<path d="M239.145 64.6738H196.714V69.0286H239.145V64.6738Z" fill="white"/>
<path d="M224.517 81.5039H182.086V85.8587H224.517V81.5039Z" fill="white"/>
<path d="M233.555 93.2285H191.125V97.5833H233.555V93.2285Z" fill="white"/>
<path d="M233.555 125.498H191.125V129.853H233.555V125.498Z" fill="white"/>
<path d="M233.555 135.479H191.125V139.833H233.555V135.479Z" fill="white"/>
<path d="M333.662 104.395H205.705V108.749H333.662V104.395Z" fill="white"/>
<path d="M376.644 146.084H205.705V150.439H376.644V146.084Z" fill="white"/>
<path d="M376.644 179.473H205.705V183.827H376.644V179.473Z" fill="white"/>
<path d="M385.549 212.158H221.781V216.513H385.549V212.158Z" fill="white"/>
<path d="M242.317 190.816H205.705V195.171H242.317V190.816Z" fill="white"/>
<path d="M242.317 201.611H205.705V205.966H242.317V201.611Z" fill="white"/>
<path d="M376.644 156.74H205.705V161.095H376.644V156.74Z" fill="white"/>
<path d="M298.19 167.398H205.705V171.753H298.19V167.398Z" fill="white"/>
<path d="M244.941 114.432H205.705V118.786H244.941V114.432Z" fill="white"/>
<path d="M393.702 46.1767L404.563 35.3281" stroke="white" stroke-width="6.5648" stroke-miterlimit="10" stroke-linecap="round" stroke-linejoin="round"/>
<path d="M404.563 46.1767L393.702 35.3281" stroke="white" stroke-width="6.5648" stroke-miterlimit="10" stroke-linecap="round" stroke-linejoin="round"/>
<path d="M39.3798 301.643V330.496H75.6288V301.643H39.3798ZM73.9018 328.771L66.0811 309.965L56.8915 325.563L50.3786 317.453L41.1094 328.771V303.368H73.8991V328.771H73.9018Z" fill="#E5F0F8"/>
<path d="M57.5043 311.032C58.4408 311.032 59.1995 310.274 59.1995 309.338C59.1995 308.403 58.4408 307.645 57.5043 307.645C56.5679 307.645 55.8091 308.403 55.8091 309.338C55.8118 310.274 56.5705 311.032 57.5043 311.032Z" fill="#E5F0F8"/>
<path d="M77.8402 20.8281H46.0347C44.1406 20.8281 42.6046 22.3628 42.6046 24.2552V42.5491C42.6046 44.4416 44.1406 45.9789 46.0347 45.9789H58.819V50.1057H50.404C50.2396 50.1057 50.1069 50.2382 50.1069 50.4026V51.4575C50.1069 51.6218 50.2396 51.7543 50.404 51.7543H73.4656C73.63 51.7543 73.7627 51.6218 73.7627 51.4575V50.4026C73.7627 50.2382 73.63 50.1057 73.4656 50.1057H65.0506V45.9789H77.8349C79.729 45.9789 81.2651 44.4442 81.2651 42.5491V24.2579C81.2704 22.3628 79.7343 20.8281 77.8402 20.8281Z" fill="#E5F0F8"/>
<path d="M95.6235 116.71V114.173L110.281 106.248V110.123L100.489 115.443L110.281 120.762V124.637L95.6235 116.71Z" fill="#E5F0F8"/>
<path d="M114.74 127.807L112.337 126.75L121.375 99.4121L123.779 100.539L114.74 127.807Z" fill="#E5F0F8"/>
<path d="M140.842 114.173V116.71L126.185 124.635V120.762L135.977 115.443L126.185 110.123V106.248L140.842 114.173Z" fill="#E5F0F8"/>
<path d="M67.1778 190.153C70.0774 194.254 75.476 195.497 79.8533 193.366L90.6134 208.585L93.253 206.722L82.4956 191.502C85.9815 188.097 86.6049 182.599 83.7026 178.491C80.482 173.935 74.1682 172.832 69.6105 176.05C65.0476 179.27 63.9572 185.6 67.1778 190.153ZM81.904 179.761C84.411 183.307 83.5594 188.261 80.0072 190.766C76.4364 193.286 71.4994 192.42 68.9924 188.87C66.4695 185.303 67.3184 180.384 70.8892 177.866C74.4388 175.361 79.3837 176.193 81.904 179.761Z" fill="white"/>
<path d="M301.233 453.461C300.259 452.78 299.193 452.281 298.079 451.966C297.88 453.164 296.808 454.046 295.564 453.985C294.322 453.922 293.346 452.939 293.272 451.725C292.136 451.923 291.022 452.31 289.985 452.888C290.69 453.877 290.56 455.258 289.637 456.093C288.711 456.928 287.324 456.914 286.411 456.114C285.729 457.087 285.231 458.152 284.918 459.263C286.117 459.461 286.997 460.53 286.934 461.77C286.87 463.011 285.881 463.989 284.668 464.063C284.87 465.202 285.257 466.313 285.835 467.349C286.822 466.642 288.207 466.769 289.045 467.694C289.881 468.619 289.868 470.011 289.061 470.92C290.035 471.601 291.101 472.099 292.213 472.412C292.412 471.214 293.484 470.331 294.728 470.392C295.969 470.456 296.946 471.439 297.02 472.653C298.155 472.454 299.27 472.067 300.307 471.489C299.601 470.501 299.731 469.12 300.654 468.285C301.578 467.45 302.968 467.463 303.88 468.264C304.562 467.291 305.061 466.226 305.374 465.115C304.175 464.916 303.294 463.848 303.358 462.608C303.421 461.367 304.411 460.389 305.623 460.315C305.424 459.18 305.037 458.067 304.459 457.031C303.467 457.739 302.084 457.609 301.249 456.686C300.413 455.759 300.424 454.372 301.233 453.461ZM298.97 458.743C300.875 460.85 300.71 464.103 298.598 466.008C296.487 467.914 293.232 467.744 291.327 465.637C289.42 463.527 289.584 460.275 291.696 458.369C293.81 456.464 297.062 456.633 298.97 458.743Z" fill="white"/>
<path d="M290.571 485.615C289.175 488.43 285.761 489.583 282.941 488.188C280.121 486.792 278.972 483.378 280.365 480.566C281.763 477.748 285.178 476.592 287.998 477.989C290.818 479.383 291.966 482.797 290.571 485.615ZM296.93 485.795C297.235 484.517 297.314 483.219 297.187 481.946C295.871 482.23 294.526 481.485 294.086 480.184C293.646 478.882 294.264 477.478 295.481 476.908C294.815 475.821 293.964 474.832 292.948 474.003C292.218 475.132 290.743 475.559 289.507 474.946C288.273 474.334 287.719 472.903 288.175 471.639C286.897 471.334 285.597 471.254 284.326 471.384C284.61 472.699 283.867 474.037 282.564 474.477C281.262 474.917 279.853 474.297 279.283 473.081C278.192 473.751 277.206 474.602 276.373 475.617C277.503 476.343 277.935 477.82 277.322 479.057C276.71 480.293 275.272 480.847 274.009 480.388C273.704 481.666 273.624 482.964 273.754 484.234C275.07 483.95 276.415 484.695 276.855 485.996C277.296 487.298 276.678 488.703 275.46 489.272C276.126 490.359 276.977 491.348 277.994 492.177C278.723 491.048 280.198 490.622 281.434 491.234C282.671 491.846 283.222 493.277 282.766 494.542C284.045 494.847 285.345 494.926 286.615 494.796C286.332 493.481 287.074 492.143 288.377 491.703C289.679 491.263 291.088 491.883 291.659 493.1C292.746 492.435 293.736 491.584 294.566 490.569C293.433 489.837 293.004 488.363 293.616 487.128C294.229 485.885 295.662 485.331 296.93 485.795Z" fill="white"/>
<path d="M433.536 201.737L421.099 183.436L415.236 212.504L424.386 236.027L433.536 201.737Z" fill="#93ACBF"/>
<path d="M255.859 436.324H387.333C390.286 436.324 393.109 433.947 393.639 431.013L434.258 206.877C434.793 203.914 434.369 200.89 431.403 200.89L301.133 182.439C298.167 182.439 295.331 184.843 294.803 187.807L251.458 431.013C250.938 433.947 252.906 436.324 255.859 436.324Z" fill="#93ACBF"/>
<path d="M240.716 436.324H372.191C375.143 436.324 377.966 433.947 378.497 431.013L422.572 187.807C423.108 184.843 421.139 182.439 418.17 182.439H285.99C283.025 182.439 280.189 184.843 279.661 187.807L236.318 431.015C235.795 433.947 237.764 436.324 240.716 436.324Z" fill="#BBDBF3"/>
<path d="M288.378 191.879L248.606 414.792H372.039L387.946 326.912L338.077 195.375H359.682L394.918 288.405L412.39 191.879H288.378Z" fill="#586773"/>
<path d="M332.198 190.548C332.116 191.014 332.103 191.457 332.159 191.879C332.238 192.676 332.543 193.387 333.008 193.954C333.729 194.831 334.841 195.375 336.162 195.375H363.343C365.532 195.375 367.665 193.888 368.604 191.879C368.814 191.457 368.959 191.012 369.044 190.548C369.283 189.217 368.957 188.017 368.235 187.139C367.516 186.262 366.413 185.719 365.081 185.719H337.897C335.241 185.721 332.676 187.897 332.198 190.548Z" fill="#BBDBF3"/>
<path d="M338.077 195.379L387.946 326.916L394.918 288.409L359.682 195.379H338.077Z" fill="#93ACBF"/>
<path d="M288.378 191.879L288.224 192.743L372.238 413.682L385.792 338.815L330.06 191.879H288.378Z" fill="#93ACBF"/>
<path d="M269.765 296.209L267.006 311.672L306.359 414.796H315.005L269.765 296.209Z" fill="#93ACBF"/>
<path d="M266.155 316.441L260.78 346.57L286.842 414.794H303.693L266.155 316.441Z" fill="#93ACBF"/>
<path d="M292.235 431.688H322.34C325.784 431.688 329.105 428.889 329.721 425.468C330.336 422.046 328.025 419.244 324.582 419.244H294.469C291.026 419.244 287.707 422.046 287.091 425.468C286.476 428.887 288.792 431.688 292.235 431.688Z" fill="#BBDBF3"/>
<path d="M198.692 191.915C197.193 195.771 194.765 204.656 193.264 209.432C191.086 216.358 179.506 222.085 168.295 212.745C159.196 205.162 167.828 189.906 170.709 184.347C171.163 183.473 170.34 182.495 169.393 182.776C166.69 183.579 161.673 186.009 157.214 191.761C149.046 202.299 148.534 210.868 150.314 217.214C150.69 218.558 150.892 219.976 150.972 221.378C151.285 226.859 149.765 232.29 146.921 236.987L79.6275 348.12C69.4033 363.186 56.3246 357.842 46.9971 370.522C40.0757 379.926 43.0098 395.22 44.6095 401.594C44.8535 402.564 46.1959 402.657 46.5567 401.724C48.0556 397.868 49.2573 391.403 50.7615 386.624C52.9395 379.698 66.3127 374.641 77.5212 383.981C86.6206 391.565 79.0068 404.756 76.1284 410.314C75.6747 411.189 76.4971 412.167 77.4442 411.886C80.1475 411.083 84.5938 408.838 89.0533 403.084C97.2215 392.545 96.7148 382.765 94.9347 376.42C94.1813 373.729 94.3802 370.676 94.8896 367.983C95.574 364.365 96.988 360.922 98.8955 357.771L168.308 243.149C169.775 240.727 171.778 238.656 174.187 237.164C182.485 232.025 191.404 233.883 198.27 224.548C205.191 215.141 202.239 198.419 200.639 192.045C200.398 191.074 199.055 190.982 198.692 191.915Z" fill="#93ACBF"/>
<path d="M163.17 236.802L88.2282 360.555C87.1564 362.325 84.8298 362.895 83.0577 361.824C81.2856 360.753 80.7152 358.429 81.7843 356.658L156.726 232.906C157.797 231.135 160.124 230.565 161.896 231.636C163.668 232.71 164.241 235.034 163.17 236.802Z" fill="#586773"/>
<path d="M252.261 579.156H114.47C107.286 579.156 101.463 573.338 101.463 566.161V300.224C101.463 293.046 107.286 287.229 114.47 287.229H252.261C259.445 287.229 265.268 293.046 265.268 300.224V566.158C265.27 573.338 259.445 579.156 252.261 579.156Z" fill="#BBDBF3"/>
<path d="M254.502 336.758C254.502 349.685 244.013 360.165 231.075 360.165C224.018 360.165 217.691 357.048 213.404 352.11C209.809 348.007 207.647 342.634 207.647 336.758C207.647 323.832 218.136 313.352 231.075 313.352C244.013 313.352 254.502 323.832 254.502 336.758Z" fill="white"/>
<path d="M231.075 335.877C220.983 335.307 215.889 344.425 213.404 352.109C217.691 357.047 224.018 360.164 231.075 360.164C238.131 360.164 244.458 357.047 248.745 352.109C246.26 344.422 241.166 335.307 231.075 335.877Z" fill="#BBDBF3"/>
<path d="M239.604 328.473C239.604 335.398 235.786 342.65 231.077 342.65C226.368 342.65 222.551 335.398 222.551 328.473C222.551 321.547 226.368 317.568 231.077 317.568C235.786 317.568 239.604 321.547 239.604 328.473Z" fill="#BBDBF3"/>
<path d="M172.735 313.352H113.533V319.673H172.735V313.352Z" fill="white"/>
<path d="M188.398 326.949H113.533V333.271H188.398V326.949Z" fill="white"/>
<path d="M157.648 382.195H113.533V387.364H157.648V382.195Z" fill="white"/>
<path d="M157.648 497.193H113.533V502.362H157.648V497.193Z" fill="white"/>
<path d="M187.249 507.744H113.533V512.913H187.249V507.744Z" fill="white"/>
<path d="M169.573 391.959H113.533V397.127H169.573V391.959Z" fill="white"/>
<path d="M174.112 429.357H117.043C115.112 429.357 113.533 427.78 113.533 425.85V409.891C113.533 407.962 115.112 406.385 117.043 406.385H174.112C176.043 406.385 177.622 407.962 177.622 409.891V425.85C177.622 427.78 176.04 429.357 174.112 429.357Z" fill="white"/>
<path d="M192.621 429.357H249.69C251.621 429.357 253.2 427.78 253.2 425.85V409.891C253.2 407.962 251.621 406.385 249.69 406.385H192.621C190.69 406.385 189.111 407.962 189.111 409.891V425.85C189.111 427.78 190.69 429.357 192.621 429.357Z" fill="white"/>
<path d="M247.488 487.716H119.242C115.743 487.716 112.881 484.856 112.881 481.36V444.327C112.881 440.831 115.743 437.971 119.242 437.971H247.488C250.987 437.971 253.85 440.831 253.85 444.327V481.362C253.85 484.856 250.987 487.716 247.488 487.716Z" fill="white"/>
<path d="M170.22 453.477H120.646V457.784H170.22V453.477Z" fill="#E5F0F8"/>
<path d="M196.301 462.736H120.646V472.212H196.301V462.736Z" fill="#E5F0F8"/>
<path d="M251.587 543.276H115.146C113.902 543.276 112.883 542.258 112.883 541.015V520.987C112.883 519.744 113.902 518.727 115.146 518.727H251.587C252.831 518.727 253.85 519.744 253.85 520.987V541.015C253.85 542.258 252.831 543.276 251.587 543.276Z" fill="#E5F0F8"/>
<path d="M180.996 528.633H119.783V533.369H180.996V528.633Z" fill="white"/>
<path d="M229.816 533.371H246.948V528.635H229.816V533.371Z" fill="white"/>
<path d="M251.587 572.422H115.146C113.902 572.422 112.883 571.404 112.883 570.161V550.134C112.883 548.891 113.902 547.873 115.146 547.873H251.587C252.831 547.873 253.85 548.891 253.85 550.134V570.161C253.85 571.404 252.831 572.422 251.587 572.422Z" fill="#E5F0F8"/>
<path d="M180.996 557.779H119.783V562.516H180.996V557.779Z" fill="white"/>
<path d="M229.816 562.512H246.948V557.775H229.816V562.512Z" fill="white"/>
<path d="M383.943 403.573L378.774 400.353L431.63 315.603L437.626 311.742L436.8 318.823L383.943 403.573Z" fill="#93ACBF"/>
<path d="M322.513 515.005L305.722 504.545C303.426 503.116 302.726 500.094 304.156 497.8L358.695 410.353L383.804 425.993L329.261 513.442C327.831 515.736 324.81 516.435 322.513 515.005Z" fill="#6ADB6A"/>
<path d="M391.867 413.059L366.758 397.42L370.33 391.692C370.615 391.234 371.22 391.094 371.678 391.379L395.123 405.985C395.58 406.27 395.721 406.874 395.436 407.331L391.867 413.059Z" fill="#6ADB6A"/>
<path d="M384.772 417.859C387.287 414.191 391.867 413.061 391.867 413.061L379.312 405.241L366.758 397.421C366.758 397.421 367.758 402.028 365.57 405.901C363.382 409.773 358.69 410.355 358.69 410.355L371.244 418.175L383.798 425.995C383.8 425.996 382.257 421.527 384.772 417.859Z" fill="#40A87B"/>
<path d="M318.377 502.943C317.431 502.352 317.137 501.094 317.728 500.149L364.043 425.887C364.634 424.942 365.892 424.649 366.838 425.24C367.785 425.831 368.079 427.088 367.487 428.034L321.173 502.295C320.583 503.244 319.326 503.535 318.377 502.943Z" fill="#40A87B"/>
<path d="M325.271 507.236C324.324 506.645 324.03 505.387 324.622 504.442L370.936 430.18C371.528 429.235 372.786 428.942 373.732 429.533C374.678 430.124 374.972 431.381 374.381 432.327L328.066 506.588C327.477 507.534 326.217 507.824 325.271 507.236Z" fill="#40A87B"/>
<path d="M311.486 498.648C312.432 499.239 313.692 498.946 314.281 498.001L360.596 423.739C361.187 422.794 360.894 421.534 359.947 420.945C359.001 420.354 357.74 420.647 357.152 421.593L310.837 495.854C310.245 496.8 310.536 498.059 311.486 498.648Z" fill="#40A87B"/>
<path d="M431.63 315.602L437.626 311.741L430.616 321.34L431.63 315.602Z" fill="#586773"/>
<path d="M436.8 318.821L437.626 311.74L432.091 322.259L436.8 318.821Z" fill="#586773"/>
<path d="M239.651 311.185H179.794C177.844 311.185 176.263 309.605 176.263 307.657V264.936C176.263 262.988 177.844 261.408 179.794 261.408H239.651C241.601 261.408 243.182 262.988 243.182 264.936V307.66C243.182 309.608 241.601 311.185 239.651 311.185Z" fill="#F9E181"/>
<path d="M205.596 293.751C205.596 295.071 205.381 296.341 204.96 297.57C204.532 298.795 203.904 299.874 203.071 300.801C202.238 301.726 201.192 302.466 199.932 303.015C198.672 303.563 197.208 303.839 195.542 303.839C192.9 303.839 190.737 303.224 189.053 301.999C187.366 300.772 186.259 298.827 185.724 296.15L191.292 294.83C191.483 295.932 191.929 296.81 192.64 297.47C193.345 298.13 194.218 298.461 195.258 298.461C196.956 298.461 198.112 297.889 198.725 296.741C199.341 295.593 199.643 294.013 199.643 292.002V269.6H205.596V293.751Z" fill="white"/>
<path d="M229.196 276.774C228.568 275.859 227.724 275.191 226.668 274.77C225.615 274.343 224.506 274.134 223.341 274.134C222.649 274.134 221.98 274.211 221.336 274.367C220.691 274.523 220.108 274.778 219.588 275.122C219.07 275.467 218.651 275.918 218.335 276.466C218.02 277.015 217.866 277.667 217.866 278.422C217.866 279.554 218.258 280.418 219.046 281.017C219.829 281.616 220.805 282.133 221.973 282.57C223.137 283.013 224.408 283.437 225.795 283.845C227.177 284.256 228.454 284.821 229.618 285.542C230.783 286.268 231.756 287.227 232.544 288.42C233.332 289.613 233.725 291.203 233.725 293.183C233.725 294.975 233.393 296.541 232.733 297.877C232.072 299.213 231.183 300.321 230.066 301.201C228.95 302.081 227.65 302.743 226.172 303.181C224.694 303.623 223.137 303.841 221.5 303.841C219.423 303.841 217.425 303.496 215.505 302.804C213.584 302.113 211.931 300.952 210.549 299.316L215.033 294.975C215.759 296.077 216.712 296.931 217.89 297.546C219.07 298.155 220.322 298.463 221.644 298.463C222.336 298.463 223.026 298.37 223.718 298.182C224.411 297.991 225.039 297.71 225.607 297.331C226.172 296.955 226.628 296.475 226.973 295.894C227.318 295.311 227.491 294.643 227.491 293.888C227.491 292.663 227.098 291.72 226.31 291.06C225.522 290.4 224.546 289.843 223.384 289.387C222.219 288.932 220.946 288.502 219.561 288.091C218.174 287.686 216.903 287.124 215.738 286.419C214.571 285.709 213.595 284.768 212.812 283.585C212.024 282.406 211.632 280.829 211.632 278.849C211.632 277.118 211.984 275.626 212.693 274.367C213.398 273.113 214.33 272.064 215.478 271.231C216.627 270.399 217.94 269.776 219.42 269.371C220.898 268.96 222.408 268.756 223.954 268.756C225.713 268.756 227.422 269.024 229.074 269.559C230.727 270.092 232.213 270.972 233.534 272.199L229.196 276.774Z" fill="white"/>
<path d="M131.809 425.418H66.8689C64.8448 425.418 63.2026 423.777 63.2026 421.755V379.354C63.2026 377.332 64.8448 375.691 66.8689 375.691H131.809C133.833 375.691 135.475 377.332 135.475 379.354V421.755C135.475 423.78 133.833 425.418 131.809 425.418Z" fill="#088CFC"/>
<path d="M67.0652 404.978V401.357L87.9886 390.045V395.577L74.0132 403.168L87.9886 410.761V416.293L67.0652 404.978Z" fill="white"/>
<path d="M94.3554 420.817L90.9226 419.309L103.824 380.291L107.256 381.9L94.3554 420.817Z" fill="white"/>
<path d="M131.61 401.357V404.977L110.687 416.29V410.758L124.662 403.164L110.687 395.571V390.039L131.61 401.357Z" fill="white"/>
<path d="M327.112 557.077H255.216C253.391 557.077 251.913 555.601 251.913 553.777V523.228C251.913 521.404 253.391 519.928 255.216 519.928H327.112C328.937 519.928 330.414 521.404 330.414 523.228V553.777C330.414 555.601 328.937 557.077 327.112 557.077Z" fill="#F9E181"/>
<path d="M258.412 529.818H261.506V536.736H269.632V529.818H272.727V547.185H269.632V539.53H261.506V547.185H258.412V529.818Z" fill="white"/>
<path d="M280.166 532.615H274.837V529.818H288.584V532.615H283.257V547.185H280.164V532.615H280.166Z" fill="white"/>
<path d="M290.772 529.818H295.487L300.127 541.984L304.817 529.818H309.483V547.185H306.539V532.76H306.488L301.209 547.185H299.049L293.77 532.76H293.72V547.185H290.775V529.818H290.772Z" fill="white"/>
<path d="M313.431 529.818H316.524V544.388H323.915V547.185H313.431V529.818Z" fill="white"/>
<path d="M181.398 46.7002H135.009C133.651 46.7002 132.548 45.6002 132.548 44.2405V17.6081C132.548 16.2511 133.649 15.1484 135.009 15.1484H181.398C182.756 15.1484 183.86 16.2484 183.86 17.6081V44.2405C183.857 45.6002 182.756 46.7002 181.398 46.7002Z" fill="#088CFC"/>
<path d="M150.768 26.8901C150.208 26.2884 149.669 25.8882 149.147 25.6868C148.624 25.4853 148.096 25.3873 147.566 25.3873C146.778 25.3873 146.064 25.5277 145.427 25.8061C144.791 26.0844 144.241 26.4713 143.783 26.967C143.324 27.46 142.968 28.0378 142.719 28.6951C142.467 29.3524 142.342 30.0628 142.342 30.8208C142.342 31.6372 142.467 32.3873 142.719 33.0764C142.968 33.7629 143.324 34.3566 143.783 34.8576C144.241 35.3585 144.788 35.7508 145.427 36.0397C146.064 36.3259 146.778 36.4691 147.566 36.4691C148.181 36.4691 148.781 36.3233 149.362 36.0291C149.943 35.7349 150.481 35.2657 150.982 34.6217L153.216 36.2093C152.529 37.1556 151.691 37.842 150.701 38.2714C149.712 38.7008 148.661 38.9155 147.542 38.9155C146.366 38.9155 145.289 38.7247 144.308 38.3456C143.326 37.9666 142.48 37.4286 141.772 36.7341C141.063 36.0397 140.506 35.2074 140.106 34.232C139.705 33.2593 139.503 32.1779 139.503 30.9905C139.503 29.7739 139.705 28.6686 140.106 27.672C140.506 26.6781 141.061 25.8299 141.772 25.1275C142.48 24.4278 143.326 23.8871 144.308 23.5054C145.289 23.1264 146.366 22.9355 147.542 22.9355C148.574 22.9355 149.529 23.1184 150.409 23.4842C151.29 23.85 152.11 24.4675 152.871 25.3422L150.768 26.8901Z" fill="white"/>
<path d="M162.501 26.5892C162.215 26.1731 161.833 25.8709 161.353 25.6774C160.872 25.4839 160.368 25.3885 159.838 25.3885C159.522 25.3885 159.217 25.4256 158.925 25.4972C158.631 25.5688 158.365 25.6827 158.129 25.8418C157.893 25.9981 157.702 26.2022 157.559 26.454C157.416 26.7058 157.344 27.0027 157.344 27.3446C157.344 27.8588 157.524 28.2537 157.883 28.5267C158.241 28.7997 158.684 29.0356 159.214 29.2344C159.745 29.4359 160.323 29.6293 160.955 29.8149C161.583 30.0004 162.164 30.2575 162.695 30.5862C163.226 30.9148 163.669 31.3522 164.027 31.8955C164.385 32.4389 164.565 33.1625 164.565 34.0637C164.565 34.88 164.414 35.593 164.114 36.2C163.814 36.8069 163.409 37.3132 162.899 37.7134C162.39 38.1136 161.798 38.4158 161.127 38.6146C160.453 38.816 159.745 38.9141 158.999 38.9141C158.052 38.9141 157.145 38.7577 156.27 38.4423C155.394 38.1269 154.643 37.5994 154.012 36.8547L156.055 34.88C156.384 35.381 156.819 35.7706 157.355 36.0489C157.893 36.3272 158.461 36.4677 159.063 36.4677C159.379 36.4677 159.692 36.4253 160.008 36.3378C160.323 36.253 160.61 36.1231 160.867 35.9508C161.124 35.7785 161.331 35.5612 161.491 35.2961C161.647 35.0311 161.727 34.7263 161.727 34.3844C161.727 33.8251 161.549 33.3957 161.191 33.0962C160.833 32.7967 160.387 32.5423 159.859 32.3329C159.328 32.1261 158.747 31.9273 158.119 31.7418C157.49 31.5563 156.909 31.3018 156.378 30.9785C155.848 30.6551 155.405 30.2284 155.047 29.6903C154.689 29.1549 154.508 28.434 154.508 27.5328C154.508 26.7456 154.67 26.0671 154.991 25.4945C155.315 24.922 155.736 24.4449 156.259 24.0659C156.782 23.6869 157.381 23.4033 158.052 23.2178C158.726 23.0322 159.413 22.9395 160.116 22.9395C160.918 22.9395 161.695 23.0614 162.448 23.3052C163.199 23.5491 163.878 23.9493 164.48 24.5086L162.501 26.5892Z" fill="white"/>
<path d="M174.835 26.5892C174.548 26.1731 174.166 25.8709 173.686 25.6774C173.206 25.4839 172.702 25.3885 172.171 25.3885C171.855 25.3885 171.55 25.4256 171.258 25.4972C170.964 25.5688 170.699 25.6827 170.463 25.8418C170.227 25.9981 170.035 26.2022 169.892 26.454C169.749 26.7058 169.677 27.0027 169.677 27.3446C169.677 27.8588 169.858 28.2537 170.216 28.5267C170.574 28.7997 171.017 29.0356 171.548 29.2344C172.078 29.4359 172.657 29.6293 173.288 29.8149C173.917 30.0004 174.498 30.2575 175.028 30.5862C175.559 30.9148 176.002 31.3522 176.36 31.8955C176.718 32.4389 176.899 33.1625 176.899 34.0637C176.899 34.88 176.747 35.593 176.448 36.2C176.148 36.8069 175.742 37.3132 175.233 37.7134C174.723 38.1136 174.132 38.4158 173.46 38.6146C172.787 38.816 172.078 38.9141 171.333 38.9141C170.386 38.9141 169.478 38.7577 168.603 38.4423C167.727 38.1269 166.977 37.5994 166.345 36.8547L168.388 34.88C168.717 35.381 169.152 35.7706 169.688 36.0489C170.227 36.3272 170.794 36.4677 171.396 36.4677C171.712 36.4677 172.025 36.4253 172.341 36.3378C172.657 36.253 172.943 36.1231 173.2 35.9508C173.458 35.7785 173.665 35.5612 173.824 35.2961C173.98 35.0311 174.06 34.7263 174.06 34.3844C174.06 33.8251 173.882 33.3957 173.524 33.0962C173.166 32.7967 172.72 32.5423 172.192 32.3329C171.662 32.1261 171.081 31.9273 170.452 31.7418C169.821 31.5563 169.242 31.3018 168.712 30.9785C168.181 30.6551 167.738 30.2284 167.38 29.6903C167.022 29.1549 166.841 28.434 166.841 27.5328C166.841 26.7456 167.003 26.0671 167.324 25.4945C167.648 24.922 168.07 24.4449 168.592 24.0659C169.115 23.6869 169.714 23.4033 170.386 23.2178C171.06 23.0322 171.747 22.9395 172.45 22.9395C173.251 22.9395 174.028 23.0614 174.781 23.3052C175.532 23.5491 176.211 23.9493 176.814 24.5086L174.835 26.5892Z" fill="white"/>
</svg>
