<svg width="64" height="85" viewBox="0 0 64 85" fill="none" xmlns="http://www.w3.org/2000/svg">
<path d="M31.76 0C14.2301 0 0 14.2301 0 31.76V84.5902C0 84.5902 11.9272 77.1658 15.88 77.1658C19.8328 77.1658 27.8072 84.5902 31.76 84.5902C35.7128 84.5902 43.6872 77.1658 47.64 77.1658C51.5928 77.1658 63.52 84.5902 63.52 84.5902V31.76C63.52 14.2301 49.3242 0 31.76 0Z" fill="#E62E2E"/>
<path d="M60.7703 34.8185C60.7703 27.7722 55.7863 22.0664 49.668 22.0664C43.5497 22.0664 38.5657 27.7722 38.5657 34.8185C38.5657 41.8649 43.5497 47.5707 49.668 47.5707C55.8206 47.5707 60.7703 41.8649 60.7703 34.8185Z" fill="white"/>
<path d="M58.9828 34.8178C58.9828 30.6243 56.0268 27.2559 52.4177 27.2559C48.7743 27.2559 45.8182 30.6587 45.8182 34.8178C45.8182 38.9768 48.7743 42.3797 52.4177 42.3797C56.0268 42.3797 58.9828 39.0112 58.9828 34.8178Z" fill="#262626"/>
<path d="M33.8224 34.8185C33.8224 27.7722 28.8384 22.0664 22.7201 22.0664C16.6019 22.0664 11.6179 27.7722 11.6179 34.8185C11.6179 41.8649 16.6019 47.5707 22.7201 47.5707C28.8384 47.5707 33.8224 41.8649 33.8224 34.8185Z" fill="white"/>
<path d="M32.0006 34.8178C32.0006 30.6243 29.0445 27.2559 25.4354 27.2559C21.8264 27.2559 18.836 30.6587 18.836 34.8178C18.836 38.9768 21.792 42.3797 25.4354 42.3797C29.0789 42.3797 32.0006 39.0112 32.0006 34.8178Z" fill="#262626"/>
</svg>
