<svg width="264" height="103" viewBox="0 0 264 103" fill="none" xmlns="http://www.w3.org/2000/svg">
<path d="M259.541 102.812H106.266C103.805 102.812 101.807 100.807 101.807 98.3364V5.47565C101.807 3.00509 103.805 1 106.266 1H259.536C261.998 1 263.996 3.00509 263.996 5.47565V98.3364C264 100.807 262.002 102.812 259.541 102.812ZM110.725 93.8607H255.077V9.95129H110.725V93.8607Z" fill="white"/>
<path d="M182.906 71.7238C181.916 71.7238 180.93 71.3971 180.114 70.7392L103.475 8.96629C101.553 7.41772 101.25 4.60253 102.788 2.67353C104.331 0.744527 107.136 0.440183 109.058 1.98428L182.901 61.5104L256.745 1.98428C258.667 0.435707 261.472 0.744527 263.015 2.67353C264.558 4.60253 264.25 7.41772 262.328 8.96629L185.697 70.7392C184.881 71.3971 183.891 71.7238 182.906 71.7238Z" fill="white"/>
<path d="M106.271 102.811C105.004 102.811 103.747 102.274 102.864 101.227C101.272 99.338 101.508 96.5139 103.39 94.9206L159.491 47.2818C161.372 45.684 164.186 45.9212 165.774 47.8099C167.366 49.6986 167.129 52.5227 165.247 54.1161L109.147 101.755C108.308 102.462 107.287 102.811 106.271 102.811Z" fill="white"/>
<path d="M259.536 102.811C258.52 102.811 257.494 102.462 256.66 101.751L200.555 54.1162C198.673 52.5184 198.441 49.6942 200.029 47.81C201.621 45.9213 204.435 45.6885 206.312 47.2819L262.422 94.9207C264.303 96.5185 264.535 99.3426 262.948 101.227C262.06 102.274 260.803 102.811 259.536 102.811Z" fill="white"/>
<path d="M90.3024 10.3986H55.7573C53.2959 10.3986 51.2982 8.39347 51.2982 5.92291C51.2982 3.45236 53.2959 1.44727 55.7573 1.44727H90.3024C92.7639 1.44727 94.7616 3.45236 94.7616 5.92291C94.7616 8.39347 92.7639 10.3986 90.3024 10.3986Z" fill="white"/>
<path d="M90.3024 28.9181H81.5669C79.1055 28.9181 77.1078 26.913 77.1078 24.4424C77.1078 21.9719 79.1055 19.9668 81.5669 19.9668H90.3024C92.7639 19.9668 94.7616 21.9719 94.7616 24.4424C94.7616 26.913 92.7639 28.9181 90.3024 28.9181Z" fill="white"/>
<path d="M46.6205 28.9181H4.45916C1.9977 28.9181 0 26.913 0 24.4424C0 21.9719 1.9977 19.9668 4.45916 19.9668H46.6205C49.082 19.9668 51.0797 21.9719 51.0797 24.4424C51.0797 26.913 49.0864 28.9181 46.6205 28.9181Z" fill="white"/>
<path d="M90.3024 47.4396H55.7573C53.2959 47.4396 51.2982 45.4345 51.2982 42.9639C51.2982 40.4934 53.2959 38.4883 55.7573 38.4883H90.3024C92.7639 38.4883 94.7616 40.4934 94.7616 42.9639C94.7616 45.4345 92.7639 47.4396 90.3024 47.4396Z" fill="white"/>
<path d="M34.3132 47.4396H17.0384C14.577 47.4396 12.5793 45.4345 12.5793 42.9639C12.5793 40.4934 14.577 38.4883 17.0384 38.4883H34.3132C36.7747 38.4883 38.7724 40.4934 38.7724 42.9639C38.7724 45.4345 36.7747 47.4396 34.3132 47.4396Z" fill="white"/>
<path d="M90.3024 65.9591H47.0218C44.5604 65.9591 42.5627 63.954 42.5627 61.4835C42.5627 59.0129 44.5604 57.0078 47.0218 57.0078H90.3024C92.7639 57.0078 94.7616 59.0129 94.7616 61.4835C94.7616 63.954 92.7639 65.9591 90.3024 65.9591Z" fill="white"/>
<path d="M90.3024 84.4806H79.5826C77.1211 84.4806 75.1234 82.4755 75.1234 80.0049C75.1234 77.5344 77.1211 75.5293 79.5826 75.5293H90.3024C92.7638 75.5293 94.7615 77.5344 94.7615 80.0049C94.7615 82.48 92.7638 84.4806 90.3024 84.4806Z" fill="white"/>
<path d="M66.4771 84.4806H29.5464C27.0849 84.4806 25.0872 82.4755 25.0872 80.0049C25.0872 77.5344 27.0849 75.5293 29.5464 75.5293H66.4727C68.9341 75.5293 70.9318 77.5344 70.9318 80.0049C70.9363 82.48 68.9386 84.4806 66.4771 84.4806Z" fill="white"/>
<path d="M90.3024 103H66.4771C64.0156 103 62.0179 100.995 62.0179 98.5245C62.0179 96.0539 64.0156 94.0488 66.4771 94.0488H90.3024C92.7638 94.0488 94.7615 96.0539 94.7615 98.5245C94.7615 101 92.7638 103 90.3024 103Z" fill="white"/>
</svg>
