<svg width="149" height="149" viewBox="0 0 149 149" fill="none" xmlns="http://www.w3.org/2000/svg">
<path d="M2.05792 72.7209C12.0649 33.826 28.9842 0 74.7788 0C114.943 0 151.37 35.3796 148.721 78.981C146.286 119.07 111.473 153.026 68.8587 148.255C28.9464 143.782 -9.40206 117.256 2.05792 72.7209Z" fill="white"/>
<path d="M105.648 68.248C105.694 75.7218 103.067 82.5837 98.6758 87.9347C94.8911 92.5429 92.7582 98.2867 92.7582 104.25V112.847C92.7582 115.277 91.8693 117.515 90.4038 119.243C88.5806 121.393 85.8636 122.765 82.8393 122.765H66.9651C61.5083 122.765 57.0462 118.301 57.0462 112.847V104.265C57.0462 98.3119 54.946 92.5655 51.1588 87.97C46.7848 82.6592 44.1559 75.8528 44.1559 68.4318C44.1559 53.7537 54.4424 41.4753 68.2015 38.4183C68.5918 38.3302 68.9871 38.2521 69.3825 38.1816C69.594 38.1438 69.8055 38.1086 70.017 38.0733C71.6085 37.8165 73.2402 37.6855 74.9022 37.6855C91.8617 37.6855 105.55 51.291 105.648 68.248Z" fill="#FCC568"/>
<path d="M82.7814 122.768L82.7461 123.032L82.3105 126.376L82.1947 127.257V127.265L82.0788 128.151L81.6432 131.493L81.5274 132.374L81.5248 132.382L81.409 133.271L81.3461 133.759C81.1245 135.454 79.1855 136.751 76.8688 136.751H71.6437C71.0923 136.751 70.5634 136.678 70.0724 136.544H70.0699C69.6292 136.423 69.2188 136.252 68.8536 136.038L68.8259 136.02C68.5288 135.847 68.2644 135.643 68.0353 135.419C67.5669 134.958 67.2572 134.401 67.169 133.792L66.9852 132.495L66.8668 131.679V131.677L66.8643 131.659V131.657L66.7485 130.858L66.3053 127.759L66.1895 126.945L66.1869 126.928L66.0711 126.124L65.5901 122.768H82.7814Z" fill="#ED7D2B"/>
<path d="M80.709 122.768H80.6737H77.7577C72.9935 124.145 68.2669 125.507 66.0787 126.124L66.1945 126.928L66.197 126.945L66.3129 127.759C68.0856 127.267 72.3438 126.049 82.7487 123.032L82.7839 122.768H80.709Z" fill="#FCC568"/>
<path d="M66.8694 131.657L66.8719 131.678V131.68L66.9902 132.496C69.04 131.919 73.2704 130.706 82.0813 128.152L82.1972 127.266V127.258L82.313 126.377C76.7454 127.989 70.0069 129.935 66.756 130.859L66.8694 131.657Z" fill="#FCC568"/>
<path d="M68.831 136.018L68.8587 136.035C69.2238 136.249 69.6342 136.421 70.0749 136.542H70.0774C72.4948 135.849 76.0806 134.814 81.4165 133.268L81.5324 132.379L81.5349 132.372L81.6507 131.49C76.8864 132.87 71.4196 134.449 68.0428 135.413C68.2669 135.64 68.5338 135.844 68.831 136.018Z" fill="#FCC568"/>
<path d="M63.4193 83.3226L62.0488 83.5547L68.7116 122.893L70.0821 122.661L63.4193 83.3226Z" fill="#ED7D2B"/>
<path d="M86.1862 83.9116L79.1052 122.631L80.4726 122.881L87.5536 84.1617L86.1862 83.9116Z" fill="#ED7D2B"/>
<path d="M78.5711 90.564C78.3923 90.564 78.1934 90.5413 77.9718 90.4909C77.5991 90.4053 77.3649 90.1485 77.2893 89.7456C77.1307 88.8768 77.8131 87.2829 78.77 85.9306C78.2689 85.0568 77.6041 84.3366 76.9041 84.1251C75.8716 83.8129 74.2877 84.7647 73.1848 85.9835C73.3862 86.2706 73.5676 86.5677 73.7262 86.8674C74.2903 87.9351 74.6982 89.2999 74.1417 89.9294C73.9352 90.1636 73.5147 90.3751 72.6812 90.0603C71.6387 89.6675 71.266 88.7837 71.6538 87.6379C71.8452 87.0764 72.1952 86.4922 72.6409 85.9508C71.7872 84.8352 70.644 83.9892 69.5184 84.1302C68.9166 84.2057 68.4029 84.4172 67.9723 84.7144C68.6925 86.054 68.8587 87.7537 68.3575 88.6653C68.0176 89.2873 67.4233 89.4837 66.6855 89.2193C66.1542 89.0304 65.8772 88.3002 65.9804 87.3584C66.0837 86.394 66.5672 85.3389 67.4233 84.6061C67.1992 84.2586 66.9323 83.9489 66.6226 83.7096C64.6836 82.2038 63.0821 83.8204 63.0141 83.8884L62.7119 83.5963C62.7321 83.5762 64.6484 81.6448 66.8819 83.3772C67.2194 83.6391 67.514 83.974 67.7582 84.3518C68.2342 84.0294 68.8033 83.7978 69.4655 83.7147C70.7271 83.556 71.9862 84.4449 72.9204 85.631C74.1215 84.3266 75.8313 83.3621 77.0249 83.7222C77.7779 83.9514 78.4905 84.6766 79.0344 85.573C79.5405 84.9158 80.1046 84.3442 80.6536 83.9816C81.5324 83.3999 82.104 83.5334 82.4288 83.7474C82.7637 83.9665 83.0458 84.2611 83.2825 84.6011C83.5469 84.3921 83.8239 84.2133 84.0983 84.0748C85.1157 83.5686 86.0499 83.6064 86.7298 84.1805L86.4578 84.5028C85.725 83.8834 84.7833 84.2057 84.2847 84.4525C84.0127 84.5885 83.7483 84.7622 83.5015 84.9586C84.1789 86.1799 84.3099 87.7714 83.9221 88.5444C83.6778 89.0304 83.2422 89.1991 82.731 89.0128C81.8119 88.6754 81.5878 88.0433 81.5601 87.5699C81.5097 86.6684 82.1367 85.6385 82.9526 84.8831C82.7411 84.5683 82.4893 84.2964 82.1947 84.1025C81.7968 83.8406 81.2629 84.0848 80.8827 84.3367C80.3363 84.6993 79.7621 85.2961 79.256 85.9709C79.888 87.1721 80.2154 88.5721 79.9762 89.4736C79.8603 89.9093 79.528 90.564 78.5711 90.564ZM78.9891 86.3436C78.1556 87.5573 77.5688 88.9322 77.7048 89.67C77.7476 89.9042 77.8635 90.0352 78.0649 90.0805C78.8884 90.2668 79.397 90.0276 79.5708 89.3654C79.7722 88.5998 79.5078 87.4037 78.9891 86.3436ZM72.9028 86.3134C72.5175 86.7943 72.2153 87.3005 72.0542 87.7764C71.7344 88.7182 71.9962 89.3528 72.8323 89.67C73.1697 89.7959 73.6154 89.8967 73.8294 89.6549C74.1593 89.2797 73.9654 88.2146 73.3585 87.0663C73.22 86.8095 73.069 86.5551 72.9028 86.3134ZM67.6399 84.9788C66.9046 85.6335 66.4916 86.5602 66.401 87.4037C66.3229 88.1214 66.4992 88.7056 66.829 88.8214C67.3629 89.0103 67.7557 88.8894 67.9924 88.4613C68.4205 87.6807 68.2644 86.1799 67.6399 84.9788ZM83.1717 85.2482C82.4414 85.9508 81.9428 86.8497 81.9831 87.5447C82.0108 88.0484 82.313 88.4085 82.8771 88.6149C83.1868 88.7283 83.4008 88.6452 83.5469 88.3531C83.8717 87.7059 83.7332 86.3235 83.1717 85.2482Z" fill="#ED7D2B"/>
<path d="M90.7739 49.5101C93.3021 51.8922 92.9848 56.2737 89.7339 57.2483C87.2838 57.9835 83.6275 57.0015 81.8194 53.874C80.0139 50.7465 80.8449 48.1729 83.0634 46.8937C85.2794 45.6145 88.145 47.0322 90.7739 49.5101Z" fill="#FFF0E3"/>
<path d="M74.2274 31.9014H73.9327C73.3938 31.9014 72.9557 31.4607 72.9557 30.9243V18.8071C72.9557 18.2682 73.3964 17.8301 73.9327 17.8301H74.2274C74.7662 17.8301 75.2044 18.2708 75.2044 18.8071V30.9218C75.2044 31.4607 74.7637 31.9014 74.2274 31.9014Z" fill="#FCC568"/>
<path d="M110.876 45.9901L110.715 45.7106C110.45 45.2523 110.609 44.658 111.067 44.3936L117.008 40.9639C117.466 40.6995 118.06 40.8582 118.325 41.3165L118.486 41.596C118.75 42.0543 118.592 42.6486 118.133 42.913L112.193 46.3426C111.735 46.607 111.14 46.4484 110.876 45.9901Z" fill="#FCC568"/>
<path d="M114.935 62.9342C114.935 62.3147 115.441 61.8086 116.061 61.8086H131.084C131.703 61.8086 132.21 62.3147 132.21 62.9342C132.21 63.5537 131.703 64.0598 131.084 64.0598H116.061C115.441 64.0598 114.935 63.5511 114.935 62.9342Z" fill="#FCC568"/>
<path d="M93.9392 36.9806C93.3701 36.7388 93.1032 36.074 93.3449 35.5049L101.32 16.8104C101.562 16.2413 102.226 15.9744 102.798 16.2161C103.367 16.4579 103.634 17.1226 103.392 17.6917L95.4173 36.3863C95.173 36.9554 94.5083 37.2223 93.9392 36.9806Z" fill="#FCC568"/>
<path d="M38.7873 45.9901L38.9484 45.7106C39.2128 45.2523 39.0542 44.658 38.5959 44.3936L32.6556 40.9639C32.1973 40.6995 31.603 40.8582 31.3386 41.3165L31.1775 41.596C30.9131 42.0543 31.0717 42.6486 31.53 42.913L37.4703 46.3426C37.9311 46.607 38.5229 46.4484 38.7873 45.9901Z" fill="#FCC568"/>
<path d="M34.7306 62.9342C34.7306 62.3147 34.2244 61.8086 33.605 61.8086H18.5818C17.9624 61.8086 17.4562 62.3147 17.4562 62.9342C17.4562 63.5537 17.9624 64.0598 18.5818 64.0598H33.605C34.2219 64.0598 34.7306 63.5511 34.7306 62.9342Z" fill="#FCC568"/>
<path d="M55.7267 36.9806C56.2958 36.7388 56.5627 36.074 56.321 35.5049L48.3461 16.8104C48.1043 16.2413 47.4396 15.9744 46.8705 16.2161C46.3014 16.4579 46.0344 17.1226 46.2762 17.6917L54.2511 36.3863C54.4928 36.9554 55.1576 37.2223 55.7267 36.9806Z" fill="#FCC568"/>
</svg>
