<svg width="413" height="650" viewBox="0 0 413 650" fill="none" xmlns="http://www.w3.org/2000/svg">
<path d="M56.2352 254.371C54.6259 251.222 53.2953 247.935 52.2694 244.557C51.3311 241.468 50.6549 238.325 50.24 235.165C47.7133 231.192 45.5569 226.993 43.8165 222.624C38.4492 209.162 36.2655 195.385 37.2577 182.524C35.5621 180.453 34.1463 178.148 33.0127 175.612C30.2549 169.447 29.6111 162.607 31.0949 155.284C32.5064 148.321 35.7606 141.268 40.7675 134.319C49.5448 122.136 62.9507 111.477 78.5165 104.305C95.7575 96.3614 114.58 93.1212 132.948 94.9394C147.408 96.3708 159.807 99.7765 169.804 105.064C178.461 109.644 185.562 115.767 190.908 123.265C192.403 125.36 193.727 127.507 194.906 129.694C202.743 134.603 210.044 141.13 216.158 148.782C223.313 157.736 231.553 172.7 230.189 193.135C228.771 214.381 217.308 236.654 196.122 259.337C194.91 260.635 193.685 261.891 192.438 263.106C192.424 265.834 192.361 268.803 192.289 272.12L192.283 272.337C192.057 282.704 195.03 297.175 200.24 311.049C204.584 322.618 212.447 339.076 225.241 351.8C237.197 363.689 250.684 369.514 265.331 369.112L265.374 370.639C250.292 371.052 236.428 365.076 224.164 352.882C211.174 339.964 203.208 323.294 198.812 311.584C193.537 297.538 190.528 282.853 190.757 272.301L190.762 272.084C190.822 269.355 190.876 266.871 190.902 264.577C179.786 275.023 167.411 282.269 154.029 286.153C140.504 290.078 126.508 290.311 113.552 286.831C109.784 285.819 106.176 284.506 102.781 282.922C102.285 282.946 101.791 282.961 101.302 282.973C99.9989 284.817 98.5662 286.254 97.031 286.914C94.5105 287.999 90.9534 286.326 86.4571 281.941C86.0859 281.579 85.7124 281.203 85.3324 280.808C78.7543 278.721 72.8821 275.14 67.7416 270.065C63.0701 265.465 59.1844 260.144 56.2352 254.371ZM52.2744 238.2C52.6522 240.187 53.1385 242.16 53.7312 244.113C56.5617 253.44 61.777 262.04 68.8126 268.983C73.0588 273.174 77.8533 276.328 83.1411 278.418C77.6956 272.175 71.5972 263.126 65.8882 252.936C65.5045 252.619 65.1261 252.296 64.7488 251.97C60.0368 247.903 55.8459 243.265 52.2744 238.2ZM38.6793 184.138C37.9783 196.336 40.1617 209.336 45.2353 222.058C46.5499 225.356 48.109 228.561 49.8866 231.638C49.597 227.422 49.7723 223.201 50.4186 219.067C48.5943 213.825 47.1706 208.87 46.2038 204.365C44.9376 198.465 44.4412 193.347 44.7117 189.059C42.4535 187.638 40.4398 185.997 38.6793 184.138ZM51.5555 222.223C51.1414 226.325 51.197 230.49 51.7129 234.631C55.0935 239.894 59.1398 244.741 63.7374 249.017C61.0466 243.994 58.4776 238.754 56.144 233.483C54.4427 229.645 52.9077 225.874 51.5555 222.223ZM51.9876 218.943C53.5379 223.358 55.3916 228.012 57.5407 232.864C60.4319 239.39 63.6842 245.867 67.074 251.936C70.6529 254.884 74.4501 257.446 78.404 259.589C77.5946 257.709 76.9602 255.785 76.5095 253.835C75.4483 249.23 76.1735 244.641 78.7791 239.857C76.485 235.668 74.5038 231.193 72.8647 226.461C68.9451 215.146 67.7322 204.86 69.2238 195.717C66.7316 195.604 64.457 195.383 62.3937 195.088C57.5569 201.307 54.2499 208.341 52.5446 216.051C52.3313 217.009 52.1459 217.974 51.9876 218.943ZM79.4893 261.883C75.8879 260.064 72.3966 257.906 69.0715 255.438C74.8569 265.371 80.9113 273.953 86.1699 279.48C88.1422 280.088 90.1758 280.557 92.2728 280.885C94.7048 281.267 97.2353 281.46 99.8546 281.467C95.9378 279.38 92.3588 276.918 89.2118 274.132C85.0562 270.452 81.7757 266.305 79.4893 261.883ZM46.2119 189.949C45.9514 196.748 47.5849 205.651 50.9892 216.006C51.0099 215.909 51.0296 215.815 51.0513 215.72C52.7453 208.062 55.9729 201.052 60.6729 194.819C58.0023 194.363 55.7203 193.788 53.8039 193.184C51.0427 192.317 48.5109 191.238 46.2119 189.949ZM99.3911 282.987C95.5361 282.941 91.8617 282.498 88.3722 281.659C91.8782 284.883 94.7159 286.249 96.4237 285.514C97.3854 285.101 98.383 284.245 99.3911 282.987ZM192.294 128.129C191.425 126.698 190.545 125.388 189.665 124.152C184.457 116.848 177.535 110.882 169.089 106.415C159.27 101.221 147.058 97.8707 132.799 96.4613C114.701 94.6698 96.1515 97.8624 79.1559 105.695C63.8259 112.757 50.6326 123.24 42.0052 135.213C37.1259 141.983 33.9583 148.841 32.5911 155.589C31.1724 162.596 31.7834 169.123 34.4052 174.989C35.2557 176.892 36.2772 178.659 37.4611 180.288C38.3409 172.068 40.5403 164.262 44.0602 157.2C45.8413 153.626 47.9311 150.286 50.3103 147.19C50.4367 141.303 52.0998 135.668 55.2883 130.353C59.7031 122.996 66.8931 116.634 76.0778 111.955C79.9411 109.987 84.0712 108.387 88.2502 107.206C99.094 101.136 114.222 99.1516 130.954 101.619C146.996 103.985 162.022 110.104 172.177 118.402C173.312 119.329 174.373 120.273 175.362 121.235C177.892 121.866 180.411 122.668 182.912 123.638C186.084 124.865 189.224 126.374 192.294 128.129ZM50.3504 149.701C48.5111 152.268 46.8679 154.996 45.4317 157.88C41.7712 165.227 39.5695 173.404 38.832 182.02C40.5594 184.036 42.5743 185.812 44.8699 187.338C45.1186 185.244 45.5726 183.372 46.2298 181.728C48.5701 175.885 51.334 170.374 54.4018 165.41C53.3778 163.11 52.5049 160.73 51.8034 158.267C50.9796 155.359 50.4964 152.504 50.3504 149.701ZM79.6765 241.455C77.6259 245.591 77.0911 249.552 77.997 253.494C78.5662 255.967 79.4471 258.394 80.6222 260.742C85.5364 263.179 90.6613 264.975 95.8705 266.064C98.6238 266.641 101.365 267.013 104.084 267.185C94.1578 260.924 85.8625 252.172 79.6765 241.455ZM106.106 268.811C102.624 268.717 99.0999 268.302 95.5574 267.561C90.9013 266.587 86.3103 265.064 81.8731 263.032C83.9896 266.598 86.7983 269.953 90.2252 272.99C93.433 275.831 97.108 278.328 101.141 280.421C102.521 278.092 103.897 275.057 105.215 271.403C105.517 270.56 105.813 269.696 106.106 268.811ZM55.1716 167.065C52.3987 171.665 49.8562 176.779 47.6487 182.295C46.9683 183.994 46.5283 185.988 46.3198 188.245C48.6951 189.647 51.3448 190.809 54.2615 191.726C56.3149 192.371 58.7974 192.984 61.7414 193.447C62.4504 192.566 63.1886 191.699 63.9582 190.852C64.7575 189.968 65.5883 189.109 66.4473 188.273C66.3016 187.728 66.1742 187.183 66.064 186.634C65.7818 185.246 65.6147 183.845 65.5583 182.434C61.4968 177.822 57.8936 172.7 55.1716 167.065ZM70.5323 197.326C69.4122 205.88 70.6684 215.457 74.3087 225.961C75.8132 230.308 77.6128 234.433 79.6814 238.312C81.6989 235.074 84.5689 231.738 88.3178 228.239C88.7939 227.796 89.2796 227.351 89.7772 226.907C89.1018 224.972 88.494 223.005 87.9536 221.006C87.251 218.414 86.7306 215.873 86.3927 213.392C82.2007 210.232 78.2767 206.825 75.0025 203.151C73.2671 201.208 71.7824 199.27 70.5323 197.326ZM90.3342 228.463C90.0032 228.762 89.6797 229.059 89.3595 229.358C85.4132 233.041 82.4841 236.516 80.5322 239.866C87.0028 251.389 95.9223 260.644 106.687 266.985C107.54 264.223 108.337 261.273 109.066 258.187C107.457 256.518 105.924 254.799 104.468 253.033C98.38 245.649 93.6435 237.41 90.3342 228.463ZM107.569 269.247C107.27 270.162 106.962 271.051 106.651 271.918C105.574 274.903 104.169 278.277 102.503 281.103C102.697 281.198 102.891 281.291 103.086 281.383C108.168 281.111 113.563 280.178 119.22 278.585C121.532 277.933 123.894 277.172 126.31 276.3C122.739 275.52 119.211 274.453 115.766 273.1C112.937 271.989 110.201 270.701 107.569 269.247ZM129.169 276.863C125.903 278.121 122.721 279.187 119.634 280.057C114.904 281.387 110.371 282.266 106.042 282.688C108.577 283.731 111.219 284.624 113.947 285.356C126.436 288.711 139.918 288.54 152.982 284.864C149.584 283.83 143.13 281.6 135.537 277.676C133.407 277.505 131.282 277.232 129.169 276.863ZM66.9427 189.93C66.308 190.565 65.6917 191.215 65.0905 191.879C64.548 192.477 64.0206 193.085 63.5083 193.7C65.1189 193.907 66.8539 194.066 68.7175 194.165C68.0058 192.762 67.4146 191.351 66.9427 189.93ZM68.1656 188.738C68.5865 190.117 69.1268 191.492 69.7855 192.86C70.1515 191.276 70.604 189.729 71.1408 188.22C70.7513 187.849 70.3628 187.475 69.9775 187.096C69.3601 187.633 68.7558 188.18 68.1656 188.738ZM79.7488 195.554C76.7397 195.768 73.9532 195.835 71.3798 195.785C72.6746 197.912 74.263 200.027 76.1429 202.136C79.039 205.387 82.467 208.432 86.1484 211.285C85.785 207.48 85.8607 203.815 86.3758 200.307C84.198 198.847 81.975 197.262 79.7488 195.554ZM56.1277 165.515C58.5844 170.831 61.8496 175.693 65.5639 180.107C65.7742 175.701 67.064 171.203 69.4286 166.666C70.7135 164.199 72.1748 161.839 73.7996 159.599C72.7934 156.249 71.985 152.758 71.3735 149.133C71.3304 148.88 71.2905 148.627 71.2485 148.37C65.9133 152.339 60.7281 158.225 56.1277 165.515ZM110.33 259.471C109.666 262.201 108.951 264.823 108.19 267.298C111.497 267.262 114.763 266.928 117.969 266.3C115.272 264.136 112.722 261.859 110.33 259.471ZM51.8365 147.718C51.8156 151.014 52.2927 154.397 53.2751 157.848C53.859 159.905 54.5694 161.904 55.3912 163.846C57.0433 161.289 58.7765 158.89 60.5716 156.681C63.9201 152.563 67.4387 149.19 71.0044 146.655C70.3909 141.943 70.247 136.774 71.0902 131.645C63.4331 135.776 56.9578 141.178 51.8365 147.718ZM72.3646 189.362C71.8296 190.948 71.3907 192.58 71.048 194.252C73.192 194.303 75.486 194.271 77.9415 194.138C76.0636 192.636 74.1935 191.043 72.3646 189.362ZM67.2239 184.272C67.3343 185.207 67.4995 186.138 67.7174 187.067C68.1049 186.71 68.4968 186.361 68.8952 186.014C68.3296 185.441 67.7735 184.861 67.2239 184.272ZM119.544 267.538C116.398 268.233 113.192 268.649 109.943 268.783C112.01 269.853 114.139 270.819 116.328 271.678C120.462 273.3 124.712 274.501 129.019 275.283C129.441 275.119 129.865 274.951 130.289 274.78C129.216 274.151 128.13 273.484 127.037 272.789C124.432 271.128 121.932 269.377 119.544 267.538ZM74.3751 161.434C73.0583 163.331 71.8585 165.313 70.7853 167.375C68.2111 172.316 66.9659 177.119 67.0563 181.828C68.0322 182.924 69.0358 183.989 70.0595 185.025C71.2978 184 72.5817 183.018 73.9143 182.077C73.9895 181.939 74.0679 181.802 74.1464 181.664C75.6928 178.948 77.5632 176.368 79.7609 173.927C77.6157 170.024 75.82 165.854 74.3751 161.434ZM91.5633 227.373C94.8204 236.376 99.5421 244.656 105.648 252.063C106.869 253.544 108.147 254.993 109.477 256.405C111.296 248.288 112.647 239.341 113.354 230.487C111.671 229.472 109.88 228.415 108.017 227.313C105.039 225.554 101.858 223.677 98.63 221.674C96.1091 223.578 93.7388 225.475 91.5633 227.373ZM88.13 214.682C88.4492 216.624 88.8829 218.599 89.4266 220.61C89.9046 222.37 90.4341 224.11 91.0171 225.823C92.9568 224.151 95.0407 222.481 97.2418 220.808C94.1872 218.88 91.1059 216.842 88.13 214.682ZM72.3954 185.107C71.9742 185.435 71.5564 185.771 71.1461 186.11C71.3404 186.3 71.5336 186.487 71.7268 186.675C71.9395 186.145 72.162 185.623 72.3954 185.107ZM75.0813 183.124C74.2605 184.638 73.5401 186.2 72.9246 187.803C75.3037 190.017 77.7568 192.079 80.2172 193.985C82.7003 193.795 85.3363 193.502 88.1316 193.087C88.2807 192.654 88.4394 192.225 88.6047 191.797C89.0835 190.561 89.6293 189.35 90.2389 188.168C89.722 187.632 89.2137 187.087 88.7128 186.535C86.4723 184.054 84.4306 181.411 82.5844 178.612C79.9341 179.983 77.4312 181.488 75.0813 183.124ZM83.4344 110.388C81.1572 111.241 78.9253 112.219 76.774 113.313C67.8443 117.861 60.8677 124.022 56.6004 131.134C53.9305 135.581 52.3829 140.262 51.9561 145.139C57.2346 138.859 63.7861 133.68 71.4533 129.722C72.9748 122.657 76.5103 115.779 83.4344 110.388ZM114.816 231.375C114.057 240.404 112.638 249.505 110.745 257.719C113.573 260.6 116.633 263.325 119.905 265.884C125.563 264.558 131.021 262.304 136.164 259.16C133.402 257.953 130.921 256.457 128.787 254.686C123.054 249.933 120.131 244.444 120.096 238.372C120.089 237.249 120.177 236.12 120.355 234.987C118.75 233.845 116.879 232.642 114.816 231.375ZM87.7882 201.241C87.3256 204.847 87.338 208.626 87.8231 212.558C91.2912 215.142 94.9398 217.561 98.5515 219.822C101.763 217.43 105.203 215.03 108.8 212.609C105.522 211.154 102.277 209.583 99.1367 207.921C95.8081 206.16 91.9105 203.931 87.7882 201.241ZM87.6088 194.708C85.6742 194.983 83.8155 195.2 82.0295 195.364C83.5795 196.521 85.1289 197.618 86.6509 198.65C86.904 197.316 87.2229 195.999 87.6088 194.708ZM80.5522 175.333C79.2053 176.864 77.9891 178.45 76.9058 180.09C78.4641 179.115 80.081 178.192 81.7532 177.324C81.3429 176.669 80.9411 176.004 80.5522 175.333ZM137.915 259.874C132.719 263.185 127.199 265.597 121.466 267.078C123.516 268.616 125.648 270.091 127.858 271.499C129.281 272.407 130.69 273.254 132.071 274.048C139.026 271.13 146.366 267.355 154.059 262.741C148.143 262.654 142.665 261.667 137.915 259.874ZM89.2842 194.46C88.7531 196.123 88.3364 197.83 88.0363 199.58C92.3299 202.415 96.4017 204.747 99.8524 206.572C103.351 208.421 106.856 210.1 110.298 211.605C111.409 210.862 112.535 210.119 113.673 209.37C113.559 207.523 113.404 205.744 113.206 204.035C106.707 201.124 100.875 197.53 95.7564 193.288C93.5168 193.748 91.3594 194.137 89.2842 194.46ZM110.462 213.334C106.771 215.809 103.238 218.255 99.9482 220.689C102.988 222.568 105.982 224.334 108.796 225.996C110.42 226.955 111.991 227.882 113.485 228.78C113.518 228.306 113.549 227.832 113.58 227.359C113.856 222.938 113.957 218.725 113.888 214.762C112.745 214.3 111.602 213.825 110.462 213.334ZM131.966 275.747C131.964 275.748 131.96 275.751 131.958 275.752C131.963 275.752 131.972 275.753 131.978 275.755C131.974 275.751 131.967 275.749 131.966 275.747ZM91.3691 189.317C90.8752 190.307 90.4267 191.323 90.0289 192.353C89.9678 192.508 89.9078 192.666 89.85 192.822C91.2867 192.588 92.7619 192.324 94.2798 192.026C93.28 191.148 92.3112 190.246 91.3691 189.317ZM75.4851 159.889C76.9022 164.45 78.6967 168.74 80.8547 172.746C86.7276 166.63 94.7025 161.418 104.737 157.134C105.008 156.145 105.32 155.164 105.677 154.193C105.897 153.597 106.132 153.004 106.383 152.417C103.375 150.057 100.606 148.038 98.2278 146.451C96.7688 145.478 95.2877 144.689 93.7856 144.092C93.6378 144.173 93.4922 144.252 93.3455 144.335C86.2625 148.278 80.2006 153.575 75.4851 159.889ZM104.287 158.991C94.7533 163.184 87.1871 168.244 81.632 174.146C82.1128 174.987 82.6096 175.816 83.1235 176.632C85.7423 175.343 88.4956 174.179 91.376 173.148C91.8926 172.911 96.5308 170.836 103.59 169.517C103.316 165.94 103.546 162.418 104.287 158.991ZM103.738 171.06C96.6478 172.408 92.0572 174.513 91.9854 174.547L91.921 174.574C89.1415 175.57 86.4857 176.687 83.9569 177.925C85.7343 180.605 87.6975 183.136 89.8457 185.516C90.226 185.938 90.6105 186.352 91.0026 186.765C94.069 181.391 98.4885 176.682 104.007 172.95C103.902 172.317 103.814 171.689 103.738 171.06ZM157.051 262.71C148.896 267.727 141.116 271.829 133.751 274.995C134.498 275.405 135.236 275.801 135.963 276.177C148.989 277.18 162.261 274.452 174.218 268.091C179.655 265.2 182.519 261.697 182.977 257.38C183.026 256.915 183.045 256.44 183.038 255.96C175.36 259.972 166.089 262.382 157.051 262.71ZM72.6464 147.383C72.7185 147.879 72.7981 148.378 72.8821 148.881C73.4165 152.053 74.105 155.119 74.9475 158.075C79.5139 152.205 85.2365 147.233 91.8525 143.423C88.0821 142.331 84.199 142.394 80.2432 143.621C77.7158 144.407 75.1668 145.679 72.6464 147.383ZM104.31 174.591C99.1141 178.219 94.9697 182.752 92.1133 187.902C93.4084 189.199 94.7611 190.446 96.1715 191.641C100.837 190.656 105.289 189.463 109.358 188.184C109.129 187.666 108.893 187.168 108.648 186.688C106.59 182.654 105.141 178.603 104.31 174.591ZM184.53 255.152C184.589 255.971 184.577 256.768 184.495 257.542C183.986 262.333 180.771 266.338 174.935 269.441C163.797 275.364 151.546 278.203 139.383 277.883C147.959 281.978 154.494 283.74 155.7 284.048C168.47 279.967 180.285 272.72 190.918 262.456C190.927 258.233 190.798 254.649 190.366 251.265C188.73 252.547 186.96 253.743 185.071 254.841C184.892 254.946 184.71 255.049 184.53 255.152ZM115.423 215.369C115.475 219.19 115.37 223.232 115.104 227.453C115.058 228.19 115.006 228.927 114.951 229.666C117.058 230.951 118.987 232.173 120.671 233.342C121.659 229.03 123.87 224.658 126.937 220.259C126.556 219.84 126.187 219.415 125.833 218.986C122.432 217.957 118.933 216.74 115.423 215.369ZM121.755 236.025C121.663 236.818 121.618 237.597 121.622 238.365C121.654 244.045 124.315 249 129.759 253.511C132.029 255.393 134.718 256.954 137.734 258.166C141.202 255.895 144.522 253.207 147.653 250.118C148.907 248.88 150.047 247.601 151.072 246.28C138.417 244.886 128.069 241.556 123.369 237.359C122.884 236.923 122.343 236.478 121.755 236.025ZM72.7827 130.764C71.8977 135.283 71.7753 140.273 72.4208 145.694C74.8745 144.108 77.3435 142.922 79.7882 142.164C84.5414 140.69 89.1952 140.776 93.6817 142.413C101.788 138.104 110.815 135.58 119.959 135.067C123.585 132.122 127.772 129.432 132.487 127.032C131.829 125.565 131.129 124.137 130.384 122.748C115.601 120.747 100.578 121.662 86.8943 125.399C81.8475 126.776 77.1348 128.573 72.7827 130.764ZM109.944 189.6C106.137 190.802 102.005 191.927 97.6769 192.879C102.23 196.519 107.346 199.652 112.985 202.253C112.32 197.365 111.302 193.105 109.944 189.6ZM128.028 221.404C124.817 226.063 122.829 230.342 122.028 234.316C122.906 234.967 123.697 235.6 124.388 236.217C128.812 240.169 139.166 243.449 151.41 244.778C151.648 244.805 151.887 244.829 152.124 244.854C154.641 241.255 156.338 237.367 157.203 233.218C152.566 233.417 147.601 232.595 142.679 230.746C137.024 228.621 131.943 225.329 128.028 221.404ZM113.771 211.136C113.168 211.533 112.57 211.928 111.975 212.324C112.602 212.587 113.226 212.847 113.847 213.099C113.826 212.44 113.801 211.783 113.771 211.136ZM115.247 210.166C115.311 211.327 115.357 212.512 115.389 213.722C118.436 214.927 121.406 215.984 124.249 216.896C123.093 215.225 122.146 213.488 121.437 211.715C120.855 210.254 120.726 208.704 120.963 207.075C120.751 207.003 120.538 206.93 120.324 206.856C118.614 207.967 116.918 209.069 115.247 210.166ZM152.856 246.46C151.645 248.1 150.271 249.683 148.727 251.204C145.803 254.09 142.719 256.633 139.502 258.825C144.208 260.441 149.619 261.268 155.445 261.217C155.827 261.214 156.212 261.206 156.596 261.196C161.768 258.003 167.093 254.436 172.562 250.507C174.546 249.08 176.438 247.57 178.239 245.975C170.209 247.103 161.539 247.279 152.856 246.46ZM88.8468 108.622C88.7173 108.697 88.5877 108.771 88.4582 108.845C82.1657 112.501 77.6081 117.531 74.9141 123.793C74.2232 125.397 73.6558 127.084 73.2126 128.845C77.3394 126.858 81.7737 125.208 86.493 123.921C100.024 120.223 114.841 119.249 129.463 121.081C128.037 118.602 126.47 116.271 124.775 114.111C120.896 109.168 113.676 106.423 104.445 106.384C99.4774 106.366 94.1274 107.148 88.8468 108.622ZM114.817 204.733C114.943 205.927 115.051 207.153 115.138 208.408C116.256 207.678 117.385 206.941 118.522 206.204C117.265 205.738 116.031 205.248 114.817 204.733ZM111.399 189.132C112.866 192.955 113.942 197.622 114.615 202.985C116.308 203.722 118.044 204.413 119.825 205.057C119.925 205.095 120.026 205.13 120.129 205.167C120.669 204.818 121.213 204.464 121.758 204.113C122.818 201.286 124.738 198.27 127.134 195.127C124.353 192.144 122.495 189.532 121.985 187.391C121.834 186.757 121.687 186.062 121.55 185.313C118.609 186.586 115.18 187.892 111.399 189.132ZM122.436 207.563C122.291 208.834 122.416 210.034 122.859 211.151C123.756 213.403 125.068 215.596 126.718 217.661C127.305 217.837 127.888 218.006 128.462 218.167C130.344 215.679 132.48 213.185 134.803 210.693C130.533 209.881 126.395 208.837 122.436 207.563ZM105.687 173.669C106.463 177.747 107.906 181.879 110.009 185.995C110.291 186.545 110.562 187.118 110.822 187.717C114.753 186.432 118.295 185.077 121.29 183.763C120.729 180.053 120.413 175.329 120.723 170.219C119.502 170.099 118.271 170.02 117.027 169.983C115.455 169.935 113.924 169.953 112.441 170.024C110.072 171.077 107.812 172.297 105.687 173.669ZM129.081 219.923C129.027 219.997 128.973 220.07 128.921 220.143C132.7 223.991 137.667 227.23 143.219 229.317C148.071 231.14 152.958 231.926 157.486 231.677C157.921 228.901 157.998 226.011 157.713 223.014C157.68 222.658 157.64 222.306 157.596 221.95C156.946 221.377 156.295 220.804 155.641 220.239C153.207 221.155 150.961 221.825 149.028 222.256C145.046 223.142 137.786 222.29 129.081 219.923ZM123 205.127C122.896 205.436 122.803 205.746 122.722 206.049C126.973 207.425 131.44 208.537 136.054 209.37C137.058 208.325 138.094 207.277 139.155 206.232C136.415 203.89 133.857 201.649 131.594 199.541C128.864 201.331 126.124 203.103 123.406 204.86C123.271 204.95 123.135 205.038 123 205.127ZM105.249 170.791C105.296 171.205 105.35 171.618 105.41 172.033C106.344 171.448 107.3 170.892 108.279 170.364C107.231 170.487 106.221 170.632 105.249 170.791ZM136.599 211.018C135.367 212.321 134.182 213.629 133.054 214.943C131.983 216.189 130.988 217.409 130.068 218.608C138.378 220.82 145.097 221.565 148.697 220.763C150.364 220.392 152.267 219.839 154.326 219.098C151.629 216.771 148.927 214.49 146.312 212.287C143.022 211.992 139.777 211.57 136.599 211.018ZM106.029 158.245C105.139 161.812 104.832 165.5 105.105 169.251C107.253 168.902 109.596 168.632 112.092 168.505C114.992 167.232 118.043 166.195 121.193 165.406C121.2 165.346 121.21 165.287 121.217 165.227C117.795 161.998 114.376 158.976 111.12 156.257C109.368 156.895 107.671 157.557 106.029 158.245ZM128.197 196.24C126.513 198.46 125.085 200.594 124.066 202.618C126.19 201.243 128.322 199.859 130.453 198.465C129.656 197.705 128.902 196.964 128.197 196.24ZM117.981 136.745C110.249 137.461 102.463 139.688 95.5306 143.176C96.7256 143.732 97.9087 144.398 99.0776 145.179C101.403 146.731 104.102 148.694 107.03 150.981C109.492 145.8 113.175 141.024 117.981 136.745ZM179.976 246.471C177.923 248.339 175.748 250.101 173.455 251.748C168.787 255.103 164.22 258.195 159.764 261.018C167.913 260.34 176.09 257.978 182.905 254.304C182.551 251.818 181.522 249.191 179.976 246.471ZM107.629 153.401C107.449 153.836 107.277 154.278 107.114 154.721C106.911 155.27 106.724 155.825 106.552 156.381C107.601 155.955 108.672 155.538 109.764 155.131C109.042 154.538 108.329 153.962 107.629 153.401ZM122.983 184.676C123.135 185.533 123.298 186.323 123.468 187.036C123.902 188.864 125.583 191.208 128.081 193.903C130.492 190.858 133.295 187.702 136.146 184.492C136.662 183.912 137.178 183.33 137.695 182.744C136.245 180.975 134.796 179.286 133.383 177.7C131.991 179.338 130.397 180.704 128.619 181.772C127.127 182.675 125.224 183.658 122.983 184.676ZM158.791 233.109C157.968 237.348 156.322 241.325 153.868 245.019C162.383 245.757 170.862 245.524 178.69 244.367C175.851 240.011 171.825 235.458 167.237 230.904C164.655 232.086 161.804 232.821 158.791 233.109ZM122.229 170.386C121.948 175.156 122.228 179.579 122.736 183.113C124.748 182.185 126.467 181.288 127.836 180.467C129.526 179.452 131.036 178.14 132.355 176.556C130.74 174.774 129.081 173.014 127.397 171.294C125.702 170.906 123.979 170.606 122.229 170.386ZM138.673 183.95C138.21 184.472 137.749 184.992 137.289 185.508C134.394 188.765 131.554 191.964 129.141 195.02C129.95 195.853 130.829 196.717 131.766 197.603C135.618 195.073 139.45 192.504 143.191 189.885C141.713 187.827 140.195 185.844 138.673 183.95ZM120.993 167.035C119.438 167.441 117.908 167.909 116.411 168.439C116.63 168.443 116.852 168.449 117.071 168.455C118.337 168.495 119.588 168.574 120.83 168.694C120.876 168.144 120.931 167.591 120.993 167.035ZM120.54 136.564C115.024 141.125 110.887 146.292 108.262 151.954C109.294 152.774 110.352 153.634 111.43 154.526C115.832 152.957 120.568 151.543 125.635 150.281C126.722 148.056 128.018 145.907 129.555 143.887C131.289 141.61 133.243 139.607 135.416 137.88C131.265 136.856 126.627 136.378 121.698 136.521C121.311 136.529 120.925 136.546 120.54 136.564ZM140.32 207.228C139.494 208.043 138.677 208.862 137.878 209.687C139.975 210.031 142.099 210.319 144.249 210.55C142.911 209.423 141.598 208.316 140.32 207.228ZM144.076 191.13C140.416 193.691 136.673 196.203 132.911 198.677C135.132 200.733 137.624 202.913 140.253 205.161C142.835 202.663 145.561 200.171 148.358 197.696C147.007 195.449 145.567 193.254 144.076 191.13ZM124.813 152.063C120.563 153.153 116.554 154.353 112.789 155.663C115.616 158.045 118.555 160.645 121.504 163.402C122.162 159.608 123.218 155.752 124.813 152.063ZM122.563 166.649C122.475 167.392 122.399 168.127 122.338 168.858C123.387 168.987 124.428 169.147 125.459 169.336C124.539 168.417 123.612 167.513 122.684 166.622C122.642 166.63 122.602 166.64 122.563 166.649ZM149.146 199.034C146.542 201.34 143.931 203.724 141.418 206.157C143.086 207.575 144.797 209.016 146.528 210.472C146.661 210.585 146.793 210.695 146.928 210.81C149.575 211.036 152.248 211.175 154.941 211.231C153.433 207.076 151.436 202.981 149.146 199.034ZM126.695 151.59C124.725 155.804 123.514 160.281 122.835 164.654C122.94 164.754 123.044 164.852 123.15 164.953C127.232 164.08 131.46 163.622 135.726 163.612C136.46 163.61 137.188 163.622 137.913 163.646C137.914 163.643 137.913 163.641 137.914 163.637C138.719 159.268 138.87 154.354 138.385 149.244C136.847 149.432 135.287 149.689 133.708 150.015C131.303 150.512 128.965 151.035 126.695 151.59ZM137.601 165.167C136.981 165.149 136.356 165.141 135.73 165.142C131.922 165.151 128.147 165.526 124.486 166.24C125.722 167.438 126.955 168.661 128.173 169.903C130.579 170.471 132.926 171.2 135.215 172.093C136.228 170.041 137.026 167.722 137.601 165.167ZM155.476 212.766C153.28 212.731 151.096 212.639 148.928 212.493C151.236 214.44 153.6 216.445 155.955 218.484C156.279 218.356 156.608 218.223 156.938 218.087C156.555 216.31 156.06 214.534 155.476 212.766ZM159.287 223.45C159.513 226.242 159.436 228.94 159.057 231.547C161.54 231.272 163.901 230.674 166.065 229.752C163.893 227.644 161.613 225.534 159.287 223.45ZM172.383 120.571C172.003 120.241 171.611 119.912 171.211 119.584C161.409 111.574 146.277 105.422 130.731 103.13C117.461 101.171 105.244 102.058 95.4773 105.597C98.5388 105.1 101.557 104.847 104.452 104.859C114.158 104.902 121.802 107.854 125.975 113.171C127.948 115.684 129.746 118.432 131.347 121.337C134.698 121.814 137.984 122.429 141.187 123.176C147.924 120.676 154.832 119.438 161.756 119.489C165.298 119.514 168.847 119.876 172.383 120.571ZM134.496 173.452C133.095 172.911 131.671 172.434 130.223 172.017C131.263 173.107 132.292 174.21 133.301 175.324C133.723 174.733 134.12 174.108 134.496 173.452ZM135.925 174.029C135.437 174.898 134.912 175.717 134.347 176.487C135.87 178.194 137.33 179.894 138.723 181.584C139.97 180.169 141.207 178.745 142.406 177.316C141.66 176.871 140.906 176.443 140.145 176.037C138.767 175.301 137.36 174.631 135.925 174.029ZM158.684 219.003C158.821 219.735 158.94 220.461 159.038 221.181C161.972 223.778 164.852 226.416 167.548 229.054C171.421 227.051 174.702 224.002 177.139 220.298C175.588 217.751 173.871 214.991 171.962 211.97C171.66 212.003 171.359 212.038 171.056 212.068C166.888 214.99 162.62 217.292 158.684 219.003ZM143.72 178.131C142.414 179.69 141.064 181.242 139.704 182.785C141.389 184.872 142.975 186.945 144.453 188.997C146.787 187.345 149.081 185.673 151.318 183.976C148.898 181.773 146.363 179.82 143.72 178.131ZM157.094 212.782C157.604 214.372 158.03 215.935 158.372 217.476C161.413 216.136 164.65 214.439 167.881 212.364C164.276 212.655 160.673 212.794 157.094 212.782ZM152.451 185.035C150.133 186.797 147.755 188.531 145.338 190.242C146.857 192.405 148.258 194.545 149.538 196.658C151.768 194.703 154.04 192.756 156.315 190.826C156.606 190.581 156.898 190.339 157.199 190.102C155.672 188.293 154.091 186.605 152.451 185.035ZM139.151 165.234C138.554 167.974 137.71 170.462 136.634 172.67C138.068 173.278 139.479 173.951 140.862 174.69C141.716 175.145 142.561 175.624 143.395 176.13C145.913 173.074 148.224 170.007 150.048 166.984C146.613 166.04 142.955 165.45 139.151 165.234ZM152.766 202.432C154.302 205.438 155.575 208.381 156.582 211.249C161.198 211.282 165.858 211.065 170.51 210.588C170.645 210.492 170.776 210.399 170.91 210.303C168.594 206.652 166.016 202.633 163.146 198.174C161.567 195.722 159.91 193.421 158.175 191.278C157.881 191.512 157.592 191.749 157.308 191.992C155.047 193.909 152.698 195.916 150.334 197.989C150.446 198.183 150.559 198.377 150.671 198.571C151.413 199.869 152.114 201.157 152.766 202.432ZM136.59 138.902C134.424 140.592 132.481 142.563 130.769 144.813C129.558 146.404 128.503 148.078 127.584 149.807C129.478 149.358 131.416 148.93 133.399 148.522C135.027 148.187 136.637 147.921 138.223 147.727C137.88 144.817 137.334 141.856 136.59 138.902ZM178.008 221.735C175.571 225.247 172.394 228.167 168.688 230.179C170.077 231.566 171.413 232.948 172.672 234.323C175.869 237.81 178.412 241.047 180.312 244.062C182.494 241.966 184.529 239.735 186.415 237.375C184.496 232.981 181.793 228.023 178.008 221.735ZM133.097 128.433C129.204 130.422 125.684 132.607 122.553 134.973C127.339 134.906 131.851 135.419 135.924 136.44C135.128 133.683 134.182 131.005 133.097 128.433ZM151.567 167.424C149.695 170.588 147.31 173.773 144.705 176.944C147.439 178.706 150.056 180.739 152.555 183.034C154.773 181.325 156.931 179.593 159.011 177.831C160.704 176.395 162.31 174.97 163.827 173.554C160.303 170.91 156.152 168.845 151.567 167.424ZM182.041 247.075C183.205 249.355 183.963 251.494 184.325 253.509C186.412 252.294 188.346 250.955 190.112 249.514C189.8 247.607 189.375 245.74 188.809 243.833C186.366 244.498 183.82 245.058 181.193 245.511C181.494 246.041 181.778 246.561 182.041 247.075ZM139.927 149.077C140.41 154.164 140.276 159.137 139.454 163.721C143.43 163.962 147.253 164.602 150.841 165.617C154.368 159.262 154.989 153.992 152.729 149.548C148.653 148.815 144.379 148.659 139.927 149.077ZM187.089 238.97C185.766 240.589 184.372 242.145 182.907 243.641C184.77 243.273 186.586 242.851 188.348 242.375C187.981 241.265 187.563 240.136 187.089 238.97ZM191.747 250.138C192.234 253.478 192.413 256.964 192.438 260.958C193.302 260.089 194.157 259.204 195.006 258.295C215.946 235.875 227.27 213.918 228.664 193.033C229.995 173.088 221.95 158.479 214.962 149.736C209.529 142.936 203.146 137.043 196.288 132.414C198.939 137.952 200.731 143.707 202.02 149.504C207.23 155.18 211.396 161.658 213.964 168.222C217.514 177.297 217.744 185.594 214.802 192.106C220.445 198.745 222.046 207.66 219.292 217.94C216.824 227.155 210.356 234.486 200.375 239.494C200.196 239.842 200.012 240.185 199.817 240.528C197.852 244.023 195.117 247.268 191.747 250.138ZM165.043 174.508C163.457 175.994 161.774 177.491 159.999 178.998C157.961 180.726 155.848 182.424 153.679 184.097C155.312 185.675 156.893 187.367 158.416 189.175C162.627 186.099 167.625 183.781 173.07 182.35C170.81 179.619 168.129 176.993 165.043 174.508ZM174.115 183.659C168.628 185.014 163.598 187.292 159.388 190.353C161.146 192.53 162.827 194.862 164.426 197.347C167.284 201.788 169.842 205.779 172.136 209.396C174.08 207.924 175.987 206.309 177.811 204.548C179.05 203.35 180.313 202.021 181.547 200.559C180.754 194.733 178.233 189.012 174.115 183.659ZM138.116 138.643C138.861 141.608 139.415 144.597 139.766 147.557C143.894 147.164 147.872 147.255 151.692 147.825C148.858 143.723 144.102 140.57 138.116 138.643ZM190.274 243.417C190.765 245.076 191.152 246.711 191.454 248.364C194.102 246.001 196.309 243.392 197.997 240.614C195.684 241.636 193.202 242.542 190.559 243.334C190.467 243.361 190.371 243.389 190.274 243.417ZM181.185 210.571C178.735 211.042 176.212 211.445 173.636 211.772C175.237 214.312 176.697 216.663 178.032 218.847C179.484 216.311 180.561 213.516 181.185 210.571ZM181.757 202.651C180.799 203.727 179.828 204.725 178.873 205.648C177.158 207.305 175.37 208.835 173.545 210.24C176.26 209.896 178.915 209.464 181.48 208.958C181.561 208.43 181.627 207.897 181.68 207.362C181.831 205.79 181.857 204.218 181.757 202.651ZM188.175 237.61C188.57 238.548 188.931 239.461 189.261 240.36C189.457 240.897 189.643 241.429 189.818 241.958C189.919 241.929 190.022 241.898 190.123 241.868C193.035 240.999 196.164 239.851 199.249 238.337C202.013 232.731 202.823 226.554 201.653 219.954C201.329 218.118 200.945 216.13 200.497 214.025C197.607 222.902 193.491 230.779 188.175 237.61ZM182.808 210.247C182.12 213.865 180.787 217.286 178.929 220.324C182.786 226.702 185.51 231.655 187.476 236.009C192.929 228.818 197.061 220.468 199.828 211.013C199.423 209.264 198.974 207.448 198.476 205.59C193.927 207.454 188.597 209.043 182.808 210.247ZM154.583 149.925C156.47 154.533 155.728 159.84 152.338 166.065C157.053 167.563 161.326 169.728 164.949 172.489C168.961 168.642 172.318 164.863 175.047 161.113C173.14 159.312 171.107 157.659 168.941 156.191C164.494 153.173 159.698 151.084 154.583 149.925ZM134.462 127.752C135.649 130.544 136.666 133.429 137.501 136.35C142.925 132.693 149.539 130.565 157.284 129.996C152.283 127.86 146.921 126.107 141.292 124.767C140.683 124.998 140.075 125.241 139.471 125.492C137.739 126.212 136.07 126.965 134.462 127.752ZM160.368 131.384C160.068 131.389 159.764 131.396 159.459 131.408C151.343 131.699 144.452 133.671 138.857 137.289C145.524 139.492 150.734 143.18 153.613 147.994C153.65 148.056 153.686 148.116 153.721 148.179C159.469 149.312 164.84 151.564 169.8 154.931C171.975 156.408 174.02 158.062 175.94 159.862C178.753 155.796 180.826 151.767 182.188 147.734C182.227 147.62 182.264 147.506 182.303 147.392C178.869 143.389 174.54 139.686 169.37 136.363C166.55 134.546 163.54 132.885 160.368 131.384ZM132.346 123.218C132.871 124.247 133.372 125.29 133.848 126.349C135.397 125.593 136.999 124.869 138.656 124.177C136.55 123.731 134.409 123.342 132.241 123.012C132.276 123.081 132.311 123.149 132.346 123.218ZM183.147 201.03C183.391 203.18 183.41 205.343 183.202 207.511C183.164 207.887 183.124 208.262 183.071 208.634C188.629 207.451 193.733 205.911 198.074 204.117C196.436 198.213 194.312 191.902 191.58 185.735C189.67 191.818 186.531 196.913 183.147 201.03ZM176.152 162.188C173.428 165.904 170.104 169.647 166.16 173.446C169.472 176.131 172.332 178.979 174.715 181.947C177.16 181.395 179.685 181.018 182.263 180.828C184.61 180.655 186.946 180.648 189.239 180.8C189.204 180.732 189.169 180.663 189.134 180.595C185.678 173.836 181.414 167.446 176.152 162.188ZM201.406 211.061C202.12 214.176 202.697 217.083 203.158 219.688C204.261 225.914 203.686 231.785 201.447 237.192C208.667 233.185 215.283 227.016 217.821 217.546C220.359 208.07 219.009 199.827 214.051 193.614C212.864 195.764 211.3 197.689 209.365 199.351C207.726 200.758 205.671 202.105 203.28 203.365C202.915 205.188 202.493 207.023 202.014 208.861C201.816 209.6 201.615 210.333 201.406 211.061ZM174.592 122.617C170.322 121.584 166.027 121.046 161.747 121.015C155.755 120.969 149.773 121.92 143.903 123.844C149.851 125.396 155.49 127.411 160.704 129.851C166.417 129.812 174.01 130.848 182.428 134.85C182.207 134.126 181.946 133.403 181.645 132.683C180.185 129.195 177.821 125.821 174.592 122.617ZM179.541 189.341C181.143 192.475 182.251 195.697 182.843 198.959C186.077 194.791 188.983 189.67 190.602 183.59C190.414 183.189 190.224 182.791 190.03 182.39C187.525 182.179 184.957 182.161 182.378 182.353C180.122 182.518 177.905 182.833 175.753 183.284C177.224 185.259 178.489 187.281 179.541 189.341ZM199.895 204.989C200.165 205.994 200.42 206.985 200.665 207.96C200.983 206.716 201.272 205.474 201.537 204.236C201.002 204.491 200.455 204.741 199.895 204.989ZM183.444 148.773C182.011 152.823 179.892 156.862 177.053 160.931C182.788 166.614 187.367 173.597 191.015 180.95C191.077 180.955 191.141 180.964 191.203 180.969C192.076 176.49 192.237 171.533 191.354 166.096C190.353 159.939 187.673 154.105 183.444 148.773ZM192.218 183.464C195.323 190.159 197.689 197.07 199.487 203.508C200.331 203.134 201.14 202.75 201.917 202.356C203.016 196.675 203.582 191.103 203.797 185.865C200.371 184.3 196.498 183.214 192.412 182.657C192.353 182.928 192.287 183.196 192.218 183.464ZM182.925 136.806C177.588 134.113 171.19 131.945 163.982 131.475C166.137 132.601 168.212 133.8 170.193 135.076C175.158 138.267 179.371 141.808 182.788 145.628C183.479 142.676 183.525 139.726 182.925 136.806ZM189.259 154.957C191.04 158.443 192.25 162.086 192.863 165.85C193.772 171.443 193.614 176.544 192.731 181.156C196.698 181.707 200.471 182.741 203.856 184.216C204.058 177.001 203.613 170.487 203.009 165.278C202.337 159.485 201.509 154.501 200.565 150.172C198.003 147.422 195.19 144.872 192.194 142.603C190.053 140.984 187.521 139.281 184.641 137.705C185.099 140.797 184.887 143.915 184.005 147.033C186.1 149.567 187.856 152.212 189.259 154.957ZM205.295 186.593C205.074 191.332 204.567 196.331 203.645 201.433C205.469 200.403 207.055 199.318 208.365 198.192C210.307 196.524 211.846 194.565 212.974 192.362C211.453 190.707 209.654 189.217 207.581 187.903C206.849 187.44 206.086 187.003 205.295 186.593ZM202.648 152.52C203.463 156.732 204.045 160.95 204.526 165.103C205.155 170.526 205.614 177.354 205.364 184.913C206.422 185.434 207.437 185.999 208.401 186.611C210.398 187.875 212.155 189.295 213.671 190.855C216.156 184.803 215.82 177.155 212.545 168.777C210.334 163.138 206.914 157.56 202.648 152.52ZM193.826 130.821C190.1 128.51 186.256 126.572 182.36 125.06C180.719 124.423 179.071 123.863 177.416 123.374C179.908 126.167 181.795 129.083 183.054 132.093C183.563 133.311 183.967 134.534 184.261 135.762C187.14 137.26 190.104 139.11 193.112 141.386C195.495 143.189 197.765 145.169 199.892 147.284C198.137 140.185 196.048 134.984 193.826 130.821Z" fill="white"/>
<path d="M203.633 501.733C191.226 477.45 189.643 447.924 199.397 422.745C207.75 401.185 223.551 385.103 243.893 377.464L244.023 377.808L243.893 377.464C271.713 367.014 296.628 365.492 317.946 372.936C338.168 379.997 355.042 395.054 368.099 417.686C383.374 444.162 386.318 469.037 376.848 491.619C372.705 501.496 366.145 510.954 357.35 519.727C349.343 527.715 339.435 535.19 327.906 541.948C315.726 549.084 303.751 553.802 292.314 555.965C280.638 558.175 269.411 557.745 258.944 554.69C236.906 548.246 218.296 530.432 203.633 501.733ZM370.71 424.023C369.697 422.041 368.617 420.053 367.462 418.052C354.496 395.576 337.755 380.633 317.706 373.629C296.553 366.244 271.806 367.763 244.153 378.152C224.011 385.717 208.362 401.648 200.086 423.01C190.406 447.996 191.978 477.298 204.291 501.397C218.857 529.907 237.315 547.599 259.152 553.976C269.506 557 280.617 557.424 292.179 555.235C303.531 553.085 315.427 548.399 327.536 541.304C339.013 534.579 348.872 527.142 356.835 519.199C365.56 510.496 372.068 501.116 376.173 491.329C384.83 470.678 382.991 448.059 370.71 424.023Z" fill="white"/>
<path d="M203.179 501.965C190.708 477.556 189.116 447.872 198.922 422.562C207.263 401.032 222.987 384.93 243.236 377.167L243.235 377.165L244.19 376.807C271.932 366.476 296.802 365.012 318.113 372.454C338.454 379.557 355.418 394.689 368.538 417.429C383.898 444.054 386.851 469.079 377.315 491.813C373.146 501.752 366.55 511.264 357.708 520.083C349.671 528.099 339.73 535.602 328.161 542.383C315.93 549.55 303.899 554.286 292.406 556.462C280.65 558.689 269.341 558.254 258.799 555.172C236.622 548.697 217.908 530.795 203.179 501.965ZM370.256 424.255C369.253 422.292 368.163 420.291 367.02 418.308C354.118 395.942 337.469 381.071 317.537 374.113C296.5 366.769 271.869 368.288 244.331 378.632C224.327 386.145 208.781 401.972 200.56 423.197C190.931 448.049 192.497 477.198 204.744 501.168C219.245 529.55 237.598 547.153 259.294 553.493C269.569 556.495 280.603 556.915 292.083 554.741C303.38 552.604 315.221 547.937 327.278 540.872C338.719 534.167 348.54 526.758 356.472 518.844C365.151 510.187 371.62 500.865 375.7 491.139C384.293 470.647 382.461 448.144 370.256 424.255Z" fill="white"/>
<path d="M201.479 506.52C194.512 492.884 190.717 475.899 190.155 455.718C189.396 428.462 200.664 401.122 220.299 382.584C237.109 366.711 258.292 358.987 279.942 360.836C309.551 363.366 332.7 372.703 348.747 388.593C363.965 403.663 372.726 424.513 374.781 450.561C377.186 481.035 369.148 504.758 350.887 521.072C342.899 528.21 332.91 533.926 321.197 538.063C310.533 541.83 298.376 544.318 285.058 545.462C270.992 546.669 258.153 545.776 246.896 542.814C235.404 539.788 225.452 534.572 217.319 527.312C210.922 521.596 205.635 514.654 201.479 506.52ZM279.911 361.204L279.879 361.571C258.442 359.741 237.463 367.392 220.805 383.12C201.322 401.515 190.139 428.647 190.893 455.698C191.784 487.702 200.84 511.61 217.813 526.76C225.86 533.942 235.709 539.105 247.088 542.1C258.262 545.043 271.018 545.926 284.999 544.727C298.253 543.592 310.352 541.115 320.955 537.367C332.576 533.262 342.484 527.592 350.4 520.521C368.481 504.369 376.438 480.849 374.051 450.618C372.011 424.751 363.322 404.059 348.232 389.115C332.312 373.35 309.317 364.083 279.884 361.569L279.911 361.204Z" fill="white"/>
<path d="M201.027 506.751C194.039 493.072 190.21 475.906 189.649 455.731C188.886 428.33 200.214 400.849 219.95 382.213C236.869 366.239 258.191 358.466 279.986 360.33C309.717 362.87 332.973 372.258 349.105 388.231C364.413 403.391 373.224 424.348 375.29 450.52C377.708 481.16 369.614 505.025 351.226 521.45C343.188 528.632 333.142 534.38 321.366 538.541C310.664 542.323 298.462 544.82 285.103 545.966C270.979 547.175 258.081 546.28 246.768 543.303C235.198 540.257 225.175 535.003 216.98 527.688C210.566 521.961 205.199 514.917 201.027 506.751ZM279.836 362.077C258.544 360.258 237.704 367.863 221.154 383.49C201.774 401.786 190.651 428.775 191.402 455.683C192.289 487.543 201.288 511.327 218.152 526.381C226.139 533.51 235.917 538.634 247.218 541.609C258.336 544.537 271.033 545.415 284.957 544.222C298.169 543.089 310.224 540.621 320.787 536.889C332.345 532.804 342.194 527.173 350.062 520.143C368.017 504.104 375.917 480.723 373.544 450.661C371.513 424.919 362.875 404.336 347.874 389.482C332.037 373.799 309.145 364.581 279.836 362.077Z" fill="white"/>
<path d="M198.789 513.71C188.679 493.923 187.804 468.739 196.198 438.752C203.81 411.569 223.338 387.993 248.434 375.687C269.927 365.149 293.238 364.009 314.077 372.479L313.932 372.831L314.077 372.479C342.576 384.063 362.602 400.397 373.592 421.029C384.013 440.59 386.283 463.899 380.325 490.283C373.357 521.152 358.131 542.142 335.071 552.669C324.984 557.274 313.354 559.864 300.504 560.363C288.804 560.817 276.019 559.549 262.503 556.592C248.225 553.471 235.805 548.649 225.584 542.266C215.148 535.75 206.909 527.541 201.094 517.867C200.282 516.511 199.511 515.122 198.789 513.71ZM373.567 422.625C373.354 422.21 373.139 421.798 372.92 421.386C362.016 400.915 342.12 384.698 313.791 373.184C293.156 364.797 270.066 365.929 248.772 376.371C223.866 388.582 204.487 411.979 196.935 438.956C188 470.873 189.618 497.288 201.753 517.476C207.507 527.046 215.663 535.171 225.992 541.622C236.139 547.96 248.479 552.746 262.67 555.85C276.124 558.793 288.845 560.056 300.478 559.603C313.23 559.108 324.761 556.543 334.758 551.978C357.59 541.553 372.671 520.741 379.586 490.115C385.374 464.472 383.349 441.772 373.567 422.625Z" fill="white"/>
<path d="M198.335 513.942C188.17 494.045 187.286 468.701 195.708 438.616C203.357 411.295 222.984 387.601 248.21 375.231C269.671 364.707 292.941 363.501 313.795 371.82L314.739 372.203C343.101 383.821 363.052 400.167 374.041 420.792C384.526 440.463 386.808 463.888 380.822 490.397C373.815 521.429 358.495 542.536 335.282 553.134C325.134 557.768 313.44 560.37 300.525 560.873C288.783 561.331 275.955 560.057 262.395 557.093C248.061 553.957 235.586 549.118 225.316 542.703C214.812 536.143 206.516 527.876 200.66 518.132C199.842 516.769 199.06 515.361 198.335 513.942ZM373.113 422.857C372.902 422.444 372.688 422.037 372.471 421.626C361.622 401.265 341.816 385.124 313.598 373.656C293.1 365.325 270.157 366.45 248.993 376.828C224.214 388.977 204.936 412.253 197.422 439.094C189.115 468.761 189.961 493.638 199.921 513.132C200.63 514.521 201.385 515.881 202.187 517.213C207.898 526.714 215.998 534.783 226.261 541.19C236.359 547.496 248.645 552.259 262.778 555.352C276.19 558.286 288.868 559.545 300.459 559.094C313.142 558.602 324.611 556.052 334.547 551.516C357.225 541.161 372.212 520.465 379.089 490.004C384.848 464.484 382.838 441.893 373.113 422.857Z" fill="white"/>
<path d="M187.767 488.547C183.801 480.784 181.312 472.718 180.344 464.471C177.573 440.867 187.033 415.931 208.461 390.357C226.59 368.72 254.094 355.278 282.033 354.4C305.957 353.647 327.671 362.21 343.172 378.508C364.372 400.8 375.893 423.931 377.414 447.258C378.855 469.383 371.324 491.551 355.032 513.141C335.97 538.4 313.453 551.258 288.102 551.357C277.013 551.4 265.35 548.969 253.435 544.132C242.588 539.728 231.458 533.307 220.358 525.047C208.632 516.323 199.299 506.817 192.614 496.79C190.808 494.086 189.192 491.335 187.767 488.547ZM342.894 378.769L342.618 379.032C327.268 362.891 305.761 354.415 282.055 355.159C254.33 356.03 227.037 369.372 209.045 390.845C187.758 416.25 178.356 440.991 181.101 464.382C182.404 475.473 186.488 486.234 193.247 496.369C199.883 506.321 209.158 515.765 220.811 524.437C231.859 532.659 242.931 539.048 253.721 543.427C265.544 548.227 277.111 550.639 288.1 550.596C313.198 550.5 335.513 537.742 354.422 512.682C370.604 491.24 378.083 469.246 376.652 447.307C375.144 424.162 363.693 401.19 342.618 379.032L342.894 378.769Z" fill="white"/>
<path d="M187.314 488.778C183.325 480.97 180.81 472.812 179.837 464.53C177.049 440.78 186.549 415.712 208.069 390.027C226.29 368.28 253.933 354.771 282.015 353.887C306.086 353.129 327.936 361.747 343.537 378.153C364.823 400.534 376.391 423.773 377.918 447.222C379.367 469.472 371.802 491.754 355.435 513.445C336.271 538.838 313.618 551.765 288.101 551.865C276.945 551.909 265.216 549.466 253.24 544.604C242.351 540.184 231.185 533.74 220.052 525.456C208.281 516.696 198.906 507.146 192.187 497.074C190.382 494.365 188.742 491.574 187.314 488.778ZM342.249 379.381C327 363.349 305.629 354.927 282.071 355.669C254.49 356.537 227.334 369.809 209.434 391.172C188.242 416.466 178.879 441.077 181.607 464.323C182.898 475.333 186.958 486.02 193.671 496.087C200.274 505.991 209.508 515.391 221.117 524.029C232.13 532.225 243.165 538.593 253.913 542.955C265.674 547.73 277.176 550.13 288.097 550.086C313.027 549.989 335.205 537.302 354.016 512.376C370.121 491.035 377.567 469.154 376.144 447.341C374.644 424.314 363.239 401.452 342.249 379.381Z" fill="white"/>
<path d="M206.059 506.484C193.653 482.203 195.899 455.138 205.654 429.96C214.006 408.4 225.977 389.855 246.319 382.215C274.139 371.765 299.054 370.243 320.372 377.688C340.594 384.748 357.468 399.805 370.525 422.437C385.801 448.915 388.744 473.788 379.274 496.37C375.131 506.247 368.571 515.705 359.776 524.479C351.768 532.466 341.861 539.941 330.332 546.699C318.152 553.835 306.177 558.553 294.74 560.717C283.064 562.926 271.837 562.496 261.369 559.439C239.331 552.997 220.721 535.183 206.059 506.484ZM246.448 382.557L246.578 382.901C226.435 390.466 214.759 409.55 206.483 430.911C196.804 455.897 194.404 482.049 206.716 506.148C221.283 534.658 239.741 552.35 261.578 558.727C271.931 561.751 283.043 562.175 294.604 559.986C305.957 557.836 317.853 553.15 329.962 546.055C341.438 539.33 351.298 531.893 359.26 523.95C367.985 515.245 374.494 505.868 378.599 496.08C387.976 473.724 385.047 449.068 369.892 422.801C356.926 400.325 340.185 385.382 320.136 378.378C298.983 370.993 274.237 372.512 246.583 382.901L246.448 382.557Z" fill="white"/>
<path d="M205.604 506.717C199.675 495.112 196.792 482.271 197.036 468.549C197.255 456.2 199.995 443.155 205.179 429.777C209.853 417.707 215.057 408.147 221.09 400.55C228.249 391.532 236.443 385.378 246.137 381.739C274.07 371.247 299.103 369.722 320.536 377.207C340.877 384.31 357.841 399.442 370.962 422.182C386.319 448.808 389.274 473.832 379.738 496.567C375.57 506.505 368.973 516.017 360.131 524.836C352.092 532.853 342.153 540.355 330.584 547.136C318.353 554.303 306.322 559.039 294.829 561.215C283.073 563.441 271.765 563.007 261.222 559.925C239.048 553.449 220.333 535.545 205.604 506.717ZM246.755 383.382C229.737 389.775 217.091 404.936 206.957 431.1C196.079 459.182 196.151 484.354 207.17 505.92C221.67 534.302 240.023 551.904 261.72 558.245C271.995 561.247 283.028 561.667 294.509 559.493C305.805 557.355 317.647 552.689 329.703 545.624C341.144 538.919 350.966 531.51 358.898 523.596C367.577 514.939 374.046 505.616 378.126 495.891C387.439 473.688 384.521 449.186 369.447 423.062C356.545 400.696 339.895 385.825 319.963 378.867C298.924 371.519 274.296 373.037 246.755 383.382ZM221.179 402.091C215.511 409.458 210.582 418.648 206.129 430.145C204.231 435.046 202.664 439.9 201.428 444.69C202.644 440.121 204.17 435.466 206.005 430.733C210.512 419.103 215.515 409.619 221.179 402.091Z" fill="white"/>
<path d="M246.99 70.3479C256.671 32.7182 273.036 0 317.338 0C356.188 0 391.43 34.2282 388.868 76.4042C386.513 115.184 352.836 148.033 311.608 143.416C273.003 139.093 235.907 113.434 246.99 70.3479Z" fill="white"/>
<g opacity="0.8">
<path opacity="0.8" d="M306.713 95.5066C306.713 92.4322 306.898 89.7556 307.264 87.477C307.629 85.2038 308.239 83.1215 309.084 81.2354C309.929 79.3492 311.025 77.5612 312.366 75.8714C313.707 74.1815 315.359 72.3826 317.305 70.4747C318.777 69.041 320.156 67.6891 321.431 66.4135C322.707 65.1379 323.835 63.8242 324.811 62.4832C325.787 61.1422 326.556 59.7085 327.117 58.1931C327.679 56.6776 327.962 54.9878 327.962 53.1234C327.962 49.0514 326.954 45.9387 324.942 43.7964C322.925 41.6486 319.965 40.5802 316.067 40.5802C314.508 40.5802 312.987 40.7982 311.516 41.2289C310.044 41.665 308.719 42.3573 307.547 43.3113C306.375 44.2652 305.432 45.4808 304.718 46.9527C304.004 48.4245 303.644 50.2016 303.644 52.284H287.863C287.906 48.2119 288.653 44.625 290.103 41.5233C291.553 38.427 293.548 35.8267 296.083 33.7226C298.618 31.6184 301.589 30.0376 304.991 28.9746C308.392 27.9116 312.088 27.3828 316.073 27.3828C320.45 27.3828 324.348 27.9443 327.777 29.0727C331.2 30.2011 334.105 31.8474 336.488 34.0115C338.87 36.1811 340.68 38.8249 341.917 41.943C343.155 45.0665 343.771 48.5989 343.771 52.5402C343.771 55.4021 343.318 58.0677 342.408 60.5371C341.497 63.0065 340.282 65.3287 338.766 67.4928C337.245 69.6624 335.517 71.7393 333.566 73.7345C331.614 75.7296 329.597 77.703 327.52 79.6491C325.133 81.8186 323.541 84.1899 322.74 86.7683C321.938 89.3468 321.513 92.2632 321.47 95.5121H306.713V95.5066ZM305.612 115.725C305.612 114.51 305.808 113.387 306.195 112.345C306.582 111.304 307.16 110.394 307.918 109.614C308.676 108.835 309.608 108.23 310.714 107.794C311.821 107.363 313.086 107.145 314.519 107.145C315.948 107.145 317.218 107.363 318.324 107.794C319.431 108.23 320.363 108.835 321.121 109.614C321.878 110.394 322.462 111.304 322.876 112.345C323.285 113.387 323.492 114.515 323.492 115.725C323.492 118.107 322.712 120.103 321.153 121.705C319.594 123.308 317.381 124.109 314.519 124.109C311.657 124.109 309.461 123.308 307.923 121.705C306.381 120.103 305.612 118.107 305.612 115.725Z" fill="#FCC568"/>
</g>
<path d="M26.0579 573.721C36.0649 534.826 52.9842 501 98.7788 501C138.943 501 175.37 536.38 172.721 579.981C170.286 620.07 135.473 654.026 92.8587 649.255C52.9464 644.782 14.5979 618.256 26.0579 573.721Z" fill="white"/>
<path d="M129.648 569.248C129.694 576.722 127.067 583.584 122.676 588.935C118.891 593.543 116.758 599.287 116.758 605.25V613.847C116.758 616.277 115.869 618.515 114.404 620.243C112.581 622.393 109.864 623.765 106.839 623.765H90.9651C85.5083 623.765 81.0462 619.301 81.0462 613.847V605.265C81.0462 599.312 78.946 593.566 75.1588 588.97C70.7848 583.659 68.1559 576.853 68.1559 569.432C68.1559 554.754 78.4424 542.475 92.2015 539.418C92.5918 539.33 92.9871 539.252 93.3825 539.182C93.594 539.144 93.8055 539.109 94.017 539.073C95.6085 538.816 97.2402 538.686 98.9022 538.686C115.862 538.686 129.55 552.291 129.648 569.248Z" fill="#FCC568"/>
<path d="M106.781 623.768L106.746 624.032L106.311 627.376L106.195 628.257V628.265L106.079 629.151L105.643 632.493L105.527 633.374L105.525 633.382L105.409 634.271L105.346 634.759C105.124 636.454 103.186 637.751 100.869 637.751H95.6437C95.0923 637.751 94.5634 637.678 94.0724 637.544H94.0699C93.6292 637.423 93.2188 637.252 92.8536 637.038L92.8259 637.02C92.5288 636.847 92.2644 636.643 92.0353 636.419C91.5669 635.958 91.2572 635.401 91.169 634.792L90.9852 633.495L90.8668 632.679V632.677L90.8643 632.659V632.657L90.7485 631.858L90.3053 628.759L90.1895 627.945L90.1869 627.928L90.0711 627.124L89.5901 623.768H106.781Z" fill="#ED7D2B"/>
<path d="M104.709 623.768H104.674H101.758C96.9935 625.145 92.2669 626.507 90.0787 627.124L90.1945 627.928L90.197 627.945L90.3129 628.759C92.0856 628.267 96.3438 627.049 106.749 624.032L106.784 623.768H104.709Z" fill="#FCC568"/>
<path d="M90.8694 632.657L90.8719 632.678V632.68L90.9902 633.496C93.04 632.919 97.2704 631.706 106.081 629.152L106.197 628.266V628.258L106.313 627.377C100.745 628.989 94.0069 630.935 90.756 631.859L90.8694 632.657Z" fill="#FCC568"/>
<path d="M92.831 637.018L92.8587 637.035C93.2238 637.249 93.6342 637.421 94.0749 637.542H94.0774C96.4948 636.849 100.081 635.814 105.417 634.268L105.532 633.379L105.535 633.372L105.651 632.49C100.886 633.87 95.4196 635.449 92.0428 636.413C92.2669 636.64 92.5338 636.844 92.831 637.018Z" fill="#FCC568"/>
<path d="M87.4193 584.323L86.0488 584.555L92.7116 623.893L94.0821 623.661L87.4193 584.323Z" fill="#ED7D2B"/>
<path d="M110.186 584.912L103.105 623.631L104.473 623.881L111.554 585.162L110.186 584.912Z" fill="#ED7D2B"/>
<path d="M102.571 591.564C102.392 591.564 102.193 591.541 101.972 591.491C101.599 591.405 101.365 591.148 101.289 590.746C101.131 589.877 101.813 588.283 102.77 586.931C102.269 586.057 101.604 585.337 100.904 585.125C99.8716 584.813 98.2877 585.765 97.1848 586.984C97.3862 587.271 97.5676 587.568 97.7262 587.867C98.2903 588.935 98.6982 590.3 98.1417 590.929C97.9352 591.164 97.5147 591.375 96.6812 591.06C95.6387 590.668 95.266 589.784 95.6538 588.638C95.8452 588.076 96.1952 587.492 96.6409 586.951C95.7872 585.835 94.644 584.989 93.5184 585.13C92.9166 585.206 92.4029 585.417 91.9723 585.714C92.6925 587.054 92.8587 588.754 92.3575 589.665C92.0176 590.287 91.4233 590.484 90.6855 590.219C90.1542 590.03 89.8772 589.3 89.9804 588.358C90.0837 587.394 90.5672 586.339 91.4233 585.606C91.1992 585.259 90.9323 584.949 90.6226 584.71C88.6836 583.204 87.0821 584.82 87.0141 584.888L86.7119 584.596C86.7321 584.576 88.6484 582.645 90.8819 584.377C91.2194 584.639 91.514 584.974 91.7582 585.352C92.2342 585.029 92.8033 584.798 93.4655 584.715C94.7271 584.556 95.9862 585.445 96.9204 586.631C98.1215 585.327 99.8313 584.362 101.025 584.722C101.778 584.951 102.49 585.677 103.034 586.573C103.541 585.916 104.105 585.344 104.654 584.982C105.532 584.4 106.104 584.533 106.429 584.747C106.764 584.966 107.046 585.261 107.282 585.601C107.547 585.392 107.824 585.213 108.098 585.075C109.116 584.569 110.05 584.606 110.73 585.181L110.458 585.503C109.725 584.883 108.783 585.206 108.285 585.452C108.013 585.588 107.748 585.762 107.502 585.959C108.179 587.18 108.31 588.771 107.922 589.544C107.678 590.03 107.242 590.199 106.731 590.013C105.812 589.675 105.588 589.043 105.56 588.57C105.51 587.668 106.137 586.639 106.953 585.883C106.741 585.568 106.489 585.296 106.195 585.102C105.797 584.841 105.263 585.085 104.883 585.337C104.336 585.699 103.762 586.296 103.256 586.971C103.888 588.172 104.215 589.572 103.976 590.474C103.86 590.909 103.528 591.564 102.571 591.564ZM102.989 587.344C102.156 588.557 101.569 589.932 101.705 590.67C101.748 590.904 101.863 591.035 102.065 591.08C102.888 591.267 103.397 591.028 103.571 590.365C103.772 589.6 103.508 588.404 102.989 587.344ZM96.9028 587.313C96.5175 587.794 96.2153 588.3 96.0542 588.776C95.7344 589.718 95.9962 590.353 96.8323 590.67C97.1697 590.796 97.6154 590.897 97.8294 590.655C98.1593 590.28 97.9654 589.215 97.3585 588.066C97.22 587.809 97.069 587.555 96.9028 587.313ZM91.6399 585.979C90.9046 586.633 90.4916 587.56 90.401 588.404C90.3229 589.121 90.4992 589.706 90.829 589.821C91.3629 590.01 91.7557 589.889 91.9924 589.461C92.4205 588.681 92.2644 587.18 91.6399 585.979ZM107.172 586.248C106.441 586.951 105.943 587.85 105.983 588.545C106.011 589.048 106.313 589.408 106.877 589.615C107.187 589.728 107.401 589.645 107.547 589.353C107.872 588.706 107.733 587.323 107.172 586.248Z" fill="#ED7D2B"/>
<path d="M114.774 550.51C117.302 552.892 116.985 557.274 113.734 558.248C111.284 558.984 107.627 558.001 105.819 554.874C104.014 551.746 104.845 549.173 107.063 547.894C109.279 546.615 112.145 548.032 114.774 550.51Z" fill="#FFF0E3"/>
<path d="M98.2274 532.901H97.9327C97.3938 532.901 96.9557 532.461 96.9557 531.924V519.807C96.9557 519.268 97.3964 518.83 97.9327 518.83H98.2274C98.7662 518.83 99.2044 519.271 99.2044 519.807V531.922C99.2044 532.461 98.7637 532.901 98.2274 532.901Z" fill="#FCC568"/>
<path d="M134.876 546.99L134.715 546.711C134.45 546.252 134.609 545.658 135.067 545.394L141.008 541.964C141.466 541.7 142.06 541.858 142.325 542.316L142.486 542.596C142.75 543.054 142.592 543.649 142.133 543.913L136.193 547.343C135.735 547.607 135.14 547.448 134.876 546.99Z" fill="#FCC568"/>
<path d="M138.935 563.934C138.935 563.315 139.441 562.809 140.061 562.809H155.084C155.703 562.809 156.21 563.315 156.21 563.934C156.21 564.554 155.703 565.06 155.084 565.06H140.061C139.441 565.06 138.935 564.551 138.935 563.934Z" fill="#FCC568"/>
<path d="M117.939 537.981C117.37 537.739 117.103 537.074 117.345 536.505L125.32 517.81C125.562 517.241 126.226 516.974 126.798 517.216C127.367 517.458 127.634 518.123 127.392 518.692L119.417 537.386C119.173 537.955 118.508 538.222 117.939 537.981Z" fill="#FCC568"/>
<path d="M62.7873 546.99L62.9484 546.711C63.2128 546.252 63.0542 545.658 62.5959 545.394L56.6556 541.964C56.1973 541.7 55.603 541.858 55.3386 542.316L55.1775 542.596C54.9131 543.054 55.0717 543.649 55.53 543.913L61.4703 547.343C61.9311 547.607 62.5229 547.448 62.7873 546.99Z" fill="#FCC568"/>
<path d="M58.7306 563.934C58.7306 563.315 58.2244 562.809 57.605 562.809H42.5818C41.9624 562.809 41.4562 563.315 41.4562 563.934C41.4562 564.554 41.9624 565.06 42.5818 565.06H57.605C58.2219 565.06 58.7306 564.551 58.7306 563.934Z" fill="#FCC568"/>
<path d="M79.7267 537.981C80.2958 537.739 80.5627 537.074 80.321 536.505L72.3461 517.81C72.1043 517.241 71.4396 516.974 70.8705 517.216C70.3014 517.458 70.0344 518.123 70.2762 518.692L78.2511 537.386C78.4928 537.955 79.1576 538.222 79.7267 537.981Z" fill="#FCC568"/>
</svg>
