<svg width="90" height="78" viewBox="0 0 90 78" fill="none" xmlns="http://www.w3.org/2000/svg">
<path d="M13.4099 56.5416C12.7879 49.3501 9.28934 43.7913 5.61585 44.1023C1.94236 44.4327 -0.526069 50.5163 0.0958972 57.7078C0.717864 64.8993 4.21643 70.4581 7.88992 70.1472C11.5828 69.8167 14.0513 63.7331 13.4099 56.5416Z" fill="#404040"/>
<path d="M89.698 57.7078C90.3394 50.5163 87.8515 44.4327 84.1975 44.1023C80.524 43.7913 77.0449 49.3501 76.4035 56.5416C75.7815 63.7331 78.2499 69.8167 81.9234 70.1472C85.5969 70.4581 89.076 64.8993 89.698 57.7078Z" fill="#404040"/>
<path d="M44.9164 9.13513C62.1565 9.13513 76.1313 24.4899 76.1313 43.421H78.0166C78.0166 16.4627 65.0525 0 44.8969 0C24.7413 0 11.7772 13.45 11.7772 43.421H13.6625C13.682 24.4899 27.6762 9.13513 44.9164 9.13513Z" fill="#404040"/>
<path d="M18.9882 18.5432C25.0523 9.31092 34.4207 3.38281 44.9164 3.38281C55.4121 3.38281 64.7805 9.31092 70.8446 18.5432C64.5083 10.7298 55.2372 5.79293 44.9164 5.79293C34.5956 5.77349 25.3244 10.7103 18.9882 18.5432Z" fill="#262626"/>
<path d="M22.6811 41.6321C22.3507 37.9586 19.1048 35.2181 15.4313 35.5485L11.6412 35.8789C7.94825 36.2093 5.22715 39.4552 5.55757 43.1287L8.00656 71.1172C8.33698 74.8102 11.5829 77.5312 15.2564 77.2008L19.0465 76.8704C22.7394 76.5594 25.4605 73.2941 25.1301 69.6206L22.6811 41.6321Z" fill="#262626"/>
<path d="M84.2752 43.1287C84.6056 39.4358 81.8651 36.1899 78.1916 35.8789L74.4015 35.5485C70.728 35.2181 67.4627 37.9586 67.1517 41.6321L64.7027 69.6012C64.3723 73.2941 67.1128 76.54 70.7863 76.851L74.5764 77.1814C78.2499 77.5118 81.5152 74.7713 81.8262 71.0978L84.2752 43.1287Z" fill="#262626"/>
</svg>
