<svg width="144" height="144" viewBox="0 0 144 144" fill="none" xmlns="http://www.w3.org/2000/svg">
<path d="M1.98964 70.3479C11.671 32.7182 28.0356 0 72.3376 0C111.188 0 146.43 34.2282 143.868 76.4042C141.513 115.184 107.836 148.033 66.6083 143.416C28.0028 139.093 -9.09268 113.434 1.98964 70.3479Z" fill="white"/>
<g opacity="0.8">
<path opacity="0.8" d="M61.7131 95.5066C61.7131 92.4322 61.8985 89.7556 62.2637 87.477C62.629 85.2038 63.2395 83.1215 64.0844 81.2354C64.9294 79.3492 66.0251 77.5612 67.3661 75.8714C68.7071 74.1815 70.3588 72.3826 72.3049 70.4747C73.7767 69.041 75.1558 67.6891 76.4314 66.4135C77.707 65.1379 78.8354 63.8242 79.8112 62.4832C80.787 61.1422 81.5556 59.7085 82.117 58.1931C82.6785 56.6776 82.962 54.9878 82.962 53.1234C82.962 49.0514 81.9535 45.9387 79.942 43.7964C77.9251 41.6486 74.965 40.5802 71.0674 40.5802C69.5084 40.5802 67.9875 40.7982 66.5157 41.2289C65.0438 41.665 63.7192 42.3573 62.5472 43.3113C61.3752 44.2652 60.4321 45.4808 59.718 46.9527C59.0039 48.4245 58.6441 50.2016 58.6441 52.284H42.8629C42.9065 48.2119 43.6533 44.625 45.1033 41.5233C46.5533 38.427 48.5485 35.8267 51.0833 33.7226C53.6181 31.6184 56.589 30.0376 59.9906 28.9746C63.3921 27.9116 67.0881 27.3828 71.0729 27.3828C75.4502 27.3828 79.3478 27.9443 82.7766 29.0727C86.2 30.2011 89.1055 31.8474 91.4877 34.0115C93.8699 36.1811 95.6797 38.8249 96.9171 41.943C98.1545 45.0665 98.7705 48.5989 98.7705 52.5402C98.7705 55.4021 98.3181 58.0677 97.4077 60.5371C96.4974 63.0065 95.2817 65.3287 93.7663 67.4928C92.2454 69.6624 90.5174 71.7393 88.5658 73.7345C86.6143 75.7296 84.5974 77.703 82.5204 79.6491C80.1328 81.8186 78.541 84.1899 77.7397 86.7683C76.9384 89.3468 76.5132 92.2632 76.4696 95.5121H61.7131V95.5066ZM60.612 115.725C60.612 114.51 60.8083 113.387 61.1953 112.345C61.5823 111.304 62.1602 110.394 62.9179 109.614C63.6756 108.835 64.6077 108.23 65.7143 107.794C66.8209 107.363 68.0856 107.145 69.5193 107.145C70.9475 107.145 72.2176 107.363 73.3242 107.794C74.4308 108.23 75.363 108.835 76.1207 109.614C76.8784 110.394 77.4617 111.304 77.876 112.345C78.2848 113.387 78.492 114.515 78.492 115.725C78.492 118.107 77.7125 120.103 76.1534 121.705C74.5944 123.308 72.3812 124.109 69.5193 124.109C66.6574 124.109 64.4606 123.308 62.9233 121.705C61.3806 120.103 60.612 118.107 60.612 115.725Z" fill="#FCC568"/>
</g>
</svg>
