<svg width="138" height="45" viewBox="0 0 138 45" fill="none" xmlns="http://www.w3.org/2000/svg">
<g clip-path="url(#clip0_198_1638)">
<path d="M108.176 15.5601C103.38 17.0746 98.8347 18.3817 94.8344 19.6057V37.7593C99.7563 38.4232 105.621 38.0705 111.904 36.0788C128.01 30.975 138.314 9.33603 138 8.36093C137.12 5.66384 124.282 10.4564 108.176 15.5601Z" fill="#A0C000"/>
<path d="M128.031 12.6148C111.569 16.4115 99.5259 30.8721 99.7563 31.8679C100.175 33.6521 105.935 32.76 114.061 31.121C127.612 28.3617 135.508 14.6895 137.539 9.85547C134.565 10.6439 131.382 11.8264 128.031 12.6148Z" fill="#809900"/>
<path d="M29.8242 15.5592C34.6204 17.0737 39.1653 18.3808 43.1656 19.6049V37.7584C38.2437 38.4223 32.3794 38.0696 26.0962 36.0779C9.99028 30.9742 -0.314162 9.35591 -1.84741e-06 8.3808C0.879646 5.66296 13.7183 10.4555 29.8242 15.5592Z" fill="#A0C000"/>
<path d="M9.96933 12.6141C26.4313 16.4107 38.4741 30.8713 38.2437 31.8672C37.8249 33.6514 32.0652 32.7593 23.939 31.1203C10.3882 28.361 2.49232 14.6888 0.460754 9.83398C3.4348 10.6431 6.61829 11.8257 9.96933 12.6141Z" fill="#809900"/>
<path d="M99.2117 35.6017C99.2117 29.1909 85.6819 0 69.0105 0C52.3181 0 38.8092 29.1909 38.8092 35.6017C38.8092 42.0124 52.3391 32.5726 69.0105 32.5726C85.6819 32.5934 99.2117 42.0124 99.2117 35.6017Z" fill="#607300"/>
<path d="M38.7883 32.5934C38.7883 37.0332 39.7727 39.1286 41.511 42.9253L46.4747 45.0207C46.0768 42.9461 45.8045 40.8091 45.8045 38.6307C45.8045 33.8382 44.0662 27.8008 47.4382 25.0622C52.4647 21.0166 61.8267 24.6473 68.9895 24.6473C76.1314 24.6473 85.5144 20.9958 90.5409 25.0622C93.9129 27.7801 92.1745 33.8174 92.1745 38.6307C92.1745 40.8091 91.9023 42.9461 91.5043 45.0207L96.4681 42.9253C98.2064 39.1494 99.1908 37.0332 99.1908 32.5934C99.1908 30.1452 98.9604 25.7469 99.1489 25.5602C104.071 20.4357 85.1583 0 69.0105 0C52.8627 0 33.9502 20.4357 38.8511 25.5602C39.0187 25.7469 38.7883 30.1452 38.7883 32.5934Z" fill="#C7E62E"/>
<path d="M39.8564 32.5936C39.8564 37.0335 39.7727 39.1289 41.532 42.9256L46.4957 45.021C46.0977 42.9463 45.8255 40.8094 45.8255 38.631C45.8255 33.8384 44.0871 27.8011 47.4591 25.0625C52.4857 21.0169 61.8476 22.2824 69.0105 22.2824C76.1524 22.2824 85.5353 20.9961 90.5619 25.0625C93.9338 27.7803 92.1955 33.8177 92.1955 38.631C92.1955 40.8094 91.9232 42.9463 91.5253 45.021L96.489 42.9256C98.2274 39.1496 98.1645 37.0335 98.1645 32.5936C98.1645 30.1455 97.9341 25.7472 98.1226 25.5604C103.024 20.4567 85.1583 2.0957 69.0105 2.0957C52.8627 2.0957 34.9974 20.4567 39.8983 25.5604C40.0659 25.7472 39.8564 30.1455 39.8564 32.5936Z" fill="#A0C000"/>
<path d="M43.4588 15.4155C42.4744 15.9757 41.5319 16.5151 40.6314 17.0337C39.7727 18.2786 39.1024 19.4819 38.6836 20.5815C40.4429 19.4611 42.5791 18.2371 44.9668 16.8885C53.6795 11.9923 62.5178 13.486 66.7485 16.681C63.565 12.5732 53.4281 9.81383 43.4588 15.4155Z" fill="#C7E62E"/>
<path d="M94.4155 15.4149C95.3999 15.9751 96.3424 16.4937 97.243 17.0124C98.1017 18.2572 98.7509 19.4605 99.2117 20.5601C97.4524 19.4398 95.3161 18.2157 92.9285 16.8672C84.2158 11.9709 75.3774 13.4647 71.1468 16.6597C74.3302 12.5726 84.4671 9.81324 94.4155 15.4149Z" fill="#C7E62E"/>
</g>
<defs>
<clipPath id="clip0_198_1638">
<rect width="138" height="45" fill="white"/>
</clipPath>
</defs>
</svg>
