<svg width="126" height="74" viewBox="0 0 126 74" fill="none" xmlns="http://www.w3.org/2000/svg">
<g opacity="0.3" clip-path="url(#clip0_256_2276)">
<path d="M72.3492 66.1067C80.4148 65.6815 92.2392 64.4989 95.2354 55.5429C95.4226 55.5429 95.6233 55.5429 95.8105 55.5429C98.3118 55.5562 100.76 55.7023 103.207 55.0247C103.689 54.8918 103.89 54.2806 103.528 53.9218C101.937 52.3405 100.559 50.6131 99.3953 48.7129C99.0876 48.208 98.352 48.3143 98.1647 48.8591C97.1882 51.5831 95.115 53.5099 92.3729 54.44C92.2392 54.4799 92.1321 54.5596 92.0519 54.6526C90.6073 54.8918 89.1894 55.3303 87.8117 56.1807C85.3639 57.6955 83.1435 59.516 80.6422 60.9643C77.9537 62.519 75.1447 63.8345 72.2288 64.9108C71.6269 65.1234 71.6001 66.1466 72.3492 66.1067Z" fill="#5791CC"/>
<path d="M125.92 58.8658C124.863 56.9391 123.793 55.0124 122.736 53.0856C122.496 52.6338 121.666 52.687 121.573 53.2318C121.359 54.441 121.131 55.6768 120.784 56.8594C120.717 56.8195 120.65 56.7796 120.556 56.7664C114.216 56.102 107.862 59.9422 104.492 65.0713C104.278 65.4035 104.559 65.9881 105 65.935C109.08 65.43 113.989 65.4699 117.654 63.397C119.419 62.4004 120.543 60.8856 121.305 59.1715C122.589 60.0219 124.021 60.2345 125.559 59.7561C125.947 59.6498 126.121 59.2246 125.92 58.8658Z" fill="#5791CC"/>
<path d="M106.658 31.7836C105.294 33.7901 103.649 35.3581 101.789 36.5806C94.2721 34.5209 84.4542 34.7335 78.9567 40.8592C78.7293 41.1117 78.8764 41.5369 79.2376 41.5502C86.7415 41.6831 95.3422 41.5502 101.789 37.6303C103.475 38.1884 105.214 38.6269 106.899 39.1318C107.18 39.2116 107.474 38.9857 107.474 38.6933C107.488 36.461 107.501 34.2419 107.501 32.0095C107.514 31.5445 106.899 31.4249 106.658 31.7836Z" fill="#5791CC"/>
<path d="M66.5442 38.5751C66.2099 38.2562 65.7684 38.4422 65.6079 38.8143C65.0729 40.0633 65.434 41.1928 65.7551 42.4552C65.8755 42.9335 65.9423 43.3454 65.9423 43.7175C59.134 42.7874 52.2186 47.9032 49.6505 53.8827C49.5167 54.1883 49.7441 54.6135 50.1186 54.4939C54.7199 53.0589 59.1072 51.0125 63.1334 48.3815C64.3907 47.5577 66.3302 46.5744 66.9188 45.0729C67.5341 45.0994 68.1627 45.1526 68.7914 45.2323C69.1258 45.2855 69.594 45.0862 69.5405 44.6609C69.2596 42.2824 68.2965 40.2627 66.5442 38.5751Z" fill="#5791CC"/>
<path d="M64.1499 61.1516C63.655 59.0255 63.4677 56.9393 63.5881 54.7601C63.6015 54.4811 63.3206 54.202 63.0397 54.2153C60.5785 54.3482 60.8728 56.6603 61.1002 58.4674C60.8996 58.4541 60.7123 58.4674 60.5117 58.5073C60.525 58.3212 60.4046 58.1352 60.1773 58.1086C54.9473 57.5771 51.2288 62.3342 48.5536 66.0946C48.3262 66.4135 48.7007 66.8919 49.0752 66.759C51.1753 66.0282 53.2619 65.2974 55.3619 64.5798C57.0874 63.9819 58.9868 63.5567 60.6053 62.7328C61.5416 62.2544 62.1836 61.5369 62.3308 60.4739C62.3442 60.3809 62.3442 60.2613 62.3442 60.1417C62.6786 60.4207 62.9461 60.8326 63.0798 61.4306C63.2403 62.1216 64.3104 61.8292 64.1499 61.1516Z" fill="#5791CC"/>
<path d="M24.49 34.5345C32.5557 34.1093 44.38 32.9266 47.3762 23.9706C47.5635 23.9706 47.7641 23.9706 47.9514 23.9706C50.4527 23.9839 52.9005 24.1301 55.3483 23.4524C55.8298 23.3195 56.0305 22.7083 55.6693 22.3495C54.0776 20.7683 52.6999 19.0408 51.5361 17.1407C51.2285 16.6357 50.4928 16.742 50.3056 17.2868C49.3291 20.0109 47.2559 21.9376 44.5138 22.8677C44.38 22.9076 44.273 22.9873 44.1928 23.0803C42.7482 23.3195 41.3303 23.758 39.9526 24.6084C37.5048 26.1233 35.2844 27.9437 32.7831 29.3921C30.0945 30.9467 27.2856 32.2622 24.3696 33.3386C23.7544 33.5512 23.7276 34.5743 24.49 34.5345Z" fill="#5791CC"/>
<path d="M78.0605 27.2936C77.0038 25.3668 75.9338 23.4401 74.8771 21.5134C74.6363 21.0616 73.807 21.1147 73.7134 21.6595C73.4993 22.8687 73.272 24.1045 72.9242 25.2871C72.8573 25.2472 72.7904 25.2074 72.6968 25.1941C66.3566 24.5297 60.003 28.3699 56.6323 33.499C56.4183 33.8312 56.6992 34.4159 57.1406 34.3627C61.2203 33.8578 66.1292 33.8976 69.7942 31.8247C71.5598 30.8281 72.6834 29.3133 73.4458 27.5992C74.7299 28.4496 76.1612 28.6622 77.6994 28.1839C78.0739 28.0776 78.2612 27.6523 78.0605 27.2936Z" fill="#5791CC"/>
<path d="M58.7862 0.213335C57.4218 2.2198 55.7766 3.78776 53.9173 5.01025C46.4 2.95063 36.5821 3.16324 31.0846 9.28893C30.8572 9.5414 31.0044 9.96661 31.3655 9.9799C38.8694 10.1128 47.4701 9.9799 53.9173 6.05999C55.6027 6.61808 57.3416 7.05657 59.0269 7.56151C59.3078 7.64124 59.6021 7.41535 59.6021 7.12301C59.6155 4.89066 59.6288 2.67159 59.6288 0.439228C59.6422 -0.025846 59.0269 -0.145437 58.7862 0.213335Z" fill="#5791CC"/>
<path d="M18.6849 7.00284C18.3505 6.68394 17.9091 6.86997 17.7486 7.24203C17.2135 8.49108 17.5747 9.62055 17.8957 10.8829C18.0161 11.3613 18.083 11.7732 18.083 12.1452C11.2746 11.2151 4.35926 16.3442 1.79108 22.3237C1.65732 22.6293 1.88471 23.0546 2.25924 22.935C6.86056 21.4999 11.2479 19.4536 15.274 16.8226C16.5313 15.9987 18.4709 15.0154 19.0594 13.5139C19.6747 13.5405 20.3034 13.5936 20.932 13.6733C21.2664 13.7265 21.7346 13.5272 21.6811 13.102C21.4002 10.7102 20.4371 8.6904 18.6849 7.00284Z" fill="#5791CC"/>
<path d="M-7.42501 73.9993C0.640675 73.5741 12.465 72.3915 15.4612 63.4355C15.6485 63.4355 15.8491 63.4355 16.0364 63.4355C18.5377 63.4488 20.9855 63.5949 23.4332 62.9172C23.9148 62.7844 24.1154 62.1731 23.7543 61.8144C22.1625 60.2331 20.7848 58.5057 19.6211 56.6055C19.3135 56.1006 18.5778 56.2069 18.3905 56.7517C17.4141 59.4757 15.3408 61.4024 12.5987 62.3326C12.465 62.3724 12.358 62.4522 12.2777 62.5452C10.8331 62.7844 9.41528 63.2229 8.03756 64.0733C5.58977 65.5881 3.36936 67.4085 0.868065 68.8569C-1.8205 70.4116 -4.62944 71.7271 -7.54539 72.8034C-8.16068 73.016 -8.18743 74.0392 -7.42501 73.9993Z" fill="#5791CC"/>
<path d="M46.1455 66.7584C45.0888 64.8317 44.0187 62.9049 42.962 60.9782C42.7213 60.5264 41.892 60.5796 41.7983 61.1244C41.5843 62.3336 41.3569 63.5693 41.0091 64.7519C40.9423 64.7121 40.8754 64.6722 40.7818 64.6589C34.4416 63.9945 28.088 67.8347 24.7173 72.9638C24.5033 73.296 24.7841 73.8807 25.2256 73.8275C29.3052 73.3226 34.2142 73.3625 37.8792 71.2896C39.6448 70.293 40.7684 68.7782 41.5308 67.064C42.8149 67.9145 44.2461 68.1271 45.7843 67.6487C46.1723 67.5424 46.3461 67.1172 46.1455 66.7584Z" fill="#5791CC"/>
<path d="M26.8712 39.6771C25.5068 41.6835 23.8616 43.2515 22.0024 44.474C14.4851 42.4144 4.66716 42.627 -0.830347 48.7527C-1.04436 49.0051 -0.897227 49.4303 -0.536077 49.4303C6.96782 49.5632 15.5685 49.4303 22.0157 45.5104C23.7011 46.0685 25.44 46.507 27.1253 47.012C27.4062 47.0917 27.7005 46.8658 27.7005 46.5735C27.7139 44.3411 27.7272 42.122 27.7272 39.8897C27.7406 39.4379 27.1253 39.3183 26.8712 39.6771Z" fill="#5791CC"/>
<path d="M35.7794 54.1084C34.6558 51.9026 34.7896 49.245 36.4215 47.2518C36.7559 46.8399 36.3546 46.3084 35.8597 46.521C34.9234 46.9329 34.2679 47.5575 33.5456 48.2484C33.1444 48.6338 32.7565 49.059 32.2749 49.338C31.031 50.0556 29.787 49.3115 28.7437 48.6205C26.7908 47.3316 24.9984 46.1357 22.5774 46.0294C19.4474 45.8965 13.0136 47.0924 12.0372 50.7465C11.9836 50.813 11.9301 50.8794 11.89 50.9591C11.8633 50.9724 11.8231 50.9724 11.7964 50.9857C11.248 51.185 11.4754 51.9292 12.0372 51.8361C14.1907 51.4907 15.9295 53.0321 17.8958 53.5901C19.6481 54.0818 21.3602 53.6167 23.0857 53.2048C26.9647 52.2879 32.3686 51.1585 34.9902 54.8791C35.1374 55.1448 35.2845 55.4106 35.4584 55.663C35.8597 56.2344 36.7157 55.7428 36.4081 55.1182C36.2074 54.7462 36.0068 54.4273 35.7794 54.1084Z" fill="#436DB0"/>
</g>
<defs>
<clipPath id="clip0_256_2276">
<rect width="134" height="74" fill="white" transform="translate(-8)"/>
</clipPath>
</defs>
</svg>
