<svg width="100" height="173" viewBox="0 0 100 173" fill="none" xmlns="http://www.w3.org/2000/svg">
<g opacity="0.6">
<path opacity="0.6" d="M28.6233 17.1558C28.4348 16.024 28.3405 15.4177 28.3405 15.4177L61.2459 5.75691C61.2459 5.75691 61.4345 6.33628 61.7845 7.42767C63.6021 13.1271 69.8224 32.6239 76.2446 53.1986C84.3094 79.0147 92.6838 106.555 93.1281 110.746L93.1281 110.759C93.936 118.642 87.6753 170.718 83.6093 172.16C79.5297 173.588 50.65 131.294 47.8496 124.045C45.1433 117.079 30.8313 30.5759 28.6233 17.1558Z" fill="#9263B7"/>
<path opacity="0.6" d="M31.9621 21.0887C31.787 20.0377 31.6928 19.4718 31.6928 19.4718L60.0475 11.1449C60.0475 11.1449 60.2225 11.6839 60.5322 12.6944C64.2886 24.6727 88.4695 101.905 89.2638 108.871C89.385 109.949 89.385 111.916 89.2908 114.49C89.2504 115.676 89.1831 116.983 89.1023 118.397C88.1464 134.714 84.6996 164.532 81.953 165.516C78.9775 166.58 60.1013 138.258 52.8578 125.471C52.0769 124.097 51.4307 122.898 50.9595 121.941C50.6363 121.294 50.3939 120.755 50.2324 120.338C47.8089 113.843 34.0893 33.5386 31.9621 21.0887Z" fill="#9263B7"/>
<path opacity="0.6" d="M65.7022 147.812L55.8467 56.3784L40.2019 42.635L81.2933 46.9736L99.604 106.34L65.7022 147.812Z" fill="#9263B7"/>
<path opacity="0.6" d="M85.4805 111.109C85.4805 111.109 81.4952 117.509 71.1819 120.541C60.8687 123.572 53.2617 119.53 53.2617 119.53L48.8859 96.759L56.7757 111.176C56.7757 111.176 62.6324 112.591 67.8025 111.082C72.9591 109.573 78.4389 104.816 78.4389 104.816L79.0448 88.9441L85.4805 111.109Z" fill="#9263B7"/>
<path opacity="0.6" d="M86.7461 111.783L78.4389 104.816L85.9517 113.062L86.7461 111.783Z" fill="#9263B7"/>
<path opacity="0.6" d="M53.5039 120.5L56.7891 111.176L52.2383 119.826L53.5039 120.5Z" fill="#9263B7"/>
<path opacity="0.6" d="M41.8984 58.5198L67.52 51.0013C67.345 54.7605 66.3486 61.0663 65.0292 61.4571L47.7956 66.5098C46.7723 66.8062 41.8984 58.5198 41.8984 58.5198Z" fill="#9263B7"/>
<path opacity="0.6" d="M47.7954 66.5097L56.7757 111.176C56.7757 111.176 48.3071 71.522 50.017 68.2613C51.7269 65.0006 64.127 62.0498 64.127 62.0498L47.7954 66.5097Z" fill="#9263B7"/>
<path opacity="0.6" d="M71.9897 48.0105L38.7612 57.7656L31.6927 19.4727L59.3473 11.0515L71.9897 48.0105Z" fill="#9263B7"/>
<path opacity="0.6" d="M82.707 172.227L52.1039 147.812L31.6929 6.94184L60.5995 5.06895L82.707 172.227Z" fill="#9263B7"/>
</g>
<path d="M0.497472 11.5231C0.295515 10.3912 0.174355 9.7849 0.174355 9.7849L36.4995 0.124121C36.4995 0.124121 36.7015 0.703487 37.092 1.79488C39.0981 7.49435 45.9646 26.9911 53.06 47.5658C61.9596 73.3819 71.2091 100.923 71.6938 105.113L71.6938 105.126C72.5959 113.009 65.6755 165.085 61.1786 166.527C56.6817 167.955 24.7995 125.661 21.7029 118.412C18.7409 111.432 2.93441 24.9431 0.497472 11.5231Z" fill="url(#paint0_linear_256_1681)"/>
<path d="M4.18643 15.4578C3.98448 14.4068 3.87679 13.8409 3.87679 13.8409L35.18 5.51406C35.18 5.51406 35.3686 6.053 35.7186 7.06355C39.8655 19.0419 66.5506 96.2745 67.4392 103.24C67.5739 104.318 67.5738 106.286 67.4796 108.859C67.4257 110.045 67.3584 111.352 67.2642 112.767C66.214 129.083 62.4038 158.901 59.3744 159.885C56.0893 160.949 35.2473 132.627 27.2633 119.84C26.4016 118.466 25.6881 117.267 25.163 116.31C24.8129 115.663 24.5437 115.124 24.3687 114.707C21.6759 108.212 6.52913 27.9077 4.18643 15.4578Z" fill="url(#paint1_linear_256_1681)"/>
<path d="M27.7076 114.289L15.5363 54.7073L15.1593 52.8749L43.6352 45.3026L63.8442 104.669L27.7076 114.289Z" fill="url(#paint2_linear_256_1681)"/>
<path d="M63.2656 105.476C63.2656 105.476 58.863 111.876 47.4861 114.908C36.0958 117.939 27.7079 113.897 27.7079 113.897L22.8743 91.1262L31.5854 105.543C31.5854 105.543 38.0615 106.958 43.7566 105.449C49.4518 103.94 55.4971 99.1836 55.4971 99.1836L56.1568 83.3113L63.2656 105.476Z" fill="url(#paint3_linear_256_1681)"/>
<path d="M64.6655 106.15L55.4967 99.1702L63.7904 107.43L64.6655 106.15Z" fill="url(#paint4_linear_256_1681)"/>
<path d="M27.9637 114.867L31.5855 105.543L26.5769 114.193L27.9637 114.867Z" fill="url(#paint5_linear_256_1681)"/>
<path opacity="0.21" d="M30.791 119.207C32.5144 119.975 39.4078 122.535 49.2364 119.53C56.5472 117.293 60.2632 114.1 62 112.079C61.9596 112.834 61.8923 113.669 61.825 114.572C59.8593 116.566 56.2106 119.288 49.775 121.255C41.2928 123.842 34.9917 122.292 32.3259 121.322C31.6796 120.514 31.168 119.786 30.791 119.207Z" fill="#9263B7"/>
<path opacity="0.21" d="M35.7456 124.784C37.1458 125.404 42.7467 127.493 50.7442 125.054C56.6817 123.235 59.7111 120.634 61.1113 119.004C61.0709 119.61 61.0306 120.297 60.9632 121.025C59.3745 122.642 56.399 124.852 51.1616 126.455C44.2681 128.557 39.1519 127.304 36.9708 126.509C36.4727 125.849 36.0552 125.256 35.7456 124.784Z" fill="#9263B7"/>
<path opacity="0.21" d="M40.6059 129.891C41.6157 130.336 45.6548 131.845 51.4173 130.08C55.6988 128.773 57.8799 126.9 58.8896 125.714C58.8627 126.159 58.8359 126.644 58.782 127.17C57.6376 128.342 55.4968 129.932 51.7269 131.077C46.7588 132.6 43.0698 131.683 41.508 131.117C41.131 130.646 40.8213 130.228 40.6059 129.891Z" fill="#9263B7"/>
<path d="M43.8105 114.841L41.7371 107.027L34.3859 106.892L30.2525 114.262C30.2525 114.262 37.8596 115.38 43.8105 114.841Z" fill="url(#paint6_linear_256_1681)"/>
<path opacity="0.21" d="M40.6871 55.8125L39.96 52.2015L43.4471 45.3567L53.0736 47.5529C61.9732 73.369 71.2228 100.91 71.7075 105.1L71.7075 105.114L61.6097 107.795C61.6097 107.795 55.8742 101.732 55.4972 99.1716C55.1337 96.6115 40.6871 55.8125 40.6871 55.8125Z" fill="#9263B7"/>
<path d="M15.1597 52.8745L43.4336 45.3561C43.2316 49.1153 42.1411 55.4211 40.687 55.8119L21.6627 60.8646C20.5452 61.1745 15.1597 52.8745 15.1597 52.8745Z" fill="url(#paint7_linear_256_1681)"/>
<path d="M21.6627 60.8652L31.5855 105.531C31.5855 105.531 22.2281 65.8775 24.1265 62.6168C26.0115 59.3561 39.7041 56.4053 39.7041 56.4053L21.6627 60.8652Z" fill="url(#paint8_linear_256_1681)"/>
<path d="M48.3745 42.3777L11.6858 52.1328L3.89028 13.8399L34.4126 5.41871L48.3745 42.3777Z" fill="#EFD0A3"/>
<path opacity="0.47" d="M11.6859 52.1328L3.89038 13.8399L34.4127 5.41871L35.3687 7.93833L7.14859 15.7263L14.419 51.4052L11.6859 52.1328Z" fill="#D1659B"/>
<defs>
<linearGradient id="paint0_linear_256_1681" x1="94.2868" y1="138.407" x2="-8.79628" y2="17.4295" gradientUnits="userSpaceOnUse">
<stop stop-color="#CFEEFA"/>
<stop offset="1" stop-color="white"/>
</linearGradient>
<linearGradient id="paint1_linear_256_1681" x1="133.734" y1="53.3815" x2="25.852" y2="88.7113" gradientUnits="userSpaceOnUse">
<stop stop-color="#CFEEFA"/>
<stop offset="1" stop-color="white"/>
</linearGradient>
<linearGradient id="paint2_linear_256_1681" x1="63.1432" y1="97.7452" x2="8.82381" y2="62.313" gradientUnits="userSpaceOnUse">
<stop stop-color="#CFEEFA"/>
<stop offset="1" stop-color="white"/>
</linearGradient>
<linearGradient id="paint3_linear_256_1681" x1="21.3509" y1="87.1187" x2="80.1622" y2="119.871" gradientUnits="userSpaceOnUse">
<stop stop-color="#9AFFCF"/>
<stop offset="1" stop-color="#0A57A8"/>
</linearGradient>
<linearGradient id="paint4_linear_256_1681" x1="54.5861" y1="86.9185" x2="57.3364" y2="94.7858" gradientUnits="userSpaceOnUse">
<stop stop-color="#CFEEFA"/>
<stop offset="1" stop-color="white"/>
</linearGradient>
<linearGradient id="paint5_linear_256_1681" x1="24.6775" y1="97.255" x2="27.3881" y2="105.009" gradientUnits="userSpaceOnUse">
<stop stop-color="#CFEEFA"/>
<stop offset="1" stop-color="white"/>
</linearGradient>
<linearGradient id="paint6_linear_256_1681" x1="16.6134" y1="103.805" x2="51.1786" y2="115.984" gradientUnits="userSpaceOnUse">
<stop stop-color="#D9FF5E"/>
<stop offset="1"/>
</linearGradient>
<linearGradient id="paint7_linear_256_1681" x1="15.137" y1="36.5064" x2="66.8892" y2="86.3063" gradientUnits="userSpaceOnUse">
<stop stop-color="#9AFFCF"/>
<stop offset="1" stop-color="#0A57A8"/>
</linearGradient>
<linearGradient id="paint8_linear_256_1681" x1="-14.9591" y1="61.7969" x2="16.3388" y2="73.6401" gradientUnits="userSpaceOnUse">
<stop stop-color="#CFEEFA"/>
<stop offset="1" stop-color="white"/>
</linearGradient>
</defs>
</svg>
