<svg width="91" height="60" viewBox="0 0 91 60" fill="none" xmlns="http://www.w3.org/2000/svg">
<g opacity="0.3" clip-path="url(#clip0_256_2290)">
<path d="M83.7878 13.5351C82.9934 12.3965 82.093 11.3466 81.0726 10.3978C80.2269 9.61882 79.4745 9.12653 78.2987 9.41282C75.2998 10.1487 72.4215 11.3715 69.4311 12.1397C68.308 12.4293 66.9736 12.6711 65.8578 12.2408C64.3836 11.6633 64.3349 10.1796 63.7572 8.91431C63.3136 7.95936 62.5554 7.47729 61.5427 7.30502C60.1322 7.06535 58.6383 7.06412 57.2137 7.09639C51.6369 7.22779 46.1835 8.83169 41.1248 11.1094C35.7886 13.5126 30.765 16.6374 26.1636 20.247C20.876 24.3935 16.174 29.2496 12.1619 34.6233C12.0667 34.7524 12.1472 34.9905 12.3294 34.994C13.7766 34.9817 15.2339 34.9754 16.6827 34.9367C16.645 35.1197 16.6175 35.3087 16.6061 35.4934C16.5448 35.4577 16.4443 35.5017 16.4657 35.5826C17.0398 37.6794 15.5411 39.6432 14.4242 41.2893C13.2062 43.0748 11.9043 44.8047 10.8519 46.6932C9.16065 49.7204 8.21802 53.258 9.42468 56.6316C9.45421 56.7103 9.56815 56.7492 9.64451 56.7116C11.3157 55.8526 12.9741 54.945 14.2709 53.5539C15.55 52.1934 16.5008 50.5395 17.5138 48.9901C18.2084 47.9319 18.8782 46.8457 19.5583 45.7654C20.0316 46.2798 20.5329 46.7696 21.0724 47.2406C21.7779 47.8491 22.5297 48.4367 23.3164 48.9285C23.7925 49.226 24.3439 49.5467 24.931 49.4168C26.3778 49.1104 26.6172 46.7284 26.9425 45.6125C27.5365 43.5256 28.1408 41.4446 28.7348 39.3577C29.058 38.2338 29.3994 37.1136 29.7021 35.9778C35.6981 35.1814 41.3376 32.49 47.1248 30.8753C51.3056 29.7132 55.8002 28.6926 59.7793 26.7709C59.037 28.5598 58.148 30.2838 57.5036 32.1159C56.6303 34.6144 56.0849 37.2421 55.4272 39.8044C54.7199 42.5703 54.0066 45.3463 53.2993 48.1121C53.2535 48.2973 53.4233 48.5464 53.6341 48.4298C59.3631 45.1004 63.4752 39.7781 66.6074 34.0498C68.2346 31.0743 69.6253 27.9886 70.9956 24.891C71.5731 23.5871 72.3098 22.2322 72.2208 20.7592C72.2171 20.6477 72.1994 20.5486 72.1898 20.4474C76.658 19.6847 80.8243 17.298 83.8032 13.8857C83.8909 13.7932 83.8582 13.6375 83.7878 13.5351Z" fill="#436DB0"/>
</g>
<defs>
<clipPath id="clip0_256_2290">
<rect width="83" height="40" fill="white" transform="translate(0 21.3027) rotate(-14.8719)"/>
</clipPath>
</defs>
</svg>
