<svg width="199" height="528" viewBox="0 0 199 528" fill="none" xmlns="http://www.w3.org/2000/svg">
<path d="M135.18 66.3942C144.905 54.3745 152.384 38.1696 151.746 34.2651C151.108 30.3606 137.145 18.3664 128.696 18.6982C120.247 19.0299 99.4946 36.8681 99.4946 36.8681L135.18 66.3942Z" fill="#D39040"/>
<path d="M135.41 31.9173C128.594 29.6971 122.723 26.4816 118.435 22.9089C122.366 20.5611 126.093 18.8002 128.671 18.6981C137.12 18.3664 151.057 30.3861 151.721 34.2651C151.746 34.3927 151.721 34.5713 151.746 34.6989C146.794 34.6989 141.153 33.8057 135.41 31.9173Z" fill="#EDB86B"/>
<path d="M110.445 71.982C82.9283 43.5021 55.6666 4.91653 60.1337 0.603723C64.6007 -3.70909 112.513 15.5327 140.03 44.0125C167.547 72.4924 181.509 113.681 176.94 118.096C172.371 122.536 137.962 100.487 110.445 71.982Z" fill="#EDB86B"/>
<path d="M118.307 40.4392C118.307 35.1311 117.924 29.9762 117.21 25.0254C125.429 30.6652 133.342 37.0706 140.055 44.012C167.572 72.4918 181.535 113.68 176.966 118.095C172.499 122.408 139.826 101.635 112.717 74.2527C116.24 64.3511 118.307 52.7907 118.307 40.4392Z" fill="#E0A75C"/>
<path d="M79.2781 73.5641C78.1549 71.9054 77.8486 69.9148 77.5934 68.0009C77.0318 63.9177 76.4702 59.6304 77.9252 55.9556C78.9718 53.3016 80.9628 51.209 82.9027 49.1674C86.0424 45.8754 89.3353 42.5068 93.7002 40.9756C94.3894 40.746 95.1041 40.5418 95.6657 40.108C96.2273 39.6741 96.5846 39.0617 96.942 38.4747C99.3414 34.5192 102.43 30.7168 106.821 29.0325C111.211 27.3737 116.469 28.0372 120.962 30.2574C125.429 32.4521 129.181 36.0759 132.117 40.108C135.154 44.2677 137.477 49.3205 136.609 54.0672C136.405 55.1645 136.048 56.3129 136.533 57.3592C136.865 58.0737 137.503 58.6097 138.141 59.0945C141.281 61.4423 144.701 63.4073 147.611 66.0359C155.805 73.4365 158.383 85.7115 154.809 95.2558C151.236 104.8 142.25 111.512 132.091 113.834C132.091 113.834 125.608 116.947 122.085 118.172C118.562 119.423 114.606 119.499 110.752 118.912C100.056 117.305 90.1266 110.695 83.0814 102.146C79.6099 97.9098 76.7 93.0866 75.6534 87.8806C74.6579 82.7001 75.7044 77.1114 79.2781 73.5641Z" fill="#963C45"/>
<path d="M93.8533 79.6123C111.951 79.6123 126.629 69.481 126.629 57.0019C126.629 45.8499 114.912 36.6118 99.52 34.7489C101.486 32.2735 103.859 30.1553 106.846 29.0325C111.236 27.3737 116.495 28.0372 120.987 30.2574C125.454 32.4521 129.207 36.0759 132.142 40.108C135.18 44.2677 137.503 49.3205 136.635 54.0672C136.43 55.1645 136.073 56.3129 136.558 57.3592C136.89 58.0737 137.528 58.6097 138.166 59.0945C141.306 61.4423 144.726 63.4073 147.636 66.0359C155.83 73.4365 158.408 85.7115 154.835 95.2558C151.261 104.8 142.276 111.512 132.117 113.834C132.117 113.834 125.633 116.947 122.11 118.172C118.588 119.423 114.631 119.499 110.777 118.912C100.082 117.305 90.152 110.695 83.1069 102.146C79.6353 97.9098 76.7254 93.0866 75.6788 87.8806C74.8875 83.9251 75.3215 79.7654 77.1338 76.4223C82.0603 78.4384 87.7526 79.6123 93.8533 79.6123Z" fill="#7F2D39"/>
<path d="M60.3633 147.852L57.0449 145.887C53.2671 145.275 44.1543 158.698 37.926 178.042L43.4396 179.241C47.9067 158.928 57.5555 147.674 60.3633 147.852Z" fill="#D38931"/>
<path d="M88.1099 183.221L81.3966 252.456C39.6362 258.938 10.6388 246.178 10.6388 246.178L8.26489 172.631L88.1099 183.221Z" fill="#F4B25B"/>
<path d="M57.5553 226.453C51.7099 203.715 40.0701 185.188 26.8477 175.107L88.1098 183.248L81.3965 252.483C74.3003 253.58 67.5615 254.116 61.2821 254.269C61.2311 245.439 60.0313 236.023 57.5553 226.453Z" fill="#EAA047"/>
<path d="M93.9554 527.992H64.7283C64.7283 527.992 84.9958 514.16 89.3608 514.543C93.7257 514.926 93.9554 527.992 93.9554 527.992Z" fill="#FCDDA7"/>
<path d="M171.529 492.008L167.98 520.999C167.98 520.999 156.698 499.23 157.617 494.943C158.536 490.63 171.529 492.008 171.529 492.008Z" fill="#FCDDA7"/>
<path d="M160.17 499.971C160.17 499.971 75.781 387.915 70.1398 378.396C64.5241 368.877 61.9204 292.497 72.7434 197.309L109.96 194.502C109.96 194.502 106.616 344.098 112.564 354.178C116.801 361.349 164.969 494.867 160.17 499.971Z" fill="#FCDDA7"/>
<path d="M97.8353 387.021C97.8353 387.021 90.4839 374.465 85.7105 362.369C81.4477 351.523 82.9282 215.606 85.7105 188.861L109.96 194.476C109.96 194.476 106.616 344.071 112.564 354.152C116.801 361.348 164.968 494.892 160.17 499.97C160.17 499.97 123.719 451.585 97.1461 415.679L97.8353 387.021Z" fill="#E0B479"/>
<path d="M90.9178 523.321C130.304 443.7 169.027 268.329 137.222 216.116C131.172 206.164 115.576 192.307 115.576 192.307L77.0828 197.079L79.2525 260.674L90.9433 264.144C93.9554 332.511 97.478 424.535 90.9178 523.321Z" fill="#FCDDA7"/>
<path d="M122.085 222.165C122.085 222.165 90.9433 224.768 71.0586 213.08L71.9775 199.197L115.601 192.307C115.601 192.307 131.172 206.164 137.247 216.116C169.053 268.355 130.33 443.726 90.9433 523.321C91.0964 520.871 91.2241 518.447 91.3772 516.022C146.232 301.684 122.085 222.165 122.085 222.165Z" fill="#EAC286"/>
<path d="M127.93 203.995C114.07 216.755 73.1774 209.201 71.2119 202.693C71.2119 202.693 80.7586 155.737 92.4239 139.073L121.855 135.832C118.18 157.498 119.711 186.259 127.93 203.995Z" fill="#CE596F"/>
<path d="M102.558 207.491C108.301 183.451 105.238 162.092 95.6912 159.82C90.4583 158.57 84.3576 163.342 78.9717 171.866C82.6474 159.463 87.3442 146.397 92.4494 139.098L121.881 135.857C118.205 157.498 119.711 186.259 127.93 203.995C122.238 209.252 111.926 211.064 101.664 210.91C101.971 209.788 102.277 208.665 102.558 207.491Z" fill="#BA4961"/>
<path d="M75.7045 163.088C92.6537 140.401 110.471 118.633 114.478 106.766C117.873 96.7623 96.6102 99.059 90.6627 105.235C88.1866 107.787 76.7 127.411 63.9115 149.333C53.4969 167.222 67.7659 173.704 75.7045 163.088Z" fill="#CE596F"/>
<path d="M68.9145 155.252C82.5453 133.816 92.1941 103.677 100.337 100.028C107.637 98.8032 116.571 100.539 114.504 106.714C110.496 118.581 92.6791 140.375 75.7299 163.036C69.8845 170.845 60.6696 169.39 60.3123 160.969C63.2222 160.892 66.4895 159.055 68.9145 155.252Z" fill="#BA4961"/>
<path d="M67.9955 153.16C53.8286 144.228 20.8236 128.942 18.6539 130.218C16.4842 131.519 55.4367 165.486 63.6561 166.787C71.8754 168.089 73.8154 156.835 67.9955 153.16Z" fill="#CE596F"/>
<path d="M62.4821 158.469C66.3109 158.954 70.3951 154.181 71.4417 151.757C75.194 156.555 72.0032 169.238 64.7283 168.09C57.6577 166.967 27.0776 140.758 20.0325 132.592C32.3615 141.983 56.1006 157.652 62.4821 158.469Z" fill="#BA4961"/>
<path d="M56.9429 145.811L61.6907 148.414C66.2343 152.088 69.91 160.969 69.0677 180.721L62.3288 180.645C65.5706 162.143 60.1847 148.72 56.9429 145.811Z" fill="#EAA047"/>
<path d="M128.824 111.972C126.22 122.359 116.24 152.293 114.734 153.161C113.228 154.028 80.7586 147.419 79.6865 144.612C78.6144 141.805 89.4374 106.868 91.8113 104.469C94.1852 102.096 109.552 93.4449 111.926 93.0111C114.3 92.5772 128.824 111.972 128.824 111.972Z" fill="#CE596F"/>
<path d="M109.322 148.822C110.828 147.955 117.873 123.303 120.477 112.916C120.477 112.916 100.413 113.019 90.8667 105.056C92.2451 103.372 101.409 97.6813 104.804 96.8136C112.666 94.8231 113.866 96.2777 116.98 97.2985C122.034 102.887 128.875 111.998 128.875 111.998C126.271 122.384 118.026 154.054 116.52 154.896C115.014 155.764 80.8095 147.444 79.7374 144.612C79.6098 144.28 79.6608 143.438 79.8395 142.264C89.0544 145.811 108.097 149.537 109.322 148.822Z" fill="#BA4961"/>
<path d="M190.035 234.288C182.25 217.419 145.365 131.367 126.322 112.967C118.716 105.618 116.469 130.295 119.481 138.283C122.519 146.296 186.563 235.155 186.563 235.155L190.035 234.288Z" fill="#CE596F"/>
<path d="M119.379 112.814C120.579 110.9 123.821 106.715 125.761 108.603C144.803 127.003 182.249 217.419 190.035 234.313L186.64 235.155C171.631 202.464 136.558 133.076 119.379 112.814Z" fill="#BA4961"/>
<path d="M118.384 98.9052C108.454 107.02 98.4991 118.632 98.4991 118.632C98.4991 118.632 96.5591 106.459 97.5801 100.283C103.017 96.9912 110.343 93.2909 111.926 93.0102C112.819 92.857 115.448 95.5366 118.384 98.9052Z" fill="#FFDAAE"/>
<path d="M97.5801 100.309C103.017 97.0167 110.343 93.3163 111.926 93.0356C112.819 92.8825 115.474 95.5365 118.409 98.9306C113.661 102.81 108.914 107.48 105.238 111.308C102.405 110.644 99.7754 109.802 97.427 108.781C97.2228 105.744 97.1973 102.605 97.5801 100.309Z" fill="#EDBF8C"/>
<path d="M119.915 66.9043C119.277 74.5347 115.525 96.4305 115.525 96.4305L104.804 101.79L101.868 98.0127L106.923 74.0498L119.915 66.9043Z" fill="#D27558"/>
<path d="M98.1672 91.7603C109.45 88.5193 117.261 83.0071 120.324 74.2028C123.412 65.271 116.801 42.1502 108.25 41.4867C96.7633 40.5935 92.2452 56.7474 91.0455 65.7048C89.5139 77.2652 98.1672 91.7603 98.1672 91.7603Z" fill="#EDB984"/>
<path d="M118.613 82.1396C116.98 55.8545 91.5048 48.071 105.799 37.1997C120.094 26.3283 128.186 42.227 128.696 57.0028C129.181 71.7532 118.613 82.1396 118.613 82.1396Z" fill="#963C45"/>
<path d="M126.195 54.5784C128.084 47.7391 121.983 40.0577 112.538 37.4292C110.547 36.8678 108.556 36.6126 106.642 36.5615C120.4 26.9662 128.186 42.5076 128.671 56.9517C129.156 71.7275 118.614 82.114 118.614 82.114C118.129 74.3305 115.576 68.2058 112.564 63.1019C119.226 62.9488 124.765 59.7333 126.195 54.5784Z" fill="#7F2D39"/>
<path d="M119.992 68.5884C123.642 66.9296 127.394 67.389 128.415 69.5837C129.411 71.7784 127.267 74.9173 123.642 76.576C119.992 78.2348 116.24 77.7755 115.219 75.5808C114.198 73.3606 116.342 70.2217 119.992 68.5884Z" fill="#EDB984"/>
<path d="M120.579 70.6803C122.8 69.685 125.071 69.9402 125.684 71.2928C126.297 72.6198 124.995 74.5338 122.774 75.529C120.553 76.5243 118.282 76.2691 117.669 74.9166C117.082 73.5895 118.384 71.7011 120.579 70.6803Z" fill="#D27558"/>
<path d="M119.277 72.4166C121.038 71.651 122.851 71.8551 123.336 72.9014C123.821 73.9222 122.774 75.3768 121.038 76.1424C119.277 76.908 117.465 76.7038 116.98 75.6575C116.495 74.6368 117.541 73.1821 119.277 72.4166Z" fill="#EDB984"/>
<path d="M85.1744 259.5L103.808 259.602L85.2255 269.07L74.6067 255.596L85.1744 259.5Z" fill="#E0B479"/>
<path d="M106.948 63.8669C107.05 61.7488 108.224 60.0901 109.577 60.1666C110.956 60.2687 112.002 62.0551 111.9 64.1987C111.798 66.3423 110.624 67.9756 109.245 67.8735C107.893 67.797 106.872 66.0106 106.948 63.8669Z" fill="#473939"/>
<path d="M94.0575 61.7993C94.1596 60.0384 95.1806 58.6604 96.3548 58.6859C97.529 58.7114 98.4224 60.1916 98.3203 61.9524C98.2182 63.7133 97.1972 65.0913 96.023 65.0403C94.8233 65.0148 93.9554 63.5601 94.0575 61.7993Z" fill="#473939"/>
<path d="M115.959 60.243L116.265 59.8347C116.801 59.0946 116.571 58.0738 115.78 57.5379L109.22 53.0975C108.403 52.5361 107.306 52.7147 106.77 53.4548L106.591 53.71L115.959 60.243Z" fill="#7F2D39"/>
<path d="M101.46 64.6582C101.46 64.6582 101.664 65.092 101.945 65.7555C99.8776 68.6903 97.376 73.7687 102.839 73.539C102.788 73.6666 102.762 73.8197 102.711 73.9473C93.3429 75.6061 99.801 66.4446 101.46 64.6582Z" fill="#D27558"/>
<path d="M97.0952 77.4688C97.0952 77.8005 97.1207 78.1578 97.1463 78.5151C97.6313 82.3175 100.465 84.6653 102.966 84.3335C105.289 84.0273 106.438 81.6029 106.31 78.1578L97.0952 77.4688Z" fill="#443239"/>
<path d="M99.4435 54.3992L99.3925 54.144C99.2649 53.3784 98.448 52.2555 97.7588 52.5362L92.1687 54.9351C91.4795 55.2413 91.1731 56.8491 91.3008 57.6402L91.3518 57.8954L99.4435 54.3992Z" fill="#7F2D39"/>
<path d="M98.2949 80.2513C98.0907 79.8941 97.912 79.4347 97.861 78.8477C97.8354 78.567 97.8354 78.3118 97.8354 78.0566L105.8 78.4905C105.8 79.7409 105.544 80.3789 105.034 80.7362L98.2949 80.2513Z" fill="#F4E9D6"/>
<path d="M185.976 234.567C188.069 239.263 188.58 245.03 190.443 245.745C192.281 246.434 198.535 242.07 195.268 237.885C191.975 233.7 188.069 230.51 188.069 230.51L185.976 234.567Z" fill="#EDB984"/>
<path d="M185.568 235.562C186.716 241.049 183.704 250.798 184.853 251.308C185.951 251.767 190.29 240.539 189.754 238.803C189.192 237.043 185.108 233.342 185.568 235.562Z" fill="#EDB984"/>
<path d="M186.257 238.982C192.332 246.077 191.592 254.447 192.383 255.009C193.2 255.57 194.757 248.986 192.307 244.035C189.882 239.11 186.257 238.982 186.257 238.982Z" fill="#EDB984"/>
<path d="M188.044 237.119C194.783 243.525 195.548 253.171 196.569 253.732C197.59 254.294 197.539 246.689 194.4 242.095C191.566 237.936 188.044 237.119 188.044 237.119Z" fill="#EDB984"/>
<path d="M190.009 234.287C197.08 241.458 197.948 248.91 198.611 249.191C199.25 249.471 199.301 244.138 196.697 240.029C193.711 235.231 190.009 234.287 190.009 234.287Z" fill="#EDB984"/>
<path d="M20.3896 131.775C15.8205 129.377 11.8385 125.166 9.94955 125.753C8.06063 126.34 5.8654 133.638 11.0472 134.914C16.2289 136.165 21.2575 136.241 21.2575 136.241L20.3896 131.775Z" fill="#EDB984"/>
<path d="M20.0833 130.728C15.795 127.13 12.0937 117.611 10.894 117.917C9.74534 118.224 13.2934 129.758 14.7739 130.754C16.3055 131.826 21.8191 132.183 20.0833 130.728Z" fill="#EDB984"/>
<path d="M17.4287 128.457C8.29042 126.645 3.67023 119.602 2.67472 119.678C1.70474 119.729 4.53811 125.88 9.51567 128.253C14.5187 130.626 17.4287 128.457 17.4287 128.457Z" fill="#EDB984"/>
<path d="M17.1734 131.034C7.93299 130.192 1.32178 123.072 0.173112 123.276C-0.975554 123.48 3.77227 129.4 9.08166 131.085C13.9061 132.59 17.1734 131.034 17.1734 131.034Z" fill="#EDB984"/>
<path d="M17.3775 134.505C7.39691 133.255 2.08752 127.947 1.37279 128.125C0.683594 128.304 3.97644 132.515 8.54557 134.148C13.8805 136.037 17.3775 134.505 17.3775 134.505Z" fill="#EDB984"/>
<path d="M185.542 215.938C178.599 223.415 178.804 229.973 178.804 229.973L185.211 237.578L191.694 232.219L185.542 215.938Z" fill="#FCDDA7"/>
<path d="M29.2473 148.489C33.4591 139.2 31.1873 133.05 31.1873 133.05L19.2667 127.436L17.5054 137.107L29.2473 148.489Z" fill="#FCDDA7"/>
</svg>
