<svg width="180" height="76" viewBox="0 0 180 76" fill="none" xmlns="http://www.w3.org/2000/svg">
<path d="M2.20023 23.041L17.109 21.9291C20.2818 21.6925 23.3874 22.4568 26.4256 24.2221C27.0513 24.5808 27.92 25.2475 29.0317 26.2222C29.7533 26.9264 30.3477 27.5783 30.8149 28.178C32.8308 30.9009 33.9459 33.7174 34.1602 36.6274L34.2086 37.2848C34.4306 40.3001 33.7333 43.2782 32.1168 46.2191C31.7452 46.9166 31.1303 47.7821 30.2722 48.8156C29.0628 50.1044 27.986 51.0396 27.0418 51.6212C24.5871 53.2321 21.9573 54.1421 19.1526 54.3513L16.1025 54.5788C15.2436 54.6428 14.6302 54.2127 14.2625 53.2882C14.236 53.1668 14.2195 53.0623 14.213 52.9746L14.2111 52.9483C14.153 52.1595 14.533 51.5759 15.3512 51.1976C15.5064 51.1507 15.6716 51.1208 15.8469 51.1077L18.8707 50.8822C21.8332 50.6612 24.4712 49.5038 26.7846 47.41C27.7043 46.4953 28.3444 45.7336 28.705 45.1251C29.3066 44.1988 29.7598 43.2925 30.0647 42.4061C30.6257 40.6897 30.8494 39.0601 30.7358 37.5174L30.6893 36.8863C30.5331 34.7651 29.7264 32.666 28.2692 30.5889C26.468 28.1497 24.1471 26.5513 21.3065 25.7937C19.9407 25.4372 18.618 25.3067 17.3383 25.4022L4.32269 26.3729L5.49024 42.2294C5.55478 43.1059 5.35196 43.7027 4.88179 44.0198C4.6181 44.2686 4.28467 44.4081 3.88149 44.4381C3.19784 44.4891 2.63673 44.1696 2.19816 43.4796C2.11126 43.257 2.06265 43.0755 2.05232 42.9353L0.714393 24.7647C0.671796 24.1862 0.960594 23.6799 1.58078 23.2459C1.81845 23.1224 2.02493 23.0541 2.20023 23.041ZM3.07392 42.8062C3.09458 43.0867 3.30224 43.2739 3.69693 43.3679L3.88099 43.3541C4.29395 43.2176 4.48946 43.0003 4.46751 42.7023C4.47859 42.6133 4.47961 42.5075 4.47057 42.3847L3.22171 25.4238C3.21913 25.3888 3.2266 25.3706 3.24413 25.3693L17.1274 24.3338C20.4756 24.0841 23.5765 25.0251 26.4302 27.1566C27.6697 28.1923 28.4403 28.9633 28.742 29.4696C29.5155 30.399 30.1791 31.5129 30.733 32.8112C31.2959 34.2323 31.6225 35.5564 31.7129 36.7835L31.7574 37.3883C31.951 40.0179 31.3387 42.5931 29.9203 45.1137C29.626 45.6645 29.0729 46.4108 28.2609 47.3527C26.9366 48.7559 25.465 49.8351 23.8461 50.5904C22.2423 51.3094 20.6603 51.727 19.1001 51.8434L16.05 52.0709C15.6293 52.1022 15.3692 52.2803 15.2698 52.605C15.2561 52.6589 15.2531 52.7384 15.2609 52.8436L15.2648 52.8962C15.3847 53.3279 15.6112 53.5314 15.9442 53.5065L19.2573 53.2594C21.7114 53.0764 24.0996 52.2373 26.4219 50.7421C27.2661 50.2384 28.2523 49.3893 29.3805 48.1947C30.4185 46.9715 31.0651 46.0595 31.3205 45.4588C32.7461 42.7966 33.3575 40.0893 33.1549 37.337L33.1026 36.627C32.9374 34.3831 32.1447 32.1154 30.7245 29.8241C30.2004 28.929 29.3127 27.8847 28.0615 26.6912C26.7843 25.6231 25.754 24.9155 24.9705 24.5685C22.3905 23.2803 19.7594 22.7362 17.0774 22.9362L2.32639 24.0364C2.04592 24.0573 1.84912 24.2571 1.73599 24.6357L3.07392 42.8062ZM4.3415 50.3265C5.06021 50.2729 5.63202 50.618 6.05693 51.3619C6.14254 51.5671 6.20083 51.88 6.23181 52.3007L7.62008 71.155C7.68979 72.1016 7.42885 72.7468 6.83726 73.0906C6.6197 73.2479 6.38822 73.3356 6.14281 73.3539L5.90616 73.3716C5.31016 73.416 4.79481 73.1196 4.36011 72.4822C4.25439 72.2433 4.19572 72.0449 4.18411 71.8872L2.72613 52.0863C2.67966 51.4552 3.01099 50.9281 3.72012 50.505C3.90778 50.4205 4.11491 50.361 4.3415 50.3265ZM3.7516 52.0098L5.1999 71.6792C5.227 72.0473 5.48043 72.2576 5.96018 72.3099C6.42831 72.2045 6.64495 71.9151 6.6101 71.4418L5.19472 52.2194C5.15858 51.7286 4.9701 51.443 4.6293 51.3626L4.4696 51.3481L4.33813 51.3579C3.92517 51.4945 3.72966 51.7118 3.7516 52.0098ZM52.3938 19.2711L52.6042 19.2554C53.1827 19.2123 53.688 19.4919 54.1201 20.0942C54.2459 20.3669 55.6343 23.9033 58.2854 30.7035C60.299 35.7885 61.3103 38.3923 61.3194 38.5151L61.3407 38.8043C61.3884 39.453 61.049 39.9894 60.3223 40.4138C60.1158 40.4821 59.9512 40.5208 59.8285 40.53L59.6971 40.5398C58.9082 40.5986 58.3137 40.1846 57.9135 39.2979L53.0849 26.8608L53.0323 26.8648L49.2144 43.5954C49.0083 44.3864 47.9403 49.0314 46.0103 57.5305C44.219 65.279 43.2749 69.3331 43.178 69.6928C42.8187 70.319 42.3762 70.6516 41.8503 70.6908L41.6662 70.7046C41.0352 70.7516 40.5211 70.4727 40.124 69.8677C39.9858 69.6665 39.9084 69.452 39.8916 69.2241L39.8741 68.9874C39.8612 68.8121 40.1179 67.6296 40.644 65.4398C42.7216 56.3128 44.7032 47.6776 46.5888 39.5344C49.4567 27.0169 50.9403 20.5958 51.0398 20.2711C51.3991 19.645 51.8504 19.3116 52.3938 19.2711ZM40.9074 69.0161C40.9358 69.4018 41.1892 69.612 41.6676 69.6468C42.0708 69.6168 42.3148 69.2196 42.3995 68.4553C42.5523 67.8975 44.4484 59.6565 48.0877 43.7324C51.0127 31.0343 52.5751 24.246 52.7748 23.3674L52.8274 23.3635C56.8474 33.6751 58.9102 38.9503 59.016 39.1892C59.208 39.404 59.3917 39.5049 59.567 39.4918L59.7248 39.4801C60.1377 39.3435 60.3326 39.1175 60.3094 38.8019L60.3036 38.723C60.2945 38.6003 59.729 37.1442 58.6071 34.3547C58.2128 33.3088 56.4107 28.7016 53.2006 20.533C53.026 20.3168 52.8161 20.2179 52.5707 20.2362C52.1324 20.2689 51.8791 20.658 51.8106 21.4034C48.8283 34.282 46.0993 46.1722 43.6237 57.074C41.8012 64.8776 40.8938 68.832 40.9016 68.9372L40.9074 69.0161ZM54.5603 46.8984L63.0796 46.263C63.8684 46.2042 64.4529 46.6013 64.8329 47.4543C69.6915 59.8186 72.1574 66.139 72.2306 66.4156C72.2482 66.4143 72.2608 66.4662 72.2686 66.5714L72.286 66.808C72.3299 67.4041 72.033 67.9198 71.3952 68.3551C71.1738 68.4598 70.9754 68.5187 70.8001 68.5317L70.5898 68.5474C70.0113 68.5906 69.506 68.311 69.0739 67.7086C68.8424 67.1971 66.5 61.2376 62.0468 49.8302L54.8422 50.3675C54.0007 50.4303 53.3988 50.0345 53.0362 49.1802C52.9921 49.0601 52.9669 48.9562 52.9604 48.8686L52.9488 48.7108C52.8907 47.9219 53.297 47.3363 54.1678 46.9541C54.3418 46.9235 54.4726 46.9049 54.5603 46.8984ZM53.9801 48.7132C54.0033 49.0287 54.2291 49.2234 54.6576 49.2972L62.7036 48.6971C62.7387 48.6945 63.1278 49.6702 63.8709 51.6243L69.9594 67.1667C70.1702 67.3977 70.3896 67.5047 70.6175 67.4877C71.0668 67.3661 71.2779 67.1212 71.2508 66.753L71.247 66.7005C71.2392 66.5953 70.7707 65.3787 69.8414 63.0507C65.8868 52.9105 63.8574 47.7297 63.7529 47.5084C63.5634 47.3286 63.3372 47.2485 63.0743 47.2682L54.6864 47.8937C54.2657 47.9251 54.0258 48.1369 53.9665 48.5291L53.9801 48.7132ZM73.6658 17.6846L73.9025 17.667C74.4985 17.6225 75.0145 17.9278 75.4505 18.5827C79.6793 29.337 82.0149 35.3234 82.4571 36.542C82.4759 36.5582 82.4892 36.6189 82.497 36.7241L82.5125 36.9345C82.5589 37.5656 82.2276 38.0926 81.5185 38.5157C81.3146 38.619 81.1074 38.6785 80.8971 38.6942C80.1083 38.7531 79.515 38.3566 79.1174 37.5049L72.2411 19.8797C72.2171 19.7933 72.2026 19.7151 72.1974 19.645L72.18 19.4083C72.1361 18.8123 72.4418 18.2959 73.097 17.8592C73.3185 17.7546 73.5081 17.6964 73.6658 17.6846ZM102.616 15.5255L102.852 15.5079C103.448 15.4634 103.964 15.7687 104.4 16.4236C104.505 16.6449 104.563 16.8345 104.574 16.9923L104.592 17.229C104.606 17.4218 104.325 18.7472 103.748 21.2051C103.749 21.2226 101.839 29.5175 98.0186 46.0897C95.0714 58.9657 93.5568 65.5654 93.4749 65.8888C93.1182 66.5499 92.6594 66.9014 92.0984 66.9433L91.8618 66.9609C91.3008 67.0028 90.8049 66.7313 90.3741 66.1465C90.1464 65.6875 88.0427 60.336 84.0629 50.0919C83.1174 47.7828 82.6355 46.5055 82.6175 46.2601L82.6155 46.2338C82.5574 45.4449 82.9463 44.8607 83.782 44.4811C83.8846 44.4381 84.0492 44.3994 84.2757 44.3649C84.9419 44.3152 85.4942 44.6354 85.9328 45.3254L91.3772 59.3029L91.4298 59.299L97.3297 33.5026C99.4313 24.4619 100.48 19.9152 100.476 19.8627C100.902 17.9801 101.172 16.8583 101.286 16.4972C101.629 15.8899 102.072 15.566 102.616 15.5255ZM73.2132 19.437C73.2852 19.696 73.7102 20.8013 74.4884 22.7527L80.1878 37.3194C80.3798 37.5342 80.5986 37.6324 80.844 37.6141C81.2946 37.51 81.5051 37.2564 81.4754 36.8532C81.4676 36.748 81.0733 35.7021 80.2926 33.7156L74.5008 18.9708C74.3263 18.7547 74.1163 18.6558 73.8709 18.6741C73.5203 18.7002 73.2972 18.9019 73.2016 19.2792L73.2132 19.437ZM91.6834 62.7438L91.6309 62.7477C87.2431 51.5117 85.0172 45.8167 84.953 45.6629C84.7434 45.4493 84.5509 45.3491 84.3756 45.3622L84.2178 45.374C83.9549 45.3936 83.7756 45.592 83.68 45.9693C83.6677 46.0407 83.6634 46.1028 83.6673 46.1554C83.7178 46.3631 85.9785 52.17 90.4492 63.5761C90.9064 64.7583 91.1859 65.4425 91.2878 65.6288C91.4961 65.8248 91.6967 65.9156 91.8895 65.9012C92.3102 65.8699 92.558 65.5253 92.633 64.8675C96.1447 49.6051 98.0785 41.1586 98.4344 39.528C101.389 26.7572 102.884 20.2471 102.919 19.9978C103.354 18.2555 103.567 17.3142 103.557 17.174L103.549 17.0688C103.53 16.8058 103.349 16.6254 103.007 16.5275C102.935 16.5152 102.873 16.511 102.821 16.515C102.382 16.5476 102.12 16.9374 102.034 17.6841C101.928 18.1504 100.093 26.1488 96.5306 41.6794C96.2489 42.8814 94.6332 49.9029 91.6834 62.7438ZM109.268 15.0294L109.505 15.0117C110.083 14.9686 110.589 15.2569 111.023 15.8768C111.146 16.1144 111.214 16.3208 111.227 16.4961L112.33 31.4849C127.135 20.7035 134.73 15.1663 135.114 14.8733C136.569 13.8129 137.431 13.1934 137.7 13.0147C137.888 12.9302 138.069 12.8814 138.244 12.8683L138.455 12.8526C139.086 12.8055 139.621 13.1358 140.061 13.8433C140.13 14.0673 140.169 14.2319 140.177 14.337L140.194 14.5737C140.244 15.2574 139.78 15.8914 138.801 16.4756C138.618 16.6302 133.047 20.6856 122.088 28.6419C122.006 28.7185 118.853 31.0248 112.631 35.5607C113.206 43.3794 113.709 50.2076 114.139 56.0453L114.666 63.1978C114.735 64.1445 114.482 64.7803 113.907 65.1052C113.672 65.2638 113.441 65.3516 113.213 65.3686L112.976 65.3862C112.398 65.4293 111.892 65.141 111.458 64.5211C111.336 64.3011 111.268 64.0946 111.254 63.9018L107.782 16.753C107.736 16.1219 108.067 15.5949 108.776 15.1718C108.981 15.086 109.145 15.0385 109.268 15.0294ZM108.789 16.7837C109.407 24.9342 109.905 31.5776 110.283 36.7141L112.27 63.6938C112.297 64.062 112.541 64.2729 113.004 64.3265C113.472 64.2211 113.688 63.9317 113.654 63.4584L111.702 36.952C111.667 36.4787 111.611 35.8307 111.532 35.0081C124.13 25.8543 130.529 21.1907 130.728 21.0173L137.204 16.3303C138.291 15.5441 138.901 15.0844 139.032 14.9512C139.128 14.8206 139.172 14.694 139.163 14.5713L139.155 14.4661C139.132 14.1506 138.932 13.9451 138.554 13.8499L138.423 13.8597C138.213 13.8754 137.825 14.1158 137.26 14.581C136.874 14.839 130.399 19.5523 117.838 28.7209L111.437 33.3495L111.408 33.3251L110.175 16.5746C110.154 16.2941 109.955 16.1062 109.578 16.011L109.394 16.0247C109.114 16.0456 108.916 16.2366 108.802 16.5977C108.808 16.6853 108.804 16.7473 108.789 16.7837ZM120.748 41.6712L120.8 41.6673C121.396 41.6229 122.038 41.954 122.724 42.6608C129.573 48.5485 136.189 54.2598 142.572 59.7945C143.242 60.2734 143.595 60.7582 143.631 61.2491L143.648 61.4858C143.691 62.0643 143.411 62.5699 142.808 63.0026C142.571 63.1261 142.355 63.1951 142.162 63.2094L141.952 63.2251C141.426 63.2644 140.802 62.9231 140.079 62.2015C133.267 56.3462 126.454 50.4646 119.638 44.5567C119.37 44.2594 119.222 43.9267 119.195 43.5586L119.185 43.4271C119.137 42.7785 119.468 42.2426 120.177 41.8196C120.347 41.7364 120.537 41.6869 120.748 41.6712ZM120.208 43.3243L120.214 43.4032C120.234 43.6662 120.475 43.9566 120.939 44.2745C127.754 50.1649 134.614 56.0871 141.521 62.041C141.65 62.1195 141.803 62.161 141.98 62.1654C142.429 62.0438 142.64 61.7989 142.613 61.4308L142.639 61.4288C142.62 61.1658 142.378 60.8754 141.914 60.5575C135.118 54.6658 128.229 48.7281 121.25 42.7443C121.103 42.6671 120.986 42.6318 120.898 42.6383L120.819 42.6442C120.389 42.782 120.185 43.0088 120.208 43.3243ZM159.122 11.3112L159.805 11.2602C162.417 11.0654 165.147 11.6374 167.996 12.9762C168.927 13.4179 170.029 14.1377 171.301 15.1357C172.643 16.3752 173.545 17.3656 174.005 18.1069C175.685 20.5728 176.626 23.1819 176.828 25.9342L178.201 44.5781C178.424 47.6109 177.737 50.5971 176.138 53.5366C175.73 54.2193 175.147 55.0383 174.389 55.9938C173.179 57.2827 172.187 58.1763 171.413 58.6747C170.576 59.266 169.654 59.793 168.648 60.2558C166.803 61.0457 165.091 61.4994 163.513 61.6171L162.83 61.6681C160.235 61.8615 157.505 61.2896 154.64 59.9521C153.708 59.5104 152.606 58.7906 151.334 57.7926C149.783 56.3571 148.682 55.0467 148.031 53.8614C146.721 51.6323 145.98 49.3432 145.807 46.9941L145.398 41.4456C145.35 40.797 145.69 40.2605 146.417 39.8361C146.553 39.7731 146.752 39.723 147.014 39.6858C147.732 39.6322 148.304 39.9774 148.729 40.7213C148.815 40.9264 148.873 41.2394 148.904 41.6601L149.272 46.6563C149.483 49.5314 150.651 52.0972 152.773 54.3538C153.852 55.3661 154.564 55.9388 154.909 56.0717C155.688 56.5953 156.594 57.0565 157.628 57.4553C159.436 58.0609 161.119 58.3055 162.679 58.1891L163.179 58.1519C165.493 57.9793 167.752 57.0705 169.958 55.4253C170.577 54.9737 171.266 54.2789 172.025 53.341C173.041 52.049 173.733 50.8075 174.104 49.6165C174.635 47.9728 174.843 46.3709 174.728 44.8106L173.36 26.2194C173.162 23.5372 172.091 21.0788 170.146 18.8442C169.082 17.7954 168.284 17.1322 167.752 16.8546C166.644 16.1617 165.666 15.6882 164.819 15.4341C163.119 14.8557 161.507 14.6234 159.982 14.7372L159.483 14.7744C157.169 14.947 154.9 15.8565 152.677 17.503C150.528 19.1968 149.069 21.4032 148.3 24.1223C147.944 25.5061 147.814 26.8554 147.911 28.1702L148.16 31.5624C148.23 32.5091 147.969 33.1543 147.378 33.4981C147.143 33.6566 146.911 33.7444 146.683 33.7614L146.446 33.7791C145.868 33.8222 145.362 33.5338 144.929 32.914C144.805 32.6764 144.737 32.4699 144.724 32.2946L144.434 28.3502C144.222 25.4752 144.841 22.6264 146.29 19.8038C146.674 19.0348 147.392 18.0118 148.443 16.7347C149.458 15.6719 150.309 14.9034 150.997 14.429C151.781 13.8241 152.82 13.2178 154.115 12.6101C155.928 11.8579 157.597 11.425 159.122 11.3112ZM145.459 28.2737L145.738 32.0604C145.765 32.4285 146.011 32.6482 146.474 32.7194L146.501 32.7174C146.969 32.612 147.185 32.3226 147.15 31.8493L146.883 28.2204C146.684 25.5207 147.296 22.928 148.716 20.4424C148.977 19.9118 149.571 19.1184 150.498 18.0622C151.252 17.3008 151.931 16.7037 152.534 16.271C154.799 14.7271 157.107 13.8676 159.456 13.6924L159.824 13.6649C162.436 13.4701 165.055 14.0944 167.682 15.5378C168.36 15.8927 169.217 16.525 170.254 17.4348C171.322 18.5361 172.001 19.3757 172.29 19.9534C173.543 21.8871 174.249 23.9321 174.407 26.0883L175.776 44.6796C175.975 47.3793 175.323 50.0191 173.821 52.5989C173.458 53.1724 173.017 53.7606 172.497 54.3634C171.436 55.5177 170.477 56.3649 169.617 56.9049C167.495 58.2442 165.286 58.9995 162.99 59.1707C159.641 59.4204 156.47 58.476 153.475 56.3374C152.252 55.3004 151.501 54.5544 151.221 54.0994C149.434 51.853 148.443 49.3975 148.246 46.7328L147.865 41.5525C147.83 41.0792 147.642 40.7936 147.299 40.6957L147.14 40.6812L147.008 40.691C146.595 40.8275 146.4 41.0536 146.424 41.3691L146.83 46.8913C147.047 49.8365 148.175 52.5903 150.215 55.1527C150.697 55.7161 151.362 56.3715 152.21 57.1191C153.258 57.94 154.275 58.5868 155.261 59.0597C157.871 60.2752 160.482 60.7855 163.094 60.5907C166.302 60.3515 169.243 59.1274 171.919 56.9184C173.211 55.7996 174.281 54.53 175.128 53.1096C175.646 52.2425 176.065 51.3563 176.386 50.451C177.048 48.4274 177.311 46.4865 177.174 44.6283L175.797 25.9318C175.618 23.495 174.773 21.1255 173.264 18.8231C171.215 15.8912 168.38 13.8818 164.757 12.7947C162.96 12.3294 161.281 12.1549 159.721 12.2712L159.353 12.2987C156.18 12.5353 153.216 13.814 150.461 16.1347C149.177 17.3586 148.253 18.4587 147.69 19.4349C145.977 22.2596 145.234 25.2059 145.459 28.2737Z" fill="#4AA3FF"/>
</svg>
