<svg width="322" height="138" viewBox="0 0 322 138" fill="none" xmlns="http://www.w3.org/2000/svg">
<path d="M3.05822 41.2175L29.8379 39.2081C35.5371 38.7805 41.1146 40.1511 46.5704 43.3198C47.6939 43.9637 49.2537 45.1608 51.2497 46.9109C52.5454 48.1752 53.6125 49.3459 54.4512 50.4229C58.07 55.3126 60.0707 60.3712 60.4533 65.5988L60.5398 66.7797C60.9362 72.1962 59.6815 77.5466 56.7756 82.8309C56.1075 84.0843 55.0024 85.6396 53.4604 87.4968C51.2871 89.8131 49.3522 91.494 47.6558 92.5395C43.2453 95.4352 38.5212 97.0721 33.4833 97.4501L28.0045 97.8612C26.4616 97.977 25.3603 97.2047 24.7006 95.5443C24.653 95.3262 24.6234 95.1384 24.6119 94.981L24.6084 94.9338C24.5047 93.5166 25.1878 92.468 26.6577 91.7877C26.9365 91.7035 27.2333 91.6495 27.5482 91.6259L32.9797 91.2184C38.301 90.8191 43.0401 88.7378 47.1971 84.9745C48.8497 83.3306 50.0001 81.9619 50.6482 80.8684C51.7295 79.204 52.5443 77.5755 53.0926 75.9828C54.1016 72.899 54.5047 69.9715 54.3019 67.2003L54.2189 66.0666C53.94 62.2561 52.4927 58.4859 49.8768 54.7558C46.6435 50.3754 42.476 47.5058 37.3743 46.1471C34.9213 45.5079 32.5456 45.2745 30.2471 45.447L6.86795 47.2011L8.95266 75.685C9.0679 77.2596 8.70315 78.3319 7.85839 78.9019C7.38456 79.3491 6.78554 79.5998 6.06134 79.6542C4.83335 79.7463 3.82574 79.1728 3.03853 77.9336C2.88262 77.5337 2.79545 77.2078 2.77701 76.9558L0.388053 44.3151C0.311994 43.2759 0.83112 42.3662 1.94543 41.5859C2.37242 41.3639 2.74335 41.2411 3.05822 41.2175ZM4.61208 76.7231C4.64896 77.227 5.02182 77.5632 5.73067 77.7316L6.06128 77.7068C6.80314 77.4612 7.15448 77.0707 7.1153 76.5353C7.13526 76.3755 7.13718 76.1854 7.12104 75.9649L4.89112 45.4971C4.88651 45.4341 4.89995 45.4015 4.93144 45.3991L29.8692 43.528C35.8832 43.0767 41.4522 44.7645 46.5763 48.5914C48.8019 50.4509 50.1855 51.8353 50.7269 52.7446C52.1155 54.4136 53.3067 56.4141 54.3005 58.746C55.3104 61.2984 55.8961 63.6767 56.0574 65.8811L56.137 66.9676C56.4827 71.6913 55.3808 76.3178 52.8312 80.8471C52.3021 81.8367 51.308 83.1779 49.8489 84.8705C47.469 87.3923 44.8249 89.3322 41.9166 90.6903C39.0352 91.9831 36.1933 92.7346 33.391 92.9449L27.9122 93.356C27.1565 93.4127 26.6892 93.7327 26.5103 94.3161C26.4857 94.4129 26.4804 94.5558 26.4942 94.7448L26.5011 94.8392C26.7162 95.6147 27.1228 95.98 27.7211 95.9351L33.6721 95.4886C38.0803 95.1578 42.3706 93.6485 46.5429 90.9606C48.0596 90.0552 49.8317 88.529 51.8591 86.3821C53.7245 84.1839 54.8867 82.5452 55.346 81.4658C57.9086 76.6822 59.0089 71.8184 58.6471 66.8742L58.5537 65.5988C58.2587 61.5679 56.8367 57.495 54.2877 53.3799C53.3468 51.7723 51.7532 49.897 49.5068 47.7541C47.2136 45.8363 45.3635 44.5661 43.9566 43.9433C39.3233 41.6312 34.5979 40.6559 29.7804 41.0173L3.28406 43.0054C2.78027 43.0432 2.42662 43.4022 2.22313 44.0824L4.61208 76.7231ZM6.88299 90.2317C8.17396 90.1348 9.20076 90.7544 9.9634 92.0904C10.117 92.4588 10.2215 93.021 10.2768 93.7768L12.7556 127.646C12.8801 129.346 12.4109 130.505 11.348 131.123C10.9571 131.406 10.5413 131.564 10.1005 131.597L9.67538 131.629C8.60483 131.709 7.6794 131.177 6.8991 130.032C6.7094 129.603 6.60417 129.247 6.58343 128.964L3.98013 93.3943C3.89715 92.2606 4.49269 91.3135 5.76675 90.5529C6.10388 90.401 6.47597 90.2939 6.88299 90.2317ZM5.82212 93.2561L8.40814 128.589C8.45654 129.251 8.91157 129.628 9.77325 129.722C10.6142 129.532 11.0035 129.012 10.9413 128.162L8.41405 93.6315C8.34952 92.7498 8.01121 92.2369 7.39913 92.0928L7.11229 92.0668L6.87613 92.0846C6.13427 92.3302 5.78294 92.7207 5.82212 93.2561ZM93.2178 34.4051L93.5957 34.3768C94.6347 34.2988 95.5421 34.8007 96.3178 35.8824C96.5436 36.3721 99.0347 42.7238 103.791 54.9376C107.404 64.0708 109.218 68.7477 109.235 68.9681L109.273 69.4877C109.358 70.6529 108.748 71.6169 107.442 72.3798C107.071 72.5027 106.776 72.5723 106.555 72.5889L106.319 72.6066C104.902 72.7129 103.835 71.9697 103.117 70.3771L94.4531 48.0389L94.3587 48.046L87.488 78.1042C87.1171 79.5253 85.1951 87.8705 81.722 103.14C78.4984 117.061 76.7995 124.344 76.6252 124.991C75.9793 126.116 75.1841 126.714 74.2395 126.785L73.9089 126.809C72.7754 126.894 71.8522 126.394 71.1395 125.307C70.8915 124.946 70.7524 124.561 70.7225 124.151L70.6914 123.726C70.6683 123.411 71.1302 121.287 72.077 117.353C75.8158 100.955 79.3819 85.4411 82.7751 70.8109C87.9361 48.322 90.606 36.7859 90.7849 36.2025C91.4308 35.0775 92.2417 34.4784 93.2178 34.4051ZM72.5472 123.777C72.5979 124.47 73.0529 124.847 73.9123 124.909C74.6365 124.855 75.075 124.141 75.2278 122.768C75.5027 121.766 78.9148 106.96 85.464 78.3511C90.7279 55.5378 93.5395 43.342 93.8988 41.7635L93.9933 41.7564C101.206 60.2771 104.907 69.7519 105.097 70.181C105.442 70.5668 105.771 70.7478 106.086 70.7242L106.37 70.7029C107.112 70.4573 107.462 70.051 107.42 69.4842L107.41 69.3425C107.394 69.1221 106.379 66.5067 104.366 61.4965C103.659 59.618 100.425 51.343 94.6659 36.6713C94.3526 36.2832 93.9755 36.1056 93.5347 36.1387C92.7475 36.1978 92.2921 36.8969 92.1685 38.2361C86.8018 61.3737 81.8908 82.7355 77.4355 102.322C74.1559 116.342 72.523 123.446 72.5368 123.635L72.5472 123.777ZM97.0875 84.0334L112.39 82.8852C113.807 82.7789 114.857 83.4918 115.539 85.0238C124.256 107.231 128.68 118.583 128.811 119.08C128.843 119.078 128.866 119.171 128.879 119.36L128.91 119.785C128.989 120.856 128.455 121.783 127.309 122.565C126.912 122.753 126.555 122.859 126.24 122.883L125.862 122.911C124.823 122.989 123.916 122.487 123.14 121.406C122.725 120.487 118.522 109.783 110.532 89.2942L97.5911 90.2652C96.0797 90.3786 94.9988 89.6681 94.3483 88.1337C94.2692 87.9179 94.2239 87.7314 94.2123 87.5739L94.1916 87.2905C94.0879 85.8734 94.8182 84.8211 96.3825 84.1338C96.6951 84.0787 96.9301 84.0452 97.0875 84.0334ZM96.0439 87.294C96.0854 87.8608 96.4909 88.2104 97.2605 88.3426L111.713 87.2582C111.776 87.2535 112.474 89.006 113.807 92.5156L124.731 120.431C125.11 120.846 125.504 121.038 125.913 121.008C126.72 120.789 127.1 120.349 127.051 119.687L127.044 119.593C127.03 119.404 126.19 117.219 124.522 113.038C117.427 94.8247 113.786 85.5195 113.599 85.1219C113.258 84.7991 112.852 84.6554 112.38 84.6909L97.3134 85.8213C96.5577 85.878 96.1265 86.2587 96.0197 86.9633L96.0439 87.294ZM131.427 31.5382L131.852 31.5063C132.923 31.426 133.85 31.9739 134.632 33.1501C142.22 52.4659 146.41 63.2182 147.203 65.4068C147.237 65.4359 147.261 65.545 147.275 65.7339L147.302 66.1118C147.385 67.2455 146.79 68.1926 145.516 68.9531C145.149 69.1389 144.777 69.246 144.4 69.2744C142.983 69.3807 141.917 68.669 141.204 67.1393L128.867 35.4825C128.824 35.3274 128.797 35.1869 128.788 35.0609L128.757 34.6358C128.679 33.5651 129.228 32.6373 130.406 31.8523C130.803 31.6642 131.144 31.5595 131.427 31.5382ZM183.428 27.6365L183.853 27.6046C184.924 27.5242 185.85 28.0722 186.633 29.2484C186.82 29.6459 186.924 29.9864 186.945 30.2699L186.976 30.695C187.002 31.0414 186.495 33.4225 185.457 37.8384C185.459 37.8699 182.023 52.7725 175.147 82.5461C169.843 105.679 167.118 117.536 166.97 118.117C166.329 119.305 165.505 119.937 164.497 120.012L164.072 120.044C163.064 120.12 162.174 119.633 161.4 118.582C160.992 117.758 157.217 108.146 150.077 89.7468C148.38 85.5994 147.516 83.3053 147.484 82.8644L147.48 82.8172C147.377 81.4001 148.075 80.3502 149.577 79.6676C149.761 79.5904 150.057 79.5207 150.464 79.4585C151.66 79.3688 152.652 79.9435 153.439 81.1826L163.208 106.288L163.302 106.281L173.92 59.935C177.701 43.6925 179.589 35.524 179.582 35.4295C180.347 32.0473 180.833 30.0318 181.039 29.3831C181.656 28.2919 182.452 27.7097 183.428 27.6365ZM130.613 34.6866C130.742 35.1518 131.505 37.137 132.901 40.6419L143.127 66.8051C143.471 67.1908 143.864 67.3672 144.305 67.3341C145.114 67.1467 145.493 66.6909 145.44 65.9666C145.426 65.7776 144.718 63.8992 143.318 60.3313L132.926 33.848C132.613 33.4599 132.236 33.2824 131.795 33.3155C131.165 33.3627 130.764 33.7253 130.592 34.4031L130.613 34.6866ZM163.755 112.469L163.66 112.476C155.788 92.2947 151.794 82.066 151.679 81.7897C151.303 81.4063 150.957 81.2264 150.642 81.25L150.359 81.2713C149.887 81.3067 149.565 81.6634 149.393 82.3412C149.37 82.4695 149.363 82.5809 149.369 82.6754C149.46 83.0486 153.516 93.4784 161.537 113.965C162.358 116.088 162.859 117.317 163.042 117.652C163.416 118.004 163.776 118.167 164.123 118.141C164.878 118.084 165.324 117.465 165.459 116.283C171.778 88.8626 175.259 73.6876 175.899 70.7581C181.217 47.8142 183.906 36.1183 183.969 35.6703C184.753 32.54 185.135 30.8489 185.117 30.597L185.103 30.4081C185.069 29.9357 184.744 29.6117 184.13 29.4362C184.001 29.4141 183.89 29.4067 183.796 29.4138C183.008 29.4728 182.537 30.1731 182.382 31.5146C182.19 32.3523 178.889 46.7223 172.478 74.6245C171.971 76.7841 169.063 89.3988 163.755 112.469ZM195.377 26.7399L195.803 26.708C196.842 26.63 197.75 27.1476 198.528 28.2608C198.749 28.6876 198.871 29.0584 198.894 29.3733L200.865 56.2983C227.466 36.9188 241.111 26.9656 241.801 26.4389C244.415 24.5329 245.964 23.4192 246.447 23.098C246.785 22.946 247.111 22.8582 247.425 22.8346L247.803 22.8063C248.937 22.7212 249.898 23.314 250.688 24.5847C250.812 24.987 250.881 25.2826 250.895 25.4716L250.926 25.8967C251.016 27.1248 250.182 28.2641 248.422 29.3143C248.094 29.5923 238.085 36.8819 218.394 51.1834C218.246 51.3211 212.582 55.4667 201.401 63.6201C202.429 77.6652 203.327 89.931 204.094 100.418L205.035 113.266C205.159 114.967 204.704 116.109 203.671 116.693C203.248 116.978 202.832 117.136 202.423 117.167L201.998 117.199C200.959 117.277 200.05 116.759 199.272 115.646C199.054 115.251 198.931 114.88 198.906 114.533L192.707 29.8375C192.624 28.7038 193.22 27.7567 194.494 26.9962C194.863 26.8419 195.157 26.7564 195.377 26.7399ZM194.516 29.8918C195.619 44.5329 196.508 56.4669 197.184 65.6938L200.731 114.159C200.779 114.82 201.218 115.199 202.049 115.295C202.89 115.105 203.279 114.585 203.217 113.735L199.732 66.1201C199.67 65.2698 199.569 64.1058 199.429 62.6281C222.064 46.1742 233.561 37.7913 233.918 37.4796L245.554 29.0546C247.508 27.6414 248.603 26.8151 248.839 26.5758C249.012 26.3411 249.09 26.1136 249.074 25.8932L249.06 25.7042C249.019 25.1374 248.659 24.7686 247.982 24.5977L247.746 24.6154C247.368 24.6438 246.671 25.076 245.656 25.9121C244.962 26.3759 233.33 34.8481 210.759 51.3288L199.258 59.6486L199.208 59.605L197.005 29.515C196.968 29.0112 196.611 28.6738 195.934 28.503L195.603 28.5278C195.099 28.5656 194.745 28.9089 194.539 29.5576C194.55 29.715 194.543 29.8264 194.516 29.8918ZM215.976 74.5905L216.07 74.5834C217.141 74.5031 218.293 75.0975 219.525 76.3666C231.823 86.9379 243.702 97.1924 255.162 107.13C256.365 107.99 256.998 108.86 257.063 109.742L257.094 110.167C257.17 111.207 256.667 112.115 255.584 112.893C255.157 113.115 254.77 113.239 254.424 113.265L254.046 113.293C253.101 113.364 251.98 112.752 250.682 111.456C238.452 100.943 226.218 90.3824 213.981 79.7748C213.499 79.2411 213.233 78.6435 213.185 77.9822L213.168 77.746C213.082 76.5808 213.677 75.618 214.951 74.8574C215.256 74.7079 215.598 74.6189 215.976 74.5905ZM215.006 77.5606L215.016 77.7023C215.051 78.1747 215.485 78.6962 216.318 79.267C228.553 89.8431 240.871 100.476 253.273 111.167C253.505 111.307 253.78 111.382 254.097 111.39C254.904 111.171 255.283 110.731 255.235 110.069L255.282 110.066C255.247 109.593 254.814 109.072 253.98 108.501C241.777 97.9227 229.409 87.2616 216.877 76.5178C216.613 76.3792 216.403 76.3159 216.246 76.3277L216.104 76.3383C215.331 76.5863 214.965 76.9937 215.006 77.5606ZM284.926 20.0208L286.154 19.9287C290.846 19.5767 295.749 20.602 300.864 23.0047C302.537 23.7975 304.515 25.0897 306.799 26.8815C309.21 29.1071 310.828 30.8856 311.654 32.2169C314.669 36.6453 316.357 41.3315 316.719 46.2757L319.17 79.7667C319.569 85.2146 318.331 90.5796 315.457 95.8616C314.724 97.0882 313.676 98.56 312.313 100.277C310.14 102.593 308.358 104.199 306.967 105.095C305.462 106.158 303.806 107.106 301.999 107.938C298.684 109.358 295.609 110.175 292.775 110.387L291.547 110.48C286.887 110.829 281.984 109.804 276.838 107.404C275.165 106.611 273.187 105.319 270.903 103.527C268.118 100.949 266.141 98.5961 264.972 96.4673C262.621 92.464 261.291 88.3524 260.982 84.1326L260.253 74.1656C260.168 73.0004 260.778 72.0364 262.083 71.2735C262.328 71.1601 262.686 71.07 263.156 71.003C264.447 70.9062 265.474 71.5257 266.236 72.8617C266.39 73.2302 266.494 73.7923 266.55 74.5481L267.206 83.5231C267.584 88.6877 269.679 93.296 273.49 97.3481C275.427 99.1659 276.706 100.194 277.325 100.433C278.723 101.373 280.351 102.2 282.208 102.916C285.453 104.002 288.477 104.44 291.28 104.23L292.177 104.163C296.333 103.851 300.393 102.216 304.356 99.2593C305.468 98.4476 306.706 97.199 308.07 95.5133C309.895 93.1916 311.141 90.9608 311.807 88.821C312.763 85.8678 313.138 82.9899 312.933 80.1872L310.488 46.7907C310.136 41.9725 308.214 37.5571 304.722 33.5444C302.811 31.6612 301.379 30.4705 300.424 29.9722C298.434 28.7283 296.678 27.8785 295.156 27.4227C292.104 26.3851 289.209 25.9691 286.469 26.1746L285.572 26.2419C281.415 26.5538 277.34 28.1895 273.346 31.149C269.485 34.1935 266.862 38.1583 265.479 43.0434C264.837 45.5297 264.603 47.9537 264.776 50.3156L265.222 56.4091C265.346 58.1096 264.877 59.2689 263.814 59.887C263.392 60.172 262.976 60.3298 262.567 60.3606L262.142 60.3924C261.103 60.4704 260.194 59.9528 259.416 58.8396C259.195 58.4129 259.073 58.0421 259.05 57.7272L258.531 50.6416C258.153 45.4771 259.267 40.3589 261.871 35.2872C262.562 33.9055 263.852 32.0671 265.742 29.7722C267.565 27.8622 269.094 26.4808 270.33 25.6282C271.739 24.5409 273.606 23.4509 275.932 22.3581C279.189 21.0055 282.187 20.2264 284.926 20.0208ZM260.373 50.5034L260.871 57.3055C260.919 57.9669 261.36 58.3613 262.192 58.4888L262.24 58.4853C263.081 58.2955 263.47 57.7755 263.408 56.9252L262.931 50.4065C262.576 45.5569 263.675 40.8989 266.229 36.4326C266.698 35.4792 267.765 34.0534 269.431 32.1552C270.787 30.7869 272.006 29.7138 273.089 28.9359C277.16 26.1606 281.305 24.6147 285.524 24.2981L286.186 24.2485C290.877 23.8965 295.582 25.0159 300.299 27.6068C301.517 28.2437 303.056 29.3789 304.917 31.0125C306.835 32.9901 308.053 34.4977 308.572 35.5353C310.821 39.008 312.087 42.681 312.371 46.5545L314.815 79.951C315.17 84.8006 313.997 89.5432 311.297 94.1788C310.644 95.2094 309.851 96.2663 308.917 97.3497C307.011 99.4242 305.286 100.947 303.743 101.918C299.93 104.325 295.961 105.684 291.836 105.993C285.822 106.444 280.126 104.75 274.748 100.911C272.554 99.049 271.205 97.7095 270.702 96.8923C267.494 92.8583 265.715 88.448 265.364 83.6613L264.683 74.3557C264.621 73.5054 264.283 72.9925 263.668 72.8169L263.382 72.791L263.145 72.8087C262.404 73.0543 262.053 73.4606 262.095 74.0274L262.821 83.9472C263.208 89.2377 265.232 94.1838 268.893 98.7854C269.759 99.797 270.953 100.974 272.476 102.316C274.357 103.79 276.183 104.951 277.955 105.8C282.642 107.981 287.331 108.896 292.023 108.544C297.785 108.112 303.069 105.91 307.876 101.94C310.198 99.9292 312.121 97.6476 313.644 95.0952C314.574 93.5371 315.329 91.9448 315.906 90.3183C317.096 86.6826 317.569 83.1957 317.325 79.8576L314.867 46.2722C314.546 41.8949 313.032 37.6389 310.323 33.5041C306.645 28.2388 301.553 24.6312 295.047 22.6812C291.82 21.8468 288.805 21.5347 286.002 21.745L285.341 21.7946C279.642 22.2222 274.317 24.5216 269.367 28.6927C267.059 30.8924 265.399 32.8693 264.387 34.6234C261.308 39.6991 259.97 44.9924 260.373 50.5034Z" fill="#4AA3FF"/>
</svg>
