<svg width="292" height="123" viewBox="0 0 292 123" fill="none" xmlns="http://www.w3.org/2000/svg">
<path d="M2.66993 37.1636L26.9666 35.3631C32.1373 34.9799 37.1991 36.2277 42.152 39.1066C43.1719 39.6916 44.5882 40.7788 46.4007 42.3679C47.5773 43.5159 48.5465 44.5786 49.3083 45.5563C52.5958 49.9947 54.4153 54.585 54.7667 59.3273L54.8461 60.3985C55.2103 65.3121 54.0762 70.1644 51.4439 74.9554C50.8387 76.0918 49.8373 77.5017 48.4396 79.1851C46.4696 81.2843 44.7154 82.8075 43.177 83.7545C39.1776 86.3775 34.8925 87.8584 30.3217 88.1971L25.351 88.5655C23.9512 88.6692 22.9513 87.9677 22.3513 86.4611C22.3079 86.2632 22.281 86.0929 22.2704 85.95L22.2672 85.9072C22.1719 84.6217 22.7909 83.671 24.124 83.0551C24.3769 82.979 24.6461 82.9303 24.9318 82.9091L29.8597 82.5439C34.6876 82.1862 38.9859 80.3022 42.7546 76.8919C44.2528 75.4021 45.2955 74.1615 45.8827 73.1701C46.8624 71.6613 47.6003 70.1847 48.0965 68.7405C49.0095 65.944 49.3729 63.2888 49.1866 60.7748L49.1104 59.7464C48.8542 56.2898 47.5379 52.8686 45.1614 49.4828C42.2241 45.5068 38.4404 42.9003 33.8103 41.6636C31.5841 41.0818 29.4283 40.8681 27.3429 41.0226L6.13153 42.5945L8.04635 68.4338C8.1522 69.8622 7.82212 70.8345 7.0561 71.3509C6.62654 71.7562 6.08324 71.9831 5.42618 72.0318C4.31205 72.1144 3.39734 71.5933 2.68206 70.4686C2.54027 70.1057 2.46091 69.81 2.44397 69.5814L0.249709 39.9712C0.179848 39.0285 0.65013 38.2037 1.66055 37.4969C2.0478 37.2959 2.38426 37.1848 2.66993 37.1636ZM4.10882 69.3719C4.14269 69.829 4.48128 70.1342 5.12458 70.2876L5.42454 70.2654C6.09746 70.0432 6.41593 69.6892 6.37994 69.2036C6.39792 69.0586 6.3995 68.8862 6.38468 68.6862L4.33649 41.0471C4.33226 40.99 4.34442 40.9604 4.37299 40.9583L26.9985 39.2816C32.4548 38.8773 37.5092 40.4129 42.1616 43.8885C44.1826 45.5771 45.439 46.834 45.9311 47.6593C47.1923 49.1744 48.2748 50.99 49.1784 53.106C50.0969 55.4221 50.6302 57.58 50.7784 59.5797L50.8514 60.5653C51.169 64.8504 50.173 69.0462 47.8633 73.1526C47.3841 74.0498 46.4832 75.2656 45.1606 76.7998C43.0033 79.0853 40.6058 80.8428 37.9681 82.0723C35.3548 83.2426 32.7768 83.922 30.2343 84.1104L25.2636 84.4787C24.5779 84.5295 24.1542 84.8195 23.9923 85.3485C23.9701 85.4363 23.9654 85.5659 23.9781 85.7373L23.9844 85.823C24.1802 86.5266 24.5495 86.8583 25.0922 86.8181L30.4915 86.418C34.4909 86.1216 38.3824 84.7561 42.166 82.3214C43.5414 81.5013 45.148 80.1184 46.9858 78.1726C48.6765 76.1802 49.7298 74.6946 50.1456 73.7159C52.4668 69.3789 53.4613 64.9678 53.1289 60.4827L53.0432 59.3257C52.7722 55.6691 51.4786 51.9733 49.1624 48.2384C48.3074 46.7794 46.86 45.077 44.82 43.1313C42.7377 41.3898 41.058 40.2361 39.7809 39.6701C35.575 37.5689 31.2867 36.6802 26.9159 37.0041L2.8763 38.7856C2.41922 38.8195 2.09864 39.1448 1.91456 39.7617L4.10882 69.3719ZM6.18035 81.6273C7.35161 81.5405 8.28378 82.1034 8.97684 83.3159C9.11652 83.6502 9.21176 84.1602 9.26257 84.8458L11.5394 115.57C11.6537 117.113 11.2289 118.164 10.2651 118.724C9.91062 118.98 9.53342 119.123 9.13348 119.152L8.74782 119.181C7.77652 119.253 6.93641 118.769 6.22748 117.73C6.055 117.341 5.95924 117.018 5.94019 116.761L3.54904 84.4937C3.47283 83.4652 4.01241 82.6066 5.16779 81.9178C5.47357 81.7802 5.81108 81.6834 6.18035 81.6273ZM5.22024 84.3698L7.59551 116.423C7.63997 117.022 8.05315 117.365 8.83506 117.451C9.59791 117.28 9.95076 116.808 9.8936 116.037L7.57232 84.7126C7.51304 83.9127 7.20566 83.4471 6.65018 83.316L6.38989 83.2922L6.17564 83.308C5.50272 83.5303 5.18425 83.8842 5.22024 84.3698ZM84.4698 31.0587L84.8126 31.0333C85.7553 30.9635 86.579 31.4195 87.2837 32.4013C87.489 32.8457 89.7545 38.6094 94.0802 49.6924C97.3657 57.9801 99.0159 62.2239 99.0307 62.4239L99.0656 62.8953C99.1439 63.9522 98.5911 64.8262 97.4072 65.5172C97.0707 65.6283 96.8025 65.6912 96.6025 65.7061L96.3883 65.7219C95.1028 65.8172 94.1336 65.1422 93.4807 63.6969L85.6018 43.4269L85.5161 43.4332L79.3066 70.6932C78.9713 71.9819 77.2342 79.5503 74.0953 93.3982C71.1818 106.023 69.6463 112.629 69.4886 113.215C68.9036 114.235 68.1825 114.776 67.3255 114.84L67.0255 114.862C65.9971 114.938 65.1591 114.483 64.5115 113.497C64.2862 113.169 64.1597 112.82 64.1322 112.448L64.1036 112.063C64.0824 111.777 64.4998 109.85 65.3556 106.282C68.7346 91.4114 71.9576 77.3417 75.0245 64.0736C79.6888 43.6783 82.1019 33.2162 82.2638 32.6872C82.8489 31.6672 83.5842 31.1244 84.4698 31.0587ZM65.7875 112.11C65.8341 112.739 66.2473 113.082 67.0271 113.139C67.6841 113.09 68.0814 112.443 68.2189 111.198C68.4675 110.289 71.5513 96.8613 77.4704 70.9155C82.2278 50.2261 84.7689 39.1656 85.0937 37.734L85.1794 37.7277C91.7388 54.5336 95.1048 63.1313 95.2773 63.5207C95.5905 63.8709 95.8899 64.0354 96.1756 64.0142L96.4327 63.9952C97.1056 63.773 97.423 63.4048 97.3849 62.8905L97.3754 62.762C97.3606 62.562 96.4379 60.1888 94.6073 55.6424C93.9639 53.9379 91.0233 46.4289 85.7855 33.1156C85.5009 32.7632 85.1586 32.6019 84.7587 32.6315C84.0445 32.6845 83.6319 33.3182 83.5208 34.5329C78.6703 55.5165 74.2318 74.8896 70.2054 92.6524C67.2411 105.367 65.7653 111.81 65.778 111.982L65.7875 112.11ZM88.0215 76.0795L101.905 75.0507C103.191 74.9554 104.144 75.6029 104.764 76.9932C112.691 97.1447 116.715 107.446 116.834 107.897C116.863 107.894 116.884 107.979 116.896 108.15L116.925 108.536C116.997 109.507 116.513 110.348 115.474 111.056C115.114 111.227 114.79 111.323 114.505 111.344L114.162 111.369C113.219 111.439 112.395 110.983 111.691 110.001C111.313 109.167 107.491 99.4546 100.225 80.8626L88.4835 81.7327C87.1123 81.8343 86.1309 81.1889 85.5394 79.7966C85.4674 79.6008 85.4262 79.4315 85.4156 79.2887L85.3965 79.0316C85.3013 77.746 85.9631 76.7922 87.3819 76.17C87.6655 76.1203 87.8787 76.0901 88.0215 76.0795ZM87.0773 79.0363C87.1154 79.5505 87.4836 79.8679 88.1819 79.9885L101.294 79.0168C101.352 79.0126 101.986 80.6028 103.199 83.7875L113.133 109.119C113.477 109.495 113.835 109.67 114.206 109.642C114.938 109.445 115.282 109.046 115.238 108.446L115.231 108.36C115.219 108.189 114.454 106.206 112.938 102.412C106.485 85.885 103.174 77.4413 103.004 77.0805C102.695 76.7874 102.326 76.6568 101.897 76.6885L88.2279 77.7015C87.5422 77.7523 87.1513 78.0973 87.055 78.7363L87.0773 79.0363ZM119.136 28.4898L119.522 28.4612C120.493 28.3892 121.335 28.887 122.046 29.9546C128.946 47.4821 132.757 57.2389 133.478 59.2248C133.509 59.2513 133.531 59.3502 133.543 59.5216L133.569 59.8644C133.645 60.8929 133.105 61.7515 131.95 62.4403C131.618 62.6086 131.28 62.7054 130.937 62.7308C129.652 62.8261 128.685 62.1796 128.036 60.7915L116.816 32.0655C116.777 31.9248 116.753 31.7973 116.745 31.6831L116.716 31.2974C116.644 30.3261 117.142 29.4849 118.21 28.7739C118.57 28.6035 118.879 28.5088 119.136 28.4898ZM166.316 24.9935L166.701 24.965C167.673 24.893 168.514 25.3908 169.225 26.4583C169.395 26.8191 169.49 27.1281 169.509 27.3852L169.538 27.7709C169.561 28.0851 169.103 30.2446 168.165 34.2494C168.167 34.278 165.061 47.7932 158.847 74.795C154.053 95.7743 151.59 106.527 151.457 107.054C150.876 108.131 150.128 108.704 149.214 108.772L148.829 108.8C147.914 108.868 147.106 108.425 146.403 107.472C146.032 106.724 142.599 98.0019 136.106 81.3059C134.563 77.5424 133.777 75.4607 133.747 75.0608L133.744 75.0179C133.649 73.7324 134.282 72.7807 135.643 72.1627C135.811 72.0929 136.079 72.0299 136.448 71.9738C137.534 71.8934 138.434 72.4155 139.149 73.5402L148.033 96.321L148.119 96.3146L157.715 54.2835C161.133 39.5531 162.839 32.1451 162.832 32.0594C163.524 28.992 163.963 27.1642 164.149 26.5759C164.708 25.5866 165.43 25.0592 166.316 24.9935ZM118.4 31.345C118.518 31.7671 119.211 33.5684 120.481 36.7489L129.78 60.4899C130.094 60.8401 130.45 61.0004 130.85 60.9707C131.584 60.8014 131.927 60.3882 131.879 59.7312C131.866 59.5598 131.222 57.8553 129.948 54.6176L120.498 30.5863C120.214 30.2339 119.871 30.0726 119.471 30.1022C118.9 30.1446 118.537 30.4731 118.381 31.0878L118.4 31.345ZM148.535 101.928L148.449 101.934C141.29 83.6218 137.658 74.3401 137.553 74.0894C137.211 73.7413 136.897 73.5778 136.612 73.599L136.355 73.6181C135.926 73.6498 135.634 73.9731 135.479 74.5878C135.458 74.7042 135.452 74.8052 135.458 74.8909C135.54 75.2295 139.229 84.6937 146.524 103.284C147.27 105.21 147.726 106.325 147.892 106.629C148.232 106.949 148.559 107.097 148.873 107.073C149.559 107.023 149.962 106.461 150.084 105.39C155.796 80.5218 158.941 66.7596 159.519 64.1028C164.326 43.2948 166.757 32.6877 166.813 32.2814C167.521 29.4426 167.867 27.909 167.85 27.6804L167.838 27.509C167.806 27.0805 167.511 26.7864 166.954 26.6266C166.837 26.6065 166.736 26.5997 166.651 26.606C165.936 26.6589 165.51 27.2938 165.37 28.5106C165.196 29.2703 162.213 42.3024 156.418 67.6071C155.96 69.5656 153.332 81.006 148.535 101.928ZM177.157 24.1902L177.543 24.1616C178.485 24.0917 179.31 24.562 180.017 25.5724C180.218 25.9597 180.329 26.2961 180.35 26.5818L182.16 51.007C206.28 33.4499 218.653 24.4328 219.278 23.9556C221.649 22.2287 223.054 21.2198 223.492 20.9289C223.798 20.7913 224.093 20.7119 224.379 20.6908L224.722 20.6654C225.75 20.5891 226.623 21.1277 227.341 22.2809C227.454 22.646 227.517 22.9142 227.53 23.0856L227.558 23.4712C227.641 24.5854 226.884 25.6181 225.289 26.5693C224.991 26.8211 215.916 33.4253 198.061 46.3817C197.927 46.5066 192.791 50.2623 182.653 57.6489C183.597 70.3901 184.421 81.5171 185.126 91.0301L185.99 102.686C186.104 104.228 185.693 105.264 184.755 105.793C184.372 106.051 183.995 106.194 183.624 106.222L183.238 106.25C182.295 106.32 181.471 105.85 180.764 104.839C180.565 104.481 180.454 104.144 180.43 103.83L174.737 26.9978C174.661 25.9694 175.2 25.1107 176.356 24.4219C176.69 24.2822 176.957 24.205 177.157 24.1902ZM176.378 27.0485C177.391 40.3303 178.207 51.1563 178.828 59.5266L182.086 103.492C182.13 104.092 182.529 104.436 183.282 104.524C184.045 104.352 184.398 103.881 184.341 103.109L181.14 59.9154C181.083 59.144 180.99 58.0881 180.862 56.7475C201.387 41.841 211.811 34.2465 212.135 33.9639L222.686 26.3313C224.458 25.051 225.451 24.3024 225.665 24.0855C225.821 23.8728 225.892 23.6665 225.877 23.4665L225.865 23.2951C225.827 22.7809 225.5 22.446 224.885 22.2905L224.671 22.3064C224.328 22.3318 223.697 22.7233 222.776 23.4809C222.147 23.901 211.599 31.5765 191.134 46.5073L180.705 54.0447L180.659 54.0051L178.636 26.7088C178.602 26.2517 178.278 25.9454 177.663 25.7899L177.363 25.8121C176.906 25.846 176.585 26.1571 176.398 26.7454C176.409 26.8882 176.402 26.9893 176.378 27.0485ZM195.886 67.6123L195.972 67.6059C196.943 67.5339 197.988 68.0741 199.108 69.2262C210.275 78.8257 221.062 88.1373 231.468 97.1612C232.56 97.942 233.135 98.7323 233.195 99.5322L233.223 99.9179C233.293 100.861 232.837 101.684 231.855 102.389C231.468 102.59 231.117 102.702 230.803 102.726L230.46 102.751C229.603 102.814 228.585 102.258 227.407 101.081C216.301 91.5349 205.192 81.9455 194.08 72.3133C193.642 71.8287 193.401 71.2865 193.356 70.6865L193.34 70.4723C193.262 69.4153 193.801 68.5424 194.956 67.8535C195.233 67.7181 195.543 67.6377 195.886 67.6123ZM195.008 70.3056L195.018 70.4341C195.05 70.8627 195.444 71.3361 196.2 71.8545C207.31 81.4582 218.496 91.1137 229.757 100.821C229.968 100.949 230.217 101.017 230.505 101.024C231.237 100.826 231.581 100.427 231.536 99.8275L231.579 99.8243C231.547 99.3958 231.153 98.9223 230.397 98.4039C219.315 88.7981 208.085 79.1172 196.705 69.3612C196.466 69.2353 196.275 69.1777 196.132 69.1882L196.003 69.1978C195.302 69.4221 194.97 69.7914 195.008 70.3056ZM258.403 18.1694L259.517 18.0869C263.774 17.7714 268.223 18.7056 272.866 20.8892C274.385 21.6097 276.181 22.7836 278.254 24.4108C280.444 26.4316 281.913 28.0462 282.664 29.2545C285.403 33.274 286.939 37.5262 287.271 42.0113L289.523 72.3929C289.889 77.3351 288.77 82.2006 286.166 86.9894C285.502 88.1015 284.552 89.4357 283.318 90.9921C281.348 93.0914 279.732 94.5468 278.471 95.3584C277.106 96.3212 275.604 97.1794 273.965 97.9328C270.958 99.2184 268.169 99.9565 265.598 100.147L264.484 100.23C260.256 100.543 255.806 99.6088 251.135 97.4272C249.617 96.7067 247.821 95.5328 245.747 93.9056C243.218 91.5653 241.422 89.4291 240.36 87.4971C238.224 83.8638 237.014 80.1331 236.73 76.3051L236.06 67.2635C235.982 66.2065 236.534 65.3325 237.718 64.6415C237.941 64.5389 238.265 64.4574 238.691 64.3971C239.862 64.3103 240.795 64.8732 241.488 66.0857C241.627 66.42 241.723 66.93 241.773 67.6156L242.377 75.7574C242.724 80.4424 244.628 84.6243 248.089 88.3031C249.849 89.9536 251.009 90.8873 251.571 91.1042C252.841 91.958 254.319 92.7103 256.004 93.3609C258.95 94.349 261.694 94.7489 264.236 94.5605L265.05 94.5002C268.821 94.2207 272.503 92.7414 276.096 90.0623C277.105 89.3269 278.227 88.1953 279.464 86.6674C281.118 84.5629 282.246 82.5404 282.849 80.5999C283.714 77.9219 284.052 75.3117 283.863 72.7692L281.618 42.4734C281.294 38.1025 279.547 34.0957 276.376 30.4529C274.64 28.7432 273.339 27.6619 272.473 27.209C270.666 26.0791 269.072 25.3068 267.691 24.892C264.921 23.9483 262.293 23.5686 259.808 23.7528L258.994 23.8131C255.223 24.0925 251.526 25.5729 247.905 28.2541C244.404 31.0126 242.027 34.6069 240.776 39.037C240.196 41.2917 239.986 43.4904 240.144 45.6329L240.554 51.1607C240.668 52.7034 240.244 53.7546 239.28 54.3143C238.897 54.5725 238.52 54.7154 238.148 54.7429L237.762 54.7715C236.82 54.8413 235.995 54.371 235.288 53.3606C235.087 52.9734 234.976 52.6369 234.955 52.3512L234.479 45.9235C234.131 41.2385 235.137 36.5967 237.497 31.9984C238.122 30.7456 239.291 29.0791 241.004 26.9989C242.657 25.2679 244.043 24.0162 245.164 23.2437C246.441 22.2587 248.134 21.2714 250.244 20.2821C253.198 19.0578 255.918 18.3536 258.403 18.1694ZM236.15 45.7997L236.607 51.9703C236.651 52.5702 237.051 52.9283 237.807 53.0447L237.85 53.0415C238.613 52.8701 238.965 52.3987 238.908 51.6274L238.47 45.7139C238.144 41.3145 239.138 37.0902 241.452 33.0409C241.876 32.1765 242.843 30.8841 244.353 29.1636C245.582 27.9235 246.688 26.9511 247.67 26.2464C251.361 23.7324 255.121 22.3335 258.949 22.0498L259.549 22.0054C263.806 21.6899 268.075 22.7093 272.357 25.0633C273.463 25.642 274.86 26.6731 276.55 28.1564C278.292 29.9519 279.398 31.3204 279.87 32.2621C281.914 35.414 283.065 38.7468 283.326 42.2606L285.571 72.5565C285.897 76.9559 284.837 81.2569 282.391 85.4596C281.799 86.3939 281.08 87.352 280.234 88.3339C278.506 90.2141 276.942 91.5938 275.543 92.4731C272.085 94.6539 268.485 95.8829 264.743 96.1603C259.286 96.5646 254.117 95.0232 249.233 91.536C247.241 89.8453 246.016 88.6291 245.559 87.8874C242.645 84.2255 241.027 80.2235 240.706 75.8812L240.08 67.4395C240.023 66.6682 239.715 66.2027 239.158 66.0429L238.898 66.0191L238.683 66.035C238.01 66.2572 237.693 66.6254 237.731 67.1396L238.398 76.1384C238.754 80.9377 240.594 85.426 243.92 89.6031C244.706 90.5214 245.791 91.59 247.173 92.8089C248.881 94.1473 250.539 95.2021 252.148 95.9734C256.402 97.956 260.658 98.7897 264.914 98.4742C270.142 98.0868 274.935 96.0944 279.293 92.4968C281.398 90.6748 283.141 88.6068 284.521 86.2927C285.364 84.8802 286.047 83.4365 286.569 81.9615C287.646 78.6646 288.073 75.502 287.848 72.4739L285.591 42.0066C285.296 38.0357 283.919 34.1739 281.457 30.421C278.116 25.6419 273.493 22.3652 267.588 20.591C264.659 19.8314 261.923 19.5458 259.381 19.7343L258.781 19.7787C253.61 20.1619 248.781 22.2432 244.292 26.0228C242.2 28.0162 240.695 29.8081 239.779 31.3984C236.989 35.9999 235.779 40.8004 236.15 45.7997Z" fill="#4AA3FF"/>
</svg>
