<svg width="271" height="666" viewBox="0 0 271 666" fill="none" xmlns="http://www.w3.org/2000/svg">
<path d="M95.9912 665.039C132.421 665.039 161.953 658.432 161.953 650.282C161.953 642.132 132.421 635.525 95.9912 635.525C59.5615 635.525 30.0293 642.132 30.0293 650.282C30.0293 658.432 59.5615 665.039 95.9912 665.039Z" fill="#9DA3A6"/>
<path d="M270.997 649.698C270.997 641.547 241.471 634.941 205.035 634.941C168.6 634.941 139.073 641.547 139.073 649.698C139.073 657.85 168.6 664.455 205.035 664.455C241.471 664.455 270.997 657.85 270.997 649.698Z" fill="#9DA3A6"/>
<path d="M189.046 396.777C188.072 393.065 189.008 385.823 186.162 383.203C185.507 382.602 184.758 382.147 183.953 381.783C183.915 381.729 183.841 381.674 183.822 381.601C181.257 374.651 182.717 349.595 183.878 332.582C184.402 324.939 180.096 314.095 178.111 306.671C176.782 301.667 179.403 292.096 172.607 291.332C164.35 290.404 159.613 300.102 158.302 305.834C155.868 316.551 157.029 316.788 158.545 331.654C159.744 343.481 175.621 371.685 168.132 383.093C168.132 383.093 164.612 387.279 164.069 387.988C163.17 389.134 162.721 391.7 162.646 394.648C162.59 397.377 165.417 397.377 165.96 399.925C166.54 402.69 165.922 408.331 167.083 408.895C171.034 410.806 170.922 408.149 174.198 407.876C180.658 407.312 183.017 408.586 187.098 403.928C189.626 401.107 189.514 398.596 189.046 396.777Z" fill="#FFBC79"/>
<path d="M182.081 312.858C181.257 308.291 180.171 300.485 179.609 294.335C177.493 271.444 177.849 248.663 176.688 225.682C176.276 217.694 175.284 209.76 174.722 201.79C174.292 195.513 173.955 189.253 171.015 183.54C170.697 182.921 170.004 182.994 169.611 183.376C169.293 183.322 168.974 183.449 168.787 183.831C166.746 188.471 166.99 193.602 165.773 198.461C164.013 205.521 161.635 212.417 159.912 219.477C156.636 233.015 155.569 246.716 155.138 260.581C154.689 275.302 155.063 290.04 155.55 304.761C155.756 311.202 156.392 317.771 156.093 324.212C155.906 328.361 162.777 357.165 162.777 366.864C162.777 369.793 161.204 381.766 163.713 381.366C169.143 380.492 179.197 380.638 184.402 378.873C186.275 378.236 187.061 378.218 187.286 376.125C187.96 369.793 183.859 322.829 182.081 312.858Z" fill="white"/>
<path d="M171.521 290.277C169.517 290.314 167.327 290.587 165.398 291.078C163.676 291.515 161.111 292.679 160.511 294.608C159.931 296.482 162.814 297.483 163.208 295.645C163.451 294.481 165.754 293.698 166.709 293.098C168.244 292.133 169.798 291.242 171.539 290.787C171.802 290.714 171.82 290.277 171.521 290.277ZM174.573 283.399C168.207 283.982 163.002 282.326 156.804 280.961C156.411 280.87 156.055 281.179 156.448 281.361C161.073 283.454 170.304 286.675 175.621 285.383C177.231 284.982 176.426 283.217 174.573 283.399ZM169.293 276.467C164.668 275.466 161.335 273.155 157.235 270.826C156.973 270.68 156.654 270.808 156.917 271.026C159.762 273.537 165.623 277.85 169.648 278.104C170.847 278.177 170.641 276.758 169.293 276.467Z" fill="#CCCCCC"/>
<path d="M161.616 178.153C151.187 174.933 144.372 174.696 132.745 170.02C122.915 165.689 123.908 150.987 124.844 137.868C120.781 132.136 97.6763 137.394 97.6763 137.394C97.6763 137.394 100.934 161.522 86.6109 167.09C86.2364 167.236 85.9369 167.454 85.5999 167.563C78.1667 169.856 69.4792 169.419 60.3609 170.547C37.0505 173.44 43.3602 173.932 47.9849 209.669C48.7525 215.564 62.8324 249.663 66.9141 275.774C69.8162 294.407 62.8886 328.36 62.8886 334.456C62.8699 351.978 70.2094 373.304 74.0289 376.197C76.2382 377.871 97.1895 374.541 116.774 375.67C131.097 376.507 144.634 383.057 149.858 379.072C162.253 369.647 161.597 357.801 162.384 341.097C162.946 329.27 165.454 272.699 168.113 238.691C169.162 225.299 170.322 214.964 170.322 212.926C170.341 183.921 175.565 182.447 161.616 178.153Z" fill="#FFBC79"/>
<path d="M78.0918 94.1066C78.0918 90.3946 77.9607 86.8283 77.4739 83.1891C77.3803 82.4794 77.1931 81.9336 76.9497 81.4605C76.9309 81.1511 76.9122 80.8418 76.8935 80.5507C76.8186 79.7137 76.5752 79.1132 76.2756 78.6037C76.3505 77.4756 76.0697 76.2383 75.1897 75.6924C73.6544 74.728 72.0254 74.3459 70.434 74.4551C70.3029 74.4369 70.1531 74.4369 70.0221 74.4369C69.7787 74.3459 69.5353 74.3277 69.2919 74.3823C67.2323 74.3823 65.2102 75.0373 63.5813 77.0753C61.2596 79.9866 60.96 84.9359 61.8026 89.1937C61.84 89.3575 61.8775 89.5212 61.9149 89.685C62.1583 91.8685 62.7575 93.9428 63.7685 95.5805C64.0119 95.999 64.2928 96.3447 64.5923 96.654C67.4008 101.512 71.5761 104.387 75.3395 101.785C76.519 101.494 77.5301 100.111 77.5301 97.6184C77.5301 97.2727 77.5114 96.927 77.5114 96.5812C77.8671 95.9262 78.0918 95.1256 78.0918 94.1066Z" fill="#FF9B54"/>
<path d="M74.9276 91.8309C74.9276 90.357 74.8901 88.9741 74.6842 87.5549C74.6467 87.2819 74.5718 87.0636 74.4782 86.8816C74.4782 86.7543 74.4782 86.6451 74.4595 86.5177C74.422 86.1902 74.3472 85.9536 74.2161 85.7535C74.2535 85.3168 74.1225 84.8255 73.7855 84.6071C73.1676 84.225 72.5497 84.0795 71.9131 84.134C71.857 84.134 71.8008 84.134 71.7634 84.134C71.651 84.0977 71.5574 84.0977 71.4638 84.0977C70.64 84.0977 69.8536 84.3524 69.217 85.153C68.2996 86.2994 68.1872 88.2281 68.5055 89.9021C68.5242 89.9749 68.543 90.0295 68.5617 90.1023C68.674 90.9575 68.8987 91.7763 69.2919 92.4132C69.3855 92.5769 69.4978 92.7225 69.6102 92.8317C70.7149 94.7422 72.3625 95.8704 73.8229 94.8514C74.3097 94.7241 74.6842 94.1782 74.6842 93.2138C74.6842 93.0682 74.6842 92.9409 74.6842 92.7953C74.834 92.5405 74.9276 92.2312 74.9276 91.8309Z" fill="#CF5025"/>
<path d="M153.135 98.2919C153.677 95.1076 154.277 92.0689 155.213 89.0301C155.4 88.4479 155.643 87.993 155.906 87.6291C155.98 87.3743 156.037 87.1196 156.111 86.8466C156.299 86.137 156.58 85.6457 156.898 85.2636C156.991 84.281 157.422 83.2621 158.227 82.9163C159.688 82.2795 161.129 82.1885 162.477 82.4978C162.608 82.4978 162.721 82.516 162.852 82.516C163.077 82.4796 163.301 82.4978 163.488 82.5706C165.248 82.8435 166.896 83.6988 167.982 85.6457C169.574 88.4661 169.124 92.7421 167.795 96.2721C167.739 96.3995 167.664 96.545 167.626 96.6906C167.102 98.5284 166.297 100.221 165.192 101.494C164.911 101.822 164.631 102.077 164.331 102.313C161.242 106.098 157.254 107.99 154.389 105.261C153.434 104.861 152.741 103.532 153.116 101.403C153.153 101.112 153.209 100.821 153.266 100.512C153.097 99.8931 153.003 99.1653 153.135 98.2919Z" fill="#FF9B54"/>
<path d="M157.946 96.0349C158.19 94.6884 158.433 93.3965 158.826 92.0864C158.901 91.8317 159.014 91.6315 159.126 91.4859C159.145 91.3768 159.182 91.2676 159.201 91.1584C159.276 90.8491 159.426 90.6489 159.557 90.4852C159.594 90.0667 159.781 89.63 160.118 89.4844C160.736 89.2297 161.354 89.1751 161.916 89.3024C161.972 89.3024 162.028 89.3206 162.084 89.3206C162.178 89.3024 162.271 89.3206 162.346 89.3388C163.114 89.4662 163.807 89.8119 164.256 90.6489C164.93 91.8499 164.743 93.6694 164.181 95.1797C164.163 95.2343 164.125 95.2889 164.106 95.3617C163.882 96.1441 163.545 96.8719 163.077 97.3996C162.964 97.5452 162.833 97.6543 162.721 97.7453C161.391 99.3466 159.706 100.165 158.489 99.0008C158.077 98.8189 157.797 98.273 157.946 97.3632C157.965 97.2358 157.984 97.1085 158.003 96.9811C157.909 96.7082 157.871 96.3988 157.946 96.0349Z" fill="#CF5025"/>
<path d="M114.415 163.96C117.055 164.979 122.672 165.58 127.933 166.035C123.365 159.593 124.114 148.239 124.844 137.868C120.781 132.136 97.6763 137.394 97.6763 137.394C97.6763 137.394 95.8789 156.791 114.415 163.96Z" fill="#E6A25E"/>
<path d="M162.796 88.7017C167.177 82.2421 165.735 59.9158 165.043 54.3478C161.242 24.2882 140.01 22.4686 128.008 20.8492C105.765 17.8287 75.4144 22.8871 73.0553 44.5039C67.869 91.7768 79.3463 109.026 80.5071 116.214C83.0722 132.135 95.0176 145 110.67 149.403C114.714 150.549 124.956 151.86 131.285 151.823C141.826 151.75 150.139 138.722 152.367 132.39C158.976 113.648 152.217 104.277 162.796 88.7017Z" fill="#FFBC79"/>
<path d="M137.463 105.916C134.786 98.128 133.569 94.0157 131.079 86.0095C128.982 79.2771 128.176 70.1427 126.791 74.073C125.724 77.0572 122.035 95.526 120.481 104.224C120.069 106.516 119.882 106.516 119.863 106.989C119.751 109.3 120.781 110.465 122.953 112.375C126.192 115.232 130.067 115.287 133.756 113.849C137.594 112.357 139.204 110.992 137.463 105.916Z" fill="#CF5025"/>
<path d="M136.658 103.568C134.13 96.3439 133.344 92.5046 131.004 85.0625C129.019 78.8213 128.27 70.3602 126.941 73.9812C125.668 77.4748 119.976 103.95 119.863 106.097C119.751 108.244 120.631 107.68 122.672 108.28C123.608 108.553 132.932 109.627 134.804 110.118C139.523 111.319 138.306 108.28 136.658 103.568Z" fill="#FF9B54"/>
<path d="M104.772 74.709C91.8159 74.709 91.8159 81.9873 104.772 81.9873C117.729 81.9873 117.729 74.709 104.772 74.709Z" fill="white"/>
<path d="M101.421 75.4199C96.5904 75.4199 96.5904 82.6983 101.421 82.6983C106.252 82.6983 106.252 75.4199 101.421 75.4199Z" fill="#262626"/>
<path d="M105.353 78.1305C123.533 78.6036 109.584 73.8362 104.81 74.5277C100.017 75.2191 83.8024 77.5664 105.353 78.1305Z" fill="#262626"/>
<path d="M147.723 79.2949C135.123 79.2949 135.123 86.5733 147.723 86.5733C160.324 86.5733 160.324 79.2949 147.723 79.2949Z" fill="white"/>
<path d="M148.641 82.2242C166.802 82.6973 152.872 77.93 148.098 78.6214C143.305 79.3129 127.09 81.6601 148.641 82.2242Z" fill="#262626"/>
<path d="M144.728 79.6602C139.897 79.6602 139.897 86.9385 144.728 86.9385C149.558 86.9385 149.558 79.6602 144.728 79.6602Z" fill="#262626"/>
<path d="M95.8789 118.034C103.349 126.458 107.787 136.976 117.879 137.267C122.709 137.412 128.907 138.668 133.325 136.048C138.718 132.863 141.994 129.188 145.664 123.547C145.963 123.074 133.981 128.915 122.428 127.714C109.06 126.349 95.804 117.961 95.8789 118.034Z" fill="#FFBC79"/>
<path d="M148.959 120.236C148.959 120.236 139.598 135.83 121.923 134.393C104.248 132.955 94.4372 115.942 92.5087 113.377C90.5802 110.811 91.5538 109.701 94.1564 111.612C105.652 120.073 131.172 125.259 145.795 119.836C152.255 117.453 148.959 120.236 148.959 120.236Z" fill="#262626"/>
<path d="M141.564 121.746C138.193 122.711 132.67 122.765 132.67 122.765C122.11 122.929 109.846 120.309 100.859 116.215C100.747 116.743 101.44 118.617 101.103 119.017C100.672 119.545 98.7062 119.436 98.1257 119.654C102.825 124.985 110.989 131.154 121.96 132.045C122.934 132.118 123.87 132.154 124.788 132.136C134.318 131.972 141.133 127.296 143.267 125.659C143.061 125.422 141.077 124.876 140.964 124.603C140.833 124.33 141.62 122.074 141.564 121.746Z" fill="white"/>
<path d="M161.56 70.0502C158.396 69.5771 153.865 69.2131 150.682 68.9038C148.809 68.7219 142.369 68.831 138.699 65.6104C136.284 63.4814 134.224 68.1214 137.145 70.2321C139.073 71.6332 141.133 72.5612 143.567 72.5248C144.69 72.5066 157.853 71.6878 161.635 71.3057C162.403 71.2147 162.234 70.1593 161.56 70.0502Z" fill="#664228"/>
<path d="M116.025 62.5708C108.891 59.5503 94.6993 58.2765 90.1308 65.5367C88.2398 68.539 90.1121 68.3389 92.6585 65.8824C97.9946 60.733 108.049 64.8635 114.078 66.9378C115.07 67.2835 117.86 66.8286 118.665 65.4821C119.358 64.263 117.748 63.2986 116.025 62.5708Z" fill="#664228"/>
<path d="M256.88 639.528C256.88 637.399 237.052 635.652 212.581 635.652C188.11 635.652 168.282 637.381 168.282 639.528C168.282 640.056 168.282 642.567 168.282 643.404C168.282 646.734 188.11 649.427 212.581 649.427C237.052 649.427 256.88 646.734 256.88 643.404C256.88 642.567 256.88 640.074 256.88 639.528Z" fill="white"/>
<path d="M246.245 629.812C242.051 630.558 207.245 619.422 202.451 617.439C197.752 615.51 193.258 612.708 188.409 611.288C182.474 609.541 174.947 614.982 171.82 620.168C169.162 624.571 166.952 632.159 168.937 637.254C169.873 639.674 172.251 640.202 174.423 640.693C179.179 641.766 183.691 641.785 188.503 642.076C199.699 642.731 250.008 644.842 256.711 639.219C258.921 637.345 256.88 627.956 246.245 629.812Z" fill="#E62E2E"/>
<path d="M241.209 642.422C248.791 641.876 254.708 640.893 256.711 639.219C258.846 637.436 256.992 628.648 247.312 629.703C247.312 629.703 247.294 629.703 247.294 629.721C244.972 631.541 243.98 635.125 242.95 637.727C242.482 638.91 241.658 640.675 241.209 642.422Z" fill="#9A1F1F"/>
<path d="M221.905 630.92C221.942 630.556 221.867 630.193 221.68 629.92C222.261 629.137 222.691 628.045 223.028 627.481C223.534 626.644 224.17 625.662 224.62 624.679C223.946 624.479 223.253 624.279 222.579 624.061C222.055 625.134 221.53 626.208 220.987 627.281C220.894 627.463 220.295 628.573 220.033 629.501C219.284 629.719 218.572 630.284 218.179 630.92C217.692 631.685 218.104 632.958 219.078 633.122C219.49 633.195 219.883 633.195 220.239 633.104C220.613 633.122 220.987 633.031 221.324 632.685C221.811 632.212 221.905 631.466 221.924 630.829C221.924 630.848 221.905 630.884 221.905 630.92Z" fill="white"/>
<path d="M217.187 622.387C216.494 622.169 215.82 621.95 215.146 621.75C214.491 622.678 213.966 623.715 213.461 624.68C212.974 625.626 211.832 627.063 211.701 628.282C211.495 628.337 211.289 628.428 211.12 628.555C210.858 628.664 210.671 628.828 210.577 629.047C210.521 629.119 210.446 629.192 210.39 629.265C210.184 629.538 210.147 629.829 210.184 630.084C210.034 630.448 210.222 630.939 210.484 631.194C210.69 631.394 210.896 631.539 211.139 631.703C211.776 632.122 212.506 631.758 212.918 631.248C213.18 630.921 213.199 630.448 213.423 630.138C213.873 629.52 213.611 628.883 213.105 628.519C213.704 627.9 214.116 626.918 214.472 626.299C215.239 624.934 215.988 623.424 217.187 622.387Z" fill="white"/>
<path d="M204.998 627.281C204.979 627.227 204.942 627.172 204.923 627.117C206.44 625.716 207.675 623.951 209.061 622.441C209.697 621.75 210.39 621.076 211.083 620.421C210.371 620.185 209.697 619.966 209.042 619.748C208.593 620.294 208.181 620.822 207.844 621.24C206.571 622.732 205.11 624.406 204.23 626.208C203.743 625.953 203.144 626.007 202.676 626.408C202.583 626.481 202.526 626.553 202.489 626.644V626.663C202.47 626.717 202.433 626.772 202.414 626.826C202.377 626.881 202.377 626.954 202.358 627.008C202.339 627.099 202.283 627.172 202.264 627.245C201.834 629.537 205.447 629.483 204.998 627.281Z" fill="white"/>
<path d="M241.34 629.175C240.74 629.048 240.085 628.902 239.411 628.738C238.269 629.921 237.127 631.213 236.322 632.614C235.854 632.323 235.255 632.359 234.749 632.723C234.655 632.796 234.599 632.869 234.543 632.942V632.96C234.506 633.014 234.487 633.051 234.449 633.123C234.412 633.178 234.412 633.251 234.393 633.305C234.356 633.378 234.3 633.451 234.281 633.542C233.738 635.78 237.333 635.944 237.033 633.706C237.033 633.651 236.996 633.597 236.977 633.542C238.531 632.25 239.879 630.576 241.34 629.175Z" fill="white"/>
<path d="M232.933 627.063C232.315 626.899 231.697 626.717 231.079 626.535C230.817 627.026 230.592 627.463 230.443 627.7C229.769 628.828 229.113 630.011 228.57 631.212C227.99 631.084 227.26 631.339 226.941 631.812C226.53 632.23 226.305 632.74 226.548 633.377C226.623 633.559 226.735 633.723 226.867 633.85C226.96 634.014 227.11 634.159 227.297 634.232C227.428 634.287 227.578 634.341 227.709 634.396C228.158 634.578 228.832 634.56 229.132 634.123C229.338 633.832 229.525 633.559 229.712 633.268C229.937 632.94 229.881 632.34 229.619 632.049C229.6 632.012 229.563 631.994 229.544 631.958C230.33 630.775 231.117 629.592 231.884 628.391C232.072 628.173 232.521 627.645 232.933 627.063Z" fill="white"/>
<path d="M162.721 335.912C148.304 337.022 132.258 342.317 115.838 341.225C96.7588 339.952 78.8033 337.204 62.9072 333.383C62.4017 380.001 72.4748 413.226 78.0169 458.862C79.8518 473.946 81.462 487.466 82.5666 497.855C84.3453 514.778 87.0602 548.949 89.3819 579.227C90.1121 588.689 88.6517 606.849 88.7079 609.014C88.8202 612.926 90.6925 613.399 90.9359 616.747C91.0857 618.676 89.2883 621.314 89.4193 623.043C89.5317 624.699 92.4338 625.736 91.5351 626.846C90.5802 628.011 85.45 631.995 89.6627 635.689C93.3325 638.928 113.554 635.234 113.554 635.234C113.554 635.234 132.951 636.49 135.947 632.832C137.819 630.558 134.018 625.718 131.341 624.99C129.918 624.608 133.718 623.844 133.438 622.188C133.138 620.405 130.854 616.129 130.517 614.109C128.757 603.61 125.63 590.745 123.496 576.48C119.152 547.439 115.07 515.069 115.445 497.637C115.688 486.301 113.628 475.638 112.823 458.389C111.737 435.189 111.157 410.461 111.045 394.721C111.026 391.118 113.61 386.224 118.815 383.349C122.653 381.22 126.604 395.704 127.989 399.579C137.126 424.89 149.296 478.167 153.49 505.116C157.235 529.207 163.133 589.199 166.016 619.44C166.241 621.842 163.882 624.808 164.069 626.791C164.294 629.266 166.802 630.431 166.69 631.941C166.503 634.798 166.222 636.271 167.701 637.472C171.521 640.602 180.414 634.252 184.589 631.868C189.027 629.339 195.786 615.674 206.196 618.767C208.331 619.404 209.997 616.947 208.536 613.29C208.05 612.053 204.343 611.743 204.024 609.924C203.762 608.395 204.623 606.43 204.324 604.738C203.874 602.3 202.208 600.043 201.684 597.296C195.73 566.199 185.376 517.07 181.369 492.36C175.19 454.331 161.822 392.374 162.721 335.912Z" fill="#2E6666"/>
<path d="M162.721 335.912C148.304 337.022 132.258 342.317 115.838 341.225C96.7588 339.952 78.8033 337.204 62.9072 333.383C62.4017 380.001 72.4748 413.226 78.0169 458.862C79.8518 473.946 81.462 487.466 82.5666 497.855C84.3453 514.778 87.0602 548.949 89.3819 579.227C90.1121 588.689 88.6517 606.849 88.7079 609.014C88.8202 612.926 90.6925 613.399 90.9359 616.747C91.0857 618.676 89.2883 621.314 89.4193 623.043C89.5317 624.699 92.4338 625.736 91.5351 626.846C90.5802 628.011 85.45 631.995 89.6627 635.689C93.3325 638.928 113.554 635.234 113.554 635.234C113.554 635.234 132.951 636.49 135.947 632.832C137.819 630.558 134.018 625.718 131.341 624.99C129.918 624.608 133.718 623.844 133.438 622.188C133.138 620.405 130.854 616.129 130.517 614.109C128.757 603.61 125.63 590.745 123.496 576.48C119.152 547.439 115.07 515.069 115.445 497.637C115.688 486.301 113.628 475.638 112.823 458.389C111.737 435.189 111.157 410.461 111.045 394.721C111.026 391.118 113.61 386.224 118.815 383.349C122.653 381.22 126.604 395.704 127.989 399.579C137.126 424.89 149.296 478.167 153.49 505.116C157.235 529.207 163.133 589.199 166.016 619.44C166.241 621.842 163.882 624.808 164.069 626.791C164.294 629.266 166.802 630.431 166.69 631.941C166.503 634.798 166.222 636.271 167.701 637.472C171.521 640.602 180.414 634.252 184.589 631.868C189.027 629.339 195.786 615.674 206.196 618.767C208.331 619.404 209.997 616.947 208.536 613.29C208.05 612.053 204.343 611.743 204.024 609.924C203.762 608.395 204.623 606.43 204.324 604.738C203.874 602.3 202.208 600.043 201.684 597.296C195.73 566.199 185.376 517.07 181.369 492.36C175.19 454.331 161.822 392.374 162.721 335.912Z" fill="#2E6666"/>
<path d="M162.721 335.912C148.304 337.022 132.258 342.317 115.838 341.225C96.7588 339.952 78.8033 337.204 62.9072 333.383C62.4017 380.001 72.4748 413.226 78.0169 458.862C79.8518 473.946 81.462 487.466 82.5666 497.855C84.3453 514.778 87.0602 548.949 89.3819 579.227C90.1121 588.689 88.6517 606.849 88.7079 609.014C88.8202 612.926 90.6925 613.399 90.9359 616.747C91.0857 618.676 89.2883 621.314 89.4193 623.043C89.5317 624.699 92.4338 625.736 91.5351 626.846C90.5802 628.011 85.45 631.995 89.6627 635.689C93.3325 638.928 113.554 635.234 113.554 635.234C113.554 635.234 132.951 636.49 135.947 632.832C137.819 630.558 134.018 625.718 131.341 624.99C129.918 624.608 133.718 623.844 133.438 622.188C133.138 620.405 130.854 616.129 130.517 614.109C128.757 603.61 125.63 590.745 123.496 576.48C119.152 547.439 115.07 515.069 115.445 497.637C115.688 486.301 113.628 475.638 112.823 458.389C111.737 435.189 111.157 410.461 111.045 394.721C111.026 391.118 113.61 386.224 118.815 383.349C122.653 381.22 126.604 395.704 127.989 399.579C137.126 424.89 149.296 478.167 153.49 505.116C157.235 529.207 163.133 589.199 166.016 619.44C166.241 621.842 163.882 624.808 164.069 626.791C164.294 629.266 166.802 630.431 166.69 631.941C166.503 634.798 166.222 636.271 167.701 637.472C171.521 640.602 180.414 634.252 184.589 631.868C189.027 629.339 195.786 615.674 206.196 618.767C208.331 619.404 209.997 616.947 208.536 613.29C208.05 612.053 204.343 611.743 204.024 609.924C203.762 608.395 204.623 606.43 204.324 604.738C203.874 602.3 202.208 600.043 201.684 597.296C195.73 566.199 185.376 517.07 181.369 492.36C175.19 454.331 161.822 392.374 162.721 335.912Z" fill="#404040"/>
<path opacity="0.5" d="M206.177 618.805C208.312 619.441 209.978 616.985 208.518 613.328C208.031 612.09 204.324 611.781 204.006 609.961C203.743 608.433 204.605 606.468 204.305 604.776C203.856 602.337 202.189 600.081 201.665 597.333C195.711 566.237 185.357 517.108 181.35 492.398C180.171 485.174 178.748 477.095 177.213 468.361C179.122 479.206 181.294 500.277 173.655 497.547C168.862 495.837 162.833 476.495 160.474 472.237C154.67 461.774 142.406 420.051 139.485 408.096C132.913 381.112 114.377 349.032 127.409 397.925C127.634 398.58 127.821 399.162 127.971 399.599C137.107 424.909 149.278 478.187 153.472 505.135C157.216 529.226 163.114 589.218 165.997 619.46C166.222 621.862 163.863 624.827 164.05 626.811C164.275 629.285 166.784 630.45 166.671 631.96C166.484 634.817 166.203 636.291 167.682 637.492C171.502 640.621 180.396 634.271 184.571 631.887C189.027 629.358 195.786 615.693 206.177 618.805Z" fill="#262626"/>
<path opacity="0.5" d="M131.303 624.993C129.88 624.61 133.681 623.846 133.4 622.19C133.101 620.407 130.816 616.131 130.479 614.112C128.719 603.612 125.593 590.748 123.458 576.482C119.114 547.442 115.033 515.071 115.407 497.64C115.651 486.304 113.591 475.641 112.786 458.391C111.775 436.647 111.194 413.556 111.045 397.799C109.097 402.33 108.274 407.825 107.88 411.227C106.551 422.582 107.731 433.99 108.592 445.326C109.397 455.935 109.659 466.525 110.614 477.115C110.577 477.897 110.558 478.698 110.502 479.48C110.052 486.522 108.929 496.857 101.814 500.715C97.1333 503.244 93.4449 496.839 91.7411 493.655C85.862 482.701 83.5965 469.582 81.3684 457.536C80.3199 451.859 79.1216 446.273 77.8297 440.632C76.4067 434.409 74.965 427.895 72.4749 421.908C74.4595 433.608 76.4442 445.709 78.0357 458.864C79.8705 473.949 81.4807 487.468 82.5854 497.858C84.3641 514.78 87.079 548.952 89.4007 579.23C90.1309 588.692 88.6704 606.851 88.7266 609.017C88.839 612.929 90.7113 613.402 90.9547 616.75C91.1045 618.679 89.307 621.317 89.4381 623.046C89.5504 624.702 92.4525 625.739 91.5538 626.849C90.5989 628.013 85.4688 631.998 89.6815 635.692C93.3513 638.931 113.572 635.237 113.572 635.237C113.572 635.237 132.97 636.492 135.965 632.835C137.781 630.561 133.981 625.72 131.303 624.993Z" fill="#262626"/>
<path d="M111.138 609.559C111.382 609.559 111.438 609.122 111.194 609.05C105.035 607.412 94.7929 606.156 89.3445 612.088C89.9062 613.489 90.6738 614.454 90.8985 616.383C94.5121 609.177 105.652 609.504 111.138 609.559Z" fill="#262626"/>
<path d="M124.02 611.398C126.866 613.381 130.536 615.783 132.483 619.477C131.696 617.584 130.704 615.383 130.479 614.109C130.33 613.181 130.142 612.198 129.974 611.234C128.944 610.597 127.896 610.069 126.903 609.615C122.634 607.704 118.291 605.903 113.834 604.793C113.385 604.683 113.142 605.557 113.591 605.812C117.036 607.704 120.687 609.087 124.02 611.398Z" fill="#262626"/>
<path d="M184.646 613.565C184.384 613.692 184.533 614.038 184.814 613.965C190.843 612.382 203.032 608.979 208.668 613.765C208.611 613.619 208.593 613.474 208.537 613.328C208.05 612.091 204.343 611.782 204.024 609.962C203.949 609.544 203.968 609.089 204.024 608.634C197.359 608.288 189.626 611.181 184.646 613.565Z" fill="#262626"/>
<path d="M165.979 620.114C167.963 617.166 171.502 614.946 174.292 613.09C177.849 610.725 181.875 609.105 185.601 607.049C186.069 606.795 185.713 606.085 185.207 606.23C180.283 607.741 175.509 609.797 170.847 611.962C169.105 612.763 167.252 613.782 165.567 615.001C165.716 616.547 165.866 618.058 165.997 619.477C166.016 619.659 165.997 619.896 165.979 620.114Z" fill="#262626"/>
<path d="M186.481 619.551C181.556 621.061 176.782 623.117 172.12 625.282C169.836 626.338 167.383 627.739 165.323 629.504C166.035 630.395 166.746 631.123 166.709 631.96C166.634 633.034 166.559 633.907 166.559 634.635C168.3 631.087 172.419 628.503 175.565 626.411C179.122 624.045 183.148 622.426 186.874 620.37C187.323 620.115 186.967 619.405 186.481 619.551Z" fill="#262626"/>
<path d="M137.613 642.092C137.613 639.964 125.405 638.217 110.352 638.217C95.2985 638.217 83.0909 639.945 83.0909 642.092C83.0909 642.62 83.0909 645.131 83.0909 645.968C83.0909 649.298 95.2985 651.991 110.352 651.991C125.405 651.991 137.613 649.298 137.613 645.968C137.613 645.113 137.613 642.62 137.613 642.092Z" fill="white"/>
<path d="M83.5965 641.638C83.5965 641.656 83.5965 641.675 83.5965 641.693C83.4093 641.966 83.4654 642.402 83.8586 642.493C91.3666 643.967 99.3427 644.932 107.019 644.368C115.351 644.877 137.444 643.112 137.613 642.093C138.624 635.361 137.613 625.226 110.352 627.045C90.6926 628.355 84.9258 636.052 83.5965 641.638Z" fill="#E62E2E"/>
<path d="M118.066 630.046C102.095 628.027 91.3105 632.685 87.2101 642.31C87.2663 642.383 87.3411 642.456 87.4535 642.474C94.3998 643.948 101.777 644.912 108.873 644.348C114.115 644.694 125.237 643.984 131.865 643.184C130.723 635.068 127.278 631.211 118.066 630.046Z" fill="#9A1F1F"/>
<path d="M133.007 623.244C126.922 621.206 119.133 621.515 113.872 622.189C113.572 622.225 113.61 622.607 113.891 622.625C119.489 622.971 130.255 623.462 135.142 628.084C134.093 626.592 132.558 625.318 131.285 624.973C130.236 624.7 132.127 624.19 133.007 623.244Z" fill="#404040"/>
<path d="M90.8049 627.574C93.2577 625.645 96.4593 624.335 99.0806 623.207C103.031 621.515 107.281 620.623 111.344 619.277C111.85 619.113 111.644 618.349 111.12 618.403C105.989 619.004 100.915 620.205 95.9163 621.478C93.8942 622.006 91.7036 622.752 89.6815 623.771C90.393 625.008 92.284 625.882 91.5164 626.828C91.3666 627.01 91.1045 627.265 90.8049 627.574Z" fill="#404040"/>
<path d="M84.7573 352.561C80.8254 349.176 76.725 343.936 71.0332 342.771C70.1532 342.589 69.2545 342.589 68.3932 342.698C68.3183 342.662 68.2621 342.644 68.1872 342.607C57.721 338.04 53.2087 313.985 45.0641 298.901C41.3943 292.114 32.4633 283.125 26.7902 277.812C22.9519 274.227 16.2865 268.568 10.0703 271.37C2.52489 274.773 3.70445 285.454 5.68911 291.004C9.37759 301.376 12.6729 299.647 19.7877 312.893C23.6821 320.154 53.7704 346.556 55.4929 355.272C55.1559 356.272 54.9125 357.237 54.8189 358.11C54.3882 362.313 59.3499 369.155 60.9414 372.248C63.1881 376.561 65.4162 378.617 68.8613 380.182C72.4561 377.707 76.051 375.524 78.691 373.613C83.896 369.865 87.5845 364.843 92.3589 360.84C90.3181 357.601 87.6594 355.053 84.7573 352.561Z" fill="#FFBC79"/>
<path d="M44.8768 174.185C38.642 180.609 26.1536 218.183 22.2404 228.573C18.3273 238.963 7.97331 257.814 5.55801 263.036C-1.40703 278.047 -3.03595 283.743 7.78608 297.462C21.2106 314.476 47.3483 358.783 48.2657 360.511C49.1831 362.24 69.554 341.315 67.794 337.967C66.6519 335.819 41.9185 291.294 37.9866 285.271C37.3875 284.343 39.0726 280.377 38.5671 279.576C37.2752 277.52 34.1484 279.103 34.0548 278.63C33.9237 277.866 38.6607 277.083 39.0913 275.627C39.4658 274.354 36.5449 273.844 37.2377 272.188C38.0428 270.278 39.3347 272.825 39.9713 270.442C43.5474 257.104 53.0963 239.618 55.0997 236.706C61.0911 228.045 59.1439 210.559 56.5788 197.622C51.1678 170.128 44.8768 174.185 44.8768 174.185Z" fill="white"/>
<path d="M36.0207 270.441C32.7628 267.82 27.408 267.02 23.7195 269.476C23.6821 269.494 23.6821 269.549 23.7382 269.567C25.2548 269.84 26.8276 269.422 28.3629 269.367C30.8343 269.294 32.8003 270.222 34.4105 272.005C35.4028 273.097 37.1628 271.35 36.0207 270.441ZM32.4445 277.683C30.7033 276.409 27.3893 276.991 25.311 276.973C22.5774 276.955 19.7502 277.3 17.4098 278.738C17.26 278.829 17.3536 279.084 17.5408 279.029C20.6489 278.046 23.6821 278.192 26.8463 278.865C28.5875 279.247 30.8156 280.121 32.4445 279.175C33.0624 278.811 32.9501 278.065 32.4445 277.683ZM14.4702 280.266C10.969 281.085 8.14178 284.051 5.93244 286.635C4.41586 288.418 7.87966 289.892 8.17923 287.545C8.59114 284.269 12.1486 282.304 14.5826 280.539C14.7324 280.43 14.6387 280.212 14.4702 280.266ZM36.47 283.815C32.9126 284.124 30.0105 283.25 26.5654 282.541C26.3408 282.486 26.1535 282.65 26.3782 282.741C28.962 283.833 34.0922 285.507 37.0692 284.834C37.9492 284.652 37.4998 283.742 36.47 283.815Z" fill="#CCCCCC"/>
<path d="M69.1421 402.328C66.9327 392.902 62.3268 379.874 60.8664 376.526C59.4247 373.196 59.4247 372.887 62.8885 371.067C66.3523 369.248 84.2143 360.459 87.9589 350.142C89.0261 347.176 91.9844 350.743 93.1453 351.962C94.3061 353.199 88.6517 393.867 69.1421 402.328Z" fill="#404040"/>
<path d="M145.009 349.013C146.731 347.121 147.592 348.34 149.614 352.889C151.637 357.438 160.568 368.738 163.732 370.212C166.896 371.685 166.765 375.325 165.604 376.835C164.443 378.345 164.874 391.501 165.454 396.286C157.684 393.83 141.695 368.028 141.826 355C143.286 351.67 145.009 349.013 145.009 349.013Z" fill="#404040"/>
<path d="M93.2014 352.125C93.1827 352.07 93.164 352.016 93.1453 351.979C91.9844 350.76 89.0261 347.194 87.9589 350.16C84.2143 360.477 66.3523 369.265 62.8885 371.085C59.4247 372.905 59.4247 373.214 60.8664 376.544C60.9788 376.817 61.1285 377.181 61.2971 377.599C72.0442 373.596 86.1989 362.315 93.2014 352.125Z" fill="#666666"/>
<path d="M163.751 370.212C160.586 368.738 151.655 357.438 149.633 352.889C147.611 348.34 146.75 347.121 145.027 349.013C145.027 349.013 144.634 349.614 144.072 350.596C148.229 360.004 157.179 371.704 165.398 377.308C165.454 377.162 165.511 377.053 165.567 376.962C165.81 375.743 166.091 374.852 166.334 374.524C166.353 374.506 166.372 374.469 166.372 374.451C166.409 372.886 165.717 371.14 163.751 370.212Z" fill="#666666"/>
<path d="M123.233 347.849C123.233 349.632 121.754 372.959 120.481 375.67C115.838 375.67 114.677 372.031 114.415 368.792C114.097 364.898 115.838 351.069 116.268 347.084C116.68 343.136 123.233 347.849 123.233 347.849Z" fill="#666666"/>
<path d="M119.901 373.687C118.534 373.305 117.373 372.086 117.092 368.665C116.849 365.608 117.991 355.509 118.628 350.087C118.759 348.977 118.871 348.031 118.927 347.357C119.788 347.485 121.118 348.158 122.129 348.795C121.96 353.253 120.799 368.883 119.901 373.687Z" fill="#404040"/>
<path d="M185.039 257.36C182.811 240.874 182.099 224.316 178.954 207.94C177.175 198.732 177.587 186.523 168.263 181.137C167.645 180.773 166.971 181.082 166.634 181.592C160.923 181.137 159.706 192.455 159.426 196.167C158.414 209.887 157.628 223.988 157.329 237.744C157.16 245.805 154.988 255.631 158.826 263.164C162.889 271.17 177.325 261.636 182.567 260.489C183.878 260.216 185.226 258.724 185.039 257.36Z" fill="#107995"/>
<path d="M161.616 178.154C152.535 175.351 146.207 174.806 137.051 171.621C137.051 171.967 137.051 172.295 136.995 172.64C135.89 180.665 123.252 185.65 108.779 183.758C95.5044 182.029 85.3377 175.133 84.5701 167.818C77.3616 169.784 69.0672 169.456 60.3609 170.548C37.0505 173.441 43.3603 173.932 47.9849 209.669C48.6402 214.782 53.6768 235.744 59.9116 257.742C59.5558 261.836 59.6495 265.749 61.2035 269.697C62.3082 272.517 63.469 275.702 65.1541 278.431C65.5847 281.324 65.8281 284.199 65.9592 287.02C65.36 288.621 64.1056 290.349 64.1243 292.023C64.1618 294.516 64.6298 297.846 65.6971 300.812C65.5098 303.25 65.2477 305.616 64.9481 307.872C63.7311 309.164 62.6452 310.565 61.8962 311.639C59.8929 314.514 60.0426 317.607 62.1771 319.972C61.2971 321.228 60.7541 322.702 60.6418 324.248C60.5482 325.54 60.9975 326.778 61.3345 328.015C61.3345 328.033 61.3346 328.051 61.3533 328.07C61.166 329.216 61.035 330.162 61.035 330.817C61.0163 348.34 163.488 354.162 164.275 337.459C164.312 336.858 164.331 336.148 164.368 335.366C165.286 334.438 166.072 333.437 166.428 332.164C166.952 330.271 166.035 328.051 165.061 326.104C165.398 325.213 165.567 324.194 165.866 323.375C166.316 322.138 166.99 320.882 166.896 319.554C166.821 318.389 166.128 317.261 165.155 316.315C166.465 311.457 167.514 307.326 166.316 302.195C166.072 301.121 165.735 300.048 165.38 298.992C165.941 279.359 166.784 256.36 168.151 238.71C169.087 226.809 170.36 214.837 170.36 212.944C170.341 183.922 175.565 182.448 161.616 178.154Z" fill="#22A1C3"/>
<path d="M96.2907 352.724C95.5231 352.797 94.6993 352.578 93.9316 352.56C93.9129 352.56 92.3401 352.433 89.9061 351.978C87.678 351.559 80.7879 348.848 78.3164 346.628C78.1854 346.556 78.0543 347.247 77.9607 348.211C78.3539 348.703 78.7096 349.23 79.0654 349.867C79.6458 350.941 79.7768 351.832 79.833 352.779C80.1888 353.343 80.5258 353.925 80.8628 354.489C85.3938 356.509 91.7223 359.729 95.0176 358.292C95.7665 357.964 96.4405 356.909 96.8712 355.508C97.0771 354.725 96.6652 352.669 96.2907 352.724Z" fill="#FFBC79"/>
<path d="M62.8324 207.995C61.2596 197.296 56.2418 182.102 48.7712 173.805C47.8538 172.786 46.6742 172.877 45.8129 173.495C39.3534 175.06 36.7884 185.705 35.0845 190.745C30.2165 205.211 17.8779 224.517 14.6201 239.528C14.3767 240.62 15.1818 241.275 16.0805 242.039C21.5476 246.679 36.545 253.157 46.7491 256.541C54.6878 259.162 52.8903 258.579 55.2869 253.193C57.0094 249.318 63.0009 235.744 63.8996 231.977C65.6034 224.862 63.9932 215.91 62.8324 207.995Z" fill="#107995"/>
<path d="M151.431 143.49C153.677 137.103 154.127 130.298 154.183 123.511C151.187 130.789 150.719 135.866 142.481 139.542C138.811 141.179 127.671 145.437 129.749 137.012C129.843 136.594 129.337 133.846 125.948 134.702C124.151 135.156 123.87 135.211 122.016 134.92C120.331 133.992 117.616 135.429 118.403 137.576C121.473 145.874 98.2005 137.267 94.849 134.665C88.2585 129.534 84.9819 124.93 82.4917 117.379C79.8705 109.482 75.6016 100.73 71.7633 88.6113C73.2986 99.7654 75.9573 111.229 79.2339 123.693C85.3564 146.966 99.3239 147.748 111.831 150.204C124.731 152.697 147.948 153.334 151.431 143.49Z" fill="#7A4E4E"/>
<path d="M139.485 241.55L115.688 224.266L91.9136 241.55L100.991 269.509H130.385L139.485 241.55Z" fill="#262626"/>
<path d="M101.767 268.429L93.1599 241.951L115.688 225.584L138.216 241.951L129.609 268.429H101.767Z" fill="#FF4D4D"/>
<path d="M115.688 217V224.266L139.485 241.55L146.399 239.293L134.665 223.161L115.688 217Z" fill="#262626"/>
<path d="M116.769 223.723V218.455L134.006 224.075L144.659 238.749L139.65 240.372L116.769 223.723Z" fill="#9A1F1F"/>
<path d="M96.7107 223.161L85 239.293L91.9135 241.55L115.688 224.266V217L96.7107 223.161Z" fill="#262626"/>
<path d="M86.7167 238.725L97.3692 224.075L114.63 218.455V223.723L91.7255 240.372L86.7167 238.725Z" fill="#E62E2E"/>
<path d="M85 259.775V239.293L91.9135 241.55L100.991 269.51L96.7107 275.389L85 259.775Z" fill="#262626"/>
<path d="M86.0582 259.421V240.773L91.067 242.396L99.8148 269.321L96.7107 273.601L86.0582 259.421Z" fill="#E62E2E"/>
<path d="M130.385 269.51L134.665 275.389L115.688 281.55L96.7107 275.389L100.991 269.51H130.385Z" fill="#262626"/>
<path d="M98.4508 274.823L101.531 270.566H129.844L132.948 274.823L115.688 280.419L98.4508 274.823Z" fill="#9A1F1F"/>
<path d="M139.485 241.55L146.399 239.293V259.258L134.665 275.389L130.385 269.51L139.485 241.55Z" fill="#262626"/>
<path d="M131.561 269.321L140.308 242.396L145.341 240.773V258.904L134.665 273.578L131.561 269.321Z" fill="#9A1F1F"/>
<path d="M112.301 249.261C111.925 247.145 112.113 244.488 111.032 242.583C110.938 242.348 110.797 242.136 110.608 241.948L110.585 241.924C110.491 241.83 110.397 241.76 110.303 241.736C109.809 241.478 109.221 241.478 108.774 241.995C107.669 243.288 107.105 244.723 106.47 246.251C106.117 247.121 107.481 247.921 108.069 247.192C108.257 246.957 108.421 246.722 108.61 246.51C108.633 247.262 108.68 248.015 108.633 248.72C108.492 251.636 108.492 254.646 108.962 257.539C109.221 259.138 111.714 259.02 112.066 257.539C112.678 254.928 112.772 251.871 112.301 249.261Z" fill="white"/>
<path d="M125.988 256.672C125.423 255.826 124.271 256.131 123.377 256.108C122.625 256.084 121.778 256.061 120.955 255.967C123.801 251.616 126.411 243.903 122.154 240.917C118.18 238.095 113.266 246.796 117.898 247.431C118.345 247.501 118.674 247.196 118.604 246.725C118.392 245.408 117.945 244.632 119.027 243.527C119.521 243.033 120.226 242.798 120.908 242.728C122.131 242.587 122.037 244.75 122.037 245.432C122.06 249.194 119.991 253.357 117.381 255.967C116.511 256.837 117.122 258.013 117.992 258.342C118.298 258.624 118.721 258.742 119.239 258.506C120.203 258.107 121.449 258.365 122.484 258.412C123.471 258.459 124.412 258.389 125.353 258.06C125.776 257.919 126.082 257.566 126.082 257.096C126.082 256.954 126.082 256.79 125.988 256.672Z" fill="white"/>
<path d="M101.484 226.36C99.8148 225.231 98.1687 227.159 98.8507 228.546C98.6625 228.476 98.4744 228.452 98.2863 228.499C98.1452 228.523 98.0041 228.57 97.863 228.641C97.816 228.664 97.7689 228.711 97.7454 228.735C97.4632 228.805 97.2046 229.04 97.1575 229.322C97.0635 229.816 97.1575 230.122 97.5103 230.475C98.0041 230.969 98.8271 230.851 99.1799 230.263C99.415 229.863 99.4385 229.581 99.368 229.158C99.415 229.205 99.4621 229.252 99.5091 229.299C101.39 230.381 103.225 227.559 101.484 226.36Z" fill="white"/>
<path d="M89.0682 251.708C89.0917 251.755 89.0917 251.825 89.1152 251.872C89.3033 252.719 90.3851 252.531 90.6437 251.872L90.7143 251.708C91.2081 250.532 88.739 250.179 89.0682 251.708Z" fill="white"/>
<path d="M90.6436 253.568C89.6795 253.309 88.6683 254.226 88.974 255.237V255.261C88.927 256.131 89.9852 256.695 90.7142 256.248C91.0199 256.06 91.208 255.825 91.4432 255.543C91.984 254.838 91.3961 253.779 90.6436 253.568Z" fill="white"/>
<path d="M116.417 274.939C116.37 274.869 116.323 274.775 116.276 274.704C115.523 273.505 113.806 273.787 113.36 275.08L113.266 275.339C112.913 276.421 113.853 277.526 114.912 277.526C116.205 277.526 117.122 276.068 116.417 274.939Z" fill="white"/>
<path d="M141.226 256.859C141.131 256.788 141.014 256.741 140.92 256.671C140.732 256.483 140.567 256.412 140.379 256.365C140.449 256.083 140.449 255.754 140.285 255.495C140.261 255.472 140.261 255.425 140.238 255.401C139.979 254.978 139.556 254.86 139.109 254.954C139.062 254.954 139.039 254.954 138.992 254.978C138.239 255.095 137.98 256.059 138.31 256.671C138.427 256.882 138.404 257.118 138.521 257.306C138.615 257.47 138.78 257.517 138.945 257.47C139.015 257.447 139.086 257.423 139.156 257.376C139.109 257.8 139.297 258.223 139.885 258.435C140.45 258.623 141.014 258.529 141.39 258.058C141.696 257.682 141.696 257.141 141.226 256.859Z" fill="white"/>
<path d="M132.36 227.771C132.572 227.606 132.642 227.395 132.525 227.16C132.501 227.089 132.454 227.042 132.431 226.972C132.219 226.525 131.561 226.854 131.655 227.301C131.678 227.371 131.678 227.442 131.702 227.512C131.702 227.512 131.702 227.512 131.702 227.536C131.514 227.371 131.278 227.254 130.949 227.254C130.691 227.254 130.479 227.348 130.314 227.442C130.291 227.418 130.291 227.395 130.267 227.395C130.291 227.277 130.314 227.136 130.314 226.948C130.314 226.619 129.938 226.501 129.726 226.689C129.421 226.948 129.397 227.042 129.256 227.442C129.256 227.465 129.256 227.465 129.256 227.489C129.139 227.606 129.045 227.724 128.997 227.912C128.927 228.288 128.95 228.571 128.974 228.947C128.997 229.441 129.28 229.746 129.703 229.911C130.126 230.076 130.479 230.029 130.855 229.77C130.879 229.77 130.879 229.746 130.879 229.723C130.902 229.723 130.926 229.746 130.973 229.746C132.102 229.746 132.407 228.524 131.96 227.795C132.031 227.818 132.102 227.865 132.172 227.865C132.219 227.842 132.29 227.818 132.36 227.771Z" fill="white"/>
<path d="M185.521 32.8502C177.562 36.0475 170.02 38.8068 163.382 41.391V79.7151C171.549 81.1167 181.28 80.3721 191.707 76.1674C218.433 65.3928 235.533 19.7105 235.012 17.6519C233.552 11.9581 212.247 22.0756 185.521 32.8502Z" fill="#A0C000"/>
<path d="M218.468 26.63C191.151 34.6452 171.167 65.1731 171.549 67.2754C172.244 71.0421 181.802 69.1588 195.287 65.6986C217.773 59.8734 230.876 31.0099 234.247 20.8047C229.312 22.469 224.029 24.9656 218.468 26.63Z" fill="#809900"/>
<path d="M55.5026 32.8492C63.4614 36.0465 71.0032 38.8059 77.6414 41.39V79.7141C69.474 81.1157 59.7427 80.3711 49.3162 76.1664C22.5897 65.3918 5.49027 19.7533 6.01159 17.6948C7.4713 11.9571 28.776 22.0747 55.5026 32.8492Z" fill="#A0C000"/>
<path d="M22.555 26.6288C49.8723 34.644 69.8564 65.1719 69.4741 67.2743C68.779 71.041 59.2214 69.1576 45.7365 65.6975C23.2501 59.8723 10.1475 31.0087 6.77625 20.7598C11.7114 22.4679 16.9942 24.9645 22.555 26.6288Z" fill="#809900"/>
<path d="M70.3776 68.8082C70.3776 78.1812 72.0111 82.6049 74.8958 90.6201L83.1327 95.0438C82.4723 90.6639 82.0205 86.1526 82.0205 81.5537C82.0205 71.4361 79.1358 58.6906 84.7314 52.9092C93.0726 44.3684 108.608 52.0332 120.494 52.0332C132.346 52.0332 147.916 44.3246 156.257 52.9092C161.853 58.6468 158.968 71.3923 158.968 81.5537C158.968 86.1526 158.516 90.6639 157.856 95.0438L166.093 90.6201C168.977 82.6487 170.611 78.1812 170.611 68.8082C170.611 63.6399 170.228 54.3545 170.541 53.9603C178.709 43.142 147.325 0 120.529 0C93.7329 0 62.3492 43.142 70.4819 53.9603C70.7599 54.3545 70.3776 63.6399 70.3776 68.8082Z" fill="#C7E62E"/>
<path d="M72.1501 68.8083C72.1501 78.1813 72.0111 82.605 74.9305 90.6202L83.1674 95.0439C82.5071 90.664 82.0553 86.1527 82.0553 81.5538C82.0553 71.4363 79.1706 58.6908 84.7662 52.9093C93.1073 44.3685 108.643 47.0402 120.529 47.0402C132.38 47.0402 147.951 44.3247 156.292 52.9093C161.887 58.647 159.003 71.3925 159.003 81.5538C159.003 86.1527 158.551 90.664 157.89 95.0439L166.127 90.6202C169.012 82.6488 168.908 78.1813 168.908 68.8083C168.908 63.6401 168.525 54.3547 168.838 53.9605C176.971 43.1859 147.325 4.42383 120.529 4.42383C93.7329 4.42383 64.087 43.1859 72.2196 53.9605C72.4977 54.3547 72.1501 63.6401 72.1501 68.8083Z" fill="#A0C000"/>
<path d="M78.128 32.5432C76.4945 33.7257 74.9305 34.8645 73.4361 35.9595C72.0111 38.5874 70.899 41.1278 70.2039 43.4491C73.1233 41.084 76.6683 38.4998 80.6303 35.6529C95.0884 25.3163 109.755 28.4698 116.775 35.2149C111.493 26.5427 94.6713 20.7174 78.128 32.5432Z" fill="#C7E62E"/>
<path d="M162.687 32.5421C164.32 33.7247 165.884 34.8197 167.379 35.9146C168.804 38.5426 169.881 41.0829 170.646 43.4043C167.726 41.0391 164.181 38.455 160.219 35.6081C145.761 25.2715 131.094 28.425 124.074 35.1701C129.357 26.5417 146.178 20.7164 162.687 32.5421Z" fill="#C7E62E"/>
</svg>
